%TF.GenerationSoftware,KiCad,Pcbnew,(6.0.4)*%
%TF.CreationDate,2022-10-27T08:14:30+02:00*%
%TF.ProjectId,projet_robot_ese,70726f6a-6574-45f7-926f-626f745f6573,rev?*%
%TF.SameCoordinates,Original*%
%TF.FileFunction,Soldermask,Top*%
%TF.FilePolarity,Negative*%
%FSLAX46Y46*%
G04 Gerber Fmt 4.6, Leading zero omitted, Abs format (unit mm)*
G04 Created by KiCad (PCBNEW (6.0.4)) date 2022-10-27 08:14:30*
%MOMM*%
%LPD*%
G01*
G04 APERTURE LIST*
G04 Aperture macros list*
%AMRoundRect*
0 Rectangle with rounded corners*
0 $1 Rounding radius*
0 $2 $3 $4 $5 $6 $7 $8 $9 X,Y pos of 4 corners*
0 Add a 4 corners polygon primitive as box body*
4,1,4,$2,$3,$4,$5,$6,$7,$8,$9,$2,$3,0*
0 Add four circle primitives for the rounded corners*
1,1,$1+$1,$2,$3*
1,1,$1+$1,$4,$5*
1,1,$1+$1,$6,$7*
1,1,$1+$1,$8,$9*
0 Add four rect primitives between the rounded corners*
20,1,$1+$1,$2,$3,$4,$5,0*
20,1,$1+$1,$4,$5,$6,$7,0*
20,1,$1+$1,$6,$7,$8,$9,0*
20,1,$1+$1,$8,$9,$2,$3,0*%
%AMFreePoly0*
4,1,6,1.000000,0.000000,0.500000,-0.750000,-0.500000,-0.750000,-0.500000,0.750000,0.500000,0.750000,1.000000,0.000000,1.000000,0.000000,$1*%
%AMFreePoly1*
4,1,6,0.500000,-0.750000,-0.650000,-0.750000,-0.150000,0.000000,-0.650000,0.750000,0.500000,0.750000,0.500000,-0.750000,0.500000,-0.750000,$1*%
G04 Aperture macros list end*
%ADD10C,0.150000*%
%ADD11RoundRect,0.150000X-0.825000X-0.150000X0.825000X-0.150000X0.825000X0.150000X-0.825000X0.150000X0*%
%ADD12RoundRect,0.237500X-0.287500X-0.237500X0.287500X-0.237500X0.287500X0.237500X-0.287500X0.237500X0*%
%ADD13C,2.000000*%
%ADD14R,1.300000X1.000000*%
%ADD15RoundRect,0.250000X-0.600000X-0.725000X0.600000X-0.725000X0.600000X0.725000X-0.600000X0.725000X0*%
%ADD16O,1.700000X1.950000*%
%ADD17R,1.700000X1.700000*%
%ADD18O,1.700000X1.700000*%
%ADD19RoundRect,0.237500X0.237500X-0.287500X0.237500X0.287500X-0.237500X0.287500X-0.237500X-0.287500X0*%
%ADD20RoundRect,0.237500X0.287500X0.237500X-0.287500X0.237500X-0.287500X-0.237500X0.287500X-0.237500X0*%
%ADD21RoundRect,0.237500X-0.250000X-0.237500X0.250000X-0.237500X0.250000X0.237500X-0.250000X0.237500X0*%
%ADD22RoundRect,0.237500X-0.237500X0.300000X-0.237500X-0.300000X0.237500X-0.300000X0.237500X0.300000X0*%
%ADD23RoundRect,0.237500X-0.300000X-0.237500X0.300000X-0.237500X0.300000X0.237500X-0.300000X0.237500X0*%
%ADD24RoundRect,0.237500X0.237500X-0.300000X0.237500X0.300000X-0.237500X0.300000X-0.237500X-0.300000X0*%
%ADD25RoundRect,0.237500X0.300000X0.237500X-0.300000X0.237500X-0.300000X-0.237500X0.300000X-0.237500X0*%
%ADD26R,1.600000X1.600000*%
%ADD27C,1.600000*%
%ADD28C,0.800000*%
%ADD29C,6.400000*%
%ADD30RoundRect,0.250000X0.600000X0.725000X-0.600000X0.725000X-0.600000X-0.725000X0.600000X-0.725000X0*%
%ADD31FreePoly0,180.000000*%
%ADD32FreePoly1,180.000000*%
%ADD33RoundRect,0.250000X0.725000X-0.600000X0.725000X0.600000X-0.725000X0.600000X-0.725000X-0.600000X0*%
%ADD34O,1.950000X1.700000*%
%ADD35FreePoly0,0.000000*%
%ADD36FreePoly1,0.000000*%
%ADD37RoundRect,0.250000X-0.600000X-0.750000X0.600000X-0.750000X0.600000X0.750000X-0.600000X0.750000X0*%
%ADD38O,1.700000X2.000000*%
%ADD39RoundRect,0.237500X0.237500X-0.250000X0.237500X0.250000X-0.237500X0.250000X-0.237500X-0.250000X0*%
%ADD40RoundRect,0.237500X0.250000X0.237500X-0.250000X0.237500X-0.250000X-0.237500X0.250000X-0.237500X0*%
%ADD41RoundRect,0.075000X0.700000X0.075000X-0.700000X0.075000X-0.700000X-0.075000X0.700000X-0.075000X0*%
%ADD42RoundRect,0.075000X0.075000X0.700000X-0.075000X0.700000X-0.075000X-0.700000X0.075000X-0.700000X0*%
%ADD43RoundRect,0.250001X-0.462499X-0.624999X0.462499X-0.624999X0.462499X0.624999X-0.462499X0.624999X0*%
%ADD44R,1.560000X0.650000*%
%ADD45RoundRect,0.237500X-0.237500X0.250000X-0.237500X-0.250000X0.237500X-0.250000X0.237500X0.250000X0*%
%ADD46C,3.400000*%
%ADD47R,1.000000X1.500000*%
%ADD48R,2.400000X0.740000*%
%ADD49R,2.000000X1.500000*%
%ADD50R,2.000000X3.800000*%
G04 APERTURE END LIST*
D10*
X200835714Y-108662380D02*
X200835714Y-107662380D01*
X201216666Y-107662380D01*
X201311904Y-107710000D01*
X201359523Y-107757619D01*
X201407142Y-107852857D01*
X201407142Y-107995714D01*
X201359523Y-108090952D01*
X201311904Y-108138571D01*
X201216666Y-108186190D01*
X200835714Y-108186190D01*
X202407142Y-108567142D02*
X202359523Y-108614761D01*
X202216666Y-108662380D01*
X202121428Y-108662380D01*
X201978571Y-108614761D01*
X201883333Y-108519523D01*
X201835714Y-108424285D01*
X201788095Y-108233809D01*
X201788095Y-108090952D01*
X201835714Y-107900476D01*
X201883333Y-107805238D01*
X201978571Y-107710000D01*
X202121428Y-107662380D01*
X202216666Y-107662380D01*
X202359523Y-107710000D01*
X202407142Y-107757619D01*
X203359523Y-108662380D02*
X202788095Y-108662380D01*
X203073809Y-108662380D02*
X203073809Y-107662380D01*
X202978571Y-107805238D01*
X202883333Y-107900476D01*
X202788095Y-107948095D01*
X204216666Y-107995714D02*
X204216666Y-108662380D01*
X203978571Y-107614761D02*
X203740476Y-108329047D01*
X204359523Y-108329047D01*
X127285714Y-112452380D02*
X126714285Y-112452380D01*
X127000000Y-112452380D02*
X127000000Y-111452380D01*
X126904761Y-111595238D01*
X126809523Y-111690476D01*
X126714285Y-111738095D01*
X200835714Y-116412380D02*
X200835714Y-115412380D01*
X201216666Y-115412380D01*
X201311904Y-115460000D01*
X201359523Y-115507619D01*
X201407142Y-115602857D01*
X201407142Y-115745714D01*
X201359523Y-115840952D01*
X201311904Y-115888571D01*
X201216666Y-115936190D01*
X200835714Y-115936190D01*
X202407142Y-116317142D02*
X202359523Y-116364761D01*
X202216666Y-116412380D01*
X202121428Y-116412380D01*
X201978571Y-116364761D01*
X201883333Y-116269523D01*
X201835714Y-116174285D01*
X201788095Y-115983809D01*
X201788095Y-115840952D01*
X201835714Y-115650476D01*
X201883333Y-115555238D01*
X201978571Y-115460000D01*
X202121428Y-115412380D01*
X202216666Y-115412380D01*
X202359523Y-115460000D01*
X202407142Y-115507619D01*
X203359523Y-116412380D02*
X202788095Y-116412380D01*
X203073809Y-116412380D02*
X203073809Y-115412380D01*
X202978571Y-115555238D01*
X202883333Y-115650476D01*
X202788095Y-115698095D01*
X203978571Y-115412380D02*
X204073809Y-115412380D01*
X204169047Y-115460000D01*
X204216666Y-115507619D01*
X204264285Y-115602857D01*
X204311904Y-115793333D01*
X204311904Y-116031428D01*
X204264285Y-116221904D01*
X204216666Y-116317142D01*
X204169047Y-116364761D01*
X204073809Y-116412380D01*
X203978571Y-116412380D01*
X203883333Y-116364761D01*
X203835714Y-116317142D01*
X203788095Y-116221904D01*
X203740476Y-116031428D01*
X203740476Y-115793333D01*
X203788095Y-115602857D01*
X203835714Y-115507619D01*
X203883333Y-115460000D01*
X203978571Y-115412380D01*
X202452380Y-99119047D02*
X202452380Y-99595238D01*
X201452380Y-99595238D01*
X201928571Y-98785714D02*
X201928571Y-98452380D01*
X202452380Y-98309523D02*
X202452380Y-98785714D01*
X201452380Y-98785714D01*
X201452380Y-98309523D01*
X202452380Y-97880952D02*
X201452380Y-97880952D01*
X201452380Y-97642857D01*
X201500000Y-97500000D01*
X201595238Y-97404761D01*
X201690476Y-97357142D01*
X201880952Y-97309523D01*
X202023809Y-97309523D01*
X202214285Y-97357142D01*
X202309523Y-97404761D01*
X202404761Y-97500000D01*
X202452380Y-97642857D01*
X202452380Y-97880952D01*
X201547619Y-96928571D02*
X201500000Y-96880952D01*
X201452380Y-96785714D01*
X201452380Y-96547619D01*
X201500000Y-96452380D01*
X201547619Y-96404761D01*
X201642857Y-96357142D01*
X201738095Y-96357142D01*
X201880952Y-96404761D01*
X202452380Y-96976190D01*
X202452380Y-96357142D01*
X229185119Y-101952380D02*
X229185119Y-100952380D01*
X229613690Y-101047619D02*
X229661309Y-101000000D01*
X229756547Y-100952380D01*
X229994642Y-100952380D01*
X230089880Y-101000000D01*
X230137500Y-101047619D01*
X230185119Y-101142857D01*
X230185119Y-101238095D01*
X230137500Y-101380952D01*
X229566071Y-101952380D01*
X230185119Y-101952380D01*
X231185119Y-101857142D02*
X231137500Y-101904761D01*
X230994642Y-101952380D01*
X230899404Y-101952380D01*
X230756547Y-101904761D01*
X230661309Y-101809523D01*
X230613690Y-101714285D01*
X230566071Y-101523809D01*
X230566071Y-101380952D01*
X230613690Y-101190476D01*
X230661309Y-101095238D01*
X230756547Y-101000000D01*
X230899404Y-100952380D01*
X230994642Y-100952380D01*
X231137500Y-101000000D01*
X231185119Y-101047619D01*
X231566071Y-101047619D02*
X231613690Y-101000000D01*
X231708928Y-100952380D01*
X231947023Y-100952380D01*
X232042261Y-101000000D01*
X232089880Y-101047619D01*
X232137500Y-101142857D01*
X232137500Y-101238095D01*
X232089880Y-101380952D01*
X231518452Y-101952380D01*
X232137500Y-101952380D01*
X200835714Y-111162380D02*
X200835714Y-110162380D01*
X201216666Y-110162380D01*
X201311904Y-110210000D01*
X201359523Y-110257619D01*
X201407142Y-110352857D01*
X201407142Y-110495714D01*
X201359523Y-110590952D01*
X201311904Y-110638571D01*
X201216666Y-110686190D01*
X200835714Y-110686190D01*
X202407142Y-111067142D02*
X202359523Y-111114761D01*
X202216666Y-111162380D01*
X202121428Y-111162380D01*
X201978571Y-111114761D01*
X201883333Y-111019523D01*
X201835714Y-110924285D01*
X201788095Y-110733809D01*
X201788095Y-110590952D01*
X201835714Y-110400476D01*
X201883333Y-110305238D01*
X201978571Y-110210000D01*
X202121428Y-110162380D01*
X202216666Y-110162380D01*
X202359523Y-110210000D01*
X202407142Y-110257619D01*
X203359523Y-111162380D02*
X202788095Y-111162380D01*
X203073809Y-111162380D02*
X203073809Y-110162380D01*
X202978571Y-110305238D01*
X202883333Y-110400476D01*
X202788095Y-110448095D01*
X203740476Y-110257619D02*
X203788095Y-110210000D01*
X203883333Y-110162380D01*
X204121428Y-110162380D01*
X204216666Y-110210000D01*
X204264285Y-110257619D01*
X204311904Y-110352857D01*
X204311904Y-110448095D01*
X204264285Y-110590952D01*
X203692857Y-111162380D01*
X204311904Y-111162380D01*
X200835714Y-113662380D02*
X200835714Y-112662380D01*
X201216666Y-112662380D01*
X201311904Y-112710000D01*
X201359523Y-112757619D01*
X201407142Y-112852857D01*
X201407142Y-112995714D01*
X201359523Y-113090952D01*
X201311904Y-113138571D01*
X201216666Y-113186190D01*
X200835714Y-113186190D01*
X202407142Y-113567142D02*
X202359523Y-113614761D01*
X202216666Y-113662380D01*
X202121428Y-113662380D01*
X201978571Y-113614761D01*
X201883333Y-113519523D01*
X201835714Y-113424285D01*
X201788095Y-113233809D01*
X201788095Y-113090952D01*
X201835714Y-112900476D01*
X201883333Y-112805238D01*
X201978571Y-112710000D01*
X202121428Y-112662380D01*
X202216666Y-112662380D01*
X202359523Y-112710000D01*
X202407142Y-112757619D01*
X203359523Y-113662380D02*
X202788095Y-113662380D01*
X203073809Y-113662380D02*
X203073809Y-112662380D01*
X202978571Y-112805238D01*
X202883333Y-112900476D01*
X202788095Y-112948095D01*
X204311904Y-113662380D02*
X203740476Y-113662380D01*
X204026190Y-113662380D02*
X204026190Y-112662380D01*
X203930952Y-112805238D01*
X203835714Y-112900476D01*
X203740476Y-112948095D01*
X170452380Y-96416666D02*
X169452380Y-96416666D01*
X169452380Y-96035714D01*
X169500000Y-95940476D01*
X169547619Y-95892857D01*
X169642857Y-95845238D01*
X169785714Y-95845238D01*
X169880952Y-95892857D01*
X169928571Y-95940476D01*
X169976190Y-96035714D01*
X169976190Y-96416666D01*
X170166666Y-95464285D02*
X170166666Y-94988095D01*
X170452380Y-95559523D02*
X169452380Y-95226190D01*
X170452380Y-94892857D01*
X169452380Y-94654761D02*
X169452380Y-94035714D01*
X169833333Y-94369047D01*
X169833333Y-94226190D01*
X169880952Y-94130952D01*
X169928571Y-94083333D01*
X170023809Y-94035714D01*
X170261904Y-94035714D01*
X170357142Y-94083333D01*
X170404761Y-94130952D01*
X170452380Y-94226190D01*
X170452380Y-94511904D01*
X170404761Y-94607142D01*
X170357142Y-94654761D01*
X161523809Y-112357142D02*
X161476190Y-112404761D01*
X161333333Y-112452380D01*
X161238095Y-112452380D01*
X161095238Y-112404761D01*
X161000000Y-112309523D01*
X160952380Y-112214285D01*
X160904761Y-112023809D01*
X160904761Y-111880952D01*
X160952380Y-111690476D01*
X161000000Y-111595238D01*
X161095238Y-111500000D01*
X161238095Y-111452380D01*
X161333333Y-111452380D01*
X161476190Y-111500000D01*
X161523809Y-111547619D01*
X162142857Y-111452380D02*
X162333333Y-111452380D01*
X162428571Y-111500000D01*
X162523809Y-111595238D01*
X162571428Y-111785714D01*
X162571428Y-112119047D01*
X162523809Y-112309523D01*
X162428571Y-112404761D01*
X162333333Y-112452380D01*
X162142857Y-112452380D01*
X162047619Y-112404761D01*
X161952380Y-112309523D01*
X161904761Y-112119047D01*
X161904761Y-111785714D01*
X161952380Y-111595238D01*
X162047619Y-111500000D01*
X162142857Y-111452380D01*
X163476190Y-112452380D02*
X163000000Y-112452380D01*
X163000000Y-111452380D01*
X164000000Y-111452380D02*
X164190476Y-111452380D01*
X164285714Y-111500000D01*
X164380952Y-111595238D01*
X164428571Y-111785714D01*
X164428571Y-112119047D01*
X164380952Y-112309523D01*
X164285714Y-112404761D01*
X164190476Y-112452380D01*
X164000000Y-112452380D01*
X163904761Y-112404761D01*
X163809523Y-112309523D01*
X163761904Y-112119047D01*
X163761904Y-111785714D01*
X163809523Y-111595238D01*
X163904761Y-111500000D01*
X164000000Y-111452380D01*
X165428571Y-112452380D02*
X165095238Y-111976190D01*
X164857142Y-112452380D02*
X164857142Y-111452380D01*
X165238095Y-111452380D01*
X165333333Y-111500000D01*
X165380952Y-111547619D01*
X165428571Y-111642857D01*
X165428571Y-111785714D01*
X165380952Y-111880952D01*
X165333333Y-111928571D01*
X165238095Y-111976190D01*
X164857142Y-111976190D01*
X166571428Y-112404761D02*
X166714285Y-112452380D01*
X166952380Y-112452380D01*
X167047619Y-112404761D01*
X167095238Y-112357142D01*
X167142857Y-112261904D01*
X167142857Y-112166666D01*
X167095238Y-112071428D01*
X167047619Y-112023809D01*
X166952380Y-111976190D01*
X166761904Y-111928571D01*
X166666666Y-111880952D01*
X166619047Y-111833333D01*
X166571428Y-111738095D01*
X166571428Y-111642857D01*
X166619047Y-111547619D01*
X166666666Y-111500000D01*
X166761904Y-111452380D01*
X167000000Y-111452380D01*
X167142857Y-111500000D01*
X167571428Y-111928571D02*
X167904761Y-111928571D01*
X168047619Y-112452380D02*
X167571428Y-112452380D01*
X167571428Y-111452380D01*
X168047619Y-111452380D01*
X168476190Y-112452380D02*
X168476190Y-111452380D01*
X169047619Y-112452380D01*
X169047619Y-111452380D01*
X169476190Y-112404761D02*
X169619047Y-112452380D01*
X169857142Y-112452380D01*
X169952380Y-112404761D01*
X170000000Y-112357142D01*
X170047619Y-112261904D01*
X170047619Y-112166666D01*
X170000000Y-112071428D01*
X169952380Y-112023809D01*
X169857142Y-111976190D01*
X169666666Y-111928571D01*
X169571428Y-111880952D01*
X169523809Y-111833333D01*
X169476190Y-111738095D01*
X169476190Y-111642857D01*
X169523809Y-111547619D01*
X169571428Y-111500000D01*
X169666666Y-111452380D01*
X169904761Y-111452380D01*
X170047619Y-111500000D01*
X170666666Y-111452380D02*
X170857142Y-111452380D01*
X170952380Y-111500000D01*
X171047619Y-111595238D01*
X171095238Y-111785714D01*
X171095238Y-112119047D01*
X171047619Y-112309523D01*
X170952380Y-112404761D01*
X170857142Y-112452380D01*
X170666666Y-112452380D01*
X170571428Y-112404761D01*
X170476190Y-112309523D01*
X170428571Y-112119047D01*
X170428571Y-111785714D01*
X170476190Y-111595238D01*
X170571428Y-111500000D01*
X170666666Y-111452380D01*
X172095238Y-112452380D02*
X171761904Y-111976190D01*
X171523809Y-112452380D02*
X171523809Y-111452380D01*
X171904761Y-111452380D01*
X172000000Y-111500000D01*
X172047619Y-111547619D01*
X172095238Y-111642857D01*
X172095238Y-111785714D01*
X172047619Y-111880952D01*
X172000000Y-111928571D01*
X171904761Y-111976190D01*
X171523809Y-111976190D01*
X115714285Y-107797619D02*
X115761904Y-107750000D01*
X115857142Y-107702380D01*
X116095238Y-107702380D01*
X116190476Y-107750000D01*
X116238095Y-107797619D01*
X116285714Y-107892857D01*
X116285714Y-107988095D01*
X116238095Y-108130952D01*
X115666666Y-108702380D01*
X116285714Y-108702380D01*
X165166666Y-88071428D02*
X165928571Y-88071428D01*
X167500000Y-87928571D02*
X167642857Y-87976190D01*
X167690476Y-88023809D01*
X167738095Y-88119047D01*
X167738095Y-88261904D01*
X167690476Y-88357142D01*
X167642857Y-88404761D01*
X167547619Y-88452380D01*
X167166666Y-88452380D01*
X167166666Y-87452380D01*
X167500000Y-87452380D01*
X167595238Y-87500000D01*
X167642857Y-87547619D01*
X167690476Y-87642857D01*
X167690476Y-87738095D01*
X167642857Y-87833333D01*
X167595238Y-87880952D01*
X167500000Y-87928571D01*
X167166666Y-87928571D01*
X168119047Y-88166666D02*
X168595238Y-88166666D01*
X168023809Y-88452380D02*
X168357142Y-87452380D01*
X168690476Y-88452380D01*
X168880952Y-87452380D02*
X169452380Y-87452380D01*
X169166666Y-88452380D02*
X169166666Y-87452380D01*
X169642857Y-87452380D02*
X170214285Y-87452380D01*
X169928571Y-88452380D02*
X169928571Y-87452380D01*
X170547619Y-87928571D02*
X170880952Y-87928571D01*
X171023809Y-88452380D02*
X170547619Y-88452380D01*
X170547619Y-87452380D01*
X171023809Y-87452380D01*
X172023809Y-88452380D02*
X171690476Y-87976190D01*
X171452380Y-88452380D02*
X171452380Y-87452380D01*
X171833333Y-87452380D01*
X171928571Y-87500000D01*
X171976190Y-87547619D01*
X172023809Y-87642857D01*
X172023809Y-87785714D01*
X171976190Y-87880952D01*
X171928571Y-87928571D01*
X171833333Y-87976190D01*
X171452380Y-87976190D01*
X172642857Y-87976190D02*
X172642857Y-88452380D01*
X172309523Y-87452380D02*
X172642857Y-87976190D01*
X172976190Y-87452380D01*
X174071428Y-88071428D02*
X174833333Y-88071428D01*
X174452380Y-88452380D02*
X174452380Y-87690476D01*
X207702380Y-99119047D02*
X207702380Y-99595238D01*
X206702380Y-99595238D01*
X207178571Y-98785714D02*
X207178571Y-98452380D01*
X207702380Y-98309523D02*
X207702380Y-98785714D01*
X206702380Y-98785714D01*
X206702380Y-98309523D01*
X207702380Y-97880952D02*
X206702380Y-97880952D01*
X206702380Y-97642857D01*
X206750000Y-97500000D01*
X206845238Y-97404761D01*
X206940476Y-97357142D01*
X207130952Y-97309523D01*
X207273809Y-97309523D01*
X207464285Y-97357142D01*
X207559523Y-97404761D01*
X207654761Y-97500000D01*
X207702380Y-97642857D01*
X207702380Y-97880952D01*
X206702380Y-96976190D02*
X206702380Y-96357142D01*
X207083333Y-96690476D01*
X207083333Y-96547619D01*
X207130952Y-96452380D01*
X207178571Y-96404761D01*
X207273809Y-96357142D01*
X207511904Y-96357142D01*
X207607142Y-96404761D01*
X207654761Y-96452380D01*
X207702380Y-96547619D01*
X207702380Y-96833333D01*
X207654761Y-96928571D01*
X207607142Y-96976190D01*
X102035714Y-108702380D02*
X101464285Y-108702380D01*
X101750000Y-108702380D02*
X101750000Y-107702380D01*
X101654761Y-107845238D01*
X101559523Y-107940476D01*
X101464285Y-107988095D01*
X181273809Y-112357142D02*
X181226190Y-112404761D01*
X181083333Y-112452380D01*
X180988095Y-112452380D01*
X180845238Y-112404761D01*
X180750000Y-112309523D01*
X180702380Y-112214285D01*
X180654761Y-112023809D01*
X180654761Y-111880952D01*
X180702380Y-111690476D01*
X180750000Y-111595238D01*
X180845238Y-111500000D01*
X180988095Y-111452380D01*
X181083333Y-111452380D01*
X181226190Y-111500000D01*
X181273809Y-111547619D01*
X181892857Y-111452380D02*
X182083333Y-111452380D01*
X182178571Y-111500000D01*
X182273809Y-111595238D01*
X182321428Y-111785714D01*
X182321428Y-112119047D01*
X182273809Y-112309523D01*
X182178571Y-112404761D01*
X182083333Y-112452380D01*
X181892857Y-112452380D01*
X181797619Y-112404761D01*
X181702380Y-112309523D01*
X181654761Y-112119047D01*
X181654761Y-111785714D01*
X181702380Y-111595238D01*
X181797619Y-111500000D01*
X181892857Y-111452380D01*
X183226190Y-112452380D02*
X182750000Y-112452380D01*
X182750000Y-111452380D01*
X183750000Y-111452380D02*
X183940476Y-111452380D01*
X184035714Y-111500000D01*
X184130952Y-111595238D01*
X184178571Y-111785714D01*
X184178571Y-112119047D01*
X184130952Y-112309523D01*
X184035714Y-112404761D01*
X183940476Y-112452380D01*
X183750000Y-112452380D01*
X183654761Y-112404761D01*
X183559523Y-112309523D01*
X183511904Y-112119047D01*
X183511904Y-111785714D01*
X183559523Y-111595238D01*
X183654761Y-111500000D01*
X183750000Y-111452380D01*
X185178571Y-112452380D02*
X184845238Y-111976190D01*
X184607142Y-112452380D02*
X184607142Y-111452380D01*
X184988095Y-111452380D01*
X185083333Y-111500000D01*
X185130952Y-111547619D01*
X185178571Y-111642857D01*
X185178571Y-111785714D01*
X185130952Y-111880952D01*
X185083333Y-111928571D01*
X184988095Y-111976190D01*
X184607142Y-111976190D01*
X186321428Y-112404761D02*
X186464285Y-112452380D01*
X186702380Y-112452380D01*
X186797619Y-112404761D01*
X186845238Y-112357142D01*
X186892857Y-112261904D01*
X186892857Y-112166666D01*
X186845238Y-112071428D01*
X186797619Y-112023809D01*
X186702380Y-111976190D01*
X186511904Y-111928571D01*
X186416666Y-111880952D01*
X186369047Y-111833333D01*
X186321428Y-111738095D01*
X186321428Y-111642857D01*
X186369047Y-111547619D01*
X186416666Y-111500000D01*
X186511904Y-111452380D01*
X186750000Y-111452380D01*
X186892857Y-111500000D01*
X187321428Y-111928571D02*
X187654761Y-111928571D01*
X187797619Y-112452380D02*
X187321428Y-112452380D01*
X187321428Y-111452380D01*
X187797619Y-111452380D01*
X188226190Y-112452380D02*
X188226190Y-111452380D01*
X188797619Y-112452380D01*
X188797619Y-111452380D01*
X189226190Y-112404761D02*
X189369047Y-112452380D01*
X189607142Y-112452380D01*
X189702380Y-112404761D01*
X189750000Y-112357142D01*
X189797619Y-112261904D01*
X189797619Y-112166666D01*
X189750000Y-112071428D01*
X189702380Y-112023809D01*
X189607142Y-111976190D01*
X189416666Y-111928571D01*
X189321428Y-111880952D01*
X189273809Y-111833333D01*
X189226190Y-111738095D01*
X189226190Y-111642857D01*
X189273809Y-111547619D01*
X189321428Y-111500000D01*
X189416666Y-111452380D01*
X189654761Y-111452380D01*
X189797619Y-111500000D01*
X190416666Y-111452380D02*
X190607142Y-111452380D01*
X190702380Y-111500000D01*
X190797619Y-111595238D01*
X190845238Y-111785714D01*
X190845238Y-112119047D01*
X190797619Y-112309523D01*
X190702380Y-112404761D01*
X190607142Y-112452380D01*
X190416666Y-112452380D01*
X190321428Y-112404761D01*
X190226190Y-112309523D01*
X190178571Y-112119047D01*
X190178571Y-111785714D01*
X190226190Y-111595238D01*
X190321428Y-111500000D01*
X190416666Y-111452380D01*
X191845238Y-112452380D02*
X191511904Y-111976190D01*
X191273809Y-112452380D02*
X191273809Y-111452380D01*
X191654761Y-111452380D01*
X191750000Y-111500000D01*
X191797619Y-111547619D01*
X191845238Y-111642857D01*
X191845238Y-111785714D01*
X191797619Y-111880952D01*
X191750000Y-111928571D01*
X191654761Y-111976190D01*
X191273809Y-111976190D01*
X200835714Y-105912380D02*
X200835714Y-104912380D01*
X201216666Y-104912380D01*
X201311904Y-104960000D01*
X201359523Y-105007619D01*
X201407142Y-105102857D01*
X201407142Y-105245714D01*
X201359523Y-105340952D01*
X201311904Y-105388571D01*
X201216666Y-105436190D01*
X200835714Y-105436190D01*
X202407142Y-105817142D02*
X202359523Y-105864761D01*
X202216666Y-105912380D01*
X202121428Y-105912380D01*
X201978571Y-105864761D01*
X201883333Y-105769523D01*
X201835714Y-105674285D01*
X201788095Y-105483809D01*
X201788095Y-105340952D01*
X201835714Y-105150476D01*
X201883333Y-105055238D01*
X201978571Y-104960000D01*
X202121428Y-104912380D01*
X202216666Y-104912380D01*
X202359523Y-104960000D01*
X202407142Y-105007619D01*
X203359523Y-105912380D02*
X202788095Y-105912380D01*
X203073809Y-105912380D02*
X203073809Y-104912380D01*
X202978571Y-105055238D01*
X202883333Y-105150476D01*
X202788095Y-105198095D01*
X204264285Y-104912380D02*
X203788095Y-104912380D01*
X203740476Y-105388571D01*
X203788095Y-105340952D01*
X203883333Y-105293333D01*
X204121428Y-105293333D01*
X204216666Y-105340952D01*
X204264285Y-105388571D01*
X204311904Y-105483809D01*
X204311904Y-105721904D01*
X204264285Y-105817142D01*
X204216666Y-105864761D01*
X204121428Y-105912380D01*
X203883333Y-105912380D01*
X203788095Y-105864761D01*
X203740476Y-105817142D01*
X197202380Y-99119047D02*
X197202380Y-99595238D01*
X196202380Y-99595238D01*
X196678571Y-98785714D02*
X196678571Y-98452380D01*
X197202380Y-98309523D02*
X197202380Y-98785714D01*
X196202380Y-98785714D01*
X196202380Y-98309523D01*
X197202380Y-97880952D02*
X196202380Y-97880952D01*
X196202380Y-97642857D01*
X196250000Y-97500000D01*
X196345238Y-97404761D01*
X196440476Y-97357142D01*
X196630952Y-97309523D01*
X196773809Y-97309523D01*
X196964285Y-97357142D01*
X197059523Y-97404761D01*
X197154761Y-97500000D01*
X197202380Y-97642857D01*
X197202380Y-97880952D01*
X197202380Y-96357142D02*
X197202380Y-96928571D01*
X197202380Y-96642857D02*
X196202380Y-96642857D01*
X196345238Y-96738095D01*
X196440476Y-96833333D01*
X196488095Y-96928571D01*
X125547619Y-101952380D02*
X125547619Y-100952380D01*
X125976190Y-101047619D02*
X126023809Y-101000000D01*
X126119047Y-100952380D01*
X126357142Y-100952380D01*
X126452380Y-101000000D01*
X126500000Y-101047619D01*
X126547619Y-101142857D01*
X126547619Y-101238095D01*
X126500000Y-101380952D01*
X125928571Y-101952380D01*
X126547619Y-101952380D01*
X127547619Y-101857142D02*
X127500000Y-101904761D01*
X127357142Y-101952380D01*
X127261904Y-101952380D01*
X127119047Y-101904761D01*
X127023809Y-101809523D01*
X126976190Y-101714285D01*
X126928571Y-101523809D01*
X126928571Y-101380952D01*
X126976190Y-101190476D01*
X127023809Y-101095238D01*
X127119047Y-101000000D01*
X127261904Y-100952380D01*
X127357142Y-100952380D01*
X127500000Y-101000000D01*
X127547619Y-101047619D01*
X128500000Y-101952380D02*
X127928571Y-101952380D01*
X128214285Y-101952380D02*
X128214285Y-100952380D01*
X128119047Y-101095238D01*
X128023809Y-101190476D01*
X127928571Y-101238095D01*
X130083333Y-111452380D02*
X130654761Y-111452380D01*
X130369047Y-112452380D02*
X130369047Y-111452380D01*
X131130952Y-112452380D02*
X131035714Y-112404761D01*
X130988095Y-112357142D01*
X130940476Y-112261904D01*
X130940476Y-111976190D01*
X130988095Y-111880952D01*
X131035714Y-111833333D01*
X131130952Y-111785714D01*
X131273809Y-111785714D01*
X131369047Y-111833333D01*
X131416666Y-111880952D01*
X131464285Y-111976190D01*
X131464285Y-112261904D01*
X131416666Y-112357142D01*
X131369047Y-112404761D01*
X131273809Y-112452380D01*
X131130952Y-112452380D01*
X132226190Y-111928571D02*
X131892857Y-111928571D01*
X131892857Y-112452380D02*
X131892857Y-111452380D01*
X132369047Y-111452380D01*
X175452380Y-96416666D02*
X174452380Y-96416666D01*
X174452380Y-96035714D01*
X174500000Y-95940476D01*
X174547619Y-95892857D01*
X174642857Y-95845238D01*
X174785714Y-95845238D01*
X174880952Y-95892857D01*
X174928571Y-95940476D01*
X174976190Y-96035714D01*
X174976190Y-96416666D01*
X175166666Y-95464285D02*
X175166666Y-94988095D01*
X175452380Y-95559523D02*
X174452380Y-95226190D01*
X175452380Y-94892857D01*
X174452380Y-94369047D02*
X174452380Y-94273809D01*
X174500000Y-94178571D01*
X174547619Y-94130952D01*
X174642857Y-94083333D01*
X174833333Y-94035714D01*
X175071428Y-94035714D01*
X175261904Y-94083333D01*
X175357142Y-94130952D01*
X175404761Y-94178571D01*
X175452380Y-94273809D01*
X175452380Y-94369047D01*
X175404761Y-94464285D01*
X175357142Y-94511904D01*
X175261904Y-94559523D01*
X175071428Y-94607142D01*
X174833333Y-94607142D01*
X174642857Y-94559523D01*
X174547619Y-94511904D01*
X174500000Y-94464285D01*
X174452380Y-94369047D01*
X135214285Y-111547619D02*
X135261904Y-111500000D01*
X135357142Y-111452380D01*
X135595238Y-111452380D01*
X135690476Y-111500000D01*
X135738095Y-111547619D01*
X135785714Y-111642857D01*
X135785714Y-111738095D01*
X135738095Y-111880952D01*
X135166666Y-112452380D01*
X135785714Y-112452380D01*
X103178571Y-108702380D02*
X103178571Y-107702380D01*
X103559523Y-107702380D01*
X103654761Y-107750000D01*
X103702380Y-107797619D01*
X103750000Y-107892857D01*
X103750000Y-108035714D01*
X103702380Y-108130952D01*
X103654761Y-108178571D01*
X103559523Y-108226190D01*
X103178571Y-108226190D01*
X104750000Y-108702380D02*
X104416666Y-108226190D01*
X104178571Y-108702380D02*
X104178571Y-107702380D01*
X104559523Y-107702380D01*
X104654761Y-107750000D01*
X104702380Y-107797619D01*
X104750000Y-107892857D01*
X104750000Y-108035714D01*
X104702380Y-108130952D01*
X104654761Y-108178571D01*
X104559523Y-108226190D01*
X104178571Y-108226190D01*
X105369047Y-107702380D02*
X105559523Y-107702380D01*
X105654761Y-107750000D01*
X105750000Y-107845238D01*
X105797619Y-108035714D01*
X105797619Y-108369047D01*
X105750000Y-108559523D01*
X105654761Y-108654761D01*
X105559523Y-108702380D01*
X105369047Y-108702380D01*
X105273809Y-108654761D01*
X105178571Y-108559523D01*
X105130952Y-108369047D01*
X105130952Y-108035714D01*
X105178571Y-107845238D01*
X105273809Y-107750000D01*
X105369047Y-107702380D01*
X106130952Y-107702380D02*
X106797619Y-108702380D01*
X106797619Y-107702380D02*
X106130952Y-108702380D01*
X107892857Y-108654761D02*
X108035714Y-108702380D01*
X108273809Y-108702380D01*
X108369047Y-108654761D01*
X108416666Y-108607142D01*
X108464285Y-108511904D01*
X108464285Y-108416666D01*
X108416666Y-108321428D01*
X108369047Y-108273809D01*
X108273809Y-108226190D01*
X108083333Y-108178571D01*
X107988095Y-108130952D01*
X107940476Y-108083333D01*
X107892857Y-107988095D01*
X107892857Y-107892857D01*
X107940476Y-107797619D01*
X107988095Y-107750000D01*
X108083333Y-107702380D01*
X108321428Y-107702380D01*
X108464285Y-107750000D01*
X108892857Y-108178571D02*
X109226190Y-108178571D01*
X109369047Y-108702380D02*
X108892857Y-108702380D01*
X108892857Y-107702380D01*
X109369047Y-107702380D01*
X109797619Y-108702380D02*
X109797619Y-107702380D01*
X110369047Y-108702380D01*
X110369047Y-107702380D01*
X110797619Y-108654761D02*
X110940476Y-108702380D01*
X111178571Y-108702380D01*
X111273809Y-108654761D01*
X111321428Y-108607142D01*
X111369047Y-108511904D01*
X111369047Y-108416666D01*
X111321428Y-108321428D01*
X111273809Y-108273809D01*
X111178571Y-108226190D01*
X110988095Y-108178571D01*
X110892857Y-108130952D01*
X110845238Y-108083333D01*
X110797619Y-107988095D01*
X110797619Y-107892857D01*
X110845238Y-107797619D01*
X110892857Y-107750000D01*
X110988095Y-107702380D01*
X111226190Y-107702380D01*
X111369047Y-107750000D01*
X111988095Y-107702380D02*
X112178571Y-107702380D01*
X112273809Y-107750000D01*
X112369047Y-107845238D01*
X112416666Y-108035714D01*
X112416666Y-108369047D01*
X112369047Y-108559523D01*
X112273809Y-108654761D01*
X112178571Y-108702380D01*
X111988095Y-108702380D01*
X111892857Y-108654761D01*
X111797619Y-108559523D01*
X111750000Y-108369047D01*
X111750000Y-108035714D01*
X111797619Y-107845238D01*
X111892857Y-107750000D01*
X111988095Y-107702380D01*
X113416666Y-108702380D02*
X113083333Y-108226190D01*
X112845238Y-108702380D02*
X112845238Y-107702380D01*
X113226190Y-107702380D01*
X113321428Y-107750000D01*
X113369047Y-107797619D01*
X113416666Y-107892857D01*
X113416666Y-108035714D01*
X113369047Y-108130952D01*
X113321428Y-108178571D01*
X113226190Y-108226190D01*
X112845238Y-108226190D01*
X113797619Y-108654761D02*
X113940476Y-108702380D01*
X114178571Y-108702380D01*
X114273809Y-108654761D01*
X114321428Y-108607142D01*
X114369047Y-108511904D01*
X114369047Y-108416666D01*
X114321428Y-108321428D01*
X114273809Y-108273809D01*
X114178571Y-108226190D01*
X113988095Y-108178571D01*
X113892857Y-108130952D01*
X113845238Y-108083333D01*
X113797619Y-107988095D01*
X113797619Y-107892857D01*
X113845238Y-107797619D01*
X113892857Y-107750000D01*
X113988095Y-107702380D01*
X114226190Y-107702380D01*
X114369047Y-107750000D01*
X217702380Y-98190476D02*
X217702380Y-98666666D01*
X218178571Y-98714285D01*
X218130952Y-98666666D01*
X218083333Y-98571428D01*
X218083333Y-98333333D01*
X218130952Y-98238095D01*
X218178571Y-98190476D01*
X218273809Y-98142857D01*
X218511904Y-98142857D01*
X218607142Y-98190476D01*
X218654761Y-98238095D01*
X218702380Y-98333333D01*
X218702380Y-98571428D01*
X218654761Y-98666666D01*
X218607142Y-98714285D01*
X217702380Y-97857142D02*
X218702380Y-97523809D01*
X217702380Y-97190476D01*
X147357142Y-109647380D02*
X146880952Y-109647380D01*
X146880952Y-108647380D01*
X147690476Y-109123571D02*
X148023809Y-109123571D01*
X148166666Y-109647380D02*
X147690476Y-109647380D01*
X147690476Y-108647380D01*
X148166666Y-108647380D01*
X148595238Y-109647380D02*
X148595238Y-108647380D01*
X148833333Y-108647380D01*
X148976190Y-108695000D01*
X149071428Y-108790238D01*
X149119047Y-108885476D01*
X149166666Y-109075952D01*
X149166666Y-109218809D01*
X149119047Y-109409285D01*
X149071428Y-109504523D01*
X148976190Y-109599761D01*
X148833333Y-109647380D01*
X148595238Y-109647380D01*
X147238095Y-110257380D02*
X147809523Y-110257380D01*
X147523809Y-111257380D02*
X147523809Y-110257380D01*
X148047619Y-110257380D02*
X148714285Y-111257380D01*
X148714285Y-110257380D02*
X148047619Y-111257380D01*
X144047619Y-91452380D02*
X143714285Y-90976190D01*
X143476190Y-91452380D02*
X143476190Y-90452380D01*
X143857142Y-90452380D01*
X143952380Y-90500000D01*
X144000000Y-90547619D01*
X144047619Y-90642857D01*
X144047619Y-90785714D01*
X144000000Y-90880952D01*
X143952380Y-90928571D01*
X143857142Y-90976190D01*
X143476190Y-90976190D01*
X144476190Y-90928571D02*
X144809523Y-90928571D01*
X144952380Y-91452380D02*
X144476190Y-91452380D01*
X144476190Y-90452380D01*
X144952380Y-90452380D01*
X145333333Y-91404761D02*
X145476190Y-91452380D01*
X145714285Y-91452380D01*
X145809523Y-91404761D01*
X145857142Y-91357142D01*
X145904761Y-91261904D01*
X145904761Y-91166666D01*
X145857142Y-91071428D01*
X145809523Y-91023809D01*
X145714285Y-90976190D01*
X145523809Y-90928571D01*
X145428571Y-90880952D01*
X145380952Y-90833333D01*
X145333333Y-90738095D01*
X145333333Y-90642857D01*
X145380952Y-90547619D01*
X145428571Y-90500000D01*
X145523809Y-90452380D01*
X145761904Y-90452380D01*
X145904761Y-90500000D01*
X146333333Y-90928571D02*
X146666666Y-90928571D01*
X146809523Y-91452380D02*
X146333333Y-91452380D01*
X146333333Y-90452380D01*
X146809523Y-90452380D01*
X147095238Y-90452380D02*
X147666666Y-90452380D01*
X147380952Y-91452380D02*
X147380952Y-90452380D01*
X210288095Y-104960000D02*
X210192857Y-104912380D01*
X210050000Y-104912380D01*
X209907142Y-104960000D01*
X209811904Y-105055238D01*
X209764285Y-105150476D01*
X209716666Y-105340952D01*
X209716666Y-105483809D01*
X209764285Y-105674285D01*
X209811904Y-105769523D01*
X209907142Y-105864761D01*
X210050000Y-105912380D01*
X210145238Y-105912380D01*
X210288095Y-105864761D01*
X210335714Y-105817142D01*
X210335714Y-105483809D01*
X210145238Y-105483809D01*
X210764285Y-105912380D02*
X210764285Y-104912380D01*
X211335714Y-105912380D01*
X211335714Y-104912380D01*
X211811904Y-105912380D02*
X211811904Y-104912380D01*
X212050000Y-104912380D01*
X212192857Y-104960000D01*
X212288095Y-105055238D01*
X212335714Y-105150476D01*
X212383333Y-105340952D01*
X212383333Y-105483809D01*
X212335714Y-105674285D01*
X212288095Y-105769523D01*
X212192857Y-105864761D01*
X212050000Y-105912380D01*
X211811904Y-105912380D01*
X142357142Y-109647380D02*
X141880952Y-109647380D01*
X141880952Y-108647380D01*
X142690476Y-109123571D02*
X143023809Y-109123571D01*
X143166666Y-109647380D02*
X142690476Y-109647380D01*
X142690476Y-108647380D01*
X143166666Y-108647380D01*
X143595238Y-109647380D02*
X143595238Y-108647380D01*
X143833333Y-108647380D01*
X143976190Y-108695000D01*
X144071428Y-108790238D01*
X144119047Y-108885476D01*
X144166666Y-109075952D01*
X144166666Y-109218809D01*
X144119047Y-109409285D01*
X144071428Y-109504523D01*
X143976190Y-109599761D01*
X143833333Y-109647380D01*
X143595238Y-109647380D01*
X142833333Y-111257380D02*
X142500000Y-110781190D01*
X142261904Y-111257380D02*
X142261904Y-110257380D01*
X142642857Y-110257380D01*
X142738095Y-110305000D01*
X142785714Y-110352619D01*
X142833333Y-110447857D01*
X142833333Y-110590714D01*
X142785714Y-110685952D01*
X142738095Y-110733571D01*
X142642857Y-110781190D01*
X142261904Y-110781190D01*
X143166666Y-110257380D02*
X143833333Y-111257380D01*
X143833333Y-110257380D02*
X143166666Y-111257380D01*
X219859523Y-104912380D02*
X219383333Y-104912380D01*
X219335714Y-105388571D01*
X219383333Y-105340952D01*
X219478571Y-105293333D01*
X219716666Y-105293333D01*
X219811904Y-105340952D01*
X219859523Y-105388571D01*
X219907142Y-105483809D01*
X219907142Y-105721904D01*
X219859523Y-105817142D01*
X219811904Y-105864761D01*
X219716666Y-105912380D01*
X219478571Y-105912380D01*
X219383333Y-105864761D01*
X219335714Y-105817142D01*
X220192857Y-104912380D02*
X220526190Y-105912380D01*
X220859523Y-104912380D01*
X214311904Y-104912380D02*
X214930952Y-104912380D01*
X214597619Y-105293333D01*
X214740476Y-105293333D01*
X214835714Y-105340952D01*
X214883333Y-105388571D01*
X214930952Y-105483809D01*
X214930952Y-105721904D01*
X214883333Y-105817142D01*
X214835714Y-105864761D01*
X214740476Y-105912380D01*
X214454761Y-105912380D01*
X214359523Y-105864761D01*
X214311904Y-105817142D01*
X215216666Y-104912380D02*
X215550000Y-105912380D01*
X215883333Y-104912380D01*
X216121428Y-104912380D02*
X216740476Y-104912380D01*
X216407142Y-105293333D01*
X216550000Y-105293333D01*
X216645238Y-105340952D01*
X216692857Y-105388571D01*
X216740476Y-105483809D01*
X216740476Y-105721904D01*
X216692857Y-105817142D01*
X216645238Y-105864761D01*
X216550000Y-105912380D01*
X216264285Y-105912380D01*
X216169047Y-105864761D01*
X216121428Y-105817142D01*
X167952380Y-96416666D02*
X166952380Y-96416666D01*
X166952380Y-96035714D01*
X167000000Y-95940476D01*
X167047619Y-95892857D01*
X167142857Y-95845238D01*
X167285714Y-95845238D01*
X167380952Y-95892857D01*
X167428571Y-95940476D01*
X167476190Y-96035714D01*
X167476190Y-96416666D01*
X167666666Y-95464285D02*
X167666666Y-94988095D01*
X167952380Y-95559523D02*
X166952380Y-95226190D01*
X167952380Y-94892857D01*
X167285714Y-94130952D02*
X167952380Y-94130952D01*
X166904761Y-94369047D02*
X167619047Y-94607142D01*
X167619047Y-93988095D01*
X154309523Y-91654761D02*
X154452380Y-91702380D01*
X154690476Y-91702380D01*
X154785714Y-91654761D01*
X154833333Y-91607142D01*
X154880952Y-91511904D01*
X154880952Y-91416666D01*
X154833333Y-91321428D01*
X154785714Y-91273809D01*
X154690476Y-91226190D01*
X154500000Y-91178571D01*
X154404761Y-91130952D01*
X154357142Y-91083333D01*
X154309523Y-90988095D01*
X154309523Y-90892857D01*
X154357142Y-90797619D01*
X154404761Y-90750000D01*
X154500000Y-90702380D01*
X154738095Y-90702380D01*
X154880952Y-90750000D01*
X155309523Y-91178571D02*
X155642857Y-91178571D01*
X155785714Y-91702380D02*
X155309523Y-91702380D01*
X155309523Y-90702380D01*
X155785714Y-90702380D01*
X156785714Y-91702380D02*
X156452380Y-91226190D01*
X156214285Y-91702380D02*
X156214285Y-90702380D01*
X156595238Y-90702380D01*
X156690476Y-90750000D01*
X156738095Y-90797619D01*
X156785714Y-90892857D01*
X156785714Y-91035714D01*
X156738095Y-91130952D01*
X156690476Y-91178571D01*
X156595238Y-91226190D01*
X156214285Y-91226190D01*
X157071428Y-90702380D02*
X157404761Y-91702380D01*
X157738095Y-90702380D01*
X158261904Y-90702380D02*
X158452380Y-90702380D01*
X158547619Y-90750000D01*
X158642857Y-90845238D01*
X158690476Y-91035714D01*
X158690476Y-91369047D01*
X158642857Y-91559523D01*
X158547619Y-91654761D01*
X158452380Y-91702380D01*
X158261904Y-91702380D01*
X158166666Y-91654761D01*
X158071428Y-91559523D01*
X158023809Y-91369047D01*
X158023809Y-91035714D01*
X158071428Y-90845238D01*
X158166666Y-90750000D01*
X158261904Y-90702380D01*
X172952380Y-96416666D02*
X171952380Y-96416666D01*
X171952380Y-96035714D01*
X172000000Y-95940476D01*
X172047619Y-95892857D01*
X172142857Y-95845238D01*
X172285714Y-95845238D01*
X172380952Y-95892857D01*
X172428571Y-95940476D01*
X172476190Y-96035714D01*
X172476190Y-96416666D01*
X172666666Y-95464285D02*
X172666666Y-94988095D01*
X172952380Y-95559523D02*
X171952380Y-95226190D01*
X172952380Y-94892857D01*
X172952380Y-94035714D02*
X172952380Y-94607142D01*
X172952380Y-94321428D02*
X171952380Y-94321428D01*
X172095238Y-94416666D01*
X172190476Y-94511904D01*
X172238095Y-94607142D01*
X165452380Y-96416666D02*
X164452380Y-96416666D01*
X164452380Y-96035714D01*
X164500000Y-95940476D01*
X164547619Y-95892857D01*
X164642857Y-95845238D01*
X164785714Y-95845238D01*
X164880952Y-95892857D01*
X164928571Y-95940476D01*
X164976190Y-96035714D01*
X164976190Y-96416666D01*
X165166666Y-95464285D02*
X165166666Y-94988095D01*
X165452380Y-95559523D02*
X164452380Y-95226190D01*
X165452380Y-94892857D01*
X164452380Y-94083333D02*
X164452380Y-94559523D01*
X164928571Y-94607142D01*
X164880952Y-94559523D01*
X164833333Y-94464285D01*
X164833333Y-94226190D01*
X164880952Y-94130952D01*
X164928571Y-94083333D01*
X165023809Y-94035714D01*
X165261904Y-94035714D01*
X165357142Y-94083333D01*
X165404761Y-94130952D01*
X165452380Y-94226190D01*
X165452380Y-94464285D01*
X165404761Y-94559523D01*
X165357142Y-94607142D01*
X211952380Y-99238095D02*
X211952380Y-98619047D01*
X212333333Y-98952380D01*
X212333333Y-98809523D01*
X212380952Y-98714285D01*
X212428571Y-98666666D01*
X212523809Y-98619047D01*
X212761904Y-98619047D01*
X212857142Y-98666666D01*
X212904761Y-98714285D01*
X212952380Y-98809523D01*
X212952380Y-99095238D01*
X212904761Y-99190476D01*
X212857142Y-99238095D01*
X211952380Y-98333333D02*
X212952380Y-98000000D01*
X211952380Y-97666666D01*
X211952380Y-97428571D02*
X211952380Y-96809523D01*
X212333333Y-97142857D01*
X212333333Y-97000000D01*
X212380952Y-96904761D01*
X212428571Y-96857142D01*
X212523809Y-96809523D01*
X212761904Y-96809523D01*
X212857142Y-96857142D01*
X212904761Y-96904761D01*
X212952380Y-97000000D01*
X212952380Y-97285714D01*
X212904761Y-97380952D01*
X212857142Y-97428571D01*
D11*
%TO.C,U301*%
X116541000Y-88095000D03*
X116541000Y-89365000D03*
X116541000Y-90635000D03*
X116541000Y-91905000D03*
X121491000Y-91905000D03*
X121491000Y-90635000D03*
X121491000Y-89365000D03*
X121491000Y-88095000D03*
%TD*%
D12*
%TO.C,D404*%
X142125000Y-105500000D03*
X143875000Y-105500000D03*
%TD*%
D13*
%TO.C,SW402*%
X131500000Y-88000000D03*
X131500000Y-81500000D03*
X136000000Y-81500000D03*
X136000000Y-88000000D03*
%TD*%
D14*
%TO.C,Y401*%
X184150000Y-102650000D03*
X186350000Y-102650000D03*
X186350000Y-100850000D03*
X184150000Y-100850000D03*
%TD*%
D15*
%TO.C,J302*%
X215000000Y-82975000D03*
D16*
X217500000Y-82975000D03*
X220000000Y-82975000D03*
X222500000Y-82975000D03*
X225000000Y-82975000D03*
X227500000Y-82975000D03*
%TD*%
D17*
%TO.C,J204*%
X220025000Y-108200000D03*
D18*
X220025000Y-110740000D03*
X220025000Y-113280000D03*
X220025000Y-115820000D03*
%TD*%
D17*
%TO.C,J408*%
X206575000Y-105610000D03*
D18*
X206575000Y-108150000D03*
X206575000Y-110690000D03*
X206575000Y-113230000D03*
X206575000Y-115770000D03*
%TD*%
D19*
%TO.C,D402*%
X203750000Y-98875000D03*
X203750000Y-97125000D03*
%TD*%
D15*
%TO.C,J301*%
X112750000Y-82914000D03*
D16*
X115250000Y-82914000D03*
X117750000Y-82914000D03*
X120250000Y-82914000D03*
X122750000Y-82914000D03*
X125250000Y-82914000D03*
%TD*%
D20*
%TO.C,D405*%
X148875000Y-105500000D03*
X147125000Y-105500000D03*
%TD*%
D21*
%TO.C,R401*%
X179587500Y-101250000D03*
X181412500Y-101250000D03*
%TD*%
D22*
%TO.C,C404*%
X139750000Y-81637500D03*
X139750000Y-83362500D03*
%TD*%
D23*
%TO.C,C405*%
X179637500Y-109000000D03*
X181362500Y-109000000D03*
%TD*%
D21*
%TO.C,R412*%
X208087500Y-102250000D03*
X209912500Y-102250000D03*
%TD*%
D24*
%TO.C,C410*%
X194000000Y-117362500D03*
X194000000Y-115637500D03*
%TD*%
D25*
%TO.C,C302*%
X215612500Y-89811000D03*
X213887500Y-89811000D03*
%TD*%
D26*
%TO.C,C205*%
X184250000Y-92500000D03*
D27*
X181750000Y-92500000D03*
%TD*%
D21*
%TO.C,R201*%
X219087500Y-102250000D03*
X220912500Y-102250000D03*
%TD*%
D23*
%TO.C,C412*%
X156887500Y-87750000D03*
X158612500Y-87750000D03*
%TD*%
%TO.C,C303*%
X125000000Y-89365000D03*
X126725000Y-89365000D03*
%TD*%
D21*
%TO.C,R202*%
X213337500Y-102250000D03*
X215162500Y-102250000D03*
%TD*%
D25*
%TO.C,C301*%
X113475000Y-89750000D03*
X111750000Y-89750000D03*
%TD*%
D22*
%TO.C,C202*%
X202000000Y-81837500D03*
X202000000Y-83562500D03*
%TD*%
%TO.C,C204*%
X210566000Y-84137500D03*
X210566000Y-85862500D03*
%TD*%
D15*
%TO.C,J405*%
X154000000Y-82914000D03*
D16*
X156500000Y-82914000D03*
X159000000Y-82914000D03*
%TD*%
D28*
%TO.C,H102*%
X233802944Y-86197056D03*
X237197056Y-82802944D03*
X233802944Y-82802944D03*
D29*
X235500000Y-84500000D03*
D28*
X237197056Y-86197056D03*
X237900000Y-84500000D03*
X235500000Y-86900000D03*
X235500000Y-82100000D03*
X233100000Y-84500000D03*
%TD*%
D30*
%TO.C,J406*%
X127000000Y-117000000D03*
D16*
X124500000Y-117000000D03*
X122000000Y-117000000D03*
X119500000Y-117000000D03*
X117000000Y-117000000D03*
X114500000Y-117000000D03*
X112000000Y-117000000D03*
%TD*%
D25*
%TO.C,C306*%
X215612500Y-88156000D03*
X213887500Y-88156000D03*
%TD*%
%TO.C,C305*%
X113475000Y-88095000D03*
X111750000Y-88095000D03*
%TD*%
D31*
%TO.C,JP309*%
X126587500Y-96000000D03*
D32*
X125137500Y-96000000D03*
%TD*%
D33*
%TO.C,J407*%
X113500000Y-102500000D03*
D34*
X113500000Y-100000000D03*
X113500000Y-97500000D03*
%TD*%
D30*
%TO.C,J410*%
X190000000Y-117000000D03*
D16*
X187500000Y-117000000D03*
X185000000Y-117000000D03*
X182500000Y-117000000D03*
%TD*%
D23*
%TO.C,C406*%
X179637500Y-104250000D03*
X181362500Y-104250000D03*
%TD*%
D35*
%TO.C,JP303*%
X214000000Y-91966000D03*
D36*
X215450000Y-91966000D03*
%TD*%
D37*
%TO.C,J402*%
X229387500Y-105250000D03*
D38*
X231887500Y-105250000D03*
%TD*%
D24*
%TO.C,C409*%
X119250000Y-99362500D03*
X119250000Y-97637500D03*
%TD*%
%TO.C,C201*%
X202000000Y-88162500D03*
X202000000Y-86437500D03*
%TD*%
D35*
%TO.C,JP201*%
X188251000Y-92583000D03*
D36*
X189701000Y-92583000D03*
%TD*%
D37*
%TO.C,J403*%
X125750000Y-105225000D03*
D38*
X128250000Y-105225000D03*
%TD*%
D37*
%TO.C,J201*%
X168750000Y-82914000D03*
D38*
X171250000Y-82914000D03*
%TD*%
D17*
%TO.C,J409*%
X164950000Y-91975000D03*
D18*
X167490000Y-91975000D03*
X170030000Y-91975000D03*
X172570000Y-91975000D03*
X175110000Y-91975000D03*
%TD*%
D11*
%TO.C,U302*%
X218776000Y-88156000D03*
X218776000Y-89426000D03*
X218776000Y-90696000D03*
X218776000Y-91966000D03*
X223726000Y-91966000D03*
X223726000Y-90696000D03*
X223726000Y-89426000D03*
X223726000Y-88156000D03*
%TD*%
D33*
%TO.C,J411*%
X102975000Y-102500000D03*
D34*
X102975000Y-100000000D03*
X102975000Y-97500000D03*
%TD*%
D19*
%TO.C,D203*%
X214250000Y-98875000D03*
X214250000Y-97125000D03*
%TD*%
D21*
%TO.C,R403*%
X132837500Y-90500000D03*
X134662500Y-90500000D03*
%TD*%
%TO.C,R410*%
X197587500Y-102250000D03*
X199412500Y-102250000D03*
%TD*%
D39*
%TO.C,R406*%
X225637500Y-108437500D03*
X225637500Y-106612500D03*
%TD*%
D28*
%TO.C,H104*%
X104500000Y-117900000D03*
X104500000Y-113100000D03*
X102802944Y-117197056D03*
X102802944Y-113802944D03*
X106900000Y-115500000D03*
X102100000Y-115500000D03*
D29*
X104500000Y-115500000D03*
D28*
X106197056Y-117197056D03*
X106197056Y-113802944D03*
%TD*%
D40*
%TO.C,R413*%
X143912500Y-107250000D03*
X142087500Y-107250000D03*
%TD*%
D21*
%TO.C,R409*%
X151837500Y-87750000D03*
X153662500Y-87750000D03*
%TD*%
D41*
%TO.C,U401*%
X175675000Y-107750000D03*
X175675000Y-107250000D03*
X175675000Y-106750000D03*
X175675000Y-106250000D03*
X175675000Y-105750000D03*
X175675000Y-105250000D03*
X175675000Y-104750000D03*
X175675000Y-104250000D03*
X175675000Y-103750000D03*
X175675000Y-103250000D03*
X175675000Y-102750000D03*
X175675000Y-102250000D03*
X175675000Y-101750000D03*
X175675000Y-101250000D03*
X175675000Y-100750000D03*
X175675000Y-100250000D03*
D42*
X173750000Y-98325000D03*
X173250000Y-98325000D03*
X172750000Y-98325000D03*
X172250000Y-98325000D03*
X171750000Y-98325000D03*
X171250000Y-98325000D03*
X170750000Y-98325000D03*
X170250000Y-98325000D03*
X169750000Y-98325000D03*
X169250000Y-98325000D03*
X168750000Y-98325000D03*
X168250000Y-98325000D03*
X167750000Y-98325000D03*
X167250000Y-98325000D03*
X166750000Y-98325000D03*
X166250000Y-98325000D03*
D41*
X164325000Y-100250000D03*
X164325000Y-100750000D03*
X164325000Y-101250000D03*
X164325000Y-101750000D03*
X164325000Y-102250000D03*
X164325000Y-102750000D03*
X164325000Y-103250000D03*
X164325000Y-103750000D03*
X164325000Y-104250000D03*
X164325000Y-104750000D03*
X164325000Y-105250000D03*
X164325000Y-105750000D03*
X164325000Y-106250000D03*
X164325000Y-106750000D03*
X164325000Y-107250000D03*
X164325000Y-107750000D03*
D42*
X166250000Y-109675000D03*
X166750000Y-109675000D03*
X167250000Y-109675000D03*
X167750000Y-109675000D03*
X168250000Y-109675000D03*
X168750000Y-109675000D03*
X169250000Y-109675000D03*
X169750000Y-109675000D03*
X170250000Y-109675000D03*
X170750000Y-109675000D03*
X171250000Y-109675000D03*
X171750000Y-109675000D03*
X172250000Y-109675000D03*
X172750000Y-109675000D03*
X173250000Y-109675000D03*
X173750000Y-109675000D03*
%TD*%
D12*
%TO.C,D201*%
X198125000Y-90000000D03*
X199875000Y-90000000D03*
%TD*%
D19*
%TO.C,D403*%
X209000000Y-98875000D03*
X209000000Y-97125000D03*
%TD*%
D39*
%TO.C,R407*%
X132000000Y-108412500D03*
X132000000Y-106587500D03*
%TD*%
D31*
%TO.C,JP304*%
X228475000Y-91966000D03*
D32*
X227025000Y-91966000D03*
%TD*%
D21*
%TO.C,R411*%
X202837500Y-102250000D03*
X204662500Y-102250000D03*
%TD*%
D31*
%TO.C,JP302*%
X126587500Y-91905000D03*
D32*
X125137500Y-91905000D03*
%TD*%
D43*
%TO.C,F201*%
X187512500Y-90000000D03*
X190487500Y-90000000D03*
%TD*%
D44*
%TO.C,U202*%
X204390000Y-84050000D03*
X204390000Y-85000000D03*
X204390000Y-85950000D03*
X207090000Y-85950000D03*
X207090000Y-84050000D03*
%TD*%
D23*
%TO.C,C203*%
X204887500Y-89000000D03*
X206612500Y-89000000D03*
%TD*%
D45*
%TO.C,R404*%
X139750000Y-86087500D03*
X139750000Y-87912500D03*
%TD*%
D28*
%TO.C,H103*%
X233802944Y-113802944D03*
X237900000Y-115500000D03*
X237197056Y-113802944D03*
X233802944Y-117197056D03*
X237197056Y-117197056D03*
X235500000Y-113100000D03*
D29*
X235500000Y-115500000D03*
D28*
X233100000Y-115500000D03*
X235500000Y-117900000D03*
%TD*%
D46*
%TO.C,SW201*%
X187700000Y-85000000D03*
X183000000Y-85000000D03*
X178300000Y-85000000D03*
%TD*%
D47*
%TO.C,JP401*%
X138850000Y-102560000D03*
X140150000Y-102560000D03*
%TD*%
D13*
%TO.C,SW401*%
X143250000Y-88000000D03*
X143250000Y-81500000D03*
X147750000Y-88000000D03*
X147750000Y-81500000D03*
%TD*%
D48*
%TO.C,J401*%
X143550000Y-94940000D03*
X147450000Y-94940000D03*
X143550000Y-96210000D03*
X147450000Y-96210000D03*
X143550000Y-97480000D03*
X147450000Y-97480000D03*
X143550000Y-98750000D03*
X147450000Y-98750000D03*
X143550000Y-100020000D03*
X147450000Y-100020000D03*
X143550000Y-101290000D03*
X147450000Y-101290000D03*
X143550000Y-102560000D03*
X147450000Y-102560000D03*
%TD*%
D28*
%TO.C,H101*%
X106197056Y-86197056D03*
X102802944Y-86197056D03*
X104500000Y-86900000D03*
X106197056Y-82802944D03*
X102802944Y-82802944D03*
D29*
X104500000Y-84500000D03*
D28*
X102100000Y-84500000D03*
X106900000Y-84500000D03*
X104500000Y-82100000D03*
%TD*%
D23*
%TO.C,C401*%
X179637500Y-99750000D03*
X181362500Y-99750000D03*
%TD*%
D24*
%TO.C,C411*%
X108750000Y-99362500D03*
X108750000Y-97637500D03*
%TD*%
D23*
%TO.C,C304*%
X226887500Y-89426000D03*
X228612500Y-89426000D03*
%TD*%
D47*
%TO.C,JP403*%
X133100000Y-94000000D03*
X134400000Y-94000000D03*
%TD*%
D30*
%TO.C,J412*%
X174000000Y-117025000D03*
D16*
X171500000Y-117025000D03*
X169000000Y-117025000D03*
X166500000Y-117025000D03*
X164000000Y-117025000D03*
X161500000Y-117025000D03*
X159000000Y-117025000D03*
%TD*%
D23*
%TO.C,C407*%
X179637500Y-107500000D03*
X181362500Y-107500000D03*
%TD*%
D30*
%TO.C,J404*%
X150500000Y-117025000D03*
D16*
X148000000Y-117025000D03*
X145500000Y-117025000D03*
X143000000Y-117025000D03*
X140500000Y-117025000D03*
X138000000Y-117025000D03*
X135500000Y-117025000D03*
%TD*%
D17*
%TO.C,J202*%
X211025000Y-108160000D03*
D18*
X211025000Y-110700000D03*
X211025000Y-113240000D03*
X211025000Y-115780000D03*
%TD*%
D23*
%TO.C,C408*%
X179637500Y-105750000D03*
X181362500Y-105750000D03*
%TD*%
D19*
%TO.C,D401*%
X198500000Y-98875000D03*
X198500000Y-97125000D03*
%TD*%
D39*
%TO.C,R405*%
X235637500Y-108437500D03*
X235637500Y-106612500D03*
%TD*%
D49*
%TO.C,U201*%
X198150000Y-87300000D03*
X198150000Y-85000000D03*
X198150000Y-82700000D03*
D50*
X191850000Y-85000000D03*
%TD*%
D47*
%TO.C,JP402*%
X152150000Y-102560000D03*
X150850000Y-102560000D03*
%TD*%
D35*
%TO.C,JP310*%
X214025000Y-94500000D03*
D36*
X215475000Y-94500000D03*
%TD*%
D39*
%TO.C,R408*%
X122000000Y-108412500D03*
X122000000Y-106587500D03*
%TD*%
D24*
%TO.C,C403*%
X188750000Y-104362500D03*
X188750000Y-102637500D03*
%TD*%
D21*
%TO.C,R414*%
X147087500Y-107250000D03*
X148912500Y-107250000D03*
%TD*%
D35*
%TO.C,JP301*%
X111887500Y-91905000D03*
D36*
X113337500Y-91905000D03*
%TD*%
D24*
%TO.C,C402*%
X188750000Y-100862500D03*
X188750000Y-99137500D03*
%TD*%
D17*
%TO.C,J203*%
X215525000Y-108160000D03*
D18*
X215525000Y-110700000D03*
X215525000Y-113240000D03*
X215525000Y-115780000D03*
%TD*%
D19*
%TO.C,D202*%
X220000000Y-98875000D03*
X220000000Y-97125000D03*
%TD*%
M02*
