M48
; DRILL file {KiCad (6.0.4)} date Fri Oct 21 15:33:51 2022
; FORMAT={-:-/ absolute / metric / decimal}
; #@! TF.CreationDate,2022-10-21T15:33:51+02:00
; #@! TF.GenerationSoftware,Kicad,Pcbnew,(6.0.4)
; #@! TF.FileFunction,Plated,1,4,PTH
FMAT,2
METRIC
; #@! TA.AperFunction,Plated,PTH,ViaDrill
T1C0.300
; #@! TA.AperFunction,Plated,PTH,ViaDrill
T2C0.400
; #@! TA.AperFunction,Plated,PTH,ComponentDrill
T3C0.500
; #@! TA.AperFunction,Plated,PTH,ComponentDrill
T4C0.800
; #@! TA.AperFunction,Plated,PTH,ComponentDrill
T5C0.950
; #@! TA.AperFunction,Plated,PTH,ComponentDrill
T6C1.000
; #@! TA.AperFunction,Plated,PTH,ComponentDrill
T7C1.100
; #@! TA.AperFunction,Plated,PTH,ComponentDrill
T8C2.370
; #@! TA.AperFunction,Plated,PTH,ComponentDrill
T9C3.200
%
G90
G05
T1
X108.75Y-105.0
X110.0Y-97.637
X110.25Y-88.095
X110.25Y-89.75
X110.25Y-91.905
X114.75Y-90.635
X117.5Y-87.0
X119.25Y-105.0
X120.5Y-97.637
X120.75Y-108.412
X121.5Y-87.0
X123.25Y-90.635
X128.0Y-96.0
X128.25Y-89.365
X131.5Y-90.5
X131.5Y-94.0
X133.25Y-108.412
X139.75Y-89.25
X140.75Y-107.25
X141.5Y-96.21
X141.5Y-97.48
X141.5Y-98.75
X141.5Y-101.29
X149.5Y-96.21
X149.5Y-97.48
X150.25Y-107.25
X150.5Y-87.75
X160.0Y-87.75
X160.75Y-97.5
X161.25Y-100.75
X162.25Y-97.5
X162.5Y-107.25
X166.0Y-106.25
X168.5Y-106.75
X168.745Y-96.0
X172.5Y-107.5
X174.0Y-103.75
X174.0Y-105.25
X174.0Y-107.5
X178.25Y-99.75
X178.25Y-104.25
X179.637Y-110.25
X182.75Y-99.75
X182.75Y-100.85
X182.75Y-104.25
X182.75Y-105.75
X182.75Y-107.5
X182.75Y-109.0
X187.612Y-99.137
X187.612Y-102.637
X193.75Y-85.0
X195.25Y-115.637
X195.25Y-117.362
X196.0Y-90.0
X196.25Y-85.0
X200.75Y-102.25
X201.25Y-90.0
X202.0Y-85.0
X206.0Y-81.837
X206.0Y-102.25
X208.0Y-89.0
X208.5Y-82.75
X210.5Y-82.75
X210.566Y-87.0
X211.25Y-102.25
X211.5Y-97.125
X212.5Y-91.966
X212.5Y-94.5
X212.75Y-88.156
X212.75Y-89.75
X215.875Y-97.125
X216.5Y-102.25
X217.0Y-90.696
X219.75Y-87.0
X219.75Y-94.75
X222.25Y-102.25
X223.25Y-94.75
X223.726Y-87.0
X224.387Y-108.438
X225.5Y-90.696
X230.0Y-89.426
X230.0Y-91.966
X236.887Y-108.438
T2
X183.5Y-106.675
T3
X102.1Y-84.5
X102.1Y-115.5
X102.803Y-82.803
X102.803Y-86.197
X102.803Y-113.803
X102.803Y-117.197
X104.5Y-82.1
X104.5Y-86.9
X104.5Y-113.1
X104.5Y-117.9
X106.197Y-82.803
X106.197Y-86.197
X106.197Y-113.803
X106.197Y-117.197
X106.9Y-84.5
X106.9Y-115.5
X233.1Y-84.5
X233.1Y-115.5
X233.803Y-82.803
X233.803Y-86.197
X233.803Y-113.803
X233.803Y-117.197
X235.5Y-82.1
X235.5Y-86.9
X235.5Y-113.1
X235.5Y-117.9
X237.197Y-82.803
X237.197Y-86.197
X237.197Y-113.803
X237.197Y-117.197
X237.9Y-84.5
X237.9Y-115.5
T4
X181.75Y-92.5
X184.25Y-92.5
T5
X102.975Y-97.5
X102.975Y-100.0
X102.975Y-102.5
X112.0Y-117.0
X112.75Y-82.914
X113.5Y-97.5
X113.5Y-100.0
X113.5Y-102.5
X114.5Y-117.0
X115.25Y-82.914
X117.0Y-117.0
X117.75Y-82.914
X119.5Y-117.0
X120.25Y-82.914
X122.0Y-117.0
X122.75Y-82.914
X124.5Y-117.0
X125.25Y-82.914
X127.0Y-117.0
X135.5Y-117.025
X138.0Y-117.025
X140.5Y-117.025
X143.0Y-117.025
X145.5Y-117.025
X148.0Y-117.025
X150.5Y-117.025
X154.0Y-82.914
X156.5Y-82.914
X159.0Y-82.914
X159.0Y-117.025
X161.5Y-117.025
X164.0Y-117.025
X166.5Y-117.025
X169.0Y-117.025
X171.5Y-117.025
X174.0Y-117.025
X182.5Y-117.0
X185.0Y-117.0
X187.5Y-117.0
X190.0Y-117.0
X215.0Y-82.975
X217.5Y-82.975
X220.0Y-82.975
X222.5Y-82.975
X225.0Y-82.975
X227.5Y-82.975
T6
X125.75Y-105.225
X128.25Y-105.225
X164.95Y-91.975
X167.49Y-91.975
X168.75Y-82.914
X170.03Y-91.975
X171.25Y-82.914
X172.57Y-91.975
X175.11Y-91.975
X206.575Y-105.61
X206.575Y-108.15
X206.575Y-110.69
X206.575Y-113.23
X206.575Y-115.77
X211.025Y-108.16
X211.025Y-110.7
X211.025Y-113.24
X211.025Y-115.78
X215.525Y-108.16
X215.525Y-110.7
X215.525Y-113.24
X215.525Y-115.78
X220.025Y-108.2
X220.025Y-110.74
X220.025Y-113.28
X220.025Y-115.82
X229.387Y-105.25
X231.887Y-105.25
T7
X131.5Y-81.5
X131.5Y-88.0
X136.0Y-81.5
X136.0Y-88.0
X143.25Y-81.5
X143.25Y-88.0
X147.75Y-81.5
X147.75Y-88.0
T8
X178.3Y-85.0
X183.0Y-85.0
X187.7Y-85.0
T9
X104.5Y-84.5
X104.5Y-115.5
X235.5Y-84.5
X235.5Y-115.5
T0
M30
