%TF.GenerationSoftware,KiCad,Pcbnew,(6.0.4)*%
%TF.CreationDate,2022-10-21T08:14:05+02:00*%
%TF.ProjectId,projet_robot_ese,70726f6a-6574-45f7-926f-626f745f6573,rev?*%
%TF.SameCoordinates,Original*%
%TF.FileFunction,Legend,Bot*%
%TF.FilePolarity,Positive*%
%FSLAX46Y46*%
G04 Gerber Fmt 4.6, Leading zero omitted, Abs format (unit mm)*
G04 Created by KiCad (PCBNEW (6.0.4)) date 2022-10-21 08:14:05*
%MOMM*%
%LPD*%
G01*
G04 APERTURE LIST*
G04 Aperture macros list*
%AMRoundRect*
0 Rectangle with rounded corners*
0 $1 Rounding radius*
0 $2 $3 $4 $5 $6 $7 $8 $9 X,Y pos of 4 corners*
0 Add a 4 corners polygon primitive as box body*
4,1,4,$2,$3,$4,$5,$6,$7,$8,$9,$2,$3,0*
0 Add four circle primitives for the rounded corners*
1,1,$1+$1,$2,$3*
1,1,$1+$1,$4,$5*
1,1,$1+$1,$6,$7*
1,1,$1+$1,$8,$9*
0 Add four rect primitives between the rounded corners*
20,1,$1+$1,$2,$3,$4,$5,0*
20,1,$1+$1,$4,$5,$6,$7,0*
20,1,$1+$1,$6,$7,$8,$9,0*
20,1,$1+$1,$8,$9,$2,$3,0*%
G04 Aperture macros list end*
%ADD10C,2.000000*%
%ADD11RoundRect,0.250000X-0.600000X-0.725000X0.600000X-0.725000X0.600000X0.725000X-0.600000X0.725000X0*%
%ADD12O,1.700000X1.950000*%
%ADD13R,1.700000X1.700000*%
%ADD14O,1.700000X1.700000*%
%ADD15R,1.600000X1.600000*%
%ADD16C,1.600000*%
%ADD17C,0.800000*%
%ADD18C,6.400000*%
%ADD19RoundRect,0.250000X0.600000X0.725000X-0.600000X0.725000X-0.600000X-0.725000X0.600000X-0.725000X0*%
%ADD20RoundRect,0.250000X0.725000X-0.600000X0.725000X0.600000X-0.725000X0.600000X-0.725000X-0.600000X0*%
%ADD21O,1.950000X1.700000*%
%ADD22RoundRect,0.250000X-0.600000X-0.750000X0.600000X-0.750000X0.600000X0.750000X-0.600000X0.750000X0*%
%ADD23O,1.700000X2.000000*%
%ADD24C,3.400000*%
G04 APERTURE END LIST*
%LPC*%
D10*
%TO.C,SW402*%
X131500000Y-88000000D03*
X131500000Y-81500000D03*
X136000000Y-81500000D03*
X136000000Y-88000000D03*
%TD*%
D11*
%TO.C,J302*%
X215000000Y-82975000D03*
D12*
X217500000Y-82975000D03*
X220000000Y-82975000D03*
X222500000Y-82975000D03*
X225000000Y-82975000D03*
X227500000Y-82975000D03*
%TD*%
D13*
%TO.C,J204*%
X213475000Y-108240000D03*
D14*
X213475000Y-110780000D03*
X213475000Y-113320000D03*
X213475000Y-115860000D03*
%TD*%
D13*
%TO.C,J408*%
X198500000Y-105650000D03*
D14*
X198500000Y-108190000D03*
X198500000Y-110730000D03*
X198500000Y-113270000D03*
X198500000Y-115810000D03*
%TD*%
D11*
%TO.C,J301*%
X112750000Y-82914000D03*
D12*
X115250000Y-82914000D03*
X117750000Y-82914000D03*
X120250000Y-82914000D03*
X122750000Y-82914000D03*
X125250000Y-82914000D03*
%TD*%
D15*
%TO.C,C205*%
X184250000Y-92500000D03*
D16*
X181750000Y-92500000D03*
%TD*%
D11*
%TO.C,J405*%
X154000000Y-82914000D03*
D12*
X156500000Y-82914000D03*
X159000000Y-82914000D03*
%TD*%
D17*
%TO.C,H102*%
X233802944Y-86197056D03*
X237197056Y-82802944D03*
X233802944Y-82802944D03*
D18*
X235500000Y-84500000D03*
D17*
X237197056Y-86197056D03*
X237900000Y-84500000D03*
X235500000Y-86900000D03*
X235500000Y-82100000D03*
X233100000Y-84500000D03*
%TD*%
D19*
%TO.C,J406*%
X127000000Y-117000000D03*
D12*
X124500000Y-117000000D03*
X122000000Y-117000000D03*
X119500000Y-117000000D03*
X117000000Y-117000000D03*
X114500000Y-117000000D03*
X112000000Y-117000000D03*
%TD*%
D20*
%TO.C,J407*%
X113500000Y-102500000D03*
D21*
X113500000Y-100000000D03*
X113500000Y-97500000D03*
%TD*%
D20*
%TO.C,J410*%
X235975000Y-103750000D03*
D21*
X235975000Y-101250000D03*
X235975000Y-98750000D03*
X235975000Y-96250000D03*
%TD*%
D22*
%TO.C,J402*%
X222000000Y-106475000D03*
D23*
X224500000Y-106475000D03*
%TD*%
D22*
%TO.C,J403*%
X222000000Y-114975000D03*
D23*
X224500000Y-114975000D03*
%TD*%
D22*
%TO.C,J201*%
X168750000Y-82914000D03*
D23*
X171250000Y-82914000D03*
%TD*%
D13*
%TO.C,J409*%
X164950000Y-91975000D03*
D14*
X167490000Y-91975000D03*
X170030000Y-91975000D03*
X172570000Y-91975000D03*
X175110000Y-91975000D03*
%TD*%
D20*
%TO.C,J411*%
X102975000Y-102500000D03*
D21*
X102975000Y-100000000D03*
X102975000Y-97500000D03*
%TD*%
D17*
%TO.C,H104*%
X104500000Y-117900000D03*
X104500000Y-113100000D03*
X102802944Y-117197056D03*
X102802944Y-113802944D03*
X106900000Y-115500000D03*
X102100000Y-115500000D03*
D18*
X104500000Y-115500000D03*
D17*
X106197056Y-117197056D03*
X106197056Y-113802944D03*
%TD*%
%TO.C,H103*%
X233802944Y-113802944D03*
X237900000Y-115500000D03*
X237197056Y-113802944D03*
X233802944Y-117197056D03*
X237197056Y-117197056D03*
X235500000Y-113100000D03*
D18*
X235500000Y-115500000D03*
D17*
X233100000Y-115500000D03*
X235500000Y-117900000D03*
%TD*%
D24*
%TO.C,SW201*%
X187700000Y-85000000D03*
X183000000Y-85000000D03*
X178300000Y-85000000D03*
%TD*%
D10*
%TO.C,SW401*%
X143250000Y-88000000D03*
X143250000Y-81500000D03*
X147750000Y-88000000D03*
X147750000Y-81500000D03*
%TD*%
D17*
%TO.C,H101*%
X106197056Y-86197056D03*
X102802944Y-86197056D03*
X104500000Y-86900000D03*
X106197056Y-82802944D03*
X102802944Y-82802944D03*
D18*
X104500000Y-84500000D03*
D17*
X102100000Y-84500000D03*
X106900000Y-84500000D03*
X104500000Y-82100000D03*
%TD*%
D19*
%TO.C,J412*%
X174000000Y-117025000D03*
D12*
X171500000Y-117025000D03*
X169000000Y-117025000D03*
X166500000Y-117025000D03*
X164000000Y-117025000D03*
X161500000Y-117025000D03*
X159000000Y-117025000D03*
%TD*%
D19*
%TO.C,J404*%
X150500000Y-117025000D03*
D12*
X148000000Y-117025000D03*
X145500000Y-117025000D03*
X143000000Y-117025000D03*
X140500000Y-117025000D03*
X138000000Y-117025000D03*
X135500000Y-117025000D03*
%TD*%
D13*
%TO.C,J202*%
X203475000Y-108200000D03*
D14*
X203475000Y-110740000D03*
X203475000Y-113280000D03*
X203475000Y-115820000D03*
%TD*%
D13*
%TO.C,J203*%
X208475000Y-108200000D03*
D14*
X208475000Y-110740000D03*
X208475000Y-113280000D03*
X208475000Y-115820000D03*
%TD*%
M02*
