%TF.GenerationSoftware,KiCad,Pcbnew,(6.0.4)*%
%TF.CreationDate,2022-10-21T15:33:49+02:00*%
%TF.ProjectId,projet_robot_ese,70726f6a-6574-45f7-926f-626f745f6573,rev?*%
%TF.SameCoordinates,Original*%
%TF.FileFunction,Paste,Top*%
%TF.FilePolarity,Positive*%
%FSLAX46Y46*%
G04 Gerber Fmt 4.6, Leading zero omitted, Abs format (unit mm)*
G04 Created by KiCad (PCBNEW (6.0.4)) date 2022-10-21 15:33:49*
%MOMM*%
%LPD*%
G01*
G04 APERTURE LIST*
G04 Aperture macros list*
%AMRoundRect*
0 Rectangle with rounded corners*
0 $1 Rounding radius*
0 $2 $3 $4 $5 $6 $7 $8 $9 X,Y pos of 4 corners*
0 Add a 4 corners polygon primitive as box body*
4,1,4,$2,$3,$4,$5,$6,$7,$8,$9,$2,$3,0*
0 Add four circle primitives for the rounded corners*
1,1,$1+$1,$2,$3*
1,1,$1+$1,$4,$5*
1,1,$1+$1,$6,$7*
1,1,$1+$1,$8,$9*
0 Add four rect primitives between the rounded corners*
20,1,$1+$1,$2,$3,$4,$5,0*
20,1,$1+$1,$4,$5,$6,$7,0*
20,1,$1+$1,$6,$7,$8,$9,0*
20,1,$1+$1,$8,$9,$2,$3,0*%
G04 Aperture macros list end*
%ADD10RoundRect,0.150000X-0.825000X-0.150000X0.825000X-0.150000X0.825000X0.150000X-0.825000X0.150000X0*%
%ADD11RoundRect,0.237500X-0.287500X-0.237500X0.287500X-0.237500X0.287500X0.237500X-0.287500X0.237500X0*%
%ADD12R,1.300000X1.000000*%
%ADD13RoundRect,0.237500X0.237500X-0.287500X0.237500X0.287500X-0.237500X0.287500X-0.237500X-0.287500X0*%
%ADD14RoundRect,0.237500X0.287500X0.237500X-0.287500X0.237500X-0.287500X-0.237500X0.287500X-0.237500X0*%
%ADD15RoundRect,0.237500X-0.250000X-0.237500X0.250000X-0.237500X0.250000X0.237500X-0.250000X0.237500X0*%
%ADD16RoundRect,0.237500X-0.237500X0.300000X-0.237500X-0.300000X0.237500X-0.300000X0.237500X0.300000X0*%
%ADD17RoundRect,0.237500X-0.300000X-0.237500X0.300000X-0.237500X0.300000X0.237500X-0.300000X0.237500X0*%
%ADD18RoundRect,0.237500X0.237500X-0.300000X0.237500X0.300000X-0.237500X0.300000X-0.237500X-0.300000X0*%
%ADD19RoundRect,0.237500X0.300000X0.237500X-0.300000X0.237500X-0.300000X-0.237500X0.300000X-0.237500X0*%
%ADD20RoundRect,0.237500X0.237500X-0.250000X0.237500X0.250000X-0.237500X0.250000X-0.237500X-0.250000X0*%
%ADD21RoundRect,0.237500X0.250000X0.237500X-0.250000X0.237500X-0.250000X-0.237500X0.250000X-0.237500X0*%
%ADD22RoundRect,0.075000X0.700000X0.075000X-0.700000X0.075000X-0.700000X-0.075000X0.700000X-0.075000X0*%
%ADD23RoundRect,0.075000X0.075000X0.700000X-0.075000X0.700000X-0.075000X-0.700000X0.075000X-0.700000X0*%
%ADD24RoundRect,0.250001X-0.462499X-0.624999X0.462499X-0.624999X0.462499X0.624999X-0.462499X0.624999X0*%
%ADD25R,1.560000X0.650000*%
%ADD26RoundRect,0.237500X-0.237500X0.250000X-0.237500X-0.250000X0.237500X-0.250000X0.237500X0.250000X0*%
%ADD27R,2.400000X0.740000*%
%ADD28R,2.000000X1.500000*%
%ADD29R,2.000000X3.800000*%
G04 APERTURE END LIST*
D10*
%TO.C,U301*%
X116541000Y-88095000D03*
X116541000Y-89365000D03*
X116541000Y-90635000D03*
X116541000Y-91905000D03*
X121491000Y-91905000D03*
X121491000Y-90635000D03*
X121491000Y-89365000D03*
X121491000Y-88095000D03*
%TD*%
D11*
%TO.C,D404*%
X142125000Y-105500000D03*
X143875000Y-105500000D03*
%TD*%
D12*
%TO.C,Y401*%
X184150000Y-102650000D03*
X186350000Y-102650000D03*
X186350000Y-100850000D03*
X184150000Y-100850000D03*
%TD*%
D13*
%TO.C,D402*%
X203750000Y-98875000D03*
X203750000Y-97125000D03*
%TD*%
D14*
%TO.C,D405*%
X148875000Y-105500000D03*
X147125000Y-105500000D03*
%TD*%
D15*
%TO.C,R401*%
X179587500Y-101250000D03*
X181412500Y-101250000D03*
%TD*%
D16*
%TO.C,C404*%
X139750000Y-81637500D03*
X139750000Y-83362500D03*
%TD*%
D17*
%TO.C,C405*%
X179637500Y-109000000D03*
X181362500Y-109000000D03*
%TD*%
D15*
%TO.C,R412*%
X208087500Y-102250000D03*
X209912500Y-102250000D03*
%TD*%
D18*
%TO.C,C410*%
X194000000Y-117362500D03*
X194000000Y-115637500D03*
%TD*%
D19*
%TO.C,C302*%
X215612500Y-89811000D03*
X213887500Y-89811000D03*
%TD*%
D15*
%TO.C,R201*%
X219087500Y-102250000D03*
X220912500Y-102250000D03*
%TD*%
D17*
%TO.C,C412*%
X156887500Y-87750000D03*
X158612500Y-87750000D03*
%TD*%
%TO.C,C303*%
X125000000Y-89365000D03*
X126725000Y-89365000D03*
%TD*%
D15*
%TO.C,R202*%
X213337500Y-102250000D03*
X215162500Y-102250000D03*
%TD*%
D19*
%TO.C,C301*%
X113475000Y-89750000D03*
X111750000Y-89750000D03*
%TD*%
D16*
%TO.C,C202*%
X202000000Y-81837500D03*
X202000000Y-83562500D03*
%TD*%
%TO.C,C204*%
X210566000Y-84137500D03*
X210566000Y-85862500D03*
%TD*%
D19*
%TO.C,C306*%
X215612500Y-88156000D03*
X213887500Y-88156000D03*
%TD*%
%TO.C,C305*%
X113475000Y-88095000D03*
X111750000Y-88095000D03*
%TD*%
D17*
%TO.C,C406*%
X179637500Y-104250000D03*
X181362500Y-104250000D03*
%TD*%
D18*
%TO.C,C409*%
X119250000Y-99362500D03*
X119250000Y-97637500D03*
%TD*%
%TO.C,C201*%
X202000000Y-88162500D03*
X202000000Y-86437500D03*
%TD*%
D10*
%TO.C,U302*%
X218776000Y-88156000D03*
X218776000Y-89426000D03*
X218776000Y-90696000D03*
X218776000Y-91966000D03*
X223726000Y-91966000D03*
X223726000Y-90696000D03*
X223726000Y-89426000D03*
X223726000Y-88156000D03*
%TD*%
D13*
%TO.C,D203*%
X214250000Y-98875000D03*
X214250000Y-97125000D03*
%TD*%
D15*
%TO.C,R403*%
X132837500Y-90500000D03*
X134662500Y-90500000D03*
%TD*%
%TO.C,R410*%
X197587500Y-102250000D03*
X199412500Y-102250000D03*
%TD*%
D20*
%TO.C,R406*%
X225637500Y-108437500D03*
X225637500Y-106612500D03*
%TD*%
D21*
%TO.C,R413*%
X143912500Y-107250000D03*
X142087500Y-107250000D03*
%TD*%
D15*
%TO.C,R409*%
X151837500Y-87750000D03*
X153662500Y-87750000D03*
%TD*%
D22*
%TO.C,U401*%
X175675000Y-107750000D03*
X175675000Y-107250000D03*
X175675000Y-106750000D03*
X175675000Y-106250000D03*
X175675000Y-105750000D03*
X175675000Y-105250000D03*
X175675000Y-104750000D03*
X175675000Y-104250000D03*
X175675000Y-103750000D03*
X175675000Y-103250000D03*
X175675000Y-102750000D03*
X175675000Y-102250000D03*
X175675000Y-101750000D03*
X175675000Y-101250000D03*
X175675000Y-100750000D03*
X175675000Y-100250000D03*
D23*
X173750000Y-98325000D03*
X173250000Y-98325000D03*
X172750000Y-98325000D03*
X172250000Y-98325000D03*
X171750000Y-98325000D03*
X171250000Y-98325000D03*
X170750000Y-98325000D03*
X170250000Y-98325000D03*
X169750000Y-98325000D03*
X169250000Y-98325000D03*
X168750000Y-98325000D03*
X168250000Y-98325000D03*
X167750000Y-98325000D03*
X167250000Y-98325000D03*
X166750000Y-98325000D03*
X166250000Y-98325000D03*
D22*
X164325000Y-100250000D03*
X164325000Y-100750000D03*
X164325000Y-101250000D03*
X164325000Y-101750000D03*
X164325000Y-102250000D03*
X164325000Y-102750000D03*
X164325000Y-103250000D03*
X164325000Y-103750000D03*
X164325000Y-104250000D03*
X164325000Y-104750000D03*
X164325000Y-105250000D03*
X164325000Y-105750000D03*
X164325000Y-106250000D03*
X164325000Y-106750000D03*
X164325000Y-107250000D03*
X164325000Y-107750000D03*
D23*
X166250000Y-109675000D03*
X166750000Y-109675000D03*
X167250000Y-109675000D03*
X167750000Y-109675000D03*
X168250000Y-109675000D03*
X168750000Y-109675000D03*
X169250000Y-109675000D03*
X169750000Y-109675000D03*
X170250000Y-109675000D03*
X170750000Y-109675000D03*
X171250000Y-109675000D03*
X171750000Y-109675000D03*
X172250000Y-109675000D03*
X172750000Y-109675000D03*
X173250000Y-109675000D03*
X173750000Y-109675000D03*
%TD*%
D11*
%TO.C,D201*%
X198125000Y-90000000D03*
X199875000Y-90000000D03*
%TD*%
D13*
%TO.C,D403*%
X209000000Y-98875000D03*
X209000000Y-97125000D03*
%TD*%
D20*
%TO.C,R407*%
X132000000Y-108412500D03*
X132000000Y-106587500D03*
%TD*%
D15*
%TO.C,R411*%
X202837500Y-102250000D03*
X204662500Y-102250000D03*
%TD*%
D24*
%TO.C,F201*%
X187512500Y-90000000D03*
X190487500Y-90000000D03*
%TD*%
D25*
%TO.C,U202*%
X204390000Y-84050000D03*
X204390000Y-85000000D03*
X204390000Y-85950000D03*
X207090000Y-85950000D03*
X207090000Y-84050000D03*
%TD*%
D17*
%TO.C,C203*%
X204887500Y-89000000D03*
X206612500Y-89000000D03*
%TD*%
D26*
%TO.C,R404*%
X139750000Y-86087500D03*
X139750000Y-87912500D03*
%TD*%
D27*
%TO.C,J401*%
X143550000Y-94940000D03*
X147450000Y-94940000D03*
X143550000Y-96210000D03*
X147450000Y-96210000D03*
X143550000Y-97480000D03*
X147450000Y-97480000D03*
X143550000Y-98750000D03*
X147450000Y-98750000D03*
X143550000Y-100020000D03*
X147450000Y-100020000D03*
X143550000Y-101290000D03*
X147450000Y-101290000D03*
X143550000Y-102560000D03*
X147450000Y-102560000D03*
%TD*%
D17*
%TO.C,C401*%
X179637500Y-99750000D03*
X181362500Y-99750000D03*
%TD*%
D18*
%TO.C,C411*%
X108750000Y-99362500D03*
X108750000Y-97637500D03*
%TD*%
D17*
%TO.C,C304*%
X226887500Y-89426000D03*
X228612500Y-89426000D03*
%TD*%
%TO.C,C407*%
X179637500Y-107500000D03*
X181362500Y-107500000D03*
%TD*%
%TO.C,C408*%
X179637500Y-105750000D03*
X181362500Y-105750000D03*
%TD*%
D13*
%TO.C,D401*%
X198500000Y-98875000D03*
X198500000Y-97125000D03*
%TD*%
D20*
%TO.C,R405*%
X235637500Y-108437500D03*
X235637500Y-106612500D03*
%TD*%
D28*
%TO.C,U201*%
X198150000Y-87300000D03*
X198150000Y-85000000D03*
X198150000Y-82700000D03*
D29*
X191850000Y-85000000D03*
%TD*%
D20*
%TO.C,R408*%
X122000000Y-108412500D03*
X122000000Y-106587500D03*
%TD*%
D18*
%TO.C,C403*%
X188750000Y-104362500D03*
X188750000Y-102637500D03*
%TD*%
D15*
%TO.C,R414*%
X147087500Y-107250000D03*
X148912500Y-107250000D03*
%TD*%
D18*
%TO.C,C402*%
X188750000Y-100862500D03*
X188750000Y-99137500D03*
%TD*%
D13*
%TO.C,D202*%
X220000000Y-98875000D03*
X220000000Y-97125000D03*
%TD*%
M02*
