%TF.GenerationSoftware,KiCad,Pcbnew,(6.0.4)*%
%TF.CreationDate,2022-10-27T10:26:44+02:00*%
%TF.ProjectId,projet_robot_ese,70726f6a-6574-45f7-926f-626f745f6573,rev?*%
%TF.SameCoordinates,Original*%
%TF.FileFunction,Legend,Top*%
%TF.FilePolarity,Positive*%
%FSLAX46Y46*%
G04 Gerber Fmt 4.6, Leading zero omitted, Abs format (unit mm)*
G04 Created by KiCad (PCBNEW (6.0.4)) date 2022-10-27 10:26:44*
%MOMM*%
%LPD*%
G01*
G04 APERTURE LIST*
G04 Aperture macros list*
%AMRoundRect*
0 Rectangle with rounded corners*
0 $1 Rounding radius*
0 $2 $3 $4 $5 $6 $7 $8 $9 X,Y pos of 4 corners*
0 Add a 4 corners polygon primitive as box body*
4,1,4,$2,$3,$4,$5,$6,$7,$8,$9,$2,$3,0*
0 Add four circle primitives for the rounded corners*
1,1,$1+$1,$2,$3*
1,1,$1+$1,$4,$5*
1,1,$1+$1,$6,$7*
1,1,$1+$1,$8,$9*
0 Add four rect primitives between the rounded corners*
20,1,$1+$1,$2,$3,$4,$5,0*
20,1,$1+$1,$4,$5,$6,$7,0*
20,1,$1+$1,$6,$7,$8,$9,0*
20,1,$1+$1,$8,$9,$2,$3,0*%
%AMFreePoly0*
4,1,6,1.000000,0.000000,0.500000,-0.750000,-0.500000,-0.750000,-0.500000,0.750000,0.500000,0.750000,1.000000,0.000000,1.000000,0.000000,$1*%
%AMFreePoly1*
4,1,6,0.500000,-0.750000,-0.650000,-0.750000,-0.150000,0.000000,-0.650000,0.750000,0.500000,0.750000,0.500000,-0.750000,0.500000,-0.750000,$1*%
G04 Aperture macros list end*
%ADD10C,0.150000*%
%ADD11C,0.120000*%
%ADD12C,0.254000*%
%ADD13C,0.340000*%
%ADD14RoundRect,0.150000X-0.825000X-0.150000X0.825000X-0.150000X0.825000X0.150000X-0.825000X0.150000X0*%
%ADD15RoundRect,0.237500X-0.287500X-0.237500X0.287500X-0.237500X0.287500X0.237500X-0.287500X0.237500X0*%
%ADD16C,2.000000*%
%ADD17R,1.300000X1.000000*%
%ADD18RoundRect,0.250000X-0.600000X-0.725000X0.600000X-0.725000X0.600000X0.725000X-0.600000X0.725000X0*%
%ADD19O,1.700000X1.950000*%
%ADD20R,1.700000X1.700000*%
%ADD21O,1.700000X1.700000*%
%ADD22RoundRect,0.237500X0.237500X-0.287500X0.237500X0.287500X-0.237500X0.287500X-0.237500X-0.287500X0*%
%ADD23RoundRect,0.237500X0.287500X0.237500X-0.287500X0.237500X-0.287500X-0.237500X0.287500X-0.237500X0*%
%ADD24RoundRect,0.237500X-0.250000X-0.237500X0.250000X-0.237500X0.250000X0.237500X-0.250000X0.237500X0*%
%ADD25RoundRect,0.237500X-0.237500X0.300000X-0.237500X-0.300000X0.237500X-0.300000X0.237500X0.300000X0*%
%ADD26RoundRect,0.237500X-0.300000X-0.237500X0.300000X-0.237500X0.300000X0.237500X-0.300000X0.237500X0*%
%ADD27RoundRect,0.237500X0.237500X-0.300000X0.237500X0.300000X-0.237500X0.300000X-0.237500X-0.300000X0*%
%ADD28RoundRect,0.237500X0.300000X0.237500X-0.300000X0.237500X-0.300000X-0.237500X0.300000X-0.237500X0*%
%ADD29R,1.600000X1.600000*%
%ADD30C,1.600000*%
%ADD31C,0.800000*%
%ADD32C,6.400000*%
%ADD33RoundRect,0.250000X0.600000X0.725000X-0.600000X0.725000X-0.600000X-0.725000X0.600000X-0.725000X0*%
%ADD34FreePoly0,180.000000*%
%ADD35FreePoly1,180.000000*%
%ADD36RoundRect,0.250000X0.725000X-0.600000X0.725000X0.600000X-0.725000X0.600000X-0.725000X-0.600000X0*%
%ADD37O,1.950000X1.700000*%
%ADD38FreePoly0,0.000000*%
%ADD39FreePoly1,0.000000*%
%ADD40RoundRect,0.250000X-0.600000X-0.750000X0.600000X-0.750000X0.600000X0.750000X-0.600000X0.750000X0*%
%ADD41O,1.700000X2.000000*%
%ADD42RoundRect,0.237500X0.237500X-0.250000X0.237500X0.250000X-0.237500X0.250000X-0.237500X-0.250000X0*%
%ADD43RoundRect,0.237500X0.250000X0.237500X-0.250000X0.237500X-0.250000X-0.237500X0.250000X-0.237500X0*%
%ADD44RoundRect,0.075000X0.700000X0.075000X-0.700000X0.075000X-0.700000X-0.075000X0.700000X-0.075000X0*%
%ADD45RoundRect,0.075000X0.075000X0.700000X-0.075000X0.700000X-0.075000X-0.700000X0.075000X-0.700000X0*%
%ADD46RoundRect,0.250001X-0.462499X-0.624999X0.462499X-0.624999X0.462499X0.624999X-0.462499X0.624999X0*%
%ADD47R,1.560000X0.650000*%
%ADD48RoundRect,0.237500X-0.237500X0.250000X-0.237500X-0.250000X0.237500X-0.250000X0.237500X0.250000X0*%
%ADD49C,3.400000*%
%ADD50R,1.000000X1.500000*%
%ADD51R,2.400000X0.740000*%
%ADD52R,2.000000X1.500000*%
%ADD53R,2.000000X3.800000*%
G04 APERTURE END LIST*
D10*
X200550000Y-113960000D02*
X204550000Y-113960000D01*
X204550000Y-113960000D02*
X204550000Y-112460000D01*
X204550000Y-112460000D02*
X200550000Y-112460000D01*
X200550000Y-112460000D02*
X200550000Y-113960000D01*
G36*
X200550000Y-113960000D02*
G01*
X204550000Y-113960000D01*
X204550000Y-112460000D01*
X200550000Y-112460000D01*
X200550000Y-113960000D01*
G37*
X143000000Y-90000000D02*
X148000000Y-90000000D01*
X148000000Y-90000000D02*
X148000000Y-92000000D01*
X148000000Y-92000000D02*
X143000000Y-92000000D01*
X143000000Y-92000000D02*
X143000000Y-90000000D01*
G36*
X143000000Y-90000000D02*
G01*
X148000000Y-90000000D01*
X148000000Y-92000000D01*
X143000000Y-92000000D01*
X143000000Y-90000000D01*
G37*
X141000000Y-111750000D02*
X145000000Y-111750000D01*
X145000000Y-111750000D02*
X145000000Y-108250000D01*
X145000000Y-108250000D02*
X141000000Y-108250000D01*
X141000000Y-108250000D02*
X141000000Y-111750000D01*
G36*
X141000000Y-111750000D02*
G01*
X145000000Y-111750000D01*
X145000000Y-108250000D01*
X141000000Y-108250000D01*
X141000000Y-111750000D01*
G37*
X200550000Y-116710000D02*
X204550000Y-116710000D01*
X204550000Y-116710000D02*
X204550000Y-115210000D01*
X204550000Y-115210000D02*
X200550000Y-115210000D01*
X200550000Y-115210000D02*
X200550000Y-116710000D01*
G36*
X200550000Y-116710000D02*
G01*
X204550000Y-116710000D01*
X204550000Y-115210000D01*
X200550000Y-115210000D01*
X200550000Y-116710000D01*
G37*
X126000000Y-111000000D02*
X136500000Y-111000000D01*
X136500000Y-111000000D02*
X136500000Y-113000000D01*
X136500000Y-113000000D02*
X126000000Y-113000000D01*
X126000000Y-113000000D02*
X126000000Y-111000000D01*
G36*
X126000000Y-111000000D02*
G01*
X136500000Y-111000000D01*
X136500000Y-113000000D01*
X126000000Y-113000000D01*
X126000000Y-111000000D01*
G37*
X228637500Y-102250000D02*
X232637500Y-102250000D01*
X232637500Y-102250000D02*
X232637500Y-100750000D01*
X232637500Y-100750000D02*
X228637500Y-100750000D01*
X228637500Y-100750000D02*
X228637500Y-102250000D01*
G36*
X228637500Y-102250000D02*
G01*
X232637500Y-102250000D01*
X232637500Y-100750000D01*
X228637500Y-100750000D01*
X228637500Y-102250000D01*
G37*
X180250000Y-111000000D02*
X192250000Y-111000000D01*
X192250000Y-111000000D02*
X192250000Y-113000000D01*
X192250000Y-113000000D02*
X180250000Y-113000000D01*
X180250000Y-113000000D02*
X180250000Y-111000000D01*
G36*
X180250000Y-111000000D02*
G01*
X192250000Y-111000000D01*
X192250000Y-113000000D01*
X180250000Y-113000000D01*
X180250000Y-111000000D01*
G37*
X164250000Y-93750000D02*
X165750000Y-93750000D01*
X165750000Y-93750000D02*
X165750000Y-96750000D01*
X165750000Y-96750000D02*
X164250000Y-96750000D01*
X164250000Y-96750000D02*
X164250000Y-93750000D01*
G36*
X164250000Y-93750000D02*
G01*
X165750000Y-93750000D01*
X165750000Y-96750000D01*
X164250000Y-96750000D01*
X164250000Y-93750000D01*
G37*
X153750000Y-90250000D02*
X159250000Y-90250000D01*
X159250000Y-90250000D02*
X159250000Y-92250000D01*
X159250000Y-92250000D02*
X153750000Y-92250000D01*
X153750000Y-92250000D02*
X153750000Y-90250000D01*
G36*
X153750000Y-90250000D02*
G01*
X159250000Y-90250000D01*
X159250000Y-92250000D01*
X153750000Y-92250000D01*
X153750000Y-90250000D01*
G37*
X218050000Y-106210000D02*
X222050000Y-106210000D01*
X222050000Y-106210000D02*
X222050000Y-104710000D01*
X222050000Y-104710000D02*
X218050000Y-104710000D01*
X218050000Y-104710000D02*
X218050000Y-106210000D01*
G36*
X218050000Y-106210000D02*
G01*
X222050000Y-106210000D01*
X222050000Y-104710000D01*
X218050000Y-104710000D01*
X218050000Y-106210000D01*
G37*
X217500000Y-96000000D02*
X219000000Y-96000000D01*
X219000000Y-96000000D02*
X219000000Y-100000000D01*
X219000000Y-100000000D02*
X217500000Y-100000000D01*
X217500000Y-100000000D02*
X217500000Y-96000000D01*
G36*
X217500000Y-96000000D02*
G01*
X219000000Y-96000000D01*
X219000000Y-100000000D01*
X217500000Y-100000000D01*
X217500000Y-96000000D01*
G37*
X201250000Y-96000000D02*
X202750000Y-96000000D01*
X202750000Y-96000000D02*
X202750000Y-100000000D01*
X202750000Y-100000000D02*
X201250000Y-100000000D01*
X201250000Y-100000000D02*
X201250000Y-96000000D01*
G36*
X201250000Y-96000000D02*
G01*
X202750000Y-96000000D01*
X202750000Y-100000000D01*
X201250000Y-100000000D01*
X201250000Y-96000000D01*
G37*
X171750000Y-93750000D02*
X173250000Y-93750000D01*
X173250000Y-93750000D02*
X173250000Y-96750000D01*
X173250000Y-96750000D02*
X171750000Y-96750000D01*
X171750000Y-96750000D02*
X171750000Y-93750000D01*
G36*
X171750000Y-93750000D02*
G01*
X173250000Y-93750000D01*
X173250000Y-96750000D01*
X171750000Y-96750000D01*
X171750000Y-93750000D01*
G37*
X166750000Y-93750000D02*
X168250000Y-93750000D01*
X168250000Y-93750000D02*
X168250000Y-96750000D01*
X168250000Y-96750000D02*
X166750000Y-96750000D01*
X166750000Y-96750000D02*
X166750000Y-93750000D01*
G36*
X166750000Y-93750000D02*
G01*
X168250000Y-93750000D01*
X168250000Y-96750000D01*
X166750000Y-96750000D01*
X166750000Y-93750000D01*
G37*
X160500000Y-111000000D02*
X172500000Y-111000000D01*
X172500000Y-111000000D02*
X172500000Y-113000000D01*
X172500000Y-113000000D02*
X160500000Y-113000000D01*
X160500000Y-113000000D02*
X160500000Y-111000000D01*
G36*
X160500000Y-111000000D02*
G01*
X172500000Y-111000000D01*
X172500000Y-113000000D01*
X160500000Y-113000000D01*
X160500000Y-111000000D01*
G37*
X211750000Y-96000000D02*
X213250000Y-96000000D01*
X213250000Y-96000000D02*
X213250000Y-100000000D01*
X213250000Y-100000000D02*
X211750000Y-100000000D01*
X211750000Y-100000000D02*
X211750000Y-96000000D01*
G36*
X211750000Y-96000000D02*
G01*
X213250000Y-96000000D01*
X213250000Y-100000000D01*
X211750000Y-100000000D01*
X211750000Y-96000000D01*
G37*
X100750000Y-107250000D02*
X117000000Y-107250000D01*
X117000000Y-107250000D02*
X117000000Y-109250000D01*
X117000000Y-109250000D02*
X100750000Y-109250000D01*
X100750000Y-109250000D02*
X100750000Y-107250000D01*
G36*
X100750000Y-107250000D02*
G01*
X117000000Y-107250000D01*
X117000000Y-109250000D01*
X100750000Y-109250000D01*
X100750000Y-107250000D01*
G37*
X174250000Y-93750000D02*
X175750000Y-93750000D01*
X175750000Y-93750000D02*
X175750000Y-96750000D01*
X175750000Y-96750000D02*
X174250000Y-96750000D01*
X174250000Y-96750000D02*
X174250000Y-93750000D01*
G36*
X174250000Y-93750000D02*
G01*
X175750000Y-93750000D01*
X175750000Y-96750000D01*
X174250000Y-96750000D01*
X174250000Y-93750000D01*
G37*
X146000000Y-111750000D02*
X150000000Y-111750000D01*
X150000000Y-111750000D02*
X150000000Y-108250000D01*
X150000000Y-108250000D02*
X146000000Y-108250000D01*
X146000000Y-108250000D02*
X146000000Y-111750000D01*
G36*
X146000000Y-111750000D02*
G01*
X150000000Y-111750000D01*
X150000000Y-108250000D01*
X146000000Y-108250000D01*
X146000000Y-111750000D01*
G37*
X125000000Y-102250000D02*
X129000000Y-102250000D01*
X129000000Y-102250000D02*
X129000000Y-100750000D01*
X129000000Y-100750000D02*
X125000000Y-100750000D01*
X125000000Y-100750000D02*
X125000000Y-102250000D01*
G36*
X125000000Y-102250000D02*
G01*
X129000000Y-102250000D01*
X129000000Y-100750000D01*
X125000000Y-100750000D01*
X125000000Y-102250000D01*
G37*
X206500000Y-96000000D02*
X208000000Y-96000000D01*
X208000000Y-96000000D02*
X208000000Y-100000000D01*
X208000000Y-100000000D02*
X206500000Y-100000000D01*
X206500000Y-100000000D02*
X206500000Y-96000000D01*
G36*
X206500000Y-96000000D02*
G01*
X208000000Y-96000000D01*
X208000000Y-100000000D01*
X206500000Y-100000000D01*
X206500000Y-96000000D01*
G37*
X200550000Y-106210000D02*
X204550000Y-106210000D01*
X204550000Y-106210000D02*
X204550000Y-104710000D01*
X204550000Y-104710000D02*
X200550000Y-104710000D01*
X200550000Y-104710000D02*
X200550000Y-106210000D01*
G36*
X200550000Y-106210000D02*
G01*
X204550000Y-106210000D01*
X204550000Y-104710000D01*
X200550000Y-104710000D01*
X200550000Y-106210000D01*
G37*
X209050000Y-106210000D02*
X213050000Y-106210000D01*
X213050000Y-106210000D02*
X213050000Y-104710000D01*
X213050000Y-104710000D02*
X209050000Y-104710000D01*
X209050000Y-104710000D02*
X209050000Y-106210000D01*
G36*
X209050000Y-106210000D02*
G01*
X213050000Y-106210000D01*
X213050000Y-104710000D01*
X209050000Y-104710000D01*
X209050000Y-106210000D01*
G37*
X200550000Y-111460000D02*
X204550000Y-111460000D01*
X204550000Y-111460000D02*
X204550000Y-109960000D01*
X204550000Y-109960000D02*
X200550000Y-109960000D01*
X200550000Y-109960000D02*
X200550000Y-111460000D01*
G36*
X200550000Y-111460000D02*
G01*
X204550000Y-111460000D01*
X204550000Y-109960000D01*
X200550000Y-109960000D01*
X200550000Y-111460000D01*
G37*
X200550000Y-108960000D02*
X204550000Y-108960000D01*
X204550000Y-108960000D02*
X204550000Y-107460000D01*
X204550000Y-107460000D02*
X200550000Y-107460000D01*
X200550000Y-107460000D02*
X200550000Y-108960000D01*
G36*
X200550000Y-108960000D02*
G01*
X204550000Y-108960000D01*
X204550000Y-107460000D01*
X200550000Y-107460000D01*
X200550000Y-108960000D01*
G37*
X213550000Y-106210000D02*
X217550000Y-106210000D01*
X217550000Y-106210000D02*
X217550000Y-104710000D01*
X217550000Y-104710000D02*
X213550000Y-104710000D01*
X213550000Y-104710000D02*
X213550000Y-106210000D01*
G36*
X213550000Y-106210000D02*
G01*
X217550000Y-106210000D01*
X217550000Y-104710000D01*
X213550000Y-104710000D01*
X213550000Y-106210000D01*
G37*
X164750000Y-87000000D02*
X175250000Y-87000000D01*
X175250000Y-87000000D02*
X175250000Y-89000000D01*
X175250000Y-89000000D02*
X164750000Y-89000000D01*
X164750000Y-89000000D02*
X164750000Y-87000000D01*
G36*
X164750000Y-87000000D02*
G01*
X175250000Y-87000000D01*
X175250000Y-89000000D01*
X164750000Y-89000000D01*
X164750000Y-87000000D01*
G37*
X196000000Y-96000000D02*
X197500000Y-96000000D01*
X197500000Y-96000000D02*
X197500000Y-100000000D01*
X197500000Y-100000000D02*
X196000000Y-100000000D01*
X196000000Y-100000000D02*
X196000000Y-96000000D01*
G36*
X196000000Y-96000000D02*
G01*
X197500000Y-96000000D01*
X197500000Y-100000000D01*
X196000000Y-100000000D01*
X196000000Y-96000000D01*
G37*
X169250000Y-93750000D02*
X170750000Y-93750000D01*
X170750000Y-93750000D02*
X170750000Y-96750000D01*
X170750000Y-96750000D02*
X169250000Y-96750000D01*
X169250000Y-96750000D02*
X169250000Y-93750000D01*
G36*
X169250000Y-93750000D02*
G01*
X170750000Y-93750000D01*
X170750000Y-96750000D01*
X169250000Y-96750000D01*
X169250000Y-93750000D01*
G37*
X233166666Y-96123571D02*
X233309523Y-96171190D01*
X233357142Y-96218809D01*
X233404761Y-96314047D01*
X233404761Y-96456904D01*
X233357142Y-96552142D01*
X233309523Y-96599761D01*
X233214285Y-96647380D01*
X232833333Y-96647380D01*
X232833333Y-95647380D01*
X233166666Y-95647380D01*
X233261904Y-95695000D01*
X233309523Y-95742619D01*
X233357142Y-95837857D01*
X233357142Y-95933095D01*
X233309523Y-96028333D01*
X233261904Y-96075952D01*
X233166666Y-96123571D01*
X232833333Y-96123571D01*
X233833333Y-96647380D02*
X233833333Y-95980714D01*
X233833333Y-95647380D02*
X233785714Y-95695000D01*
X233833333Y-95742619D01*
X233880952Y-95695000D01*
X233833333Y-95647380D01*
X233833333Y-95742619D01*
X234690476Y-96599761D02*
X234595238Y-96647380D01*
X234404761Y-96647380D01*
X234309523Y-96599761D01*
X234261904Y-96504523D01*
X234261904Y-96123571D01*
X234309523Y-96028333D01*
X234404761Y-95980714D01*
X234595238Y-95980714D01*
X234690476Y-96028333D01*
X234738095Y-96123571D01*
X234738095Y-96218809D01*
X234261904Y-96314047D01*
X234404761Y-95599761D02*
X234547619Y-95742619D01*
X235166666Y-96647380D02*
X235166666Y-95980714D01*
X235166666Y-96171190D02*
X235214285Y-96075952D01*
X235261904Y-96028333D01*
X235357142Y-95980714D01*
X235452380Y-95980714D01*
X236166666Y-96599761D02*
X236071428Y-96647380D01*
X235880952Y-96647380D01*
X235785714Y-96599761D01*
X235738095Y-96504523D01*
X235738095Y-96123571D01*
X235785714Y-96028333D01*
X235880952Y-95980714D01*
X236071428Y-95980714D01*
X236166666Y-96028333D01*
X236214285Y-96123571D01*
X236214285Y-96218809D01*
X235738095Y-96314047D01*
X231214285Y-98257380D02*
X231214285Y-97257380D01*
X231452380Y-97257380D01*
X231595238Y-97305000D01*
X231690476Y-97400238D01*
X231738095Y-97495476D01*
X231785714Y-97685952D01*
X231785714Y-97828809D01*
X231738095Y-98019285D01*
X231690476Y-98114523D01*
X231595238Y-98209761D01*
X231452380Y-98257380D01*
X231214285Y-98257380D01*
X232119047Y-97590714D02*
X232357142Y-98257380D01*
X232595238Y-97590714D02*
X232357142Y-98257380D01*
X232261904Y-98495476D01*
X232214285Y-98543095D01*
X232119047Y-98590714D01*
X232976190Y-97590714D02*
X232976190Y-98257380D01*
X232976190Y-97685952D02*
X233023809Y-97638333D01*
X233119047Y-97590714D01*
X233261904Y-97590714D01*
X233357142Y-97638333D01*
X233404761Y-97733571D01*
X233404761Y-98257380D01*
X234309523Y-98257380D02*
X234309523Y-97733571D01*
X234261904Y-97638333D01*
X234166666Y-97590714D01*
X233976190Y-97590714D01*
X233880952Y-97638333D01*
X234309523Y-98209761D02*
X234214285Y-98257380D01*
X233976190Y-98257380D01*
X233880952Y-98209761D01*
X233833333Y-98114523D01*
X233833333Y-98019285D01*
X233880952Y-97924047D01*
X233976190Y-97876428D01*
X234214285Y-97876428D01*
X234309523Y-97828809D01*
X234785714Y-98257380D02*
X234785714Y-97590714D01*
X234785714Y-97685952D02*
X234833333Y-97638333D01*
X234928571Y-97590714D01*
X235071428Y-97590714D01*
X235166666Y-97638333D01*
X235214285Y-97733571D01*
X235214285Y-98257380D01*
X235214285Y-97733571D02*
X235261904Y-97638333D01*
X235357142Y-97590714D01*
X235500000Y-97590714D01*
X235595238Y-97638333D01*
X235642857Y-97733571D01*
X235642857Y-98257380D01*
X236119047Y-98257380D02*
X236119047Y-97590714D01*
X236119047Y-97257380D02*
X236071428Y-97305000D01*
X236119047Y-97352619D01*
X236166666Y-97305000D01*
X236119047Y-97257380D01*
X236119047Y-97352619D01*
X237023809Y-98209761D02*
X236928571Y-98257380D01*
X236738095Y-98257380D01*
X236642857Y-98209761D01*
X236595238Y-98162142D01*
X236547619Y-98066904D01*
X236547619Y-97781190D01*
X236595238Y-97685952D01*
X236642857Y-97638333D01*
X236738095Y-97590714D01*
X236928571Y-97590714D01*
X237023809Y-97638333D01*
X237404761Y-98209761D02*
X237500000Y-98257380D01*
X237690476Y-98257380D01*
X237785714Y-98209761D01*
X237833333Y-98114523D01*
X237833333Y-98066904D01*
X237785714Y-97971666D01*
X237690476Y-97924047D01*
X237547619Y-97924047D01*
X237452380Y-97876428D01*
X237404761Y-97781190D01*
X237404761Y-97733571D01*
X237452380Y-97638333D01*
X237547619Y-97590714D01*
X237690476Y-97590714D01*
X237785714Y-97638333D01*
X174619047Y-83071428D02*
X175380952Y-83071428D01*
X175000000Y-83452380D02*
X175000000Y-82690476D01*
%TO.C,U301*%
X117301714Y-92952380D02*
X117301714Y-93761904D01*
X117349333Y-93857142D01*
X117396952Y-93904761D01*
X117492190Y-93952380D01*
X117682666Y-93952380D01*
X117777904Y-93904761D01*
X117825523Y-93857142D01*
X117873142Y-93761904D01*
X117873142Y-92952380D01*
X118254095Y-92952380D02*
X118873142Y-92952380D01*
X118539809Y-93333333D01*
X118682666Y-93333333D01*
X118777904Y-93380952D01*
X118825523Y-93428571D01*
X118873142Y-93523809D01*
X118873142Y-93761904D01*
X118825523Y-93857142D01*
X118777904Y-93904761D01*
X118682666Y-93952380D01*
X118396952Y-93952380D01*
X118301714Y-93904761D01*
X118254095Y-93857142D01*
X119492190Y-92952380D02*
X119587428Y-92952380D01*
X119682666Y-93000000D01*
X119730285Y-93047619D01*
X119777904Y-93142857D01*
X119825523Y-93333333D01*
X119825523Y-93571428D01*
X119777904Y-93761904D01*
X119730285Y-93857142D01*
X119682666Y-93904761D01*
X119587428Y-93952380D01*
X119492190Y-93952380D01*
X119396952Y-93904761D01*
X119349333Y-93857142D01*
X119301714Y-93761904D01*
X119254095Y-93571428D01*
X119254095Y-93333333D01*
X119301714Y-93142857D01*
X119349333Y-93047619D01*
X119396952Y-93000000D01*
X119492190Y-92952380D01*
X120777904Y-93952380D02*
X120206476Y-93952380D01*
X120492190Y-93952380D02*
X120492190Y-92952380D01*
X120396952Y-93095238D01*
X120301714Y-93190476D01*
X120206476Y-93238095D01*
%TO.C,SW402*%
X129654761Y-87035714D02*
X129702380Y-86892857D01*
X129702380Y-86654761D01*
X129654761Y-86559523D01*
X129607142Y-86511904D01*
X129511904Y-86464285D01*
X129416666Y-86464285D01*
X129321428Y-86511904D01*
X129273809Y-86559523D01*
X129226190Y-86654761D01*
X129178571Y-86845238D01*
X129130952Y-86940476D01*
X129083333Y-86988095D01*
X128988095Y-87035714D01*
X128892857Y-87035714D01*
X128797619Y-86988095D01*
X128750000Y-86940476D01*
X128702380Y-86845238D01*
X128702380Y-86607142D01*
X128750000Y-86464285D01*
X128702380Y-86130952D02*
X129702380Y-85892857D01*
X128988095Y-85702380D01*
X129702380Y-85511904D01*
X128702380Y-85273809D01*
X129035714Y-84464285D02*
X129702380Y-84464285D01*
X128654761Y-84702380D02*
X129369047Y-84940476D01*
X129369047Y-84321428D01*
X128702380Y-83750000D02*
X128702380Y-83654761D01*
X128750000Y-83559523D01*
X128797619Y-83511904D01*
X128892857Y-83464285D01*
X129083333Y-83416666D01*
X129321428Y-83416666D01*
X129511904Y-83464285D01*
X129607142Y-83511904D01*
X129654761Y-83559523D01*
X129702380Y-83654761D01*
X129702380Y-83750000D01*
X129654761Y-83845238D01*
X129607142Y-83892857D01*
X129511904Y-83940476D01*
X129321428Y-83988095D01*
X129083333Y-83988095D01*
X128892857Y-83940476D01*
X128797619Y-83892857D01*
X128750000Y-83845238D01*
X128702380Y-83750000D01*
X128797619Y-83035714D02*
X128750000Y-82988095D01*
X128702380Y-82892857D01*
X128702380Y-82654761D01*
X128750000Y-82559523D01*
X128797619Y-82511904D01*
X128892857Y-82464285D01*
X128988095Y-82464285D01*
X129130952Y-82511904D01*
X129702380Y-83083333D01*
X129702380Y-82464285D01*
%TO.C,Y401*%
X183821428Y-99276190D02*
X183821428Y-99752380D01*
X183488095Y-98752380D02*
X183821428Y-99276190D01*
X184154761Y-98752380D01*
X184916666Y-99085714D02*
X184916666Y-99752380D01*
X184678571Y-98704761D02*
X184440476Y-99419047D01*
X185059523Y-99419047D01*
X185630952Y-98752380D02*
X185726190Y-98752380D01*
X185821428Y-98800000D01*
X185869047Y-98847619D01*
X185916666Y-98942857D01*
X185964285Y-99133333D01*
X185964285Y-99371428D01*
X185916666Y-99561904D01*
X185869047Y-99657142D01*
X185821428Y-99704761D01*
X185726190Y-99752380D01*
X185630952Y-99752380D01*
X185535714Y-99704761D01*
X185488095Y-99657142D01*
X185440476Y-99561904D01*
X185392857Y-99371428D01*
X185392857Y-99133333D01*
X185440476Y-98942857D01*
X185488095Y-98847619D01*
X185535714Y-98800000D01*
X185630952Y-98752380D01*
X186916666Y-99752380D02*
X186345238Y-99752380D01*
X186630952Y-99752380D02*
X186630952Y-98752380D01*
X186535714Y-98895238D01*
X186440476Y-98990476D01*
X186345238Y-99038095D01*
%TO.C,J302*%
X219964285Y-84452380D02*
X219964285Y-85166666D01*
X219916666Y-85309523D01*
X219821428Y-85404761D01*
X219678571Y-85452380D01*
X219583333Y-85452380D01*
X220345238Y-84452380D02*
X220964285Y-84452380D01*
X220630952Y-84833333D01*
X220773809Y-84833333D01*
X220869047Y-84880952D01*
X220916666Y-84928571D01*
X220964285Y-85023809D01*
X220964285Y-85261904D01*
X220916666Y-85357142D01*
X220869047Y-85404761D01*
X220773809Y-85452380D01*
X220488095Y-85452380D01*
X220392857Y-85404761D01*
X220345238Y-85357142D01*
X221583333Y-84452380D02*
X221678571Y-84452380D01*
X221773809Y-84500000D01*
X221821428Y-84547619D01*
X221869047Y-84642857D01*
X221916666Y-84833333D01*
X221916666Y-85071428D01*
X221869047Y-85261904D01*
X221821428Y-85357142D01*
X221773809Y-85404761D01*
X221678571Y-85452380D01*
X221583333Y-85452380D01*
X221488095Y-85404761D01*
X221440476Y-85357142D01*
X221392857Y-85261904D01*
X221345238Y-85071428D01*
X221345238Y-84833333D01*
X221392857Y-84642857D01*
X221440476Y-84547619D01*
X221488095Y-84500000D01*
X221583333Y-84452380D01*
X222297619Y-84547619D02*
X222345238Y-84500000D01*
X222440476Y-84452380D01*
X222678571Y-84452380D01*
X222773809Y-84500000D01*
X222821428Y-84547619D01*
X222869047Y-84642857D01*
X222869047Y-84738095D01*
X222821428Y-84880952D01*
X222250000Y-85452380D01*
X222869047Y-85452380D01*
%TO.C,J301*%
X117714285Y-84202380D02*
X117714285Y-84916666D01*
X117666666Y-85059523D01*
X117571428Y-85154761D01*
X117428571Y-85202380D01*
X117333333Y-85202380D01*
X118095238Y-84202380D02*
X118714285Y-84202380D01*
X118380952Y-84583333D01*
X118523809Y-84583333D01*
X118619047Y-84630952D01*
X118666666Y-84678571D01*
X118714285Y-84773809D01*
X118714285Y-85011904D01*
X118666666Y-85107142D01*
X118619047Y-85154761D01*
X118523809Y-85202380D01*
X118238095Y-85202380D01*
X118142857Y-85154761D01*
X118095238Y-85107142D01*
X119333333Y-84202380D02*
X119428571Y-84202380D01*
X119523809Y-84250000D01*
X119571428Y-84297619D01*
X119619047Y-84392857D01*
X119666666Y-84583333D01*
X119666666Y-84821428D01*
X119619047Y-85011904D01*
X119571428Y-85107142D01*
X119523809Y-85154761D01*
X119428571Y-85202380D01*
X119333333Y-85202380D01*
X119238095Y-85154761D01*
X119190476Y-85107142D01*
X119142857Y-85011904D01*
X119095238Y-84821428D01*
X119095238Y-84583333D01*
X119142857Y-84392857D01*
X119190476Y-84297619D01*
X119238095Y-84250000D01*
X119333333Y-84202380D01*
X120619047Y-85202380D02*
X120047619Y-85202380D01*
X120333333Y-85202380D02*
X120333333Y-84202380D01*
X120238095Y-84345238D01*
X120142857Y-84440476D01*
X120047619Y-84488095D01*
%TO.C,R401*%
X179380952Y-103202380D02*
X179047619Y-102726190D01*
X178809523Y-103202380D02*
X178809523Y-102202380D01*
X179190476Y-102202380D01*
X179285714Y-102250000D01*
X179333333Y-102297619D01*
X179380952Y-102392857D01*
X179380952Y-102535714D01*
X179333333Y-102630952D01*
X179285714Y-102678571D01*
X179190476Y-102726190D01*
X178809523Y-102726190D01*
X180238095Y-102535714D02*
X180238095Y-103202380D01*
X180000000Y-102154761D02*
X179761904Y-102869047D01*
X180380952Y-102869047D01*
X180952380Y-102202380D02*
X181047619Y-102202380D01*
X181142857Y-102250000D01*
X181190476Y-102297619D01*
X181238095Y-102392857D01*
X181285714Y-102583333D01*
X181285714Y-102821428D01*
X181238095Y-103011904D01*
X181190476Y-103107142D01*
X181142857Y-103154761D01*
X181047619Y-103202380D01*
X180952380Y-103202380D01*
X180857142Y-103154761D01*
X180809523Y-103107142D01*
X180761904Y-103011904D01*
X180714285Y-102821428D01*
X180714285Y-102583333D01*
X180761904Y-102392857D01*
X180809523Y-102297619D01*
X180857142Y-102250000D01*
X180952380Y-102202380D01*
X182238095Y-103202380D02*
X181666666Y-103202380D01*
X181952380Y-103202380D02*
X181952380Y-102202380D01*
X181857142Y-102345238D01*
X181761904Y-102440476D01*
X181666666Y-102488095D01*
%TO.C,C404*%
X141537142Y-83619047D02*
X141584761Y-83666666D01*
X141632380Y-83809523D01*
X141632380Y-83904761D01*
X141584761Y-84047619D01*
X141489523Y-84142857D01*
X141394285Y-84190476D01*
X141203809Y-84238095D01*
X141060952Y-84238095D01*
X140870476Y-84190476D01*
X140775238Y-84142857D01*
X140680000Y-84047619D01*
X140632380Y-83904761D01*
X140632380Y-83809523D01*
X140680000Y-83666666D01*
X140727619Y-83619047D01*
X140965714Y-82761904D02*
X141632380Y-82761904D01*
X140584761Y-83000000D02*
X141299047Y-83238095D01*
X141299047Y-82619047D01*
X140632380Y-82047619D02*
X140632380Y-81952380D01*
X140680000Y-81857142D01*
X140727619Y-81809523D01*
X140822857Y-81761904D01*
X141013333Y-81714285D01*
X141251428Y-81714285D01*
X141441904Y-81761904D01*
X141537142Y-81809523D01*
X141584761Y-81857142D01*
X141632380Y-81952380D01*
X141632380Y-82047619D01*
X141584761Y-82142857D01*
X141537142Y-82190476D01*
X141441904Y-82238095D01*
X141251428Y-82285714D01*
X141013333Y-82285714D01*
X140822857Y-82238095D01*
X140727619Y-82190476D01*
X140680000Y-82142857D01*
X140632380Y-82047619D01*
X140965714Y-80857142D02*
X141632380Y-80857142D01*
X140584761Y-81095238D02*
X141299047Y-81333333D01*
X141299047Y-80714285D01*
%TO.C,C405*%
X183891328Y-109356384D02*
X183843709Y-109404003D01*
X183700852Y-109451622D01*
X183605614Y-109451622D01*
X183462756Y-109404003D01*
X183367518Y-109308765D01*
X183319899Y-109213527D01*
X183272280Y-109023051D01*
X183272280Y-108880194D01*
X183319899Y-108689718D01*
X183367518Y-108594480D01*
X183462756Y-108499242D01*
X183605614Y-108451622D01*
X183700852Y-108451622D01*
X183843709Y-108499242D01*
X183891328Y-108546861D01*
X184748471Y-108784956D02*
X184748471Y-109451622D01*
X184510376Y-108404003D02*
X184272280Y-109118289D01*
X184891328Y-109118289D01*
X185462756Y-108451622D02*
X185557995Y-108451622D01*
X185653233Y-108499242D01*
X185700852Y-108546861D01*
X185748471Y-108642099D01*
X185796090Y-108832575D01*
X185796090Y-109070670D01*
X185748471Y-109261146D01*
X185700852Y-109356384D01*
X185653233Y-109404003D01*
X185557995Y-109451622D01*
X185462756Y-109451622D01*
X185367518Y-109404003D01*
X185319899Y-109356384D01*
X185272280Y-109261146D01*
X185224661Y-109070670D01*
X185224661Y-108832575D01*
X185272280Y-108642099D01*
X185319899Y-108546861D01*
X185367518Y-108499242D01*
X185462756Y-108451622D01*
X186700852Y-108451622D02*
X186224661Y-108451622D01*
X186177042Y-108927813D01*
X186224661Y-108880194D01*
X186319899Y-108832575D01*
X186557995Y-108832575D01*
X186653233Y-108880194D01*
X186700852Y-108927813D01*
X186748471Y-109023051D01*
X186748471Y-109261146D01*
X186700852Y-109356384D01*
X186653233Y-109404003D01*
X186557995Y-109451622D01*
X186319899Y-109451622D01*
X186224661Y-109404003D01*
X186177042Y-109356384D01*
%TO.C,R412*%
X207880952Y-101452380D02*
X207547619Y-100976190D01*
X207309523Y-101452380D02*
X207309523Y-100452380D01*
X207690476Y-100452380D01*
X207785714Y-100500000D01*
X207833333Y-100547619D01*
X207880952Y-100642857D01*
X207880952Y-100785714D01*
X207833333Y-100880952D01*
X207785714Y-100928571D01*
X207690476Y-100976190D01*
X207309523Y-100976190D01*
X208738095Y-100785714D02*
X208738095Y-101452380D01*
X208500000Y-100404761D02*
X208261904Y-101119047D01*
X208880952Y-101119047D01*
X209785714Y-101452380D02*
X209214285Y-101452380D01*
X209500000Y-101452380D02*
X209500000Y-100452380D01*
X209404761Y-100595238D01*
X209309523Y-100690476D01*
X209214285Y-100738095D01*
X210166666Y-100547619D02*
X210214285Y-100500000D01*
X210309523Y-100452380D01*
X210547619Y-100452380D01*
X210642857Y-100500000D01*
X210690476Y-100547619D01*
X210738095Y-100642857D01*
X210738095Y-100738095D01*
X210690476Y-100880952D01*
X210119047Y-101452380D01*
X210738095Y-101452380D01*
%TO.C,C302*%
X208880952Y-90168142D02*
X208833333Y-90215761D01*
X208690476Y-90263380D01*
X208595238Y-90263380D01*
X208452380Y-90215761D01*
X208357142Y-90120523D01*
X208309523Y-90025285D01*
X208261904Y-89834809D01*
X208261904Y-89691952D01*
X208309523Y-89501476D01*
X208357142Y-89406238D01*
X208452380Y-89311000D01*
X208595238Y-89263380D01*
X208690476Y-89263380D01*
X208833333Y-89311000D01*
X208880952Y-89358619D01*
X209214285Y-89263380D02*
X209833333Y-89263380D01*
X209500000Y-89644333D01*
X209642857Y-89644333D01*
X209738095Y-89691952D01*
X209785714Y-89739571D01*
X209833333Y-89834809D01*
X209833333Y-90072904D01*
X209785714Y-90168142D01*
X209738095Y-90215761D01*
X209642857Y-90263380D01*
X209357142Y-90263380D01*
X209261904Y-90215761D01*
X209214285Y-90168142D01*
X210452380Y-89263380D02*
X210547619Y-89263380D01*
X210642857Y-89311000D01*
X210690476Y-89358619D01*
X210738095Y-89453857D01*
X210785714Y-89644333D01*
X210785714Y-89882428D01*
X210738095Y-90072904D01*
X210690476Y-90168142D01*
X210642857Y-90215761D01*
X210547619Y-90263380D01*
X210452380Y-90263380D01*
X210357142Y-90215761D01*
X210309523Y-90168142D01*
X210261904Y-90072904D01*
X210214285Y-89882428D01*
X210214285Y-89644333D01*
X210261904Y-89453857D01*
X210309523Y-89358619D01*
X210357142Y-89311000D01*
X210452380Y-89263380D01*
X211166666Y-89358619D02*
X211214285Y-89311000D01*
X211309523Y-89263380D01*
X211547619Y-89263380D01*
X211642857Y-89311000D01*
X211690476Y-89358619D01*
X211738095Y-89453857D01*
X211738095Y-89549095D01*
X211690476Y-89691952D01*
X211119047Y-90263380D01*
X211738095Y-90263380D01*
%TO.C,C205*%
X179107142Y-93619047D02*
X179154761Y-93666666D01*
X179202380Y-93809523D01*
X179202380Y-93904761D01*
X179154761Y-94047619D01*
X179059523Y-94142857D01*
X178964285Y-94190476D01*
X178773809Y-94238095D01*
X178630952Y-94238095D01*
X178440476Y-94190476D01*
X178345238Y-94142857D01*
X178250000Y-94047619D01*
X178202380Y-93904761D01*
X178202380Y-93809523D01*
X178250000Y-93666666D01*
X178297619Y-93619047D01*
X178297619Y-93238095D02*
X178250000Y-93190476D01*
X178202380Y-93095238D01*
X178202380Y-92857142D01*
X178250000Y-92761904D01*
X178297619Y-92714285D01*
X178392857Y-92666666D01*
X178488095Y-92666666D01*
X178630952Y-92714285D01*
X179202380Y-93285714D01*
X179202380Y-92666666D01*
X178202380Y-92047619D02*
X178202380Y-91952380D01*
X178250000Y-91857142D01*
X178297619Y-91809523D01*
X178392857Y-91761904D01*
X178583333Y-91714285D01*
X178821428Y-91714285D01*
X179011904Y-91761904D01*
X179107142Y-91809523D01*
X179154761Y-91857142D01*
X179202380Y-91952380D01*
X179202380Y-92047619D01*
X179154761Y-92142857D01*
X179107142Y-92190476D01*
X179011904Y-92238095D01*
X178821428Y-92285714D01*
X178583333Y-92285714D01*
X178392857Y-92238095D01*
X178297619Y-92190476D01*
X178250000Y-92142857D01*
X178202380Y-92047619D01*
X178202380Y-90809523D02*
X178202380Y-91285714D01*
X178678571Y-91333333D01*
X178630952Y-91285714D01*
X178583333Y-91190476D01*
X178583333Y-90952380D01*
X178630952Y-90857142D01*
X178678571Y-90809523D01*
X178773809Y-90761904D01*
X179011904Y-90761904D01*
X179107142Y-90809523D01*
X179154761Y-90857142D01*
X179202380Y-90952380D01*
X179202380Y-91190476D01*
X179154761Y-91285714D01*
X179107142Y-91333333D01*
%TO.C,R201*%
X218880952Y-101452380D02*
X218547619Y-100976190D01*
X218309523Y-101452380D02*
X218309523Y-100452380D01*
X218690476Y-100452380D01*
X218785714Y-100500000D01*
X218833333Y-100547619D01*
X218880952Y-100642857D01*
X218880952Y-100785714D01*
X218833333Y-100880952D01*
X218785714Y-100928571D01*
X218690476Y-100976190D01*
X218309523Y-100976190D01*
X219261904Y-100547619D02*
X219309523Y-100500000D01*
X219404761Y-100452380D01*
X219642857Y-100452380D01*
X219738095Y-100500000D01*
X219785714Y-100547619D01*
X219833333Y-100642857D01*
X219833333Y-100738095D01*
X219785714Y-100880952D01*
X219214285Y-101452380D01*
X219833333Y-101452380D01*
X220452380Y-100452380D02*
X220547619Y-100452380D01*
X220642857Y-100500000D01*
X220690476Y-100547619D01*
X220738095Y-100642857D01*
X220785714Y-100833333D01*
X220785714Y-101071428D01*
X220738095Y-101261904D01*
X220690476Y-101357142D01*
X220642857Y-101404761D01*
X220547619Y-101452380D01*
X220452380Y-101452380D01*
X220357142Y-101404761D01*
X220309523Y-101357142D01*
X220261904Y-101261904D01*
X220214285Y-101071428D01*
X220214285Y-100833333D01*
X220261904Y-100642857D01*
X220309523Y-100547619D01*
X220357142Y-100500000D01*
X220452380Y-100452380D01*
X221738095Y-101452380D02*
X221166666Y-101452380D01*
X221452380Y-101452380D02*
X221452380Y-100452380D01*
X221357142Y-100595238D01*
X221261904Y-100690476D01*
X221166666Y-100738095D01*
%TO.C,C412*%
X156630952Y-89607142D02*
X156583333Y-89654761D01*
X156440476Y-89702380D01*
X156345238Y-89702380D01*
X156202380Y-89654761D01*
X156107142Y-89559523D01*
X156059523Y-89464285D01*
X156011904Y-89273809D01*
X156011904Y-89130952D01*
X156059523Y-88940476D01*
X156107142Y-88845238D01*
X156202380Y-88750000D01*
X156345238Y-88702380D01*
X156440476Y-88702380D01*
X156583333Y-88750000D01*
X156630952Y-88797619D01*
X157488095Y-89035714D02*
X157488095Y-89702380D01*
X157250000Y-88654761D02*
X157011904Y-89369047D01*
X157630952Y-89369047D01*
X158535714Y-89702380D02*
X157964285Y-89702380D01*
X158250000Y-89702380D02*
X158250000Y-88702380D01*
X158154761Y-88845238D01*
X158059523Y-88940476D01*
X157964285Y-88988095D01*
X158916666Y-88797619D02*
X158964285Y-88750000D01*
X159059523Y-88702380D01*
X159297619Y-88702380D01*
X159392857Y-88750000D01*
X159440476Y-88797619D01*
X159488095Y-88892857D01*
X159488095Y-88988095D01*
X159440476Y-89130952D01*
X158869047Y-89702380D01*
X159488095Y-89702380D01*
%TO.C,C303*%
X124727452Y-88357142D02*
X124679833Y-88404761D01*
X124536976Y-88452380D01*
X124441738Y-88452380D01*
X124298880Y-88404761D01*
X124203642Y-88309523D01*
X124156023Y-88214285D01*
X124108404Y-88023809D01*
X124108404Y-87880952D01*
X124156023Y-87690476D01*
X124203642Y-87595238D01*
X124298880Y-87500000D01*
X124441738Y-87452380D01*
X124536976Y-87452380D01*
X124679833Y-87500000D01*
X124727452Y-87547619D01*
X125060785Y-87452380D02*
X125679833Y-87452380D01*
X125346500Y-87833333D01*
X125489357Y-87833333D01*
X125584595Y-87880952D01*
X125632214Y-87928571D01*
X125679833Y-88023809D01*
X125679833Y-88261904D01*
X125632214Y-88357142D01*
X125584595Y-88404761D01*
X125489357Y-88452380D01*
X125203642Y-88452380D01*
X125108404Y-88404761D01*
X125060785Y-88357142D01*
X126298880Y-87452380D02*
X126394119Y-87452380D01*
X126489357Y-87500000D01*
X126536976Y-87547619D01*
X126584595Y-87642857D01*
X126632214Y-87833333D01*
X126632214Y-88071428D01*
X126584595Y-88261904D01*
X126536976Y-88357142D01*
X126489357Y-88404761D01*
X126394119Y-88452380D01*
X126298880Y-88452380D01*
X126203642Y-88404761D01*
X126156023Y-88357142D01*
X126108404Y-88261904D01*
X126060785Y-88071428D01*
X126060785Y-87833333D01*
X126108404Y-87642857D01*
X126156023Y-87547619D01*
X126203642Y-87500000D01*
X126298880Y-87452380D01*
X126965547Y-87452380D02*
X127584595Y-87452380D01*
X127251261Y-87833333D01*
X127394119Y-87833333D01*
X127489357Y-87880952D01*
X127536976Y-87928571D01*
X127584595Y-88023809D01*
X127584595Y-88261904D01*
X127536976Y-88357142D01*
X127489357Y-88404761D01*
X127394119Y-88452380D01*
X127108404Y-88452380D01*
X127013166Y-88404761D01*
X126965547Y-88357142D01*
%TO.C,R202*%
X213130952Y-101452380D02*
X212797619Y-100976190D01*
X212559523Y-101452380D02*
X212559523Y-100452380D01*
X212940476Y-100452380D01*
X213035714Y-100500000D01*
X213083333Y-100547619D01*
X213130952Y-100642857D01*
X213130952Y-100785714D01*
X213083333Y-100880952D01*
X213035714Y-100928571D01*
X212940476Y-100976190D01*
X212559523Y-100976190D01*
X213511904Y-100547619D02*
X213559523Y-100500000D01*
X213654761Y-100452380D01*
X213892857Y-100452380D01*
X213988095Y-100500000D01*
X214035714Y-100547619D01*
X214083333Y-100642857D01*
X214083333Y-100738095D01*
X214035714Y-100880952D01*
X213464285Y-101452380D01*
X214083333Y-101452380D01*
X214702380Y-100452380D02*
X214797619Y-100452380D01*
X214892857Y-100500000D01*
X214940476Y-100547619D01*
X214988095Y-100642857D01*
X215035714Y-100833333D01*
X215035714Y-101071428D01*
X214988095Y-101261904D01*
X214940476Y-101357142D01*
X214892857Y-101404761D01*
X214797619Y-101452380D01*
X214702380Y-101452380D01*
X214607142Y-101404761D01*
X214559523Y-101357142D01*
X214511904Y-101261904D01*
X214464285Y-101071428D01*
X214464285Y-100833333D01*
X214511904Y-100642857D01*
X214559523Y-100547619D01*
X214607142Y-100500000D01*
X214702380Y-100452380D01*
X215416666Y-100547619D02*
X215464285Y-100500000D01*
X215559523Y-100452380D01*
X215797619Y-100452380D01*
X215892857Y-100500000D01*
X215940476Y-100547619D01*
X215988095Y-100642857D01*
X215988095Y-100738095D01*
X215940476Y-100880952D01*
X215369047Y-101452380D01*
X215988095Y-101452380D01*
%TO.C,C301*%
X106743452Y-90107142D02*
X106695833Y-90154761D01*
X106552976Y-90202380D01*
X106457738Y-90202380D01*
X106314880Y-90154761D01*
X106219642Y-90059523D01*
X106172023Y-89964285D01*
X106124404Y-89773809D01*
X106124404Y-89630952D01*
X106172023Y-89440476D01*
X106219642Y-89345238D01*
X106314880Y-89250000D01*
X106457738Y-89202380D01*
X106552976Y-89202380D01*
X106695833Y-89250000D01*
X106743452Y-89297619D01*
X107076785Y-89202380D02*
X107695833Y-89202380D01*
X107362500Y-89583333D01*
X107505357Y-89583333D01*
X107600595Y-89630952D01*
X107648214Y-89678571D01*
X107695833Y-89773809D01*
X107695833Y-90011904D01*
X107648214Y-90107142D01*
X107600595Y-90154761D01*
X107505357Y-90202380D01*
X107219642Y-90202380D01*
X107124404Y-90154761D01*
X107076785Y-90107142D01*
X108314880Y-89202380D02*
X108410119Y-89202380D01*
X108505357Y-89250000D01*
X108552976Y-89297619D01*
X108600595Y-89392857D01*
X108648214Y-89583333D01*
X108648214Y-89821428D01*
X108600595Y-90011904D01*
X108552976Y-90107142D01*
X108505357Y-90154761D01*
X108410119Y-90202380D01*
X108314880Y-90202380D01*
X108219642Y-90154761D01*
X108172023Y-90107142D01*
X108124404Y-90011904D01*
X108076785Y-89821428D01*
X108076785Y-89583333D01*
X108124404Y-89392857D01*
X108172023Y-89297619D01*
X108219642Y-89250000D01*
X108314880Y-89202380D01*
X109600595Y-90202380D02*
X109029166Y-90202380D01*
X109314880Y-90202380D02*
X109314880Y-89202380D01*
X109219642Y-89345238D01*
X109124404Y-89440476D01*
X109029166Y-89488095D01*
%TO.C,C202*%
X200762411Y-83819047D02*
X200810030Y-83866666D01*
X200857649Y-84009523D01*
X200857649Y-84104761D01*
X200810030Y-84247619D01*
X200714792Y-84342857D01*
X200619554Y-84390476D01*
X200429078Y-84438095D01*
X200286221Y-84438095D01*
X200095745Y-84390476D01*
X200000507Y-84342857D01*
X199905269Y-84247619D01*
X199857649Y-84104761D01*
X199857649Y-84009523D01*
X199905269Y-83866666D01*
X199952888Y-83819047D01*
X199952888Y-83438095D02*
X199905269Y-83390476D01*
X199857649Y-83295238D01*
X199857649Y-83057142D01*
X199905269Y-82961904D01*
X199952888Y-82914285D01*
X200048126Y-82866666D01*
X200143364Y-82866666D01*
X200286221Y-82914285D01*
X200857649Y-83485714D01*
X200857649Y-82866666D01*
X199857649Y-82247619D02*
X199857649Y-82152380D01*
X199905269Y-82057142D01*
X199952888Y-82009523D01*
X200048126Y-81961904D01*
X200238602Y-81914285D01*
X200476697Y-81914285D01*
X200667173Y-81961904D01*
X200762411Y-82009523D01*
X200810030Y-82057142D01*
X200857649Y-82152380D01*
X200857649Y-82247619D01*
X200810030Y-82342857D01*
X200762411Y-82390476D01*
X200667173Y-82438095D01*
X200476697Y-82485714D01*
X200238602Y-82485714D01*
X200048126Y-82438095D01*
X199952888Y-82390476D01*
X199905269Y-82342857D01*
X199857649Y-82247619D01*
X199952888Y-81533333D02*
X199905269Y-81485714D01*
X199857649Y-81390476D01*
X199857649Y-81152380D01*
X199905269Y-81057142D01*
X199952888Y-81009523D01*
X200048126Y-80961904D01*
X200143364Y-80961904D01*
X200286221Y-81009523D01*
X200857649Y-81580952D01*
X200857649Y-80961904D01*
%TO.C,C204*%
X209526142Y-86119047D02*
X209573761Y-86166666D01*
X209621380Y-86309523D01*
X209621380Y-86404761D01*
X209573761Y-86547619D01*
X209478523Y-86642857D01*
X209383285Y-86690476D01*
X209192809Y-86738095D01*
X209049952Y-86738095D01*
X208859476Y-86690476D01*
X208764238Y-86642857D01*
X208669000Y-86547619D01*
X208621380Y-86404761D01*
X208621380Y-86309523D01*
X208669000Y-86166666D01*
X208716619Y-86119047D01*
X208716619Y-85738095D02*
X208669000Y-85690476D01*
X208621380Y-85595238D01*
X208621380Y-85357142D01*
X208669000Y-85261904D01*
X208716619Y-85214285D01*
X208811857Y-85166666D01*
X208907095Y-85166666D01*
X209049952Y-85214285D01*
X209621380Y-85785714D01*
X209621380Y-85166666D01*
X208621380Y-84547619D02*
X208621380Y-84452380D01*
X208669000Y-84357142D01*
X208716619Y-84309523D01*
X208811857Y-84261904D01*
X209002333Y-84214285D01*
X209240428Y-84214285D01*
X209430904Y-84261904D01*
X209526142Y-84309523D01*
X209573761Y-84357142D01*
X209621380Y-84452380D01*
X209621380Y-84547619D01*
X209573761Y-84642857D01*
X209526142Y-84690476D01*
X209430904Y-84738095D01*
X209240428Y-84785714D01*
X209002333Y-84785714D01*
X208811857Y-84738095D01*
X208716619Y-84690476D01*
X208669000Y-84642857D01*
X208621380Y-84547619D01*
X208954714Y-83357142D02*
X209621380Y-83357142D01*
X208573761Y-83595238D02*
X209288047Y-83833333D01*
X209288047Y-83214285D01*
%TO.C,J405*%
X155214285Y-84202380D02*
X155214285Y-84916666D01*
X155166666Y-85059523D01*
X155071428Y-85154761D01*
X154928571Y-85202380D01*
X154833333Y-85202380D01*
X156119047Y-84535714D02*
X156119047Y-85202380D01*
X155880952Y-84154761D02*
X155642857Y-84869047D01*
X156261904Y-84869047D01*
X156833333Y-84202380D02*
X156928571Y-84202380D01*
X157023809Y-84250000D01*
X157071428Y-84297619D01*
X157119047Y-84392857D01*
X157166666Y-84583333D01*
X157166666Y-84821428D01*
X157119047Y-85011904D01*
X157071428Y-85107142D01*
X157023809Y-85154761D01*
X156928571Y-85202380D01*
X156833333Y-85202380D01*
X156738095Y-85154761D01*
X156690476Y-85107142D01*
X156642857Y-85011904D01*
X156595238Y-84821428D01*
X156595238Y-84583333D01*
X156642857Y-84392857D01*
X156690476Y-84297619D01*
X156738095Y-84250000D01*
X156833333Y-84202380D01*
X158071428Y-84202380D02*
X157595238Y-84202380D01*
X157547619Y-84678571D01*
X157595238Y-84630952D01*
X157690476Y-84583333D01*
X157928571Y-84583333D01*
X158023809Y-84630952D01*
X158071428Y-84678571D01*
X158119047Y-84773809D01*
X158119047Y-85011904D01*
X158071428Y-85107142D01*
X158023809Y-85154761D01*
X157928571Y-85202380D01*
X157690476Y-85202380D01*
X157595238Y-85154761D01*
X157547619Y-85107142D01*
%TO.C,J406*%
X118214285Y-114702380D02*
X118214285Y-115416666D01*
X118166666Y-115559523D01*
X118071428Y-115654761D01*
X117928571Y-115702380D01*
X117833333Y-115702380D01*
X119119047Y-115035714D02*
X119119047Y-115702380D01*
X118880952Y-114654761D02*
X118642857Y-115369047D01*
X119261904Y-115369047D01*
X119833333Y-114702380D02*
X119928571Y-114702380D01*
X120023809Y-114750000D01*
X120071428Y-114797619D01*
X120119047Y-114892857D01*
X120166666Y-115083333D01*
X120166666Y-115321428D01*
X120119047Y-115511904D01*
X120071428Y-115607142D01*
X120023809Y-115654761D01*
X119928571Y-115702380D01*
X119833333Y-115702380D01*
X119738095Y-115654761D01*
X119690476Y-115607142D01*
X119642857Y-115511904D01*
X119595238Y-115321428D01*
X119595238Y-115083333D01*
X119642857Y-114892857D01*
X119690476Y-114797619D01*
X119738095Y-114750000D01*
X119833333Y-114702380D01*
X121023809Y-114702380D02*
X120833333Y-114702380D01*
X120738095Y-114750000D01*
X120690476Y-114797619D01*
X120595238Y-114940476D01*
X120547619Y-115130952D01*
X120547619Y-115511904D01*
X120595238Y-115607142D01*
X120642857Y-115654761D01*
X120738095Y-115702380D01*
X120928571Y-115702380D01*
X121023809Y-115654761D01*
X121071428Y-115607142D01*
X121119047Y-115511904D01*
X121119047Y-115273809D01*
X121071428Y-115178571D01*
X121023809Y-115130952D01*
X120928571Y-115083333D01*
X120738095Y-115083333D01*
X120642857Y-115130952D01*
X120595238Y-115178571D01*
X120547619Y-115273809D01*
%TO.C,C306*%
X208880952Y-88513142D02*
X208833333Y-88560761D01*
X208690476Y-88608380D01*
X208595238Y-88608380D01*
X208452380Y-88560761D01*
X208357142Y-88465523D01*
X208309523Y-88370285D01*
X208261904Y-88179809D01*
X208261904Y-88036952D01*
X208309523Y-87846476D01*
X208357142Y-87751238D01*
X208452380Y-87656000D01*
X208595238Y-87608380D01*
X208690476Y-87608380D01*
X208833333Y-87656000D01*
X208880952Y-87703619D01*
X209214285Y-87608380D02*
X209833333Y-87608380D01*
X209500000Y-87989333D01*
X209642857Y-87989333D01*
X209738095Y-88036952D01*
X209785714Y-88084571D01*
X209833333Y-88179809D01*
X209833333Y-88417904D01*
X209785714Y-88513142D01*
X209738095Y-88560761D01*
X209642857Y-88608380D01*
X209357142Y-88608380D01*
X209261904Y-88560761D01*
X209214285Y-88513142D01*
X210452380Y-87608380D02*
X210547619Y-87608380D01*
X210642857Y-87656000D01*
X210690476Y-87703619D01*
X210738095Y-87798857D01*
X210785714Y-87989333D01*
X210785714Y-88227428D01*
X210738095Y-88417904D01*
X210690476Y-88513142D01*
X210642857Y-88560761D01*
X210547619Y-88608380D01*
X210452380Y-88608380D01*
X210357142Y-88560761D01*
X210309523Y-88513142D01*
X210261904Y-88417904D01*
X210214285Y-88227428D01*
X210214285Y-87989333D01*
X210261904Y-87798857D01*
X210309523Y-87703619D01*
X210357142Y-87656000D01*
X210452380Y-87608380D01*
X211642857Y-87608380D02*
X211452380Y-87608380D01*
X211357142Y-87656000D01*
X211309523Y-87703619D01*
X211214285Y-87846476D01*
X211166666Y-88036952D01*
X211166666Y-88417904D01*
X211214285Y-88513142D01*
X211261904Y-88560761D01*
X211357142Y-88608380D01*
X211547619Y-88608380D01*
X211642857Y-88560761D01*
X211690476Y-88513142D01*
X211738095Y-88417904D01*
X211738095Y-88179809D01*
X211690476Y-88084571D01*
X211642857Y-88036952D01*
X211547619Y-87989333D01*
X211357142Y-87989333D01*
X211261904Y-88036952D01*
X211214285Y-88084571D01*
X211166666Y-88179809D01*
%TO.C,C305*%
X106743452Y-88452142D02*
X106695833Y-88499761D01*
X106552976Y-88547380D01*
X106457738Y-88547380D01*
X106314880Y-88499761D01*
X106219642Y-88404523D01*
X106172023Y-88309285D01*
X106124404Y-88118809D01*
X106124404Y-87975952D01*
X106172023Y-87785476D01*
X106219642Y-87690238D01*
X106314880Y-87595000D01*
X106457738Y-87547380D01*
X106552976Y-87547380D01*
X106695833Y-87595000D01*
X106743452Y-87642619D01*
X107076785Y-87547380D02*
X107695833Y-87547380D01*
X107362500Y-87928333D01*
X107505357Y-87928333D01*
X107600595Y-87975952D01*
X107648214Y-88023571D01*
X107695833Y-88118809D01*
X107695833Y-88356904D01*
X107648214Y-88452142D01*
X107600595Y-88499761D01*
X107505357Y-88547380D01*
X107219642Y-88547380D01*
X107124404Y-88499761D01*
X107076785Y-88452142D01*
X108314880Y-87547380D02*
X108410119Y-87547380D01*
X108505357Y-87595000D01*
X108552976Y-87642619D01*
X108600595Y-87737857D01*
X108648214Y-87928333D01*
X108648214Y-88166428D01*
X108600595Y-88356904D01*
X108552976Y-88452142D01*
X108505357Y-88499761D01*
X108410119Y-88547380D01*
X108314880Y-88547380D01*
X108219642Y-88499761D01*
X108172023Y-88452142D01*
X108124404Y-88356904D01*
X108076785Y-88166428D01*
X108076785Y-87928333D01*
X108124404Y-87737857D01*
X108172023Y-87642619D01*
X108219642Y-87595000D01*
X108314880Y-87547380D01*
X109552976Y-87547380D02*
X109076785Y-87547380D01*
X109029166Y-88023571D01*
X109076785Y-87975952D01*
X109172023Y-87928333D01*
X109410119Y-87928333D01*
X109505357Y-87975952D01*
X109552976Y-88023571D01*
X109600595Y-88118809D01*
X109600595Y-88356904D01*
X109552976Y-88452142D01*
X109505357Y-88499761D01*
X109410119Y-88547380D01*
X109172023Y-88547380D01*
X109076785Y-88499761D01*
X109029166Y-88452142D01*
%TO.C,J407*%
X114952380Y-101285714D02*
X115666666Y-101285714D01*
X115809523Y-101333333D01*
X115904761Y-101428571D01*
X115952380Y-101571428D01*
X115952380Y-101666666D01*
X115285714Y-100380952D02*
X115952380Y-100380952D01*
X114904761Y-100619047D02*
X115619047Y-100857142D01*
X115619047Y-100238095D01*
X114952380Y-99666666D02*
X114952380Y-99571428D01*
X115000000Y-99476190D01*
X115047619Y-99428571D01*
X115142857Y-99380952D01*
X115333333Y-99333333D01*
X115571428Y-99333333D01*
X115761904Y-99380952D01*
X115857142Y-99428571D01*
X115904761Y-99476190D01*
X115952380Y-99571428D01*
X115952380Y-99666666D01*
X115904761Y-99761904D01*
X115857142Y-99809523D01*
X115761904Y-99857142D01*
X115571428Y-99904761D01*
X115333333Y-99904761D01*
X115142857Y-99857142D01*
X115047619Y-99809523D01*
X115000000Y-99761904D01*
X114952380Y-99666666D01*
X114952380Y-99000000D02*
X114952380Y-98333333D01*
X115952380Y-98761904D01*
%TO.C,J410*%
X184964285Y-114427380D02*
X184964285Y-115141666D01*
X184916666Y-115284523D01*
X184821428Y-115379761D01*
X184678571Y-115427380D01*
X184583333Y-115427380D01*
X185869047Y-114760714D02*
X185869047Y-115427380D01*
X185630952Y-114379761D02*
X185392857Y-115094047D01*
X186011904Y-115094047D01*
X186916666Y-115427380D02*
X186345238Y-115427380D01*
X186630952Y-115427380D02*
X186630952Y-114427380D01*
X186535714Y-114570238D01*
X186440476Y-114665476D01*
X186345238Y-114713095D01*
X187535714Y-114427380D02*
X187630952Y-114427380D01*
X187726190Y-114475000D01*
X187773809Y-114522619D01*
X187821428Y-114617857D01*
X187869047Y-114808333D01*
X187869047Y-115046428D01*
X187821428Y-115236904D01*
X187773809Y-115332142D01*
X187726190Y-115379761D01*
X187630952Y-115427380D01*
X187535714Y-115427380D01*
X187440476Y-115379761D01*
X187392857Y-115332142D01*
X187345238Y-115236904D01*
X187297619Y-115046428D01*
X187297619Y-114808333D01*
X187345238Y-114617857D01*
X187392857Y-114522619D01*
X187440476Y-114475000D01*
X187535714Y-114427380D01*
%TO.C,C406*%
X183880952Y-104607142D02*
X183833333Y-104654761D01*
X183690476Y-104702380D01*
X183595238Y-104702380D01*
X183452380Y-104654761D01*
X183357142Y-104559523D01*
X183309523Y-104464285D01*
X183261904Y-104273809D01*
X183261904Y-104130952D01*
X183309523Y-103940476D01*
X183357142Y-103845238D01*
X183452380Y-103750000D01*
X183595238Y-103702380D01*
X183690476Y-103702380D01*
X183833333Y-103750000D01*
X183880952Y-103797619D01*
X184738095Y-104035714D02*
X184738095Y-104702380D01*
X184500000Y-103654761D02*
X184261904Y-104369047D01*
X184880952Y-104369047D01*
X185452380Y-103702380D02*
X185547619Y-103702380D01*
X185642857Y-103750000D01*
X185690476Y-103797619D01*
X185738095Y-103892857D01*
X185785714Y-104083333D01*
X185785714Y-104321428D01*
X185738095Y-104511904D01*
X185690476Y-104607142D01*
X185642857Y-104654761D01*
X185547619Y-104702380D01*
X185452380Y-104702380D01*
X185357142Y-104654761D01*
X185309523Y-104607142D01*
X185261904Y-104511904D01*
X185214285Y-104321428D01*
X185214285Y-104083333D01*
X185261904Y-103892857D01*
X185309523Y-103797619D01*
X185357142Y-103750000D01*
X185452380Y-103702380D01*
X186642857Y-103702380D02*
X186452380Y-103702380D01*
X186357142Y-103750000D01*
X186309523Y-103797619D01*
X186214285Y-103940476D01*
X186166666Y-104130952D01*
X186166666Y-104511904D01*
X186214285Y-104607142D01*
X186261904Y-104654761D01*
X186357142Y-104702380D01*
X186547619Y-104702380D01*
X186642857Y-104654761D01*
X186690476Y-104607142D01*
X186738095Y-104511904D01*
X186738095Y-104273809D01*
X186690476Y-104178571D01*
X186642857Y-104130952D01*
X186547619Y-104083333D01*
X186357142Y-104083333D01*
X186261904Y-104130952D01*
X186214285Y-104178571D01*
X186166666Y-104273809D01*
%TO.C,J402*%
X229351785Y-106727380D02*
X229351785Y-107441666D01*
X229304166Y-107584523D01*
X229208928Y-107679761D01*
X229066071Y-107727380D01*
X228970833Y-107727380D01*
X230256547Y-107060714D02*
X230256547Y-107727380D01*
X230018452Y-106679761D02*
X229780357Y-107394047D01*
X230399404Y-107394047D01*
X230970833Y-106727380D02*
X231066071Y-106727380D01*
X231161309Y-106775000D01*
X231208928Y-106822619D01*
X231256547Y-106917857D01*
X231304166Y-107108333D01*
X231304166Y-107346428D01*
X231256547Y-107536904D01*
X231208928Y-107632142D01*
X231161309Y-107679761D01*
X231066071Y-107727380D01*
X230970833Y-107727380D01*
X230875595Y-107679761D01*
X230827976Y-107632142D01*
X230780357Y-107536904D01*
X230732738Y-107346428D01*
X230732738Y-107108333D01*
X230780357Y-106917857D01*
X230827976Y-106822619D01*
X230875595Y-106775000D01*
X230970833Y-106727380D01*
X231685119Y-106822619D02*
X231732738Y-106775000D01*
X231827976Y-106727380D01*
X232066071Y-106727380D01*
X232161309Y-106775000D01*
X232208928Y-106822619D01*
X232256547Y-106917857D01*
X232256547Y-107013095D01*
X232208928Y-107155952D01*
X231637500Y-107727380D01*
X232256547Y-107727380D01*
%TO.C,C409*%
X119607142Y-103369047D02*
X119654761Y-103416666D01*
X119702380Y-103559523D01*
X119702380Y-103654761D01*
X119654761Y-103797619D01*
X119559523Y-103892857D01*
X119464285Y-103940476D01*
X119273809Y-103988095D01*
X119130952Y-103988095D01*
X118940476Y-103940476D01*
X118845238Y-103892857D01*
X118750000Y-103797619D01*
X118702380Y-103654761D01*
X118702380Y-103559523D01*
X118750000Y-103416666D01*
X118797619Y-103369047D01*
X119035714Y-102511904D02*
X119702380Y-102511904D01*
X118654761Y-102750000D02*
X119369047Y-102988095D01*
X119369047Y-102369047D01*
X118702380Y-101797619D02*
X118702380Y-101702380D01*
X118750000Y-101607142D01*
X118797619Y-101559523D01*
X118892857Y-101511904D01*
X119083333Y-101464285D01*
X119321428Y-101464285D01*
X119511904Y-101511904D01*
X119607142Y-101559523D01*
X119654761Y-101607142D01*
X119702380Y-101702380D01*
X119702380Y-101797619D01*
X119654761Y-101892857D01*
X119607142Y-101940476D01*
X119511904Y-101988095D01*
X119321428Y-102035714D01*
X119083333Y-102035714D01*
X118892857Y-101988095D01*
X118797619Y-101940476D01*
X118750000Y-101892857D01*
X118702380Y-101797619D01*
X119702380Y-100988095D02*
X119702380Y-100797619D01*
X119654761Y-100702380D01*
X119607142Y-100654761D01*
X119464285Y-100559523D01*
X119273809Y-100511904D01*
X118892857Y-100511904D01*
X118797619Y-100559523D01*
X118750000Y-100607142D01*
X118702380Y-100702380D01*
X118702380Y-100892857D01*
X118750000Y-100988095D01*
X118797619Y-101035714D01*
X118892857Y-101083333D01*
X119130952Y-101083333D01*
X119226190Y-101035714D01*
X119273809Y-100988095D01*
X119321428Y-100892857D01*
X119321428Y-100702380D01*
X119273809Y-100607142D01*
X119226190Y-100559523D01*
X119130952Y-100511904D01*
%TO.C,C201*%
X200927142Y-88419047D02*
X200974761Y-88466666D01*
X201022380Y-88609523D01*
X201022380Y-88704761D01*
X200974761Y-88847619D01*
X200879523Y-88942857D01*
X200784285Y-88990476D01*
X200593809Y-89038095D01*
X200450952Y-89038095D01*
X200260476Y-88990476D01*
X200165238Y-88942857D01*
X200070000Y-88847619D01*
X200022380Y-88704761D01*
X200022380Y-88609523D01*
X200070000Y-88466666D01*
X200117619Y-88419047D01*
X200117619Y-88038095D02*
X200070000Y-87990476D01*
X200022380Y-87895238D01*
X200022380Y-87657142D01*
X200070000Y-87561904D01*
X200117619Y-87514285D01*
X200212857Y-87466666D01*
X200308095Y-87466666D01*
X200450952Y-87514285D01*
X201022380Y-88085714D01*
X201022380Y-87466666D01*
X200022380Y-86847619D02*
X200022380Y-86752380D01*
X200070000Y-86657142D01*
X200117619Y-86609523D01*
X200212857Y-86561904D01*
X200403333Y-86514285D01*
X200641428Y-86514285D01*
X200831904Y-86561904D01*
X200927142Y-86609523D01*
X200974761Y-86657142D01*
X201022380Y-86752380D01*
X201022380Y-86847619D01*
X200974761Y-86942857D01*
X200927142Y-86990476D01*
X200831904Y-87038095D01*
X200641428Y-87085714D01*
X200403333Y-87085714D01*
X200212857Y-87038095D01*
X200117619Y-86990476D01*
X200070000Y-86942857D01*
X200022380Y-86847619D01*
X201022380Y-85561904D02*
X201022380Y-86133333D01*
X201022380Y-85847619D02*
X200022380Y-85847619D01*
X200165238Y-85942857D01*
X200260476Y-86038095D01*
X200308095Y-86133333D01*
%TO.C,J403*%
X125714285Y-106702380D02*
X125714285Y-107416666D01*
X125666666Y-107559523D01*
X125571428Y-107654761D01*
X125428571Y-107702380D01*
X125333333Y-107702380D01*
X126619047Y-107035714D02*
X126619047Y-107702380D01*
X126380952Y-106654761D02*
X126142857Y-107369047D01*
X126761904Y-107369047D01*
X127333333Y-106702380D02*
X127428571Y-106702380D01*
X127523809Y-106750000D01*
X127571428Y-106797619D01*
X127619047Y-106892857D01*
X127666666Y-107083333D01*
X127666666Y-107321428D01*
X127619047Y-107511904D01*
X127571428Y-107607142D01*
X127523809Y-107654761D01*
X127428571Y-107702380D01*
X127333333Y-107702380D01*
X127238095Y-107654761D01*
X127190476Y-107607142D01*
X127142857Y-107511904D01*
X127095238Y-107321428D01*
X127095238Y-107083333D01*
X127142857Y-106892857D01*
X127190476Y-106797619D01*
X127238095Y-106750000D01*
X127333333Y-106702380D01*
X128000000Y-106702380D02*
X128619047Y-106702380D01*
X128285714Y-107083333D01*
X128428571Y-107083333D01*
X128523809Y-107130952D01*
X128571428Y-107178571D01*
X128619047Y-107273809D01*
X128619047Y-107511904D01*
X128571428Y-107607142D01*
X128523809Y-107654761D01*
X128428571Y-107702380D01*
X128142857Y-107702380D01*
X128047619Y-107654761D01*
X128000000Y-107607142D01*
%TO.C,J201*%
X168714285Y-84202380D02*
X168714285Y-84916666D01*
X168666666Y-85059523D01*
X168571428Y-85154761D01*
X168428571Y-85202380D01*
X168333333Y-85202380D01*
X169142857Y-84297619D02*
X169190476Y-84250000D01*
X169285714Y-84202380D01*
X169523809Y-84202380D01*
X169619047Y-84250000D01*
X169666666Y-84297619D01*
X169714285Y-84392857D01*
X169714285Y-84488095D01*
X169666666Y-84630952D01*
X169095238Y-85202380D01*
X169714285Y-85202380D01*
X170333333Y-84202380D02*
X170428571Y-84202380D01*
X170523809Y-84250000D01*
X170571428Y-84297619D01*
X170619047Y-84392857D01*
X170666666Y-84583333D01*
X170666666Y-84821428D01*
X170619047Y-85011904D01*
X170571428Y-85107142D01*
X170523809Y-85154761D01*
X170428571Y-85202380D01*
X170333333Y-85202380D01*
X170238095Y-85154761D01*
X170190476Y-85107142D01*
X170142857Y-85011904D01*
X170095238Y-84821428D01*
X170095238Y-84583333D01*
X170142857Y-84392857D01*
X170190476Y-84297619D01*
X170238095Y-84250000D01*
X170333333Y-84202380D01*
X171619047Y-85202380D02*
X171047619Y-85202380D01*
X171333333Y-85202380D02*
X171333333Y-84202380D01*
X171238095Y-84345238D01*
X171142857Y-84440476D01*
X171047619Y-84488095D01*
%TO.C,U302*%
X219535714Y-93088580D02*
X219535714Y-93898104D01*
X219583333Y-93993342D01*
X219630952Y-94040961D01*
X219726190Y-94088580D01*
X219916666Y-94088580D01*
X220011904Y-94040961D01*
X220059523Y-93993342D01*
X220107142Y-93898104D01*
X220107142Y-93088580D01*
X220488095Y-93088580D02*
X221107142Y-93088580D01*
X220773809Y-93469533D01*
X220916666Y-93469533D01*
X221011904Y-93517152D01*
X221059523Y-93564771D01*
X221107142Y-93660009D01*
X221107142Y-93898104D01*
X221059523Y-93993342D01*
X221011904Y-94040961D01*
X220916666Y-94088580D01*
X220630952Y-94088580D01*
X220535714Y-94040961D01*
X220488095Y-93993342D01*
X221726190Y-93088580D02*
X221821428Y-93088580D01*
X221916666Y-93136200D01*
X221964285Y-93183819D01*
X222011904Y-93279057D01*
X222059523Y-93469533D01*
X222059523Y-93707628D01*
X222011904Y-93898104D01*
X221964285Y-93993342D01*
X221916666Y-94040961D01*
X221821428Y-94088580D01*
X221726190Y-94088580D01*
X221630952Y-94040961D01*
X221583333Y-93993342D01*
X221535714Y-93898104D01*
X221488095Y-93707628D01*
X221488095Y-93469533D01*
X221535714Y-93279057D01*
X221583333Y-93183819D01*
X221630952Y-93136200D01*
X221726190Y-93088580D01*
X222440476Y-93183819D02*
X222488095Y-93136200D01*
X222583333Y-93088580D01*
X222821428Y-93088580D01*
X222916666Y-93136200D01*
X222964285Y-93183819D01*
X223011904Y-93279057D01*
X223011904Y-93374295D01*
X222964285Y-93517152D01*
X222392857Y-94088580D01*
X223011904Y-94088580D01*
%TO.C,J411*%
X104452380Y-101285714D02*
X105166666Y-101285714D01*
X105309523Y-101333333D01*
X105404761Y-101428571D01*
X105452380Y-101571428D01*
X105452380Y-101666666D01*
X104785714Y-100380952D02*
X105452380Y-100380952D01*
X104404761Y-100619047D02*
X105119047Y-100857142D01*
X105119047Y-100238095D01*
X105452380Y-99333333D02*
X105452380Y-99904761D01*
X105452380Y-99619047D02*
X104452380Y-99619047D01*
X104595238Y-99714285D01*
X104690476Y-99809523D01*
X104738095Y-99904761D01*
X105452380Y-98380952D02*
X105452380Y-98952380D01*
X105452380Y-98666666D02*
X104452380Y-98666666D01*
X104595238Y-98761904D01*
X104690476Y-98857142D01*
X104738095Y-98952380D01*
%TO.C,R403*%
X132630952Y-92452380D02*
X132297619Y-91976190D01*
X132059523Y-92452380D02*
X132059523Y-91452380D01*
X132440476Y-91452380D01*
X132535714Y-91500000D01*
X132583333Y-91547619D01*
X132630952Y-91642857D01*
X132630952Y-91785714D01*
X132583333Y-91880952D01*
X132535714Y-91928571D01*
X132440476Y-91976190D01*
X132059523Y-91976190D01*
X133488095Y-91785714D02*
X133488095Y-92452380D01*
X133250000Y-91404761D02*
X133011904Y-92119047D01*
X133630952Y-92119047D01*
X134202380Y-91452380D02*
X134297619Y-91452380D01*
X134392857Y-91500000D01*
X134440476Y-91547619D01*
X134488095Y-91642857D01*
X134535714Y-91833333D01*
X134535714Y-92071428D01*
X134488095Y-92261904D01*
X134440476Y-92357142D01*
X134392857Y-92404761D01*
X134297619Y-92452380D01*
X134202380Y-92452380D01*
X134107142Y-92404761D01*
X134059523Y-92357142D01*
X134011904Y-92261904D01*
X133964285Y-92071428D01*
X133964285Y-91833333D01*
X134011904Y-91642857D01*
X134059523Y-91547619D01*
X134107142Y-91500000D01*
X134202380Y-91452380D01*
X134869047Y-91452380D02*
X135488095Y-91452380D01*
X135154761Y-91833333D01*
X135297619Y-91833333D01*
X135392857Y-91880952D01*
X135440476Y-91928571D01*
X135488095Y-92023809D01*
X135488095Y-92261904D01*
X135440476Y-92357142D01*
X135392857Y-92404761D01*
X135297619Y-92452380D01*
X135011904Y-92452380D01*
X134916666Y-92404761D01*
X134869047Y-92357142D01*
%TO.C,R410*%
X197380952Y-101452380D02*
X197047619Y-100976190D01*
X196809523Y-101452380D02*
X196809523Y-100452380D01*
X197190476Y-100452380D01*
X197285714Y-100500000D01*
X197333333Y-100547619D01*
X197380952Y-100642857D01*
X197380952Y-100785714D01*
X197333333Y-100880952D01*
X197285714Y-100928571D01*
X197190476Y-100976190D01*
X196809523Y-100976190D01*
X198238095Y-100785714D02*
X198238095Y-101452380D01*
X198000000Y-100404761D02*
X197761904Y-101119047D01*
X198380952Y-101119047D01*
X199285714Y-101452380D02*
X198714285Y-101452380D01*
X199000000Y-101452380D02*
X199000000Y-100452380D01*
X198904761Y-100595238D01*
X198809523Y-100690476D01*
X198714285Y-100738095D01*
X199904761Y-100452380D02*
X200000000Y-100452380D01*
X200095238Y-100500000D01*
X200142857Y-100547619D01*
X200190476Y-100642857D01*
X200238095Y-100833333D01*
X200238095Y-101071428D01*
X200190476Y-101261904D01*
X200142857Y-101357142D01*
X200095238Y-101404761D01*
X200000000Y-101452380D01*
X199904761Y-101452380D01*
X199809523Y-101404761D01*
X199761904Y-101357142D01*
X199714285Y-101261904D01*
X199666666Y-101071428D01*
X199666666Y-100833333D01*
X199714285Y-100642857D01*
X199761904Y-100547619D01*
X199809523Y-100500000D01*
X199904761Y-100452380D01*
%TO.C,R406*%
X226089880Y-104894047D02*
X225613690Y-105227380D01*
X226089880Y-105465476D02*
X225089880Y-105465476D01*
X225089880Y-105084523D01*
X225137500Y-104989285D01*
X225185119Y-104941666D01*
X225280357Y-104894047D01*
X225423214Y-104894047D01*
X225518452Y-104941666D01*
X225566071Y-104989285D01*
X225613690Y-105084523D01*
X225613690Y-105465476D01*
X225423214Y-104036904D02*
X226089880Y-104036904D01*
X225042261Y-104275000D02*
X225756547Y-104513095D01*
X225756547Y-103894047D01*
X225089880Y-103322619D02*
X225089880Y-103227380D01*
X225137500Y-103132142D01*
X225185119Y-103084523D01*
X225280357Y-103036904D01*
X225470833Y-102989285D01*
X225708928Y-102989285D01*
X225899404Y-103036904D01*
X225994642Y-103084523D01*
X226042261Y-103132142D01*
X226089880Y-103227380D01*
X226089880Y-103322619D01*
X226042261Y-103417857D01*
X225994642Y-103465476D01*
X225899404Y-103513095D01*
X225708928Y-103560714D01*
X225470833Y-103560714D01*
X225280357Y-103513095D01*
X225185119Y-103465476D01*
X225137500Y-103417857D01*
X225089880Y-103322619D01*
X225089880Y-102132142D02*
X225089880Y-102322619D01*
X225137500Y-102417857D01*
X225185119Y-102465476D01*
X225327976Y-102560714D01*
X225518452Y-102608333D01*
X225899404Y-102608333D01*
X225994642Y-102560714D01*
X226042261Y-102513095D01*
X226089880Y-102417857D01*
X226089880Y-102227380D01*
X226042261Y-102132142D01*
X225994642Y-102084523D01*
X225899404Y-102036904D01*
X225661309Y-102036904D01*
X225566071Y-102084523D01*
X225518452Y-102132142D01*
X225470833Y-102227380D01*
X225470833Y-102417857D01*
X225518452Y-102513095D01*
X225566071Y-102560714D01*
X225661309Y-102608333D01*
%TO.C,R409*%
X151630952Y-89702380D02*
X151297619Y-89226190D01*
X151059523Y-89702380D02*
X151059523Y-88702380D01*
X151440476Y-88702380D01*
X151535714Y-88750000D01*
X151583333Y-88797619D01*
X151630952Y-88892857D01*
X151630952Y-89035714D01*
X151583333Y-89130952D01*
X151535714Y-89178571D01*
X151440476Y-89226190D01*
X151059523Y-89226190D01*
X152488095Y-89035714D02*
X152488095Y-89702380D01*
X152250000Y-88654761D02*
X152011904Y-89369047D01*
X152630952Y-89369047D01*
X153202380Y-88702380D02*
X153297619Y-88702380D01*
X153392857Y-88750000D01*
X153440476Y-88797619D01*
X153488095Y-88892857D01*
X153535714Y-89083333D01*
X153535714Y-89321428D01*
X153488095Y-89511904D01*
X153440476Y-89607142D01*
X153392857Y-89654761D01*
X153297619Y-89702380D01*
X153202380Y-89702380D01*
X153107142Y-89654761D01*
X153059523Y-89607142D01*
X153011904Y-89511904D01*
X152964285Y-89321428D01*
X152964285Y-89083333D01*
X153011904Y-88892857D01*
X153059523Y-88797619D01*
X153107142Y-88750000D01*
X153202380Y-88702380D01*
X154011904Y-89702380D02*
X154202380Y-89702380D01*
X154297619Y-89654761D01*
X154345238Y-89607142D01*
X154440476Y-89464285D01*
X154488095Y-89273809D01*
X154488095Y-88892857D01*
X154440476Y-88797619D01*
X154392857Y-88750000D01*
X154297619Y-88702380D01*
X154107142Y-88702380D01*
X154011904Y-88750000D01*
X153964285Y-88797619D01*
X153916666Y-88892857D01*
X153916666Y-89130952D01*
X153964285Y-89226190D01*
X154011904Y-89273809D01*
X154107142Y-89321428D01*
X154297619Y-89321428D01*
X154392857Y-89273809D01*
X154440476Y-89226190D01*
X154488095Y-89130952D01*
%TO.C,U401*%
X161702380Y-105714285D02*
X162511904Y-105714285D01*
X162607142Y-105666666D01*
X162654761Y-105619047D01*
X162702380Y-105523809D01*
X162702380Y-105333333D01*
X162654761Y-105238095D01*
X162607142Y-105190476D01*
X162511904Y-105142857D01*
X161702380Y-105142857D01*
X162035714Y-104238095D02*
X162702380Y-104238095D01*
X161654761Y-104476190D02*
X162369047Y-104714285D01*
X162369047Y-104095238D01*
X161702380Y-103523809D02*
X161702380Y-103428571D01*
X161750000Y-103333333D01*
X161797619Y-103285714D01*
X161892857Y-103238095D01*
X162083333Y-103190476D01*
X162321428Y-103190476D01*
X162511904Y-103238095D01*
X162607142Y-103285714D01*
X162654761Y-103333333D01*
X162702380Y-103428571D01*
X162702380Y-103523809D01*
X162654761Y-103619047D01*
X162607142Y-103666666D01*
X162511904Y-103714285D01*
X162321428Y-103761904D01*
X162083333Y-103761904D01*
X161892857Y-103714285D01*
X161797619Y-103666666D01*
X161750000Y-103619047D01*
X161702380Y-103523809D01*
X162702380Y-102238095D02*
X162702380Y-102809523D01*
X162702380Y-102523809D02*
X161702380Y-102523809D01*
X161845238Y-102619047D01*
X161940476Y-102714285D01*
X161988095Y-102809523D01*
%TO.C,D201*%
X197409523Y-92001594D02*
X197409523Y-91001594D01*
X197647619Y-91001594D01*
X197790476Y-91049214D01*
X197885714Y-91144452D01*
X197933333Y-91239690D01*
X197980952Y-91430166D01*
X197980952Y-91573023D01*
X197933333Y-91763499D01*
X197885714Y-91858737D01*
X197790476Y-91953975D01*
X197647619Y-92001594D01*
X197409523Y-92001594D01*
X198361904Y-91096833D02*
X198409523Y-91049214D01*
X198504761Y-91001594D01*
X198742857Y-91001594D01*
X198838095Y-91049214D01*
X198885714Y-91096833D01*
X198933333Y-91192071D01*
X198933333Y-91287309D01*
X198885714Y-91430166D01*
X198314285Y-92001594D01*
X198933333Y-92001594D01*
X199552380Y-91001594D02*
X199647619Y-91001594D01*
X199742857Y-91049214D01*
X199790476Y-91096833D01*
X199838095Y-91192071D01*
X199885714Y-91382547D01*
X199885714Y-91620642D01*
X199838095Y-91811118D01*
X199790476Y-91906356D01*
X199742857Y-91953975D01*
X199647619Y-92001594D01*
X199552380Y-92001594D01*
X199457142Y-91953975D01*
X199409523Y-91906356D01*
X199361904Y-91811118D01*
X199314285Y-91620642D01*
X199314285Y-91382547D01*
X199361904Y-91192071D01*
X199409523Y-91096833D01*
X199457142Y-91049214D01*
X199552380Y-91001594D01*
X200838095Y-92001594D02*
X200266666Y-92001594D01*
X200552380Y-92001594D02*
X200552380Y-91001594D01*
X200457142Y-91144452D01*
X200361904Y-91239690D01*
X200266666Y-91287309D01*
%TO.C,R407*%
X132452380Y-104869047D02*
X131976190Y-105202380D01*
X132452380Y-105440476D02*
X131452380Y-105440476D01*
X131452380Y-105059523D01*
X131500000Y-104964285D01*
X131547619Y-104916666D01*
X131642857Y-104869047D01*
X131785714Y-104869047D01*
X131880952Y-104916666D01*
X131928571Y-104964285D01*
X131976190Y-105059523D01*
X131976190Y-105440476D01*
X131785714Y-104011904D02*
X132452380Y-104011904D01*
X131404761Y-104250000D02*
X132119047Y-104488095D01*
X132119047Y-103869047D01*
X131452380Y-103297619D02*
X131452380Y-103202380D01*
X131500000Y-103107142D01*
X131547619Y-103059523D01*
X131642857Y-103011904D01*
X131833333Y-102964285D01*
X132071428Y-102964285D01*
X132261904Y-103011904D01*
X132357142Y-103059523D01*
X132404761Y-103107142D01*
X132452380Y-103202380D01*
X132452380Y-103297619D01*
X132404761Y-103392857D01*
X132357142Y-103440476D01*
X132261904Y-103488095D01*
X132071428Y-103535714D01*
X131833333Y-103535714D01*
X131642857Y-103488095D01*
X131547619Y-103440476D01*
X131500000Y-103392857D01*
X131452380Y-103297619D01*
X131452380Y-102630952D02*
X131452380Y-101964285D01*
X132452380Y-102392857D01*
%TO.C,R411*%
X202630952Y-101452380D02*
X202297619Y-100976190D01*
X202059523Y-101452380D02*
X202059523Y-100452380D01*
X202440476Y-100452380D01*
X202535714Y-100500000D01*
X202583333Y-100547619D01*
X202630952Y-100642857D01*
X202630952Y-100785714D01*
X202583333Y-100880952D01*
X202535714Y-100928571D01*
X202440476Y-100976190D01*
X202059523Y-100976190D01*
X203488095Y-100785714D02*
X203488095Y-101452380D01*
X203250000Y-100404761D02*
X203011904Y-101119047D01*
X203630952Y-101119047D01*
X204535714Y-101452380D02*
X203964285Y-101452380D01*
X204250000Y-101452380D02*
X204250000Y-100452380D01*
X204154761Y-100595238D01*
X204059523Y-100690476D01*
X203964285Y-100738095D01*
X205488095Y-101452380D02*
X204916666Y-101452380D01*
X205202380Y-101452380D02*
X205202380Y-100452380D01*
X205107142Y-100595238D01*
X205011904Y-100690476D01*
X204916666Y-100738095D01*
%TO.C,F201*%
X192135285Y-89971571D02*
X191801952Y-89971571D01*
X191801952Y-90495380D02*
X191801952Y-89495380D01*
X192278142Y-89495380D01*
X192611476Y-89590619D02*
X192659095Y-89543000D01*
X192754333Y-89495380D01*
X192992428Y-89495380D01*
X193087666Y-89543000D01*
X193135285Y-89590619D01*
X193182904Y-89685857D01*
X193182904Y-89781095D01*
X193135285Y-89923952D01*
X192563857Y-90495380D01*
X193182904Y-90495380D01*
X193801952Y-89495380D02*
X193897190Y-89495380D01*
X193992428Y-89543000D01*
X194040047Y-89590619D01*
X194087666Y-89685857D01*
X194135285Y-89876333D01*
X194135285Y-90114428D01*
X194087666Y-90304904D01*
X194040047Y-90400142D01*
X193992428Y-90447761D01*
X193897190Y-90495380D01*
X193801952Y-90495380D01*
X193706714Y-90447761D01*
X193659095Y-90400142D01*
X193611476Y-90304904D01*
X193563857Y-90114428D01*
X193563857Y-89876333D01*
X193611476Y-89685857D01*
X193659095Y-89590619D01*
X193706714Y-89543000D01*
X193801952Y-89495380D01*
X195087666Y-90495380D02*
X194516238Y-90495380D01*
X194801952Y-90495380D02*
X194801952Y-89495380D01*
X194706714Y-89638238D01*
X194611476Y-89733476D01*
X194516238Y-89781095D01*
%TO.C,U202*%
X203991901Y-81995326D02*
X203991901Y-82804850D01*
X204039520Y-82900088D01*
X204087139Y-82947707D01*
X204182377Y-82995326D01*
X204372853Y-82995326D01*
X204468091Y-82947707D01*
X204515710Y-82900088D01*
X204563329Y-82804850D01*
X204563329Y-81995326D01*
X204991901Y-82090565D02*
X205039520Y-82042946D01*
X205134758Y-81995326D01*
X205372853Y-81995326D01*
X205468091Y-82042946D01*
X205515710Y-82090565D01*
X205563329Y-82185803D01*
X205563329Y-82281041D01*
X205515710Y-82423898D01*
X204944282Y-82995326D01*
X205563329Y-82995326D01*
X206182377Y-81995326D02*
X206277615Y-81995326D01*
X206372853Y-82042946D01*
X206420472Y-82090565D01*
X206468091Y-82185803D01*
X206515710Y-82376279D01*
X206515710Y-82614374D01*
X206468091Y-82804850D01*
X206420472Y-82900088D01*
X206372853Y-82947707D01*
X206277615Y-82995326D01*
X206182377Y-82995326D01*
X206087139Y-82947707D01*
X206039520Y-82900088D01*
X205991901Y-82804850D01*
X205944282Y-82614374D01*
X205944282Y-82376279D01*
X205991901Y-82185803D01*
X206039520Y-82090565D01*
X206087139Y-82042946D01*
X206182377Y-81995326D01*
X206896663Y-82090565D02*
X206944282Y-82042946D01*
X207039520Y-81995326D01*
X207277615Y-81995326D01*
X207372853Y-82042946D01*
X207420472Y-82090565D01*
X207468091Y-82185803D01*
X207468091Y-82281041D01*
X207420472Y-82423898D01*
X206849044Y-82995326D01*
X207468091Y-82995326D01*
%TO.C,C203*%
X204630952Y-87927142D02*
X204583333Y-87974761D01*
X204440476Y-88022380D01*
X204345238Y-88022380D01*
X204202380Y-87974761D01*
X204107142Y-87879523D01*
X204059523Y-87784285D01*
X204011904Y-87593809D01*
X204011904Y-87450952D01*
X204059523Y-87260476D01*
X204107142Y-87165238D01*
X204202380Y-87070000D01*
X204345238Y-87022380D01*
X204440476Y-87022380D01*
X204583333Y-87070000D01*
X204630952Y-87117619D01*
X205011904Y-87117619D02*
X205059523Y-87070000D01*
X205154761Y-87022380D01*
X205392857Y-87022380D01*
X205488095Y-87070000D01*
X205535714Y-87117619D01*
X205583333Y-87212857D01*
X205583333Y-87308095D01*
X205535714Y-87450952D01*
X204964285Y-88022380D01*
X205583333Y-88022380D01*
X206202380Y-87022380D02*
X206297619Y-87022380D01*
X206392857Y-87070000D01*
X206440476Y-87117619D01*
X206488095Y-87212857D01*
X206535714Y-87403333D01*
X206535714Y-87641428D01*
X206488095Y-87831904D01*
X206440476Y-87927142D01*
X206392857Y-87974761D01*
X206297619Y-88022380D01*
X206202380Y-88022380D01*
X206107142Y-87974761D01*
X206059523Y-87927142D01*
X206011904Y-87831904D01*
X205964285Y-87641428D01*
X205964285Y-87403333D01*
X206011904Y-87212857D01*
X206059523Y-87117619D01*
X206107142Y-87070000D01*
X206202380Y-87022380D01*
X206869047Y-87022380D02*
X207488095Y-87022380D01*
X207154761Y-87403333D01*
X207297619Y-87403333D01*
X207392857Y-87450952D01*
X207440476Y-87498571D01*
X207488095Y-87593809D01*
X207488095Y-87831904D01*
X207440476Y-87927142D01*
X207392857Y-87974761D01*
X207297619Y-88022380D01*
X207011904Y-88022380D01*
X206916666Y-87974761D01*
X206869047Y-87927142D01*
%TO.C,R404*%
X141632380Y-88119047D02*
X141156190Y-88452380D01*
X141632380Y-88690476D02*
X140632380Y-88690476D01*
X140632380Y-88309523D01*
X140680000Y-88214285D01*
X140727619Y-88166666D01*
X140822857Y-88119047D01*
X140965714Y-88119047D01*
X141060952Y-88166666D01*
X141108571Y-88214285D01*
X141156190Y-88309523D01*
X141156190Y-88690476D01*
X140965714Y-87261904D02*
X141632380Y-87261904D01*
X140584761Y-87500000D02*
X141299047Y-87738095D01*
X141299047Y-87119047D01*
X140632380Y-86547619D02*
X140632380Y-86452380D01*
X140680000Y-86357142D01*
X140727619Y-86309523D01*
X140822857Y-86261904D01*
X141013333Y-86214285D01*
X141251428Y-86214285D01*
X141441904Y-86261904D01*
X141537142Y-86309523D01*
X141584761Y-86357142D01*
X141632380Y-86452380D01*
X141632380Y-86547619D01*
X141584761Y-86642857D01*
X141537142Y-86690476D01*
X141441904Y-86738095D01*
X141251428Y-86785714D01*
X141013333Y-86785714D01*
X140822857Y-86738095D01*
X140727619Y-86690476D01*
X140680000Y-86642857D01*
X140632380Y-86547619D01*
X140965714Y-85357142D02*
X141632380Y-85357142D01*
X140584761Y-85595238D02*
X141299047Y-85833333D01*
X141299047Y-85214285D01*
%TO.C,SW201*%
X180714285Y-82904761D02*
X180857142Y-82952380D01*
X181095238Y-82952380D01*
X181190476Y-82904761D01*
X181238095Y-82857142D01*
X181285714Y-82761904D01*
X181285714Y-82666666D01*
X181238095Y-82571428D01*
X181190476Y-82523809D01*
X181095238Y-82476190D01*
X180904761Y-82428571D01*
X180809523Y-82380952D01*
X180761904Y-82333333D01*
X180714285Y-82238095D01*
X180714285Y-82142857D01*
X180761904Y-82047619D01*
X180809523Y-82000000D01*
X180904761Y-81952380D01*
X181142857Y-81952380D01*
X181285714Y-82000000D01*
X181619047Y-81952380D02*
X181857142Y-82952380D01*
X182047619Y-82238095D01*
X182238095Y-82952380D01*
X182476190Y-81952380D01*
X182809523Y-82047619D02*
X182857142Y-82000000D01*
X182952380Y-81952380D01*
X183190476Y-81952380D01*
X183285714Y-82000000D01*
X183333333Y-82047619D01*
X183380952Y-82142857D01*
X183380952Y-82238095D01*
X183333333Y-82380952D01*
X182761904Y-82952380D01*
X183380952Y-82952380D01*
X184000000Y-81952380D02*
X184095238Y-81952380D01*
X184190476Y-82000000D01*
X184238095Y-82047619D01*
X184285714Y-82142857D01*
X184333333Y-82333333D01*
X184333333Y-82571428D01*
X184285714Y-82761904D01*
X184238095Y-82857142D01*
X184190476Y-82904761D01*
X184095238Y-82952380D01*
X184000000Y-82952380D01*
X183904761Y-82904761D01*
X183857142Y-82857142D01*
X183809523Y-82761904D01*
X183761904Y-82571428D01*
X183761904Y-82333333D01*
X183809523Y-82142857D01*
X183857142Y-82047619D01*
X183904761Y-82000000D01*
X184000000Y-81952380D01*
X185285714Y-82952380D02*
X184714285Y-82952380D01*
X185000000Y-82952380D02*
X185000000Y-81952380D01*
X184904761Y-82095238D01*
X184809523Y-82190476D01*
X184714285Y-82238095D01*
%TO.C,SW401*%
X150404761Y-87035714D02*
X150452380Y-86892857D01*
X150452380Y-86654761D01*
X150404761Y-86559523D01*
X150357142Y-86511904D01*
X150261904Y-86464285D01*
X150166666Y-86464285D01*
X150071428Y-86511904D01*
X150023809Y-86559523D01*
X149976190Y-86654761D01*
X149928571Y-86845238D01*
X149880952Y-86940476D01*
X149833333Y-86988095D01*
X149738095Y-87035714D01*
X149642857Y-87035714D01*
X149547619Y-86988095D01*
X149500000Y-86940476D01*
X149452380Y-86845238D01*
X149452380Y-86607142D01*
X149500000Y-86464285D01*
X149452380Y-86130952D02*
X150452380Y-85892857D01*
X149738095Y-85702380D01*
X150452380Y-85511904D01*
X149452380Y-85273809D01*
X149785714Y-84464285D02*
X150452380Y-84464285D01*
X149404761Y-84702380D02*
X150119047Y-84940476D01*
X150119047Y-84321428D01*
X149452380Y-83750000D02*
X149452380Y-83654761D01*
X149500000Y-83559523D01*
X149547619Y-83511904D01*
X149642857Y-83464285D01*
X149833333Y-83416666D01*
X150071428Y-83416666D01*
X150261904Y-83464285D01*
X150357142Y-83511904D01*
X150404761Y-83559523D01*
X150452380Y-83654761D01*
X150452380Y-83750000D01*
X150404761Y-83845238D01*
X150357142Y-83892857D01*
X150261904Y-83940476D01*
X150071428Y-83988095D01*
X149833333Y-83988095D01*
X149642857Y-83940476D01*
X149547619Y-83892857D01*
X149500000Y-83845238D01*
X149452380Y-83750000D01*
X150452380Y-82464285D02*
X150452380Y-83035714D01*
X150452380Y-82750000D02*
X149452380Y-82750000D01*
X149595238Y-82845238D01*
X149690476Y-82940476D01*
X149738095Y-83035714D01*
%TO.C,J401*%
X144214285Y-92697380D02*
X144214285Y-93411666D01*
X144166666Y-93554523D01*
X144071428Y-93649761D01*
X143928571Y-93697380D01*
X143833333Y-93697380D01*
X145119047Y-93030714D02*
X145119047Y-93697380D01*
X144880952Y-92649761D02*
X144642857Y-93364047D01*
X145261904Y-93364047D01*
X145833333Y-92697380D02*
X145928571Y-92697380D01*
X146023809Y-92745000D01*
X146071428Y-92792619D01*
X146119047Y-92887857D01*
X146166666Y-93078333D01*
X146166666Y-93316428D01*
X146119047Y-93506904D01*
X146071428Y-93602142D01*
X146023809Y-93649761D01*
X145928571Y-93697380D01*
X145833333Y-93697380D01*
X145738095Y-93649761D01*
X145690476Y-93602142D01*
X145642857Y-93506904D01*
X145595238Y-93316428D01*
X145595238Y-93078333D01*
X145642857Y-92887857D01*
X145690476Y-92792619D01*
X145738095Y-92745000D01*
X145833333Y-92697380D01*
X147119047Y-93697380D02*
X146547619Y-93697380D01*
X146833333Y-93697380D02*
X146833333Y-92697380D01*
X146738095Y-92840238D01*
X146642857Y-92935476D01*
X146547619Y-92983095D01*
%TO.C,C401*%
X179352438Y-98706608D02*
X179304819Y-98754227D01*
X179161962Y-98801846D01*
X179066724Y-98801846D01*
X178923866Y-98754227D01*
X178828628Y-98658989D01*
X178781009Y-98563751D01*
X178733390Y-98373275D01*
X178733390Y-98230418D01*
X178781009Y-98039942D01*
X178828628Y-97944704D01*
X178923866Y-97849466D01*
X179066724Y-97801846D01*
X179161962Y-97801846D01*
X179304819Y-97849466D01*
X179352438Y-97897085D01*
X180209581Y-98135180D02*
X180209581Y-98801846D01*
X179971486Y-97754227D02*
X179733390Y-98468513D01*
X180352438Y-98468513D01*
X180923866Y-97801846D02*
X181019105Y-97801846D01*
X181114343Y-97849466D01*
X181161962Y-97897085D01*
X181209581Y-97992323D01*
X181257200Y-98182799D01*
X181257200Y-98420894D01*
X181209581Y-98611370D01*
X181161962Y-98706608D01*
X181114343Y-98754227D01*
X181019105Y-98801846D01*
X180923866Y-98801846D01*
X180828628Y-98754227D01*
X180781009Y-98706608D01*
X180733390Y-98611370D01*
X180685771Y-98420894D01*
X180685771Y-98182799D01*
X180733390Y-97992323D01*
X180781009Y-97897085D01*
X180828628Y-97849466D01*
X180923866Y-97801846D01*
X182209581Y-98801846D02*
X181638152Y-98801846D01*
X181923866Y-98801846D02*
X181923866Y-97801846D01*
X181828628Y-97944704D01*
X181733390Y-98039942D01*
X181638152Y-98087561D01*
%TO.C,C411*%
X109107142Y-103369047D02*
X109154761Y-103416666D01*
X109202380Y-103559523D01*
X109202380Y-103654761D01*
X109154761Y-103797619D01*
X109059523Y-103892857D01*
X108964285Y-103940476D01*
X108773809Y-103988095D01*
X108630952Y-103988095D01*
X108440476Y-103940476D01*
X108345238Y-103892857D01*
X108250000Y-103797619D01*
X108202380Y-103654761D01*
X108202380Y-103559523D01*
X108250000Y-103416666D01*
X108297619Y-103369047D01*
X108535714Y-102511904D02*
X109202380Y-102511904D01*
X108154761Y-102750000D02*
X108869047Y-102988095D01*
X108869047Y-102369047D01*
X109202380Y-101464285D02*
X109202380Y-102035714D01*
X109202380Y-101750000D02*
X108202380Y-101750000D01*
X108345238Y-101845238D01*
X108440476Y-101940476D01*
X108488095Y-102035714D01*
X109202380Y-100511904D02*
X109202380Y-101083333D01*
X109202380Y-100797619D02*
X108202380Y-100797619D01*
X108345238Y-100892857D01*
X108440476Y-100988095D01*
X108488095Y-101083333D01*
%TO.C,C304*%
X231380952Y-89783142D02*
X231333333Y-89830761D01*
X231190476Y-89878380D01*
X231095238Y-89878380D01*
X230952380Y-89830761D01*
X230857142Y-89735523D01*
X230809523Y-89640285D01*
X230761904Y-89449809D01*
X230761904Y-89306952D01*
X230809523Y-89116476D01*
X230857142Y-89021238D01*
X230952380Y-88926000D01*
X231095238Y-88878380D01*
X231190476Y-88878380D01*
X231333333Y-88926000D01*
X231380952Y-88973619D01*
X231714285Y-88878380D02*
X232333333Y-88878380D01*
X232000000Y-89259333D01*
X232142857Y-89259333D01*
X232238095Y-89306952D01*
X232285714Y-89354571D01*
X232333333Y-89449809D01*
X232333333Y-89687904D01*
X232285714Y-89783142D01*
X232238095Y-89830761D01*
X232142857Y-89878380D01*
X231857142Y-89878380D01*
X231761904Y-89830761D01*
X231714285Y-89783142D01*
X232952380Y-88878380D02*
X233047619Y-88878380D01*
X233142857Y-88926000D01*
X233190476Y-88973619D01*
X233238095Y-89068857D01*
X233285714Y-89259333D01*
X233285714Y-89497428D01*
X233238095Y-89687904D01*
X233190476Y-89783142D01*
X233142857Y-89830761D01*
X233047619Y-89878380D01*
X232952380Y-89878380D01*
X232857142Y-89830761D01*
X232809523Y-89783142D01*
X232761904Y-89687904D01*
X232714285Y-89497428D01*
X232714285Y-89259333D01*
X232761904Y-89068857D01*
X232809523Y-88973619D01*
X232857142Y-88926000D01*
X232952380Y-88878380D01*
X234142857Y-89211714D02*
X234142857Y-89878380D01*
X233904761Y-88830761D02*
X233666666Y-89545047D01*
X234285714Y-89545047D01*
%TO.C,J412*%
X165214285Y-114702380D02*
X165214285Y-115416666D01*
X165166666Y-115559523D01*
X165071428Y-115654761D01*
X164928571Y-115702380D01*
X164833333Y-115702380D01*
X166119047Y-115035714D02*
X166119047Y-115702380D01*
X165880952Y-114654761D02*
X165642857Y-115369047D01*
X166261904Y-115369047D01*
X167166666Y-115702380D02*
X166595238Y-115702380D01*
X166880952Y-115702380D02*
X166880952Y-114702380D01*
X166785714Y-114845238D01*
X166690476Y-114940476D01*
X166595238Y-114988095D01*
X167547619Y-114797619D02*
X167595238Y-114750000D01*
X167690476Y-114702380D01*
X167928571Y-114702380D01*
X168023809Y-114750000D01*
X168071428Y-114797619D01*
X168119047Y-114892857D01*
X168119047Y-114988095D01*
X168071428Y-115130952D01*
X167500000Y-115702380D01*
X168119047Y-115702380D01*
%TO.C,C407*%
X183891328Y-107856384D02*
X183843709Y-107904003D01*
X183700852Y-107951622D01*
X183605614Y-107951622D01*
X183462756Y-107904003D01*
X183367518Y-107808765D01*
X183319899Y-107713527D01*
X183272280Y-107523051D01*
X183272280Y-107380194D01*
X183319899Y-107189718D01*
X183367518Y-107094480D01*
X183462756Y-106999242D01*
X183605614Y-106951622D01*
X183700852Y-106951622D01*
X183843709Y-106999242D01*
X183891328Y-107046861D01*
X184748471Y-107284956D02*
X184748471Y-107951622D01*
X184510376Y-106904003D02*
X184272280Y-107618289D01*
X184891328Y-107618289D01*
X185462756Y-106951622D02*
X185557995Y-106951622D01*
X185653233Y-106999242D01*
X185700852Y-107046861D01*
X185748471Y-107142099D01*
X185796090Y-107332575D01*
X185796090Y-107570670D01*
X185748471Y-107761146D01*
X185700852Y-107856384D01*
X185653233Y-107904003D01*
X185557995Y-107951622D01*
X185462756Y-107951622D01*
X185367518Y-107904003D01*
X185319899Y-107856384D01*
X185272280Y-107761146D01*
X185224661Y-107570670D01*
X185224661Y-107332575D01*
X185272280Y-107142099D01*
X185319899Y-107046861D01*
X185367518Y-106999242D01*
X185462756Y-106951622D01*
X186129423Y-106951622D02*
X186796090Y-106951622D01*
X186367518Y-107951622D01*
%TO.C,J404*%
X141714285Y-114702380D02*
X141714285Y-115416666D01*
X141666666Y-115559523D01*
X141571428Y-115654761D01*
X141428571Y-115702380D01*
X141333333Y-115702380D01*
X142619047Y-115035714D02*
X142619047Y-115702380D01*
X142380952Y-114654761D02*
X142142857Y-115369047D01*
X142761904Y-115369047D01*
X143333333Y-114702380D02*
X143428571Y-114702380D01*
X143523809Y-114750000D01*
X143571428Y-114797619D01*
X143619047Y-114892857D01*
X143666666Y-115083333D01*
X143666666Y-115321428D01*
X143619047Y-115511904D01*
X143571428Y-115607142D01*
X143523809Y-115654761D01*
X143428571Y-115702380D01*
X143333333Y-115702380D01*
X143238095Y-115654761D01*
X143190476Y-115607142D01*
X143142857Y-115511904D01*
X143095238Y-115321428D01*
X143095238Y-115083333D01*
X143142857Y-114892857D01*
X143190476Y-114797619D01*
X143238095Y-114750000D01*
X143333333Y-114702380D01*
X144523809Y-115035714D02*
X144523809Y-115702380D01*
X144285714Y-114654761D02*
X144047619Y-115369047D01*
X144666666Y-115369047D01*
%TO.C,C408*%
X183891328Y-106106384D02*
X183843709Y-106154003D01*
X183700852Y-106201622D01*
X183605614Y-106201622D01*
X183462756Y-106154003D01*
X183367518Y-106058765D01*
X183319899Y-105963527D01*
X183272280Y-105773051D01*
X183272280Y-105630194D01*
X183319899Y-105439718D01*
X183367518Y-105344480D01*
X183462756Y-105249242D01*
X183605614Y-105201622D01*
X183700852Y-105201622D01*
X183843709Y-105249242D01*
X183891328Y-105296861D01*
X184748471Y-105534956D02*
X184748471Y-106201622D01*
X184510376Y-105154003D02*
X184272280Y-105868289D01*
X184891328Y-105868289D01*
X185462756Y-105201622D02*
X185557995Y-105201622D01*
X185653233Y-105249242D01*
X185700852Y-105296861D01*
X185748471Y-105392099D01*
X185796090Y-105582575D01*
X185796090Y-105820670D01*
X185748471Y-106011146D01*
X185700852Y-106106384D01*
X185653233Y-106154003D01*
X185557995Y-106201622D01*
X185462756Y-106201622D01*
X185367518Y-106154003D01*
X185319899Y-106106384D01*
X185272280Y-106011146D01*
X185224661Y-105820670D01*
X185224661Y-105582575D01*
X185272280Y-105392099D01*
X185319899Y-105296861D01*
X185367518Y-105249242D01*
X185462756Y-105201622D01*
X186367518Y-105630194D02*
X186272280Y-105582575D01*
X186224661Y-105534956D01*
X186177042Y-105439718D01*
X186177042Y-105392099D01*
X186224661Y-105296861D01*
X186272280Y-105249242D01*
X186367518Y-105201622D01*
X186557995Y-105201622D01*
X186653233Y-105249242D01*
X186700852Y-105296861D01*
X186748471Y-105392099D01*
X186748471Y-105439718D01*
X186700852Y-105534956D01*
X186653233Y-105582575D01*
X186557995Y-105630194D01*
X186367518Y-105630194D01*
X186272280Y-105677813D01*
X186224661Y-105725432D01*
X186177042Y-105820670D01*
X186177042Y-106011146D01*
X186224661Y-106106384D01*
X186272280Y-106154003D01*
X186367518Y-106201622D01*
X186557995Y-106201622D01*
X186653233Y-106154003D01*
X186700852Y-106106384D01*
X186748471Y-106011146D01*
X186748471Y-105820670D01*
X186700852Y-105725432D01*
X186653233Y-105677813D01*
X186557995Y-105630194D01*
%TO.C,R405*%
X236089880Y-104894047D02*
X235613690Y-105227380D01*
X236089880Y-105465476D02*
X235089880Y-105465476D01*
X235089880Y-105084523D01*
X235137500Y-104989285D01*
X235185119Y-104941666D01*
X235280357Y-104894047D01*
X235423214Y-104894047D01*
X235518452Y-104941666D01*
X235566071Y-104989285D01*
X235613690Y-105084523D01*
X235613690Y-105465476D01*
X235423214Y-104036904D02*
X236089880Y-104036904D01*
X235042261Y-104275000D02*
X235756547Y-104513095D01*
X235756547Y-103894047D01*
X235089880Y-103322619D02*
X235089880Y-103227380D01*
X235137500Y-103132142D01*
X235185119Y-103084523D01*
X235280357Y-103036904D01*
X235470833Y-102989285D01*
X235708928Y-102989285D01*
X235899404Y-103036904D01*
X235994642Y-103084523D01*
X236042261Y-103132142D01*
X236089880Y-103227380D01*
X236089880Y-103322619D01*
X236042261Y-103417857D01*
X235994642Y-103465476D01*
X235899404Y-103513095D01*
X235708928Y-103560714D01*
X235470833Y-103560714D01*
X235280357Y-103513095D01*
X235185119Y-103465476D01*
X235137500Y-103417857D01*
X235089880Y-103322619D01*
X235089880Y-102084523D02*
X235089880Y-102560714D01*
X235566071Y-102608333D01*
X235518452Y-102560714D01*
X235470833Y-102465476D01*
X235470833Y-102227380D01*
X235518452Y-102132142D01*
X235566071Y-102084523D01*
X235661309Y-102036904D01*
X235899404Y-102036904D01*
X235994642Y-102084523D01*
X236042261Y-102132142D01*
X236089880Y-102227380D01*
X236089880Y-102465476D01*
X236042261Y-102560714D01*
X235994642Y-102608333D01*
%TO.C,U201*%
X193285714Y-80351380D02*
X193285714Y-81160904D01*
X193333333Y-81256142D01*
X193380952Y-81303761D01*
X193476190Y-81351380D01*
X193666666Y-81351380D01*
X193761904Y-81303761D01*
X193809523Y-81256142D01*
X193857142Y-81160904D01*
X193857142Y-80351380D01*
X194285714Y-80446619D02*
X194333333Y-80399000D01*
X194428571Y-80351380D01*
X194666666Y-80351380D01*
X194761904Y-80399000D01*
X194809523Y-80446619D01*
X194857142Y-80541857D01*
X194857142Y-80637095D01*
X194809523Y-80779952D01*
X194238095Y-81351380D01*
X194857142Y-81351380D01*
X195476190Y-80351380D02*
X195571428Y-80351380D01*
X195666666Y-80399000D01*
X195714285Y-80446619D01*
X195761904Y-80541857D01*
X195809523Y-80732333D01*
X195809523Y-80970428D01*
X195761904Y-81160904D01*
X195714285Y-81256142D01*
X195666666Y-81303761D01*
X195571428Y-81351380D01*
X195476190Y-81351380D01*
X195380952Y-81303761D01*
X195333333Y-81256142D01*
X195285714Y-81160904D01*
X195238095Y-80970428D01*
X195238095Y-80732333D01*
X195285714Y-80541857D01*
X195333333Y-80446619D01*
X195380952Y-80399000D01*
X195476190Y-80351380D01*
X196761904Y-81351380D02*
X196190476Y-81351380D01*
X196476190Y-81351380D02*
X196476190Y-80351380D01*
X196380952Y-80494238D01*
X196285714Y-80589476D01*
X196190476Y-80637095D01*
%TO.C,R408*%
X122452380Y-104869047D02*
X121976190Y-105202380D01*
X122452380Y-105440476D02*
X121452380Y-105440476D01*
X121452380Y-105059523D01*
X121500000Y-104964285D01*
X121547619Y-104916666D01*
X121642857Y-104869047D01*
X121785714Y-104869047D01*
X121880952Y-104916666D01*
X121928571Y-104964285D01*
X121976190Y-105059523D01*
X121976190Y-105440476D01*
X121785714Y-104011904D02*
X122452380Y-104011904D01*
X121404761Y-104250000D02*
X122119047Y-104488095D01*
X122119047Y-103869047D01*
X121452380Y-103297619D02*
X121452380Y-103202380D01*
X121500000Y-103107142D01*
X121547619Y-103059523D01*
X121642857Y-103011904D01*
X121833333Y-102964285D01*
X122071428Y-102964285D01*
X122261904Y-103011904D01*
X122357142Y-103059523D01*
X122404761Y-103107142D01*
X122452380Y-103202380D01*
X122452380Y-103297619D01*
X122404761Y-103392857D01*
X122357142Y-103440476D01*
X122261904Y-103488095D01*
X122071428Y-103535714D01*
X121833333Y-103535714D01*
X121642857Y-103488095D01*
X121547619Y-103440476D01*
X121500000Y-103392857D01*
X121452380Y-103297619D01*
X121880952Y-102392857D02*
X121833333Y-102488095D01*
X121785714Y-102535714D01*
X121690476Y-102583333D01*
X121642857Y-102583333D01*
X121547619Y-102535714D01*
X121500000Y-102488095D01*
X121452380Y-102392857D01*
X121452380Y-102202380D01*
X121500000Y-102107142D01*
X121547619Y-102059523D01*
X121642857Y-102011904D01*
X121690476Y-102011904D01*
X121785714Y-102059523D01*
X121833333Y-102107142D01*
X121880952Y-102202380D01*
X121880952Y-102392857D01*
X121928571Y-102488095D01*
X121976190Y-102535714D01*
X122071428Y-102583333D01*
X122261904Y-102583333D01*
X122357142Y-102535714D01*
X122404761Y-102488095D01*
X122452380Y-102392857D01*
X122452380Y-102202380D01*
X122404761Y-102107142D01*
X122357142Y-102059523D01*
X122261904Y-102011904D01*
X122071428Y-102011904D01*
X121976190Y-102059523D01*
X121928571Y-102107142D01*
X121880952Y-102202380D01*
%TO.C,C403*%
X190880952Y-103857142D02*
X190833333Y-103904761D01*
X190690476Y-103952380D01*
X190595238Y-103952380D01*
X190452380Y-103904761D01*
X190357142Y-103809523D01*
X190309523Y-103714285D01*
X190261904Y-103523809D01*
X190261904Y-103380952D01*
X190309523Y-103190476D01*
X190357142Y-103095238D01*
X190452380Y-103000000D01*
X190595238Y-102952380D01*
X190690476Y-102952380D01*
X190833333Y-103000000D01*
X190880952Y-103047619D01*
X191738095Y-103285714D02*
X191738095Y-103952380D01*
X191500000Y-102904761D02*
X191261904Y-103619047D01*
X191880952Y-103619047D01*
X192452380Y-102952380D02*
X192547619Y-102952380D01*
X192642857Y-103000000D01*
X192690476Y-103047619D01*
X192738095Y-103142857D01*
X192785714Y-103333333D01*
X192785714Y-103571428D01*
X192738095Y-103761904D01*
X192690476Y-103857142D01*
X192642857Y-103904761D01*
X192547619Y-103952380D01*
X192452380Y-103952380D01*
X192357142Y-103904761D01*
X192309523Y-103857142D01*
X192261904Y-103761904D01*
X192214285Y-103571428D01*
X192214285Y-103333333D01*
X192261904Y-103142857D01*
X192309523Y-103047619D01*
X192357142Y-103000000D01*
X192452380Y-102952380D01*
X193119047Y-102952380D02*
X193738095Y-102952380D01*
X193404761Y-103333333D01*
X193547619Y-103333333D01*
X193642857Y-103380952D01*
X193690476Y-103428571D01*
X193738095Y-103523809D01*
X193738095Y-103761904D01*
X193690476Y-103857142D01*
X193642857Y-103904761D01*
X193547619Y-103952380D01*
X193261904Y-103952380D01*
X193166666Y-103904761D01*
X193119047Y-103857142D01*
%TO.C,C402*%
X190880952Y-100357142D02*
X190833333Y-100404761D01*
X190690476Y-100452380D01*
X190595238Y-100452380D01*
X190452380Y-100404761D01*
X190357142Y-100309523D01*
X190309523Y-100214285D01*
X190261904Y-100023809D01*
X190261904Y-99880952D01*
X190309523Y-99690476D01*
X190357142Y-99595238D01*
X190452380Y-99500000D01*
X190595238Y-99452380D01*
X190690476Y-99452380D01*
X190833333Y-99500000D01*
X190880952Y-99547619D01*
X191738095Y-99785714D02*
X191738095Y-100452380D01*
X191500000Y-99404761D02*
X191261904Y-100119047D01*
X191880952Y-100119047D01*
X192452380Y-99452380D02*
X192547619Y-99452380D01*
X192642857Y-99500000D01*
X192690476Y-99547619D01*
X192738095Y-99642857D01*
X192785714Y-99833333D01*
X192785714Y-100071428D01*
X192738095Y-100261904D01*
X192690476Y-100357142D01*
X192642857Y-100404761D01*
X192547619Y-100452380D01*
X192452380Y-100452380D01*
X192357142Y-100404761D01*
X192309523Y-100357142D01*
X192261904Y-100261904D01*
X192214285Y-100071428D01*
X192214285Y-99833333D01*
X192261904Y-99642857D01*
X192309523Y-99547619D01*
X192357142Y-99500000D01*
X192452380Y-99452380D01*
X193166666Y-99547619D02*
X193214285Y-99500000D01*
X193309523Y-99452380D01*
X193547619Y-99452380D01*
X193642857Y-99500000D01*
X193690476Y-99547619D01*
X193738095Y-99642857D01*
X193738095Y-99738095D01*
X193690476Y-99880952D01*
X193119047Y-100452380D01*
X193738095Y-100452380D01*
D11*
%TO.C,U301*%
X119016000Y-87440000D02*
X115566000Y-87440000D01*
X119016000Y-92560000D02*
X120966000Y-92560000D01*
X119016000Y-92560000D02*
X117066000Y-92560000D01*
X119016000Y-87440000D02*
X120966000Y-87440000D01*
%TO.C,D404*%
X141340000Y-106235000D02*
X143800000Y-106235000D01*
X143800000Y-104765000D02*
X141340000Y-104765000D01*
X141340000Y-104765000D02*
X141340000Y-106235000D01*
%TO.C,SW402*%
X133000000Y-88250000D02*
X134500000Y-88250000D01*
X130500000Y-82500000D02*
X130500000Y-87000000D01*
X137000000Y-87000000D02*
X137000000Y-82500000D01*
X134500000Y-81250000D02*
X133000000Y-81250000D01*
%TO.C,Y401*%
X183300000Y-103350000D02*
X187200000Y-103350000D01*
X183300000Y-100150000D02*
X183300000Y-103350000D01*
%TO.C,J302*%
X226750000Y-81275000D02*
X226750000Y-80525000D01*
X212450000Y-81275000D02*
X214250000Y-81275000D01*
X212150000Y-80225000D02*
X212150000Y-81475000D01*
X230050000Y-82775000D02*
X229300000Y-82775000D01*
X226750000Y-80525000D02*
X215750000Y-80525000D01*
X229300000Y-85725000D02*
X221250000Y-85725000D01*
X229300000Y-82775000D02*
X229300000Y-85725000D01*
X214250000Y-80525000D02*
X212450000Y-80525000D01*
X213400000Y-80225000D02*
X212150000Y-80225000D01*
X215750000Y-81275000D02*
X226750000Y-81275000D01*
X212440000Y-86485000D02*
X230060000Y-86485000D01*
X228250000Y-80525000D02*
X228250000Y-81275000D01*
X230060000Y-86485000D02*
X230060000Y-80515000D01*
X212450000Y-82775000D02*
X213200000Y-82775000D01*
X212450000Y-80525000D02*
X212450000Y-81275000D01*
X213200000Y-85725000D02*
X221250000Y-85725000D01*
X214250000Y-81275000D02*
X214250000Y-80525000D01*
X213200000Y-82775000D02*
X213200000Y-85725000D01*
X215750000Y-80525000D02*
X215750000Y-81275000D01*
X230050000Y-80525000D02*
X228250000Y-80525000D01*
X230060000Y-80515000D02*
X212440000Y-80515000D01*
X212440000Y-80515000D02*
X212440000Y-86485000D01*
X230050000Y-81275000D02*
X230050000Y-80525000D01*
X228250000Y-81275000D02*
X230050000Y-81275000D01*
%TO.C,J204*%
X218695000Y-117150000D02*
X221355000Y-117150000D01*
X221355000Y-109470000D02*
X221355000Y-117150000D01*
X221355000Y-106870000D02*
X221355000Y-108200000D01*
X218695000Y-109470000D02*
X221355000Y-109470000D01*
X218695000Y-109470000D02*
X218695000Y-117150000D01*
X220025000Y-106870000D02*
X221355000Y-106870000D01*
%TO.C,J408*%
X205245000Y-117100000D02*
X207905000Y-117100000D01*
X207905000Y-104280000D02*
X207905000Y-105610000D01*
X205245000Y-106880000D02*
X207905000Y-106880000D01*
X205245000Y-106880000D02*
X205245000Y-117100000D01*
X207905000Y-106880000D02*
X207905000Y-117100000D01*
X206575000Y-104280000D02*
X207905000Y-104280000D01*
%TO.C,D402*%
X203015000Y-99660000D02*
X204485000Y-99660000D01*
X203015000Y-97200000D02*
X203015000Y-99660000D01*
X204485000Y-99660000D02*
X204485000Y-97200000D01*
%TO.C,J301*%
X127800000Y-82714000D02*
X127050000Y-82714000D01*
X113500000Y-81214000D02*
X124500000Y-81214000D01*
X127050000Y-85664000D02*
X119000000Y-85664000D01*
X111150000Y-80164000D02*
X109900000Y-80164000D01*
X124500000Y-81214000D02*
X124500000Y-80464000D01*
X113500000Y-80464000D02*
X113500000Y-81214000D01*
X110190000Y-80454000D02*
X110190000Y-86424000D01*
X124500000Y-80464000D02*
X113500000Y-80464000D01*
X110950000Y-85664000D02*
X119000000Y-85664000D01*
X112000000Y-80464000D02*
X110200000Y-80464000D01*
X126000000Y-81214000D02*
X127800000Y-81214000D01*
X109900000Y-80164000D02*
X109900000Y-81414000D01*
X110200000Y-80464000D02*
X110200000Y-81214000D01*
X110950000Y-82714000D02*
X110950000Y-85664000D01*
X127800000Y-81214000D02*
X127800000Y-80464000D01*
X127810000Y-80454000D02*
X110190000Y-80454000D01*
X127050000Y-82714000D02*
X127050000Y-85664000D01*
X127800000Y-80464000D02*
X126000000Y-80464000D01*
X127810000Y-86424000D02*
X127810000Y-80454000D01*
X126000000Y-80464000D02*
X126000000Y-81214000D01*
X110190000Y-86424000D02*
X127810000Y-86424000D01*
X110200000Y-81214000D02*
X112000000Y-81214000D01*
X110200000Y-82714000D02*
X110950000Y-82714000D01*
X112000000Y-81214000D02*
X112000000Y-80464000D01*
%TO.C,D405*%
X149660000Y-104765000D02*
X147200000Y-104765000D01*
X149660000Y-106235000D02*
X149660000Y-104765000D01*
X147200000Y-106235000D02*
X149660000Y-106235000D01*
%TO.C,R401*%
X180245276Y-101772500D02*
X180754724Y-101772500D01*
X180245276Y-100727500D02*
X180754724Y-100727500D01*
%TO.C,C404*%
X139240000Y-82353733D02*
X139240000Y-82646267D01*
X140260000Y-82353733D02*
X140260000Y-82646267D01*
%TO.C,C405*%
X180353733Y-108490000D02*
X180646267Y-108490000D01*
X180353733Y-109510000D02*
X180646267Y-109510000D01*
%TO.C,R412*%
X208745276Y-101727500D02*
X209254724Y-101727500D01*
X208745276Y-102772500D02*
X209254724Y-102772500D01*
%TO.C,C410*%
X193490000Y-116646267D02*
X193490000Y-116353733D01*
X194510000Y-116646267D02*
X194510000Y-116353733D01*
%TO.C,C302*%
X214896267Y-89301000D02*
X214603733Y-89301000D01*
X214896267Y-90321000D02*
X214603733Y-90321000D01*
%TO.C,C205*%
X186500241Y-94339000D02*
X185870241Y-94339000D01*
X181599000Y-95416000D02*
X181599000Y-93540000D01*
X181119000Y-91460000D02*
X181119000Y-89864000D01*
X181839000Y-95518000D02*
X181839000Y-93540000D01*
X180839000Y-94916000D02*
X180839000Y-93540000D01*
X182360000Y-91460000D02*
X182360000Y-89333000D01*
X180119000Y-94009000D02*
X180119000Y-90991000D01*
X180399000Y-94444000D02*
X180399000Y-90556000D01*
X182320000Y-95659000D02*
X182320000Y-93540000D01*
X179759000Y-92902000D02*
X179759000Y-92098000D01*
X181559000Y-91460000D02*
X181559000Y-89604000D01*
X182119000Y-91460000D02*
X182119000Y-89390000D01*
X180799000Y-91460000D02*
X180799000Y-90120000D01*
X181919000Y-95547000D02*
X181919000Y-93540000D01*
X181759000Y-91460000D02*
X181759000Y-89514000D01*
X181679000Y-95452000D02*
X181679000Y-93540000D01*
X181999000Y-91460000D02*
X181999000Y-89426000D01*
X181439000Y-95334000D02*
X181439000Y-93540000D01*
X180919000Y-91460000D02*
X180919000Y-90016000D01*
X180079000Y-93932000D02*
X180079000Y-91068000D01*
X181119000Y-95136000D02*
X181119000Y-93540000D01*
X179879000Y-93440000D02*
X179879000Y-91560000D01*
X181879000Y-91460000D02*
X181879000Y-89467000D01*
X181839000Y-91460000D02*
X181839000Y-89482000D01*
X182640000Y-91460000D02*
X182640000Y-89289000D01*
X181159000Y-95164000D02*
X181159000Y-93540000D01*
X181439000Y-91460000D02*
X181439000Y-89666000D01*
X180759000Y-94843000D02*
X180759000Y-93540000D01*
X182800000Y-95724000D02*
X182800000Y-89276000D01*
X179959000Y-93665000D02*
X179959000Y-91335000D01*
X182440000Y-95682000D02*
X182440000Y-93540000D01*
X182720000Y-95718000D02*
X182720000Y-93540000D01*
X180359000Y-94390000D02*
X180359000Y-90610000D01*
X181519000Y-91460000D02*
X181519000Y-89624000D01*
X182480000Y-91460000D02*
X182480000Y-89311000D01*
X181519000Y-95376000D02*
X181519000Y-93540000D01*
X182079000Y-95598000D02*
X182079000Y-93540000D01*
X182600000Y-95706000D02*
X182600000Y-93540000D01*
X181199000Y-91460000D02*
X181199000Y-89810000D01*
X181999000Y-95574000D02*
X181999000Y-93540000D01*
X181959000Y-91460000D02*
X181959000Y-89439000D01*
X182400000Y-91460000D02*
X182400000Y-89325000D01*
X182159000Y-91460000D02*
X182159000Y-89379000D01*
X182239000Y-95641000D02*
X182239000Y-93540000D01*
X180639000Y-94724000D02*
X180639000Y-90276000D01*
X180159000Y-94081000D02*
X180159000Y-90919000D01*
X180999000Y-91460000D02*
X180999000Y-89952000D01*
X182360000Y-95667000D02*
X182360000Y-93540000D01*
X182680000Y-95715000D02*
X182680000Y-93540000D01*
X180239000Y-94214000D02*
X180239000Y-90786000D01*
X180799000Y-94880000D02*
X180799000Y-93540000D01*
X182520000Y-95695000D02*
X182520000Y-93540000D01*
X186185241Y-94654000D02*
X186185241Y-94024000D01*
X181599000Y-91460000D02*
X181599000Y-89584000D01*
X181679000Y-91460000D02*
X181679000Y-89548000D01*
X181239000Y-91460000D02*
X181239000Y-89784000D01*
X182880000Y-95728000D02*
X182880000Y-89272000D01*
X180959000Y-95016000D02*
X180959000Y-93540000D01*
X180919000Y-94984000D02*
X180919000Y-93540000D01*
X180039000Y-93850000D02*
X180039000Y-91150000D01*
X181279000Y-95242000D02*
X181279000Y-93540000D01*
X180879000Y-94950000D02*
X180879000Y-93540000D01*
X181079000Y-91460000D02*
X181079000Y-89893000D01*
X181039000Y-95078000D02*
X181039000Y-93540000D01*
X182520000Y-91460000D02*
X182520000Y-89305000D01*
X180439000Y-94495000D02*
X180439000Y-90505000D01*
X181799000Y-95502000D02*
X181799000Y-93540000D01*
X182320000Y-91460000D02*
X182320000Y-89341000D01*
X181559000Y-95396000D02*
X181559000Y-93540000D01*
X182199000Y-91460000D02*
X182199000Y-89369000D01*
X183000000Y-95730000D02*
X183000000Y-89270000D01*
X182680000Y-91460000D02*
X182680000Y-89285000D01*
X180759000Y-91460000D02*
X180759000Y-90157000D01*
X180879000Y-91460000D02*
X180879000Y-90050000D01*
X181239000Y-95216000D02*
X181239000Y-93540000D01*
X180679000Y-94765000D02*
X180679000Y-90235000D01*
X182159000Y-95621000D02*
X182159000Y-93540000D01*
X181799000Y-91460000D02*
X181799000Y-89498000D01*
X181359000Y-95290000D02*
X181359000Y-93540000D01*
X179799000Y-93133000D02*
X179799000Y-91867000D01*
X182960000Y-95730000D02*
X182960000Y-89270000D01*
X182600000Y-91460000D02*
X182600000Y-89294000D01*
X181039000Y-91460000D02*
X181039000Y-89922000D01*
X181879000Y-95533000D02*
X181879000Y-93540000D01*
X181319000Y-91460000D02*
X181319000Y-89734000D01*
X182199000Y-95631000D02*
X182199000Y-93540000D01*
X182840000Y-95727000D02*
X182840000Y-89273000D01*
X180719000Y-94805000D02*
X180719000Y-93540000D01*
X182560000Y-91460000D02*
X182560000Y-89299000D01*
X181359000Y-91460000D02*
X181359000Y-89710000D01*
X181399000Y-95312000D02*
X181399000Y-93540000D01*
X180839000Y-91460000D02*
X180839000Y-90084000D01*
X181719000Y-91460000D02*
X181719000Y-89530000D01*
X182480000Y-95689000D02*
X182480000Y-93540000D01*
X182039000Y-95586000D02*
X182039000Y-93540000D01*
X180319000Y-94334000D02*
X180319000Y-90666000D01*
X180519000Y-94592000D02*
X180519000Y-90408000D01*
X182039000Y-91460000D02*
X182039000Y-89414000D01*
X180479000Y-94544000D02*
X180479000Y-90456000D01*
X180999000Y-95048000D02*
X180999000Y-93540000D01*
X180199000Y-94150000D02*
X180199000Y-90850000D01*
X182560000Y-95701000D02*
X182560000Y-93540000D01*
X181479000Y-91460000D02*
X181479000Y-89644000D01*
X181399000Y-91460000D02*
X181399000Y-89688000D01*
X182760000Y-95722000D02*
X182760000Y-93540000D01*
X181719000Y-95470000D02*
X181719000Y-93540000D01*
X181159000Y-91460000D02*
X181159000Y-89836000D01*
X180599000Y-94682000D02*
X180599000Y-90318000D01*
X181319000Y-95266000D02*
X181319000Y-93540000D01*
X179839000Y-93302000D02*
X179839000Y-91698000D01*
X180719000Y-91460000D02*
X180719000Y-90195000D01*
X182279000Y-91460000D02*
X182279000Y-89350000D01*
X181639000Y-91460000D02*
X181639000Y-89566000D01*
X181279000Y-91460000D02*
X181279000Y-89758000D01*
X182119000Y-95610000D02*
X182119000Y-93540000D01*
X180559000Y-94637000D02*
X180559000Y-90363000D01*
X182400000Y-95675000D02*
X182400000Y-93540000D01*
X182720000Y-91460000D02*
X182720000Y-89282000D01*
X182079000Y-91460000D02*
X182079000Y-89402000D01*
X182760000Y-91460000D02*
X182760000Y-89278000D01*
X181479000Y-95356000D02*
X181479000Y-93540000D01*
X182239000Y-91460000D02*
X182239000Y-89359000D01*
X180279000Y-94276000D02*
X180279000Y-90724000D01*
X181199000Y-95190000D02*
X181199000Y-93540000D01*
X179999000Y-93762000D02*
X179999000Y-91238000D01*
X181959000Y-95561000D02*
X181959000Y-93540000D01*
X182440000Y-91460000D02*
X182440000Y-89318000D01*
X181919000Y-91460000D02*
X181919000Y-89453000D01*
X182640000Y-95711000D02*
X182640000Y-93540000D01*
X182279000Y-95650000D02*
X182279000Y-93540000D01*
X179919000Y-93559000D02*
X179919000Y-91441000D01*
X181759000Y-95486000D02*
X181759000Y-93540000D01*
X181079000Y-95107000D02*
X181079000Y-93540000D01*
X181639000Y-95434000D02*
X181639000Y-93540000D01*
X182920000Y-95730000D02*
X182920000Y-89270000D01*
X180959000Y-91460000D02*
X180959000Y-89984000D01*
X186270000Y-92500000D02*
G75*
G03*
X186270000Y-92500000I-3270000J0D01*
G01*
%TO.C,R201*%
X219745276Y-102772500D02*
X220254724Y-102772500D01*
X219745276Y-101727500D02*
X220254724Y-101727500D01*
%TO.C,C412*%
X157603733Y-87240000D02*
X157896267Y-87240000D01*
X157603733Y-88260000D02*
X157896267Y-88260000D01*
%TO.C,C303*%
X125716233Y-89875000D02*
X126008767Y-89875000D01*
X125716233Y-88855000D02*
X126008767Y-88855000D01*
%TO.C,R202*%
X213995276Y-102772500D02*
X214504724Y-102772500D01*
X213995276Y-101727500D02*
X214504724Y-101727500D01*
%TO.C,C301*%
X112758767Y-89240000D02*
X112466233Y-89240000D01*
X112758767Y-90260000D02*
X112466233Y-90260000D01*
%TO.C,C202*%
X202510000Y-82553733D02*
X202510000Y-82846267D01*
X201490000Y-82553733D02*
X201490000Y-82846267D01*
%TO.C,C204*%
X211076000Y-84853733D02*
X211076000Y-85146267D01*
X210056000Y-84853733D02*
X210056000Y-85146267D01*
%TO.C,J405*%
X154750000Y-80464000D02*
X154750000Y-81214000D01*
X151450000Y-80464000D02*
X151450000Y-81214000D01*
X160800000Y-82714000D02*
X160800000Y-85664000D01*
X158250000Y-81214000D02*
X158250000Y-80464000D01*
X161560000Y-86424000D02*
X161560000Y-80454000D01*
X152200000Y-85664000D02*
X156500000Y-85664000D01*
X160800000Y-85664000D02*
X156500000Y-85664000D01*
X153250000Y-81214000D02*
X153250000Y-80464000D01*
X158250000Y-80464000D02*
X154750000Y-80464000D01*
X151450000Y-82714000D02*
X152200000Y-82714000D01*
X159750000Y-81214000D02*
X161550000Y-81214000D01*
X161560000Y-80454000D02*
X151440000Y-80454000D01*
X151450000Y-81214000D02*
X153250000Y-81214000D01*
X151440000Y-86424000D02*
X161560000Y-86424000D01*
X152400000Y-80164000D02*
X151150000Y-80164000D01*
X161550000Y-82714000D02*
X160800000Y-82714000D01*
X151150000Y-80164000D02*
X151150000Y-81414000D01*
X159750000Y-80464000D02*
X159750000Y-81214000D01*
X154750000Y-81214000D02*
X158250000Y-81214000D01*
X161550000Y-81214000D02*
X161550000Y-80464000D01*
X161550000Y-80464000D02*
X159750000Y-80464000D01*
X153250000Y-80464000D02*
X151450000Y-80464000D01*
X152200000Y-82714000D02*
X152200000Y-85664000D01*
X151440000Y-80454000D02*
X151440000Y-86424000D01*
%TO.C,J406*%
X128800000Y-114250000D02*
X119500000Y-114250000D01*
X129550000Y-117200000D02*
X128800000Y-117200000D01*
X109450000Y-118700000D02*
X109450000Y-119450000D01*
X111250000Y-119450000D02*
X111250000Y-118700000D01*
X129550000Y-118700000D02*
X127750000Y-118700000D01*
X127750000Y-119450000D02*
X129550000Y-119450000D01*
X128600000Y-119750000D02*
X129850000Y-119750000D01*
X112750000Y-118700000D02*
X112750000Y-119450000D01*
X111250000Y-118700000D02*
X109450000Y-118700000D01*
X126250000Y-118700000D02*
X112750000Y-118700000D01*
X109450000Y-119450000D02*
X111250000Y-119450000D01*
X110200000Y-117200000D02*
X110200000Y-114250000D01*
X112750000Y-119450000D02*
X126250000Y-119450000D01*
X109440000Y-119460000D02*
X129560000Y-119460000D01*
X129560000Y-113490000D02*
X109440000Y-113490000D01*
X129850000Y-119750000D02*
X129850000Y-118500000D01*
X109440000Y-113490000D02*
X109440000Y-119460000D01*
X126250000Y-119450000D02*
X126250000Y-118700000D01*
X127750000Y-118700000D02*
X127750000Y-119450000D01*
X128800000Y-117200000D02*
X128800000Y-114250000D01*
X129560000Y-119460000D02*
X129560000Y-113490000D01*
X129550000Y-119450000D02*
X129550000Y-118700000D01*
X110200000Y-114250000D02*
X119500000Y-114250000D01*
X109450000Y-117200000D02*
X110200000Y-117200000D01*
%TO.C,C306*%
X214896267Y-88666000D02*
X214603733Y-88666000D01*
X214896267Y-87646000D02*
X214603733Y-87646000D01*
%TO.C,C305*%
X112758767Y-87585000D02*
X112466233Y-87585000D01*
X112758767Y-88605000D02*
X112466233Y-88605000D01*
%TO.C,JP309*%
X127262500Y-97000000D02*
X124462500Y-97000000D01*
X124462500Y-95000000D02*
X127262500Y-95000000D01*
X127262500Y-95000000D02*
X127262500Y-97000000D01*
X124462500Y-97000000D02*
X124462500Y-95000000D01*
%TO.C,J407*%
X111040000Y-94940000D02*
X111040000Y-105060000D01*
X111050000Y-96750000D02*
X111800000Y-96750000D01*
X111040000Y-105060000D02*
X117010000Y-105060000D01*
X111800000Y-98250000D02*
X111050000Y-98250000D01*
X111050000Y-98250000D02*
X111050000Y-101750000D01*
X111800000Y-105050000D02*
X111800000Y-103250000D01*
X111800000Y-96750000D02*
X111800000Y-94950000D01*
X111050000Y-94950000D02*
X111050000Y-96750000D01*
X117010000Y-105060000D02*
X117010000Y-94940000D01*
X117010000Y-94940000D02*
X111040000Y-94940000D01*
X116250000Y-104300000D02*
X116250000Y-100000000D01*
X113300000Y-95700000D02*
X116250000Y-95700000D01*
X113300000Y-94950000D02*
X113300000Y-95700000D01*
X110750000Y-104100000D02*
X110750000Y-105350000D01*
X116250000Y-95700000D02*
X116250000Y-100000000D01*
X111050000Y-101750000D02*
X111800000Y-101750000D01*
X111050000Y-103250000D02*
X111050000Y-105050000D01*
X111800000Y-103250000D02*
X111050000Y-103250000D01*
X111050000Y-105050000D02*
X111800000Y-105050000D01*
X110750000Y-105350000D02*
X112000000Y-105350000D01*
X111800000Y-94950000D02*
X111050000Y-94950000D01*
X113300000Y-105050000D02*
X113300000Y-104300000D01*
X111800000Y-101750000D02*
X111800000Y-98250000D01*
X113300000Y-104300000D02*
X116250000Y-104300000D01*
%TO.C,J410*%
X192560000Y-119460000D02*
X192560000Y-113490000D01*
X190750000Y-118700000D02*
X190750000Y-119450000D01*
X181750000Y-118700000D02*
X179950000Y-118700000D01*
X180700000Y-114250000D02*
X186250000Y-114250000D01*
X191600000Y-119750000D02*
X192850000Y-119750000D01*
X191800000Y-117200000D02*
X191800000Y-114250000D01*
X181750000Y-119450000D02*
X181750000Y-118700000D01*
X192550000Y-119450000D02*
X192550000Y-118700000D01*
X192560000Y-113490000D02*
X179940000Y-113490000D01*
X191800000Y-114250000D02*
X186250000Y-114250000D01*
X183250000Y-119450000D02*
X189250000Y-119450000D01*
X180700000Y-117200000D02*
X180700000Y-114250000D01*
X189250000Y-119450000D02*
X189250000Y-118700000D01*
X183250000Y-118700000D02*
X183250000Y-119450000D01*
X190750000Y-119450000D02*
X192550000Y-119450000D01*
X189250000Y-118700000D02*
X183250000Y-118700000D01*
X179940000Y-113490000D02*
X179940000Y-119460000D01*
X179950000Y-119450000D02*
X181750000Y-119450000D01*
X179940000Y-119460000D02*
X192560000Y-119460000D01*
X192550000Y-117200000D02*
X191800000Y-117200000D01*
X179950000Y-117200000D02*
X180700000Y-117200000D01*
X192850000Y-119750000D02*
X192850000Y-118500000D01*
X192550000Y-118700000D02*
X190750000Y-118700000D01*
X179950000Y-118700000D02*
X179950000Y-119450000D01*
%TO.C,C406*%
X180353733Y-104760000D02*
X180646267Y-104760000D01*
X180353733Y-103740000D02*
X180646267Y-103740000D01*
%TO.C,JP303*%
X216125000Y-92966000D02*
X213325000Y-92966000D01*
X216125000Y-90966000D02*
X216125000Y-92966000D01*
X213325000Y-92966000D02*
X213325000Y-90966000D01*
X213325000Y-90966000D02*
X216125000Y-90966000D01*
%TO.C,J402*%
X230137500Y-102800000D02*
X230137500Y-103550000D01*
X228637500Y-102800000D02*
X226837500Y-102800000D01*
X226537500Y-102500000D02*
X226537500Y-103750000D01*
X232637500Y-103550000D02*
X234437500Y-103550000D01*
X226827500Y-102790000D02*
X226827500Y-108760000D01*
X234437500Y-102800000D02*
X232637500Y-102800000D01*
X230137500Y-103550000D02*
X231137500Y-103550000D01*
X234437500Y-103550000D02*
X234437500Y-102800000D01*
X233687500Y-105050000D02*
X233687500Y-108000000D01*
X234447500Y-108760000D02*
X234447500Y-102790000D01*
X234447500Y-102790000D02*
X226827500Y-102790000D01*
X228637500Y-103550000D02*
X228637500Y-102800000D01*
X227587500Y-108000000D02*
X230637500Y-108000000D01*
X231137500Y-103550000D02*
X231137500Y-102800000D01*
X226837500Y-103550000D02*
X228637500Y-103550000D01*
X226837500Y-102800000D02*
X226837500Y-103550000D01*
X227787500Y-102500000D02*
X226537500Y-102500000D01*
X226837500Y-105050000D02*
X227587500Y-105050000D01*
X226827500Y-108760000D02*
X234447500Y-108760000D01*
X231137500Y-102800000D02*
X230137500Y-102800000D01*
X227587500Y-105050000D02*
X227587500Y-108000000D01*
X234437500Y-105050000D02*
X233687500Y-105050000D01*
X233687500Y-108000000D02*
X230637500Y-108000000D01*
X232637500Y-102800000D02*
X232637500Y-103550000D01*
%TO.C,C409*%
X119760000Y-98646267D02*
X119760000Y-98353733D01*
X118740000Y-98646267D02*
X118740000Y-98353733D01*
%TO.C,C201*%
X202510000Y-87446267D02*
X202510000Y-87153733D01*
X201490000Y-87446267D02*
X201490000Y-87153733D01*
%TO.C,JP201*%
X190376000Y-91583000D02*
X190376000Y-93583000D01*
X190376000Y-93583000D02*
X187576000Y-93583000D01*
X187576000Y-91583000D02*
X190376000Y-91583000D01*
X187576000Y-93583000D02*
X187576000Y-91583000D01*
%TO.C,J403*%
X129000000Y-103525000D02*
X130800000Y-103525000D01*
X130800000Y-103525000D02*
X130800000Y-102775000D01*
X124150000Y-102475000D02*
X122900000Y-102475000D01*
X123200000Y-105025000D02*
X123950000Y-105025000D01*
X130050000Y-105025000D02*
X130050000Y-107975000D01*
X130810000Y-102765000D02*
X123190000Y-102765000D01*
X125000000Y-102775000D02*
X123200000Y-102775000D01*
X130800000Y-102775000D02*
X129000000Y-102775000D01*
X127500000Y-103525000D02*
X127500000Y-102775000D01*
X126500000Y-102775000D02*
X126500000Y-103525000D01*
X126500000Y-103525000D02*
X127500000Y-103525000D01*
X130050000Y-107975000D02*
X127000000Y-107975000D01*
X127500000Y-102775000D02*
X126500000Y-102775000D01*
X123200000Y-102775000D02*
X123200000Y-103525000D01*
X123200000Y-103525000D02*
X125000000Y-103525000D01*
X123950000Y-107975000D02*
X127000000Y-107975000D01*
X129000000Y-102775000D02*
X129000000Y-103525000D01*
X130810000Y-108735000D02*
X130810000Y-102765000D01*
X123190000Y-108735000D02*
X130810000Y-108735000D01*
X130800000Y-105025000D02*
X130050000Y-105025000D01*
X123950000Y-105025000D02*
X123950000Y-107975000D01*
X122900000Y-102475000D02*
X122900000Y-103725000D01*
X125000000Y-103525000D02*
X125000000Y-102775000D01*
X123190000Y-102765000D02*
X123190000Y-108735000D01*
%TO.C,J201*%
X170500000Y-81214000D02*
X170500000Y-80464000D01*
X166950000Y-85664000D02*
X170000000Y-85664000D01*
X173800000Y-82714000D02*
X173050000Y-82714000D01*
X166950000Y-82714000D02*
X166950000Y-85664000D01*
X168000000Y-80464000D02*
X166200000Y-80464000D01*
X169500000Y-80464000D02*
X169500000Y-81214000D01*
X172000000Y-81214000D02*
X173800000Y-81214000D01*
X166200000Y-82714000D02*
X166950000Y-82714000D01*
X168000000Y-81214000D02*
X168000000Y-80464000D01*
X173800000Y-80464000D02*
X172000000Y-80464000D01*
X167150000Y-80164000D02*
X165900000Y-80164000D01*
X173810000Y-86424000D02*
X173810000Y-80454000D01*
X166200000Y-81214000D02*
X168000000Y-81214000D01*
X166190000Y-86424000D02*
X173810000Y-86424000D01*
X173810000Y-80454000D02*
X166190000Y-80454000D01*
X173050000Y-82714000D02*
X173050000Y-85664000D01*
X166200000Y-80464000D02*
X166200000Y-81214000D01*
X166190000Y-80454000D02*
X166190000Y-86424000D01*
X169500000Y-81214000D02*
X170500000Y-81214000D01*
X170500000Y-80464000D02*
X169500000Y-80464000D01*
X173800000Y-81214000D02*
X173800000Y-80464000D01*
X173050000Y-85664000D02*
X170000000Y-85664000D01*
X165900000Y-80164000D02*
X165900000Y-81414000D01*
X172000000Y-80464000D02*
X172000000Y-81214000D01*
%TO.C,J409*%
X163620000Y-90645000D02*
X164950000Y-90645000D01*
X166220000Y-93305000D02*
X176440000Y-93305000D01*
X166220000Y-90645000D02*
X176440000Y-90645000D01*
X166220000Y-93305000D02*
X166220000Y-90645000D01*
X176440000Y-93305000D02*
X176440000Y-90645000D01*
X163620000Y-91975000D02*
X163620000Y-90645000D01*
%TO.C,U302*%
X221251000Y-92621000D02*
X223201000Y-92621000D01*
X221251000Y-92621000D02*
X219301000Y-92621000D01*
X221251000Y-87501000D02*
X223201000Y-87501000D01*
X221251000Y-87501000D02*
X217801000Y-87501000D01*
%TO.C,J411*%
X100525000Y-94950000D02*
X100525000Y-96750000D01*
X100525000Y-105050000D02*
X101275000Y-105050000D01*
X105725000Y-104300000D02*
X105725000Y-100000000D01*
X102775000Y-94950000D02*
X102775000Y-95700000D01*
X106485000Y-105060000D02*
X106485000Y-94940000D01*
X102775000Y-105050000D02*
X102775000Y-104300000D01*
X105725000Y-95700000D02*
X105725000Y-100000000D01*
X101275000Y-105050000D02*
X101275000Y-103250000D01*
X100525000Y-103250000D02*
X100525000Y-105050000D01*
X101275000Y-96750000D02*
X101275000Y-94950000D01*
X102775000Y-104300000D02*
X105725000Y-104300000D01*
X101275000Y-98250000D02*
X100525000Y-98250000D01*
X101275000Y-94950000D02*
X100525000Y-94950000D01*
X102775000Y-95700000D02*
X105725000Y-95700000D01*
X100525000Y-96750000D02*
X101275000Y-96750000D01*
X100225000Y-105350000D02*
X101475000Y-105350000D01*
X106485000Y-94940000D02*
X100515000Y-94940000D01*
X100525000Y-98250000D02*
X100525000Y-101750000D01*
X100515000Y-94940000D02*
X100515000Y-105060000D01*
X100515000Y-105060000D02*
X106485000Y-105060000D01*
X100225000Y-104100000D02*
X100225000Y-105350000D01*
X101275000Y-103250000D02*
X100525000Y-103250000D01*
X101275000Y-101750000D02*
X101275000Y-98250000D01*
X100525000Y-101750000D02*
X101275000Y-101750000D01*
%TO.C,D203*%
X214985000Y-99660000D02*
X214985000Y-97200000D01*
X213515000Y-99660000D02*
X214985000Y-99660000D01*
X213515000Y-97200000D02*
X213515000Y-99660000D01*
%TO.C,R403*%
X133495276Y-89977500D02*
X134004724Y-89977500D01*
X133495276Y-91022500D02*
X134004724Y-91022500D01*
%TO.C,R410*%
X198245276Y-101727500D02*
X198754724Y-101727500D01*
X198245276Y-102772500D02*
X198754724Y-102772500D01*
%TO.C,R406*%
X226160000Y-107779724D02*
X226160000Y-107270276D01*
X225115000Y-107779724D02*
X225115000Y-107270276D01*
%TO.C,R413*%
X143254724Y-107772500D02*
X142745276Y-107772500D01*
X143254724Y-106727500D02*
X142745276Y-106727500D01*
%TO.C,R409*%
X152495276Y-88272500D02*
X153004724Y-88272500D01*
X152495276Y-87227500D02*
X153004724Y-87227500D01*
%TO.C,U401*%
X164890000Y-109110000D02*
X164890000Y-108160000D01*
X174160000Y-98890000D02*
X175110000Y-98890000D01*
X175110000Y-108160000D02*
X176450000Y-108160000D01*
X175110000Y-98890000D02*
X175110000Y-99840000D01*
X165840000Y-109110000D02*
X164890000Y-109110000D01*
X174160000Y-109110000D02*
X175110000Y-109110000D01*
X165840000Y-98890000D02*
X164890000Y-98890000D01*
X175110000Y-109110000D02*
X175110000Y-108160000D01*
X164890000Y-98890000D02*
X164890000Y-99840000D01*
%TO.C,D201*%
X197340000Y-90735000D02*
X199800000Y-90735000D01*
X199800000Y-89265000D02*
X197340000Y-89265000D01*
X197340000Y-89265000D02*
X197340000Y-90735000D01*
%TO.C,D403*%
X208265000Y-99660000D02*
X209735000Y-99660000D01*
X209735000Y-99660000D02*
X209735000Y-97200000D01*
X208265000Y-97200000D02*
X208265000Y-99660000D01*
%TO.C,R407*%
X131477500Y-107754724D02*
X131477500Y-107245276D01*
X132522500Y-107754724D02*
X132522500Y-107245276D01*
%TO.C,JP304*%
X226350000Y-90966000D02*
X229150000Y-90966000D01*
X226350000Y-92966000D02*
X226350000Y-90966000D01*
X229150000Y-90966000D02*
X229150000Y-92966000D01*
X229150000Y-92966000D02*
X226350000Y-92966000D01*
%TO.C,R411*%
X203495276Y-102772500D02*
X204004724Y-102772500D01*
X203495276Y-101727500D02*
X204004724Y-101727500D01*
%TO.C,JP302*%
X127262500Y-92905000D02*
X124462500Y-92905000D01*
X124462500Y-90905000D02*
X127262500Y-90905000D01*
X127262500Y-90905000D02*
X127262500Y-92905000D01*
X124462500Y-92905000D02*
X124462500Y-90905000D01*
%TO.C,F201*%
X188397936Y-89090000D02*
X189602064Y-89090000D01*
X188397936Y-90910000D02*
X189602064Y-90910000D01*
%TO.C,U202*%
X204840000Y-86610000D02*
X206640000Y-86610000D01*
X206640000Y-83390000D02*
X204190000Y-83390000D01*
%TO.C,C203*%
X205603733Y-89510000D02*
X205896267Y-89510000D01*
X205603733Y-88490000D02*
X205896267Y-88490000D01*
%TO.C,R404*%
X139227500Y-86745276D02*
X139227500Y-87254724D01*
X140272500Y-86745276D02*
X140272500Y-87254724D01*
D12*
%TO.C,SW201*%
X189350000Y-88430000D02*
X176650000Y-88430000D01*
X176650000Y-81570000D02*
X189350000Y-81570000D01*
D13*
X187921000Y-80484000D02*
G75*
G03*
X187921000Y-80484000I-175000J0D01*
G01*
D11*
%TO.C,JP401*%
X140900000Y-101560000D02*
X140900000Y-103560000D01*
X138100000Y-101560000D02*
X140900000Y-101560000D01*
X138100000Y-103560000D02*
X138100000Y-101560000D01*
X140900000Y-103560000D02*
X138100000Y-103560000D01*
%TO.C,SW401*%
X144750000Y-88250000D02*
X146250000Y-88250000D01*
X146250000Y-81250000D02*
X144750000Y-81250000D01*
X148750000Y-87000000D02*
X148750000Y-82500000D01*
X142250000Y-82500000D02*
X142250000Y-87000000D01*
%TO.C,J401*%
X143735000Y-103190000D02*
X143735000Y-103255000D01*
X143735000Y-103255000D02*
X147265000Y-103255000D01*
X143735000Y-94245000D02*
X147265000Y-94245000D01*
X147265000Y-103190000D02*
X147265000Y-103255000D01*
X142410000Y-94310000D02*
X143735000Y-94310000D01*
X147265000Y-94245000D02*
X147265000Y-94310000D01*
X143735000Y-94245000D02*
X143735000Y-94310000D01*
%TO.C,C401*%
X180353733Y-100260000D02*
X180646267Y-100260000D01*
X180353733Y-99240000D02*
X180646267Y-99240000D01*
%TO.C,C411*%
X108240000Y-98646267D02*
X108240000Y-98353733D01*
X109260000Y-98646267D02*
X109260000Y-98353733D01*
%TO.C,C304*%
X227603733Y-88916000D02*
X227896267Y-88916000D01*
X227603733Y-89936000D02*
X227896267Y-89936000D01*
%TO.C,JP403*%
X132350000Y-93000000D02*
X135150000Y-93000000D01*
X132350000Y-95000000D02*
X132350000Y-93000000D01*
X135150000Y-95000000D02*
X132350000Y-95000000D01*
X135150000Y-93000000D02*
X135150000Y-95000000D01*
%TO.C,J412*%
X174750000Y-119475000D02*
X176550000Y-119475000D01*
X176560000Y-119485000D02*
X176560000Y-113515000D01*
X176560000Y-113515000D02*
X156440000Y-113515000D01*
X156440000Y-119485000D02*
X176560000Y-119485000D01*
X176850000Y-119775000D02*
X176850000Y-118525000D01*
X157200000Y-114275000D02*
X166500000Y-114275000D01*
X159750000Y-119475000D02*
X173250000Y-119475000D01*
X159750000Y-118725000D02*
X159750000Y-119475000D01*
X158250000Y-118725000D02*
X156450000Y-118725000D01*
X156440000Y-113515000D02*
X156440000Y-119485000D01*
X156450000Y-118725000D02*
X156450000Y-119475000D01*
X174750000Y-118725000D02*
X174750000Y-119475000D01*
X156450000Y-119475000D02*
X158250000Y-119475000D01*
X157200000Y-117225000D02*
X157200000Y-114275000D01*
X175800000Y-117225000D02*
X175800000Y-114275000D01*
X173250000Y-118725000D02*
X159750000Y-118725000D01*
X175800000Y-114275000D02*
X166500000Y-114275000D01*
X175600000Y-119775000D02*
X176850000Y-119775000D01*
X176550000Y-119475000D02*
X176550000Y-118725000D01*
X176550000Y-117225000D02*
X175800000Y-117225000D01*
X173250000Y-119475000D02*
X173250000Y-118725000D01*
X156450000Y-117225000D02*
X157200000Y-117225000D01*
X158250000Y-119475000D02*
X158250000Y-118725000D01*
X176550000Y-118725000D02*
X174750000Y-118725000D01*
%TO.C,C407*%
X180353733Y-108010000D02*
X180646267Y-108010000D01*
X180353733Y-106990000D02*
X180646267Y-106990000D01*
%TO.C,J404*%
X152300000Y-117225000D02*
X152300000Y-114275000D01*
X153050000Y-118725000D02*
X151250000Y-118725000D01*
X132940000Y-113515000D02*
X132940000Y-119485000D01*
X151250000Y-119475000D02*
X153050000Y-119475000D01*
X149750000Y-119475000D02*
X149750000Y-118725000D01*
X152300000Y-114275000D02*
X143000000Y-114275000D01*
X153060000Y-119485000D02*
X153060000Y-113515000D01*
X132950000Y-117225000D02*
X133700000Y-117225000D01*
X132940000Y-119485000D02*
X153060000Y-119485000D01*
X136250000Y-118725000D02*
X136250000Y-119475000D01*
X153050000Y-119475000D02*
X153050000Y-118725000D01*
X132950000Y-118725000D02*
X132950000Y-119475000D01*
X153050000Y-117225000D02*
X152300000Y-117225000D01*
X152100000Y-119775000D02*
X153350000Y-119775000D01*
X149750000Y-118725000D02*
X136250000Y-118725000D01*
X133700000Y-117225000D02*
X133700000Y-114275000D01*
X153060000Y-113515000D02*
X132940000Y-113515000D01*
X133700000Y-114275000D02*
X143000000Y-114275000D01*
X151250000Y-118725000D02*
X151250000Y-119475000D01*
X153350000Y-119775000D02*
X153350000Y-118525000D01*
X132950000Y-119475000D02*
X134750000Y-119475000D01*
X134750000Y-119475000D02*
X134750000Y-118725000D01*
X136250000Y-119475000D02*
X149750000Y-119475000D01*
X134750000Y-118725000D02*
X132950000Y-118725000D01*
%TO.C,J202*%
X209695000Y-117110000D02*
X212355000Y-117110000D01*
X209695000Y-109430000D02*
X209695000Y-117110000D01*
X212355000Y-109430000D02*
X212355000Y-117110000D01*
X209695000Y-109430000D02*
X212355000Y-109430000D01*
X212355000Y-106830000D02*
X212355000Y-108160000D01*
X211025000Y-106830000D02*
X212355000Y-106830000D01*
%TO.C,C408*%
X180353733Y-106260000D02*
X180646267Y-106260000D01*
X180353733Y-105240000D02*
X180646267Y-105240000D01*
%TO.C,D401*%
X197765000Y-97200000D02*
X197765000Y-99660000D01*
X197765000Y-99660000D02*
X199235000Y-99660000D01*
X199235000Y-99660000D02*
X199235000Y-97200000D01*
%TO.C,R405*%
X236160000Y-107779724D02*
X236160000Y-107270276D01*
X235115000Y-107779724D02*
X235115000Y-107270276D01*
%TO.C,U201*%
X199100000Y-88410000D02*
X193090000Y-88410000D01*
X193090000Y-88410000D02*
X193090000Y-87150000D01*
X193090000Y-81590000D02*
X193090000Y-82850000D01*
X196850000Y-81590000D02*
X193090000Y-81590000D01*
%TO.C,JP402*%
X152900000Y-101560000D02*
X152900000Y-103560000D01*
X152900000Y-103560000D02*
X150100000Y-103560000D01*
X150100000Y-103560000D02*
X150100000Y-101560000D01*
X150100000Y-101560000D02*
X152900000Y-101560000D01*
%TO.C,JP310*%
X213350000Y-93500000D02*
X216150000Y-93500000D01*
X213350000Y-95500000D02*
X213350000Y-93500000D01*
X216150000Y-93500000D02*
X216150000Y-95500000D01*
X216150000Y-95500000D02*
X213350000Y-95500000D01*
%TO.C,R408*%
X122522500Y-107754724D02*
X122522500Y-107245276D01*
X121477500Y-107754724D02*
X121477500Y-107245276D01*
%TO.C,C403*%
X189260000Y-103646267D02*
X189260000Y-103353733D01*
X188240000Y-103646267D02*
X188240000Y-103353733D01*
%TO.C,R414*%
X147745276Y-107772500D02*
X148254724Y-107772500D01*
X147745276Y-106727500D02*
X148254724Y-106727500D01*
%TO.C,G\u002A\u002A\u002A*%
G36*
X230000613Y-95140457D02*
G01*
X230000548Y-95266160D01*
X230000339Y-95374627D01*
X229999967Y-95466939D01*
X229999411Y-95544180D01*
X229998650Y-95607431D01*
X229997665Y-95657775D01*
X229996436Y-95696294D01*
X229994942Y-95724071D01*
X229993163Y-95742188D01*
X229991079Y-95751728D01*
X229989163Y-95753911D01*
X229976599Y-95750587D01*
X229950744Y-95741793D01*
X229915320Y-95728850D01*
X229874050Y-95713080D01*
X229872376Y-95712427D01*
X229809215Y-95688398D01*
X229740286Y-95663251D01*
X229668810Y-95638065D01*
X229598005Y-95613918D01*
X229531094Y-95591888D01*
X229471295Y-95573051D01*
X229421829Y-95558486D01*
X229385915Y-95549271D01*
X229383056Y-95548657D01*
X229340029Y-95541531D01*
X229312206Y-95541512D01*
X229302886Y-95544448D01*
X229285148Y-95559023D01*
X229261318Y-95585496D01*
X229234493Y-95619912D01*
X229207770Y-95658322D01*
X229186164Y-95693391D01*
X229157993Y-95742627D01*
X229109866Y-95733955D01*
X229066401Y-95724977D01*
X229023805Y-95713486D01*
X228980697Y-95698670D01*
X228935696Y-95679715D01*
X228887418Y-95655808D01*
X228834483Y-95626136D01*
X228775508Y-95589884D01*
X228709113Y-95546240D01*
X228633914Y-95494391D01*
X228548530Y-95433523D01*
X228451580Y-95362823D01*
X228343786Y-95283043D01*
X228205203Y-95180867D01*
X228078894Y-95089889D01*
X227963319Y-95009277D01*
X227856941Y-94938194D01*
X227758219Y-94875807D01*
X227665614Y-94821280D01*
X227577589Y-94773780D01*
X227492604Y-94732471D01*
X227409119Y-94696519D01*
X227325597Y-94665089D01*
X227240498Y-94637347D01*
X227152283Y-94612458D01*
X227069491Y-94591932D01*
X227016131Y-94579437D01*
X226961473Y-94566645D01*
X226911830Y-94555034D01*
X226873513Y-94546080D01*
X226872556Y-94545857D01*
X226799278Y-94528749D01*
X227638513Y-94527808D01*
X228477748Y-94526866D01*
X228526662Y-94613556D01*
X228585131Y-94709966D01*
X228647846Y-94800242D01*
X228713217Y-94882719D01*
X228779653Y-94955729D01*
X228845565Y-95017606D01*
X228909361Y-95066683D01*
X228969452Y-95101293D01*
X229005150Y-95115057D01*
X229028218Y-95120967D01*
X229043022Y-95119197D01*
X229057225Y-95107238D01*
X229068467Y-95094340D01*
X229086363Y-95068796D01*
X229109586Y-95028711D01*
X229136894Y-94976643D01*
X229167043Y-94915153D01*
X229198788Y-94846797D01*
X229230885Y-94774136D01*
X229262090Y-94699729D01*
X229270870Y-94678002D01*
X229329561Y-94531446D01*
X229665087Y-94529043D01*
X230000613Y-94526641D01*
X230000613Y-95140457D01*
G37*
G36*
X229993404Y-98573351D02*
G01*
X229995369Y-98584795D01*
X229996956Y-98604903D01*
X229998201Y-98635000D01*
X229999141Y-98676414D01*
X229999815Y-98730469D01*
X230000259Y-98798491D01*
X230000511Y-98881807D01*
X230000608Y-98981742D01*
X230000613Y-99013108D01*
X230000613Y-99473134D01*
X229720700Y-99473134D01*
X229651438Y-99472919D01*
X229588681Y-99472310D01*
X229534601Y-99471361D01*
X229491375Y-99470127D01*
X229461175Y-99468661D01*
X229446177Y-99467018D01*
X229444947Y-99466264D01*
X229450339Y-99457356D01*
X229464346Y-99434213D01*
X229486099Y-99398273D01*
X229514726Y-99350973D01*
X229549358Y-99293752D01*
X229589125Y-99228048D01*
X229633156Y-99155297D01*
X229680581Y-99076939D01*
X229712436Y-99024306D01*
X229761875Y-98942664D01*
X229808732Y-98865369D01*
X229852102Y-98793908D01*
X229891079Y-98729771D01*
X229924759Y-98674443D01*
X229952236Y-98629414D01*
X229972604Y-98596170D01*
X229984959Y-98576200D01*
X229988189Y-98571150D01*
X229991023Y-98569244D01*
X229993404Y-98573351D01*
G37*
G36*
X225697857Y-94637806D02*
G01*
X225838090Y-94710586D01*
X225977716Y-94781899D01*
X226115419Y-94851126D01*
X226249883Y-94917650D01*
X226379792Y-94980853D01*
X226503832Y-95040119D01*
X226620685Y-95094828D01*
X226729037Y-95144365D01*
X226827571Y-95188111D01*
X226914972Y-95225448D01*
X226989924Y-95255760D01*
X227051111Y-95278428D01*
X227088234Y-95290349D01*
X227133413Y-95301763D01*
X227184382Y-95312048D01*
X227236821Y-95320615D01*
X227286414Y-95326873D01*
X227328843Y-95330233D01*
X227359789Y-95330105D01*
X227369014Y-95328704D01*
X227384745Y-95326437D01*
X227388706Y-95334093D01*
X227386374Y-95348576D01*
X227372793Y-95421055D01*
X227359437Y-95507386D01*
X227346194Y-95608480D01*
X227332951Y-95725252D01*
X227319596Y-95858612D01*
X227307489Y-95992427D01*
X227294185Y-96137781D01*
X227280825Y-96266858D01*
X227267153Y-96381699D01*
X227252909Y-96484346D01*
X227237837Y-96576840D01*
X227224821Y-96645824D01*
X227208760Y-96717317D01*
X227188360Y-96795457D01*
X227165161Y-96875176D01*
X227140703Y-96951406D01*
X227116523Y-97019080D01*
X227096862Y-97067165D01*
X227077124Y-97111431D01*
X227046196Y-97075299D01*
X227011663Y-97042885D01*
X226976374Y-97023976D01*
X226943676Y-97020260D01*
X226939036Y-97021157D01*
X226908795Y-97029815D01*
X226866374Y-97043726D01*
X226816537Y-97061169D01*
X226764043Y-97080424D01*
X226713654Y-97099769D01*
X226670132Y-97117481D01*
X226657313Y-97123016D01*
X226545131Y-97178566D01*
X226424710Y-97249880D01*
X226296559Y-97336625D01*
X226161189Y-97438467D01*
X226103370Y-97484794D01*
X226051382Y-97528863D01*
X225989711Y-97583954D01*
X225920980Y-97647516D01*
X225847813Y-97716998D01*
X225772832Y-97789850D01*
X225698660Y-97863524D01*
X225627921Y-97935467D01*
X225563237Y-98003131D01*
X225507232Y-98063964D01*
X225504410Y-98067111D01*
X225432392Y-98146764D01*
X225369892Y-98213872D01*
X225314966Y-98270183D01*
X225265673Y-98317443D01*
X225220069Y-98357400D01*
X225176213Y-98391801D01*
X225132160Y-98422394D01*
X225085968Y-98450925D01*
X225062991Y-98464106D01*
X225008546Y-98494711D01*
X225008546Y-94526866D01*
X225485845Y-94526866D01*
X225697857Y-94637806D01*
G37*
G36*
X229069642Y-96120288D02*
G01*
X229094069Y-96124703D01*
X229123203Y-96129894D01*
X229166799Y-96137166D01*
X229221196Y-96145930D01*
X229282732Y-96155602D01*
X229347746Y-96165594D01*
X229377749Y-96170127D01*
X229454237Y-96181327D01*
X229523362Y-96190710D01*
X229589296Y-96198712D01*
X229656209Y-96205768D01*
X229728272Y-96212313D01*
X229809656Y-96218782D01*
X229904532Y-96225609D01*
X229920465Y-96226710D01*
X230000613Y-96232225D01*
X230000613Y-97069520D01*
X230000598Y-97212477D01*
X230000542Y-97338212D01*
X230000421Y-97447826D01*
X230000216Y-97542418D01*
X229999906Y-97623087D01*
X229999468Y-97690931D01*
X229998883Y-97747050D01*
X229998129Y-97792543D01*
X229997184Y-97828508D01*
X229996029Y-97856045D01*
X229994642Y-97876254D01*
X229993002Y-97890232D01*
X229991087Y-97899079D01*
X229988877Y-97903894D01*
X229986351Y-97905776D01*
X229984583Y-97905950D01*
X229973820Y-97903351D01*
X229946589Y-97896000D01*
X229904027Y-97884219D01*
X229847269Y-97868332D01*
X229777450Y-97848658D01*
X229695707Y-97825522D01*
X229603174Y-97799245D01*
X229500987Y-97770149D01*
X229390283Y-97738557D01*
X229272196Y-97704789D01*
X229147862Y-97669170D01*
X229018417Y-97632020D01*
X228979300Y-97620781D01*
X228848829Y-97583267D01*
X228723330Y-97547149D01*
X228603920Y-97512749D01*
X228491716Y-97480391D01*
X228387836Y-97450398D01*
X228293396Y-97423094D01*
X228209514Y-97398801D01*
X228137307Y-97377844D01*
X228077893Y-97360546D01*
X228032388Y-97347230D01*
X228001910Y-97338219D01*
X227987575Y-97333837D01*
X227986584Y-97333468D01*
X227986399Y-97330816D01*
X227989712Y-97324785D01*
X227997579Y-97314145D01*
X228011058Y-97297665D01*
X228031208Y-97274114D01*
X228059085Y-97242262D01*
X228095748Y-97200878D01*
X228142254Y-97148731D01*
X228199661Y-97084590D01*
X228219299Y-97062679D01*
X228355802Y-96909200D01*
X228482748Y-96763849D01*
X228603922Y-96622202D01*
X228723111Y-96479833D01*
X228841176Y-96335918D01*
X228883960Y-96283331D01*
X228923305Y-96235057D01*
X228957636Y-96193021D01*
X228985377Y-96159150D01*
X229004952Y-96135370D01*
X229014788Y-96123605D01*
X229015315Y-96123009D01*
X229024605Y-96117649D01*
X229041410Y-96116714D01*
X229069642Y-96120288D01*
G37*
G36*
X227315381Y-97919811D02*
G01*
X227316173Y-97920578D01*
X227322845Y-97929584D01*
X227323542Y-97940824D01*
X227317311Y-97958650D01*
X227303195Y-97987415D01*
X227300255Y-97993103D01*
X227280519Y-98025444D01*
X227252275Y-98064541D01*
X227220076Y-98104302D01*
X227201757Y-98124866D01*
X227133457Y-98198384D01*
X227190782Y-98217005D01*
X227311190Y-98252643D01*
X227444569Y-98285989D01*
X227585611Y-98315987D01*
X227729009Y-98341584D01*
X227869454Y-98361722D01*
X227976307Y-98373210D01*
X228085610Y-98381495D01*
X228210583Y-98388353D01*
X228348626Y-98393717D01*
X228497138Y-98397519D01*
X228653521Y-98399691D01*
X228815174Y-98400166D01*
X228967228Y-98399034D01*
X229063293Y-98397899D01*
X229142617Y-98397141D01*
X229206776Y-98396795D01*
X229257348Y-98396894D01*
X229295906Y-98397473D01*
X229324029Y-98398567D01*
X229343290Y-98400210D01*
X229355267Y-98402438D01*
X229361536Y-98405283D01*
X229363388Y-98407704D01*
X229368160Y-98428279D01*
X229360793Y-98437126D01*
X229352560Y-98438036D01*
X229323107Y-98443195D01*
X229286001Y-98456825D01*
X229247897Y-98475963D01*
X229215454Y-98497644D01*
X229211642Y-98500799D01*
X229191359Y-98521333D01*
X229170905Y-98549059D01*
X229149302Y-98585864D01*
X229125576Y-98633638D01*
X229098750Y-98694267D01*
X229067848Y-98769639D01*
X229052402Y-98808743D01*
X229036528Y-98850910D01*
X229016249Y-98907252D01*
X228992678Y-98974472D01*
X228966926Y-99049278D01*
X228940104Y-99128373D01*
X228913324Y-99208463D01*
X228887696Y-99286253D01*
X228864333Y-99358447D01*
X228844346Y-99421751D01*
X228832159Y-99461684D01*
X228828484Y-99463051D01*
X228817892Y-99464312D01*
X228799758Y-99465470D01*
X228773456Y-99466530D01*
X228738360Y-99467495D01*
X228693847Y-99468369D01*
X228639289Y-99469155D01*
X228574062Y-99469858D01*
X228497540Y-99470480D01*
X228409099Y-99471027D01*
X228308112Y-99471501D01*
X228193955Y-99471906D01*
X228066001Y-99472246D01*
X227923627Y-99472525D01*
X227766206Y-99472747D01*
X227593113Y-99472915D01*
X227403722Y-99473032D01*
X227197409Y-99473104D01*
X226973548Y-99473133D01*
X226918643Y-99473134D01*
X225008546Y-99473134D01*
X225008546Y-99294416D01*
X225134493Y-99240342D01*
X225312503Y-99161390D01*
X225493713Y-99076226D01*
X225674928Y-98986530D01*
X225852955Y-98893985D01*
X226024601Y-98800274D01*
X226186671Y-98707077D01*
X226335972Y-98616078D01*
X226409989Y-98568557D01*
X226542947Y-98479393D01*
X226682295Y-98382189D01*
X226823363Y-98280362D01*
X226961480Y-98177330D01*
X227091976Y-98076512D01*
X227192496Y-97995864D01*
X227234420Y-97961816D01*
X227264679Y-97938197D01*
X227285589Y-97923596D01*
X227299466Y-97916605D01*
X227308624Y-97915813D01*
X227315381Y-97919811D01*
G37*
%TO.C,JP301*%
X114012500Y-90905000D02*
X114012500Y-92905000D01*
X111212500Y-90905000D02*
X114012500Y-90905000D01*
X114012500Y-92905000D02*
X111212500Y-92905000D01*
X111212500Y-92905000D02*
X111212500Y-90905000D01*
%TO.C,C402*%
X188240000Y-100146267D02*
X188240000Y-99853733D01*
X189260000Y-100146267D02*
X189260000Y-99853733D01*
%TO.C,J203*%
X215525000Y-106830000D02*
X216855000Y-106830000D01*
X216855000Y-106830000D02*
X216855000Y-108160000D01*
X214195000Y-109430000D02*
X216855000Y-109430000D01*
X214195000Y-117110000D02*
X216855000Y-117110000D01*
X214195000Y-109430000D02*
X214195000Y-117110000D01*
X216855000Y-109430000D02*
X216855000Y-117110000D01*
%TO.C,D202*%
X219265000Y-97200000D02*
X219265000Y-99660000D01*
X219265000Y-99660000D02*
X220735000Y-99660000D01*
X220735000Y-99660000D02*
X220735000Y-97200000D01*
%TD*%
%LPC*%
D10*
X200835714Y-108662380D02*
X200835714Y-107662380D01*
X201216666Y-107662380D01*
X201311904Y-107710000D01*
X201359523Y-107757619D01*
X201407142Y-107852857D01*
X201407142Y-107995714D01*
X201359523Y-108090952D01*
X201311904Y-108138571D01*
X201216666Y-108186190D01*
X200835714Y-108186190D01*
X202407142Y-108567142D02*
X202359523Y-108614761D01*
X202216666Y-108662380D01*
X202121428Y-108662380D01*
X201978571Y-108614761D01*
X201883333Y-108519523D01*
X201835714Y-108424285D01*
X201788095Y-108233809D01*
X201788095Y-108090952D01*
X201835714Y-107900476D01*
X201883333Y-107805238D01*
X201978571Y-107710000D01*
X202121428Y-107662380D01*
X202216666Y-107662380D01*
X202359523Y-107710000D01*
X202407142Y-107757619D01*
X203359523Y-108662380D02*
X202788095Y-108662380D01*
X203073809Y-108662380D02*
X203073809Y-107662380D01*
X202978571Y-107805238D01*
X202883333Y-107900476D01*
X202788095Y-107948095D01*
X204216666Y-107995714D02*
X204216666Y-108662380D01*
X203978571Y-107614761D02*
X203740476Y-108329047D01*
X204359523Y-108329047D01*
X127285714Y-112452380D02*
X126714285Y-112452380D01*
X127000000Y-112452380D02*
X127000000Y-111452380D01*
X126904761Y-111595238D01*
X126809523Y-111690476D01*
X126714285Y-111738095D01*
X200835714Y-116412380D02*
X200835714Y-115412380D01*
X201216666Y-115412380D01*
X201311904Y-115460000D01*
X201359523Y-115507619D01*
X201407142Y-115602857D01*
X201407142Y-115745714D01*
X201359523Y-115840952D01*
X201311904Y-115888571D01*
X201216666Y-115936190D01*
X200835714Y-115936190D01*
X202407142Y-116317142D02*
X202359523Y-116364761D01*
X202216666Y-116412380D01*
X202121428Y-116412380D01*
X201978571Y-116364761D01*
X201883333Y-116269523D01*
X201835714Y-116174285D01*
X201788095Y-115983809D01*
X201788095Y-115840952D01*
X201835714Y-115650476D01*
X201883333Y-115555238D01*
X201978571Y-115460000D01*
X202121428Y-115412380D01*
X202216666Y-115412380D01*
X202359523Y-115460000D01*
X202407142Y-115507619D01*
X203359523Y-116412380D02*
X202788095Y-116412380D01*
X203073809Y-116412380D02*
X203073809Y-115412380D01*
X202978571Y-115555238D01*
X202883333Y-115650476D01*
X202788095Y-115698095D01*
X203978571Y-115412380D02*
X204073809Y-115412380D01*
X204169047Y-115460000D01*
X204216666Y-115507619D01*
X204264285Y-115602857D01*
X204311904Y-115793333D01*
X204311904Y-116031428D01*
X204264285Y-116221904D01*
X204216666Y-116317142D01*
X204169047Y-116364761D01*
X204073809Y-116412380D01*
X203978571Y-116412380D01*
X203883333Y-116364761D01*
X203835714Y-116317142D01*
X203788095Y-116221904D01*
X203740476Y-116031428D01*
X203740476Y-115793333D01*
X203788095Y-115602857D01*
X203835714Y-115507619D01*
X203883333Y-115460000D01*
X203978571Y-115412380D01*
X202452380Y-99119047D02*
X202452380Y-99595238D01*
X201452380Y-99595238D01*
X201928571Y-98785714D02*
X201928571Y-98452380D01*
X202452380Y-98309523D02*
X202452380Y-98785714D01*
X201452380Y-98785714D01*
X201452380Y-98309523D01*
X202452380Y-97880952D02*
X201452380Y-97880952D01*
X201452380Y-97642857D01*
X201500000Y-97500000D01*
X201595238Y-97404761D01*
X201690476Y-97357142D01*
X201880952Y-97309523D01*
X202023809Y-97309523D01*
X202214285Y-97357142D01*
X202309523Y-97404761D01*
X202404761Y-97500000D01*
X202452380Y-97642857D01*
X202452380Y-97880952D01*
X201547619Y-96928571D02*
X201500000Y-96880952D01*
X201452380Y-96785714D01*
X201452380Y-96547619D01*
X201500000Y-96452380D01*
X201547619Y-96404761D01*
X201642857Y-96357142D01*
X201738095Y-96357142D01*
X201880952Y-96404761D01*
X202452380Y-96976190D01*
X202452380Y-96357142D01*
X229185119Y-101952380D02*
X229185119Y-100952380D01*
X229613690Y-101047619D02*
X229661309Y-101000000D01*
X229756547Y-100952380D01*
X229994642Y-100952380D01*
X230089880Y-101000000D01*
X230137500Y-101047619D01*
X230185119Y-101142857D01*
X230185119Y-101238095D01*
X230137500Y-101380952D01*
X229566071Y-101952380D01*
X230185119Y-101952380D01*
X231185119Y-101857142D02*
X231137500Y-101904761D01*
X230994642Y-101952380D01*
X230899404Y-101952380D01*
X230756547Y-101904761D01*
X230661309Y-101809523D01*
X230613690Y-101714285D01*
X230566071Y-101523809D01*
X230566071Y-101380952D01*
X230613690Y-101190476D01*
X230661309Y-101095238D01*
X230756547Y-101000000D01*
X230899404Y-100952380D01*
X230994642Y-100952380D01*
X231137500Y-101000000D01*
X231185119Y-101047619D01*
X231566071Y-101047619D02*
X231613690Y-101000000D01*
X231708928Y-100952380D01*
X231947023Y-100952380D01*
X232042261Y-101000000D01*
X232089880Y-101047619D01*
X232137500Y-101142857D01*
X232137500Y-101238095D01*
X232089880Y-101380952D01*
X231518452Y-101952380D01*
X232137500Y-101952380D01*
X200835714Y-111162380D02*
X200835714Y-110162380D01*
X201216666Y-110162380D01*
X201311904Y-110210000D01*
X201359523Y-110257619D01*
X201407142Y-110352857D01*
X201407142Y-110495714D01*
X201359523Y-110590952D01*
X201311904Y-110638571D01*
X201216666Y-110686190D01*
X200835714Y-110686190D01*
X202407142Y-111067142D02*
X202359523Y-111114761D01*
X202216666Y-111162380D01*
X202121428Y-111162380D01*
X201978571Y-111114761D01*
X201883333Y-111019523D01*
X201835714Y-110924285D01*
X201788095Y-110733809D01*
X201788095Y-110590952D01*
X201835714Y-110400476D01*
X201883333Y-110305238D01*
X201978571Y-110210000D01*
X202121428Y-110162380D01*
X202216666Y-110162380D01*
X202359523Y-110210000D01*
X202407142Y-110257619D01*
X203359523Y-111162380D02*
X202788095Y-111162380D01*
X203073809Y-111162380D02*
X203073809Y-110162380D01*
X202978571Y-110305238D01*
X202883333Y-110400476D01*
X202788095Y-110448095D01*
X203740476Y-110257619D02*
X203788095Y-110210000D01*
X203883333Y-110162380D01*
X204121428Y-110162380D01*
X204216666Y-110210000D01*
X204264285Y-110257619D01*
X204311904Y-110352857D01*
X204311904Y-110448095D01*
X204264285Y-110590952D01*
X203692857Y-111162380D01*
X204311904Y-111162380D01*
X200835714Y-113662380D02*
X200835714Y-112662380D01*
X201216666Y-112662380D01*
X201311904Y-112710000D01*
X201359523Y-112757619D01*
X201407142Y-112852857D01*
X201407142Y-112995714D01*
X201359523Y-113090952D01*
X201311904Y-113138571D01*
X201216666Y-113186190D01*
X200835714Y-113186190D01*
X202407142Y-113567142D02*
X202359523Y-113614761D01*
X202216666Y-113662380D01*
X202121428Y-113662380D01*
X201978571Y-113614761D01*
X201883333Y-113519523D01*
X201835714Y-113424285D01*
X201788095Y-113233809D01*
X201788095Y-113090952D01*
X201835714Y-112900476D01*
X201883333Y-112805238D01*
X201978571Y-112710000D01*
X202121428Y-112662380D01*
X202216666Y-112662380D01*
X202359523Y-112710000D01*
X202407142Y-112757619D01*
X203359523Y-113662380D02*
X202788095Y-113662380D01*
X203073809Y-113662380D02*
X203073809Y-112662380D01*
X202978571Y-112805238D01*
X202883333Y-112900476D01*
X202788095Y-112948095D01*
X204311904Y-113662380D02*
X203740476Y-113662380D01*
X204026190Y-113662380D02*
X204026190Y-112662380D01*
X203930952Y-112805238D01*
X203835714Y-112900476D01*
X203740476Y-112948095D01*
X170452380Y-96416666D02*
X169452380Y-96416666D01*
X169452380Y-96035714D01*
X169500000Y-95940476D01*
X169547619Y-95892857D01*
X169642857Y-95845238D01*
X169785714Y-95845238D01*
X169880952Y-95892857D01*
X169928571Y-95940476D01*
X169976190Y-96035714D01*
X169976190Y-96416666D01*
X170166666Y-95464285D02*
X170166666Y-94988095D01*
X170452380Y-95559523D02*
X169452380Y-95226190D01*
X170452380Y-94892857D01*
X169452380Y-94654761D02*
X169452380Y-94035714D01*
X169833333Y-94369047D01*
X169833333Y-94226190D01*
X169880952Y-94130952D01*
X169928571Y-94083333D01*
X170023809Y-94035714D01*
X170261904Y-94035714D01*
X170357142Y-94083333D01*
X170404761Y-94130952D01*
X170452380Y-94226190D01*
X170452380Y-94511904D01*
X170404761Y-94607142D01*
X170357142Y-94654761D01*
X161523809Y-112357142D02*
X161476190Y-112404761D01*
X161333333Y-112452380D01*
X161238095Y-112452380D01*
X161095238Y-112404761D01*
X161000000Y-112309523D01*
X160952380Y-112214285D01*
X160904761Y-112023809D01*
X160904761Y-111880952D01*
X160952380Y-111690476D01*
X161000000Y-111595238D01*
X161095238Y-111500000D01*
X161238095Y-111452380D01*
X161333333Y-111452380D01*
X161476190Y-111500000D01*
X161523809Y-111547619D01*
X162142857Y-111452380D02*
X162333333Y-111452380D01*
X162428571Y-111500000D01*
X162523809Y-111595238D01*
X162571428Y-111785714D01*
X162571428Y-112119047D01*
X162523809Y-112309523D01*
X162428571Y-112404761D01*
X162333333Y-112452380D01*
X162142857Y-112452380D01*
X162047619Y-112404761D01*
X161952380Y-112309523D01*
X161904761Y-112119047D01*
X161904761Y-111785714D01*
X161952380Y-111595238D01*
X162047619Y-111500000D01*
X162142857Y-111452380D01*
X163476190Y-112452380D02*
X163000000Y-112452380D01*
X163000000Y-111452380D01*
X164000000Y-111452380D02*
X164190476Y-111452380D01*
X164285714Y-111500000D01*
X164380952Y-111595238D01*
X164428571Y-111785714D01*
X164428571Y-112119047D01*
X164380952Y-112309523D01*
X164285714Y-112404761D01*
X164190476Y-112452380D01*
X164000000Y-112452380D01*
X163904761Y-112404761D01*
X163809523Y-112309523D01*
X163761904Y-112119047D01*
X163761904Y-111785714D01*
X163809523Y-111595238D01*
X163904761Y-111500000D01*
X164000000Y-111452380D01*
X165428571Y-112452380D02*
X165095238Y-111976190D01*
X164857142Y-112452380D02*
X164857142Y-111452380D01*
X165238095Y-111452380D01*
X165333333Y-111500000D01*
X165380952Y-111547619D01*
X165428571Y-111642857D01*
X165428571Y-111785714D01*
X165380952Y-111880952D01*
X165333333Y-111928571D01*
X165238095Y-111976190D01*
X164857142Y-111976190D01*
X166571428Y-112404761D02*
X166714285Y-112452380D01*
X166952380Y-112452380D01*
X167047619Y-112404761D01*
X167095238Y-112357142D01*
X167142857Y-112261904D01*
X167142857Y-112166666D01*
X167095238Y-112071428D01*
X167047619Y-112023809D01*
X166952380Y-111976190D01*
X166761904Y-111928571D01*
X166666666Y-111880952D01*
X166619047Y-111833333D01*
X166571428Y-111738095D01*
X166571428Y-111642857D01*
X166619047Y-111547619D01*
X166666666Y-111500000D01*
X166761904Y-111452380D01*
X167000000Y-111452380D01*
X167142857Y-111500000D01*
X167571428Y-111928571D02*
X167904761Y-111928571D01*
X168047619Y-112452380D02*
X167571428Y-112452380D01*
X167571428Y-111452380D01*
X168047619Y-111452380D01*
X168476190Y-112452380D02*
X168476190Y-111452380D01*
X169047619Y-112452380D01*
X169047619Y-111452380D01*
X169476190Y-112404761D02*
X169619047Y-112452380D01*
X169857142Y-112452380D01*
X169952380Y-112404761D01*
X170000000Y-112357142D01*
X170047619Y-112261904D01*
X170047619Y-112166666D01*
X170000000Y-112071428D01*
X169952380Y-112023809D01*
X169857142Y-111976190D01*
X169666666Y-111928571D01*
X169571428Y-111880952D01*
X169523809Y-111833333D01*
X169476190Y-111738095D01*
X169476190Y-111642857D01*
X169523809Y-111547619D01*
X169571428Y-111500000D01*
X169666666Y-111452380D01*
X169904761Y-111452380D01*
X170047619Y-111500000D01*
X170666666Y-111452380D02*
X170857142Y-111452380D01*
X170952380Y-111500000D01*
X171047619Y-111595238D01*
X171095238Y-111785714D01*
X171095238Y-112119047D01*
X171047619Y-112309523D01*
X170952380Y-112404761D01*
X170857142Y-112452380D01*
X170666666Y-112452380D01*
X170571428Y-112404761D01*
X170476190Y-112309523D01*
X170428571Y-112119047D01*
X170428571Y-111785714D01*
X170476190Y-111595238D01*
X170571428Y-111500000D01*
X170666666Y-111452380D01*
X172095238Y-112452380D02*
X171761904Y-111976190D01*
X171523809Y-112452380D02*
X171523809Y-111452380D01*
X171904761Y-111452380D01*
X172000000Y-111500000D01*
X172047619Y-111547619D01*
X172095238Y-111642857D01*
X172095238Y-111785714D01*
X172047619Y-111880952D01*
X172000000Y-111928571D01*
X171904761Y-111976190D01*
X171523809Y-111976190D01*
X115714285Y-107797619D02*
X115761904Y-107750000D01*
X115857142Y-107702380D01*
X116095238Y-107702380D01*
X116190476Y-107750000D01*
X116238095Y-107797619D01*
X116285714Y-107892857D01*
X116285714Y-107988095D01*
X116238095Y-108130952D01*
X115666666Y-108702380D01*
X116285714Y-108702380D01*
X165166666Y-88071428D02*
X165928571Y-88071428D01*
X167500000Y-87928571D02*
X167642857Y-87976190D01*
X167690476Y-88023809D01*
X167738095Y-88119047D01*
X167738095Y-88261904D01*
X167690476Y-88357142D01*
X167642857Y-88404761D01*
X167547619Y-88452380D01*
X167166666Y-88452380D01*
X167166666Y-87452380D01*
X167500000Y-87452380D01*
X167595238Y-87500000D01*
X167642857Y-87547619D01*
X167690476Y-87642857D01*
X167690476Y-87738095D01*
X167642857Y-87833333D01*
X167595238Y-87880952D01*
X167500000Y-87928571D01*
X167166666Y-87928571D01*
X168119047Y-88166666D02*
X168595238Y-88166666D01*
X168023809Y-88452380D02*
X168357142Y-87452380D01*
X168690476Y-88452380D01*
X168880952Y-87452380D02*
X169452380Y-87452380D01*
X169166666Y-88452380D02*
X169166666Y-87452380D01*
X169642857Y-87452380D02*
X170214285Y-87452380D01*
X169928571Y-88452380D02*
X169928571Y-87452380D01*
X170547619Y-87928571D02*
X170880952Y-87928571D01*
X171023809Y-88452380D02*
X170547619Y-88452380D01*
X170547619Y-87452380D01*
X171023809Y-87452380D01*
X172023809Y-88452380D02*
X171690476Y-87976190D01*
X171452380Y-88452380D02*
X171452380Y-87452380D01*
X171833333Y-87452380D01*
X171928571Y-87500000D01*
X171976190Y-87547619D01*
X172023809Y-87642857D01*
X172023809Y-87785714D01*
X171976190Y-87880952D01*
X171928571Y-87928571D01*
X171833333Y-87976190D01*
X171452380Y-87976190D01*
X172642857Y-87976190D02*
X172642857Y-88452380D01*
X172309523Y-87452380D02*
X172642857Y-87976190D01*
X172976190Y-87452380D01*
X174071428Y-88071428D02*
X174833333Y-88071428D01*
X174452380Y-88452380D02*
X174452380Y-87690476D01*
X207702380Y-99119047D02*
X207702380Y-99595238D01*
X206702380Y-99595238D01*
X207178571Y-98785714D02*
X207178571Y-98452380D01*
X207702380Y-98309523D02*
X207702380Y-98785714D01*
X206702380Y-98785714D01*
X206702380Y-98309523D01*
X207702380Y-97880952D02*
X206702380Y-97880952D01*
X206702380Y-97642857D01*
X206750000Y-97500000D01*
X206845238Y-97404761D01*
X206940476Y-97357142D01*
X207130952Y-97309523D01*
X207273809Y-97309523D01*
X207464285Y-97357142D01*
X207559523Y-97404761D01*
X207654761Y-97500000D01*
X207702380Y-97642857D01*
X207702380Y-97880952D01*
X206702380Y-96976190D02*
X206702380Y-96357142D01*
X207083333Y-96690476D01*
X207083333Y-96547619D01*
X207130952Y-96452380D01*
X207178571Y-96404761D01*
X207273809Y-96357142D01*
X207511904Y-96357142D01*
X207607142Y-96404761D01*
X207654761Y-96452380D01*
X207702380Y-96547619D01*
X207702380Y-96833333D01*
X207654761Y-96928571D01*
X207607142Y-96976190D01*
X102035714Y-108702380D02*
X101464285Y-108702380D01*
X101750000Y-108702380D02*
X101750000Y-107702380D01*
X101654761Y-107845238D01*
X101559523Y-107940476D01*
X101464285Y-107988095D01*
X181273809Y-112357142D02*
X181226190Y-112404761D01*
X181083333Y-112452380D01*
X180988095Y-112452380D01*
X180845238Y-112404761D01*
X180750000Y-112309523D01*
X180702380Y-112214285D01*
X180654761Y-112023809D01*
X180654761Y-111880952D01*
X180702380Y-111690476D01*
X180750000Y-111595238D01*
X180845238Y-111500000D01*
X180988095Y-111452380D01*
X181083333Y-111452380D01*
X181226190Y-111500000D01*
X181273809Y-111547619D01*
X181892857Y-111452380D02*
X182083333Y-111452380D01*
X182178571Y-111500000D01*
X182273809Y-111595238D01*
X182321428Y-111785714D01*
X182321428Y-112119047D01*
X182273809Y-112309523D01*
X182178571Y-112404761D01*
X182083333Y-112452380D01*
X181892857Y-112452380D01*
X181797619Y-112404761D01*
X181702380Y-112309523D01*
X181654761Y-112119047D01*
X181654761Y-111785714D01*
X181702380Y-111595238D01*
X181797619Y-111500000D01*
X181892857Y-111452380D01*
X183226190Y-112452380D02*
X182750000Y-112452380D01*
X182750000Y-111452380D01*
X183750000Y-111452380D02*
X183940476Y-111452380D01*
X184035714Y-111500000D01*
X184130952Y-111595238D01*
X184178571Y-111785714D01*
X184178571Y-112119047D01*
X184130952Y-112309523D01*
X184035714Y-112404761D01*
X183940476Y-112452380D01*
X183750000Y-112452380D01*
X183654761Y-112404761D01*
X183559523Y-112309523D01*
X183511904Y-112119047D01*
X183511904Y-111785714D01*
X183559523Y-111595238D01*
X183654761Y-111500000D01*
X183750000Y-111452380D01*
X185178571Y-112452380D02*
X184845238Y-111976190D01*
X184607142Y-112452380D02*
X184607142Y-111452380D01*
X184988095Y-111452380D01*
X185083333Y-111500000D01*
X185130952Y-111547619D01*
X185178571Y-111642857D01*
X185178571Y-111785714D01*
X185130952Y-111880952D01*
X185083333Y-111928571D01*
X184988095Y-111976190D01*
X184607142Y-111976190D01*
X186321428Y-112404761D02*
X186464285Y-112452380D01*
X186702380Y-112452380D01*
X186797619Y-112404761D01*
X186845238Y-112357142D01*
X186892857Y-112261904D01*
X186892857Y-112166666D01*
X186845238Y-112071428D01*
X186797619Y-112023809D01*
X186702380Y-111976190D01*
X186511904Y-111928571D01*
X186416666Y-111880952D01*
X186369047Y-111833333D01*
X186321428Y-111738095D01*
X186321428Y-111642857D01*
X186369047Y-111547619D01*
X186416666Y-111500000D01*
X186511904Y-111452380D01*
X186750000Y-111452380D01*
X186892857Y-111500000D01*
X187321428Y-111928571D02*
X187654761Y-111928571D01*
X187797619Y-112452380D02*
X187321428Y-112452380D01*
X187321428Y-111452380D01*
X187797619Y-111452380D01*
X188226190Y-112452380D02*
X188226190Y-111452380D01*
X188797619Y-112452380D01*
X188797619Y-111452380D01*
X189226190Y-112404761D02*
X189369047Y-112452380D01*
X189607142Y-112452380D01*
X189702380Y-112404761D01*
X189750000Y-112357142D01*
X189797619Y-112261904D01*
X189797619Y-112166666D01*
X189750000Y-112071428D01*
X189702380Y-112023809D01*
X189607142Y-111976190D01*
X189416666Y-111928571D01*
X189321428Y-111880952D01*
X189273809Y-111833333D01*
X189226190Y-111738095D01*
X189226190Y-111642857D01*
X189273809Y-111547619D01*
X189321428Y-111500000D01*
X189416666Y-111452380D01*
X189654761Y-111452380D01*
X189797619Y-111500000D01*
X190416666Y-111452380D02*
X190607142Y-111452380D01*
X190702380Y-111500000D01*
X190797619Y-111595238D01*
X190845238Y-111785714D01*
X190845238Y-112119047D01*
X190797619Y-112309523D01*
X190702380Y-112404761D01*
X190607142Y-112452380D01*
X190416666Y-112452380D01*
X190321428Y-112404761D01*
X190226190Y-112309523D01*
X190178571Y-112119047D01*
X190178571Y-111785714D01*
X190226190Y-111595238D01*
X190321428Y-111500000D01*
X190416666Y-111452380D01*
X191845238Y-112452380D02*
X191511904Y-111976190D01*
X191273809Y-112452380D02*
X191273809Y-111452380D01*
X191654761Y-111452380D01*
X191750000Y-111500000D01*
X191797619Y-111547619D01*
X191845238Y-111642857D01*
X191845238Y-111785714D01*
X191797619Y-111880952D01*
X191750000Y-111928571D01*
X191654761Y-111976190D01*
X191273809Y-111976190D01*
X200835714Y-105912380D02*
X200835714Y-104912380D01*
X201216666Y-104912380D01*
X201311904Y-104960000D01*
X201359523Y-105007619D01*
X201407142Y-105102857D01*
X201407142Y-105245714D01*
X201359523Y-105340952D01*
X201311904Y-105388571D01*
X201216666Y-105436190D01*
X200835714Y-105436190D01*
X202407142Y-105817142D02*
X202359523Y-105864761D01*
X202216666Y-105912380D01*
X202121428Y-105912380D01*
X201978571Y-105864761D01*
X201883333Y-105769523D01*
X201835714Y-105674285D01*
X201788095Y-105483809D01*
X201788095Y-105340952D01*
X201835714Y-105150476D01*
X201883333Y-105055238D01*
X201978571Y-104960000D01*
X202121428Y-104912380D01*
X202216666Y-104912380D01*
X202359523Y-104960000D01*
X202407142Y-105007619D01*
X203359523Y-105912380D02*
X202788095Y-105912380D01*
X203073809Y-105912380D02*
X203073809Y-104912380D01*
X202978571Y-105055238D01*
X202883333Y-105150476D01*
X202788095Y-105198095D01*
X204264285Y-104912380D02*
X203788095Y-104912380D01*
X203740476Y-105388571D01*
X203788095Y-105340952D01*
X203883333Y-105293333D01*
X204121428Y-105293333D01*
X204216666Y-105340952D01*
X204264285Y-105388571D01*
X204311904Y-105483809D01*
X204311904Y-105721904D01*
X204264285Y-105817142D01*
X204216666Y-105864761D01*
X204121428Y-105912380D01*
X203883333Y-105912380D01*
X203788095Y-105864761D01*
X203740476Y-105817142D01*
X197202380Y-99119047D02*
X197202380Y-99595238D01*
X196202380Y-99595238D01*
X196678571Y-98785714D02*
X196678571Y-98452380D01*
X197202380Y-98309523D02*
X197202380Y-98785714D01*
X196202380Y-98785714D01*
X196202380Y-98309523D01*
X197202380Y-97880952D02*
X196202380Y-97880952D01*
X196202380Y-97642857D01*
X196250000Y-97500000D01*
X196345238Y-97404761D01*
X196440476Y-97357142D01*
X196630952Y-97309523D01*
X196773809Y-97309523D01*
X196964285Y-97357142D01*
X197059523Y-97404761D01*
X197154761Y-97500000D01*
X197202380Y-97642857D01*
X197202380Y-97880952D01*
X197202380Y-96357142D02*
X197202380Y-96928571D01*
X197202380Y-96642857D02*
X196202380Y-96642857D01*
X196345238Y-96738095D01*
X196440476Y-96833333D01*
X196488095Y-96928571D01*
X125547619Y-101952380D02*
X125547619Y-100952380D01*
X125976190Y-101047619D02*
X126023809Y-101000000D01*
X126119047Y-100952380D01*
X126357142Y-100952380D01*
X126452380Y-101000000D01*
X126500000Y-101047619D01*
X126547619Y-101142857D01*
X126547619Y-101238095D01*
X126500000Y-101380952D01*
X125928571Y-101952380D01*
X126547619Y-101952380D01*
X127547619Y-101857142D02*
X127500000Y-101904761D01*
X127357142Y-101952380D01*
X127261904Y-101952380D01*
X127119047Y-101904761D01*
X127023809Y-101809523D01*
X126976190Y-101714285D01*
X126928571Y-101523809D01*
X126928571Y-101380952D01*
X126976190Y-101190476D01*
X127023809Y-101095238D01*
X127119047Y-101000000D01*
X127261904Y-100952380D01*
X127357142Y-100952380D01*
X127500000Y-101000000D01*
X127547619Y-101047619D01*
X128500000Y-101952380D02*
X127928571Y-101952380D01*
X128214285Y-101952380D02*
X128214285Y-100952380D01*
X128119047Y-101095238D01*
X128023809Y-101190476D01*
X127928571Y-101238095D01*
X130083333Y-111452380D02*
X130654761Y-111452380D01*
X130369047Y-112452380D02*
X130369047Y-111452380D01*
X131130952Y-112452380D02*
X131035714Y-112404761D01*
X130988095Y-112357142D01*
X130940476Y-112261904D01*
X130940476Y-111976190D01*
X130988095Y-111880952D01*
X131035714Y-111833333D01*
X131130952Y-111785714D01*
X131273809Y-111785714D01*
X131369047Y-111833333D01*
X131416666Y-111880952D01*
X131464285Y-111976190D01*
X131464285Y-112261904D01*
X131416666Y-112357142D01*
X131369047Y-112404761D01*
X131273809Y-112452380D01*
X131130952Y-112452380D01*
X132226190Y-111928571D02*
X131892857Y-111928571D01*
X131892857Y-112452380D02*
X131892857Y-111452380D01*
X132369047Y-111452380D01*
X175452380Y-96416666D02*
X174452380Y-96416666D01*
X174452380Y-96035714D01*
X174500000Y-95940476D01*
X174547619Y-95892857D01*
X174642857Y-95845238D01*
X174785714Y-95845238D01*
X174880952Y-95892857D01*
X174928571Y-95940476D01*
X174976190Y-96035714D01*
X174976190Y-96416666D01*
X175166666Y-95464285D02*
X175166666Y-94988095D01*
X175452380Y-95559523D02*
X174452380Y-95226190D01*
X175452380Y-94892857D01*
X174452380Y-94369047D02*
X174452380Y-94273809D01*
X174500000Y-94178571D01*
X174547619Y-94130952D01*
X174642857Y-94083333D01*
X174833333Y-94035714D01*
X175071428Y-94035714D01*
X175261904Y-94083333D01*
X175357142Y-94130952D01*
X175404761Y-94178571D01*
X175452380Y-94273809D01*
X175452380Y-94369047D01*
X175404761Y-94464285D01*
X175357142Y-94511904D01*
X175261904Y-94559523D01*
X175071428Y-94607142D01*
X174833333Y-94607142D01*
X174642857Y-94559523D01*
X174547619Y-94511904D01*
X174500000Y-94464285D01*
X174452380Y-94369047D01*
X135214285Y-111547619D02*
X135261904Y-111500000D01*
X135357142Y-111452380D01*
X135595238Y-111452380D01*
X135690476Y-111500000D01*
X135738095Y-111547619D01*
X135785714Y-111642857D01*
X135785714Y-111738095D01*
X135738095Y-111880952D01*
X135166666Y-112452380D01*
X135785714Y-112452380D01*
X103178571Y-108702380D02*
X103178571Y-107702380D01*
X103559523Y-107702380D01*
X103654761Y-107750000D01*
X103702380Y-107797619D01*
X103750000Y-107892857D01*
X103750000Y-108035714D01*
X103702380Y-108130952D01*
X103654761Y-108178571D01*
X103559523Y-108226190D01*
X103178571Y-108226190D01*
X104750000Y-108702380D02*
X104416666Y-108226190D01*
X104178571Y-108702380D02*
X104178571Y-107702380D01*
X104559523Y-107702380D01*
X104654761Y-107750000D01*
X104702380Y-107797619D01*
X104750000Y-107892857D01*
X104750000Y-108035714D01*
X104702380Y-108130952D01*
X104654761Y-108178571D01*
X104559523Y-108226190D01*
X104178571Y-108226190D01*
X105369047Y-107702380D02*
X105559523Y-107702380D01*
X105654761Y-107750000D01*
X105750000Y-107845238D01*
X105797619Y-108035714D01*
X105797619Y-108369047D01*
X105750000Y-108559523D01*
X105654761Y-108654761D01*
X105559523Y-108702380D01*
X105369047Y-108702380D01*
X105273809Y-108654761D01*
X105178571Y-108559523D01*
X105130952Y-108369047D01*
X105130952Y-108035714D01*
X105178571Y-107845238D01*
X105273809Y-107750000D01*
X105369047Y-107702380D01*
X106130952Y-107702380D02*
X106797619Y-108702380D01*
X106797619Y-107702380D02*
X106130952Y-108702380D01*
X107892857Y-108654761D02*
X108035714Y-108702380D01*
X108273809Y-108702380D01*
X108369047Y-108654761D01*
X108416666Y-108607142D01*
X108464285Y-108511904D01*
X108464285Y-108416666D01*
X108416666Y-108321428D01*
X108369047Y-108273809D01*
X108273809Y-108226190D01*
X108083333Y-108178571D01*
X107988095Y-108130952D01*
X107940476Y-108083333D01*
X107892857Y-107988095D01*
X107892857Y-107892857D01*
X107940476Y-107797619D01*
X107988095Y-107750000D01*
X108083333Y-107702380D01*
X108321428Y-107702380D01*
X108464285Y-107750000D01*
X108892857Y-108178571D02*
X109226190Y-108178571D01*
X109369047Y-108702380D02*
X108892857Y-108702380D01*
X108892857Y-107702380D01*
X109369047Y-107702380D01*
X109797619Y-108702380D02*
X109797619Y-107702380D01*
X110369047Y-108702380D01*
X110369047Y-107702380D01*
X110797619Y-108654761D02*
X110940476Y-108702380D01*
X111178571Y-108702380D01*
X111273809Y-108654761D01*
X111321428Y-108607142D01*
X111369047Y-108511904D01*
X111369047Y-108416666D01*
X111321428Y-108321428D01*
X111273809Y-108273809D01*
X111178571Y-108226190D01*
X110988095Y-108178571D01*
X110892857Y-108130952D01*
X110845238Y-108083333D01*
X110797619Y-107988095D01*
X110797619Y-107892857D01*
X110845238Y-107797619D01*
X110892857Y-107750000D01*
X110988095Y-107702380D01*
X111226190Y-107702380D01*
X111369047Y-107750000D01*
X111988095Y-107702380D02*
X112178571Y-107702380D01*
X112273809Y-107750000D01*
X112369047Y-107845238D01*
X112416666Y-108035714D01*
X112416666Y-108369047D01*
X112369047Y-108559523D01*
X112273809Y-108654761D01*
X112178571Y-108702380D01*
X111988095Y-108702380D01*
X111892857Y-108654761D01*
X111797619Y-108559523D01*
X111750000Y-108369047D01*
X111750000Y-108035714D01*
X111797619Y-107845238D01*
X111892857Y-107750000D01*
X111988095Y-107702380D01*
X113416666Y-108702380D02*
X113083333Y-108226190D01*
X112845238Y-108702380D02*
X112845238Y-107702380D01*
X113226190Y-107702380D01*
X113321428Y-107750000D01*
X113369047Y-107797619D01*
X113416666Y-107892857D01*
X113416666Y-108035714D01*
X113369047Y-108130952D01*
X113321428Y-108178571D01*
X113226190Y-108226190D01*
X112845238Y-108226190D01*
X113797619Y-108654761D02*
X113940476Y-108702380D01*
X114178571Y-108702380D01*
X114273809Y-108654761D01*
X114321428Y-108607142D01*
X114369047Y-108511904D01*
X114369047Y-108416666D01*
X114321428Y-108321428D01*
X114273809Y-108273809D01*
X114178571Y-108226190D01*
X113988095Y-108178571D01*
X113892857Y-108130952D01*
X113845238Y-108083333D01*
X113797619Y-107988095D01*
X113797619Y-107892857D01*
X113845238Y-107797619D01*
X113892857Y-107750000D01*
X113988095Y-107702380D01*
X114226190Y-107702380D01*
X114369047Y-107750000D01*
X217702380Y-98190476D02*
X217702380Y-98666666D01*
X218178571Y-98714285D01*
X218130952Y-98666666D01*
X218083333Y-98571428D01*
X218083333Y-98333333D01*
X218130952Y-98238095D01*
X218178571Y-98190476D01*
X218273809Y-98142857D01*
X218511904Y-98142857D01*
X218607142Y-98190476D01*
X218654761Y-98238095D01*
X218702380Y-98333333D01*
X218702380Y-98571428D01*
X218654761Y-98666666D01*
X218607142Y-98714285D01*
X217702380Y-97857142D02*
X218702380Y-97523809D01*
X217702380Y-97190476D01*
X147357142Y-109647380D02*
X146880952Y-109647380D01*
X146880952Y-108647380D01*
X147690476Y-109123571D02*
X148023809Y-109123571D01*
X148166666Y-109647380D02*
X147690476Y-109647380D01*
X147690476Y-108647380D01*
X148166666Y-108647380D01*
X148595238Y-109647380D02*
X148595238Y-108647380D01*
X148833333Y-108647380D01*
X148976190Y-108695000D01*
X149071428Y-108790238D01*
X149119047Y-108885476D01*
X149166666Y-109075952D01*
X149166666Y-109218809D01*
X149119047Y-109409285D01*
X149071428Y-109504523D01*
X148976190Y-109599761D01*
X148833333Y-109647380D01*
X148595238Y-109647380D01*
X147238095Y-110257380D02*
X147809523Y-110257380D01*
X147523809Y-111257380D02*
X147523809Y-110257380D01*
X148047619Y-110257380D02*
X148714285Y-111257380D01*
X148714285Y-110257380D02*
X148047619Y-111257380D01*
X144047619Y-91452380D02*
X143714285Y-90976190D01*
X143476190Y-91452380D02*
X143476190Y-90452380D01*
X143857142Y-90452380D01*
X143952380Y-90500000D01*
X144000000Y-90547619D01*
X144047619Y-90642857D01*
X144047619Y-90785714D01*
X144000000Y-90880952D01*
X143952380Y-90928571D01*
X143857142Y-90976190D01*
X143476190Y-90976190D01*
X144476190Y-90928571D02*
X144809523Y-90928571D01*
X144952380Y-91452380D02*
X144476190Y-91452380D01*
X144476190Y-90452380D01*
X144952380Y-90452380D01*
X145333333Y-91404761D02*
X145476190Y-91452380D01*
X145714285Y-91452380D01*
X145809523Y-91404761D01*
X145857142Y-91357142D01*
X145904761Y-91261904D01*
X145904761Y-91166666D01*
X145857142Y-91071428D01*
X145809523Y-91023809D01*
X145714285Y-90976190D01*
X145523809Y-90928571D01*
X145428571Y-90880952D01*
X145380952Y-90833333D01*
X145333333Y-90738095D01*
X145333333Y-90642857D01*
X145380952Y-90547619D01*
X145428571Y-90500000D01*
X145523809Y-90452380D01*
X145761904Y-90452380D01*
X145904761Y-90500000D01*
X146333333Y-90928571D02*
X146666666Y-90928571D01*
X146809523Y-91452380D02*
X146333333Y-91452380D01*
X146333333Y-90452380D01*
X146809523Y-90452380D01*
X147095238Y-90452380D02*
X147666666Y-90452380D01*
X147380952Y-91452380D02*
X147380952Y-90452380D01*
X210288095Y-104960000D02*
X210192857Y-104912380D01*
X210050000Y-104912380D01*
X209907142Y-104960000D01*
X209811904Y-105055238D01*
X209764285Y-105150476D01*
X209716666Y-105340952D01*
X209716666Y-105483809D01*
X209764285Y-105674285D01*
X209811904Y-105769523D01*
X209907142Y-105864761D01*
X210050000Y-105912380D01*
X210145238Y-105912380D01*
X210288095Y-105864761D01*
X210335714Y-105817142D01*
X210335714Y-105483809D01*
X210145238Y-105483809D01*
X210764285Y-105912380D02*
X210764285Y-104912380D01*
X211335714Y-105912380D01*
X211335714Y-104912380D01*
X211811904Y-105912380D02*
X211811904Y-104912380D01*
X212050000Y-104912380D01*
X212192857Y-104960000D01*
X212288095Y-105055238D01*
X212335714Y-105150476D01*
X212383333Y-105340952D01*
X212383333Y-105483809D01*
X212335714Y-105674285D01*
X212288095Y-105769523D01*
X212192857Y-105864761D01*
X212050000Y-105912380D01*
X211811904Y-105912380D01*
X142357142Y-109647380D02*
X141880952Y-109647380D01*
X141880952Y-108647380D01*
X142690476Y-109123571D02*
X143023809Y-109123571D01*
X143166666Y-109647380D02*
X142690476Y-109647380D01*
X142690476Y-108647380D01*
X143166666Y-108647380D01*
X143595238Y-109647380D02*
X143595238Y-108647380D01*
X143833333Y-108647380D01*
X143976190Y-108695000D01*
X144071428Y-108790238D01*
X144119047Y-108885476D01*
X144166666Y-109075952D01*
X144166666Y-109218809D01*
X144119047Y-109409285D01*
X144071428Y-109504523D01*
X143976190Y-109599761D01*
X143833333Y-109647380D01*
X143595238Y-109647380D01*
X142833333Y-111257380D02*
X142500000Y-110781190D01*
X142261904Y-111257380D02*
X142261904Y-110257380D01*
X142642857Y-110257380D01*
X142738095Y-110305000D01*
X142785714Y-110352619D01*
X142833333Y-110447857D01*
X142833333Y-110590714D01*
X142785714Y-110685952D01*
X142738095Y-110733571D01*
X142642857Y-110781190D01*
X142261904Y-110781190D01*
X143166666Y-110257380D02*
X143833333Y-111257380D01*
X143833333Y-110257380D02*
X143166666Y-111257380D01*
X219859523Y-104912380D02*
X219383333Y-104912380D01*
X219335714Y-105388571D01*
X219383333Y-105340952D01*
X219478571Y-105293333D01*
X219716666Y-105293333D01*
X219811904Y-105340952D01*
X219859523Y-105388571D01*
X219907142Y-105483809D01*
X219907142Y-105721904D01*
X219859523Y-105817142D01*
X219811904Y-105864761D01*
X219716666Y-105912380D01*
X219478571Y-105912380D01*
X219383333Y-105864761D01*
X219335714Y-105817142D01*
X220192857Y-104912380D02*
X220526190Y-105912380D01*
X220859523Y-104912380D01*
X214311904Y-104912380D02*
X214930952Y-104912380D01*
X214597619Y-105293333D01*
X214740476Y-105293333D01*
X214835714Y-105340952D01*
X214883333Y-105388571D01*
X214930952Y-105483809D01*
X214930952Y-105721904D01*
X214883333Y-105817142D01*
X214835714Y-105864761D01*
X214740476Y-105912380D01*
X214454761Y-105912380D01*
X214359523Y-105864761D01*
X214311904Y-105817142D01*
X215216666Y-104912380D02*
X215550000Y-105912380D01*
X215883333Y-104912380D01*
X216121428Y-104912380D02*
X216740476Y-104912380D01*
X216407142Y-105293333D01*
X216550000Y-105293333D01*
X216645238Y-105340952D01*
X216692857Y-105388571D01*
X216740476Y-105483809D01*
X216740476Y-105721904D01*
X216692857Y-105817142D01*
X216645238Y-105864761D01*
X216550000Y-105912380D01*
X216264285Y-105912380D01*
X216169047Y-105864761D01*
X216121428Y-105817142D01*
X167952380Y-96416666D02*
X166952380Y-96416666D01*
X166952380Y-96035714D01*
X167000000Y-95940476D01*
X167047619Y-95892857D01*
X167142857Y-95845238D01*
X167285714Y-95845238D01*
X167380952Y-95892857D01*
X167428571Y-95940476D01*
X167476190Y-96035714D01*
X167476190Y-96416666D01*
X167666666Y-95464285D02*
X167666666Y-94988095D01*
X167952380Y-95559523D02*
X166952380Y-95226190D01*
X167952380Y-94892857D01*
X167285714Y-94130952D02*
X167952380Y-94130952D01*
X166904761Y-94369047D02*
X167619047Y-94607142D01*
X167619047Y-93988095D01*
X154309523Y-91654761D02*
X154452380Y-91702380D01*
X154690476Y-91702380D01*
X154785714Y-91654761D01*
X154833333Y-91607142D01*
X154880952Y-91511904D01*
X154880952Y-91416666D01*
X154833333Y-91321428D01*
X154785714Y-91273809D01*
X154690476Y-91226190D01*
X154500000Y-91178571D01*
X154404761Y-91130952D01*
X154357142Y-91083333D01*
X154309523Y-90988095D01*
X154309523Y-90892857D01*
X154357142Y-90797619D01*
X154404761Y-90750000D01*
X154500000Y-90702380D01*
X154738095Y-90702380D01*
X154880952Y-90750000D01*
X155309523Y-91178571D02*
X155642857Y-91178571D01*
X155785714Y-91702380D02*
X155309523Y-91702380D01*
X155309523Y-90702380D01*
X155785714Y-90702380D01*
X156785714Y-91702380D02*
X156452380Y-91226190D01*
X156214285Y-91702380D02*
X156214285Y-90702380D01*
X156595238Y-90702380D01*
X156690476Y-90750000D01*
X156738095Y-90797619D01*
X156785714Y-90892857D01*
X156785714Y-91035714D01*
X156738095Y-91130952D01*
X156690476Y-91178571D01*
X156595238Y-91226190D01*
X156214285Y-91226190D01*
X157071428Y-90702380D02*
X157404761Y-91702380D01*
X157738095Y-90702380D01*
X158261904Y-90702380D02*
X158452380Y-90702380D01*
X158547619Y-90750000D01*
X158642857Y-90845238D01*
X158690476Y-91035714D01*
X158690476Y-91369047D01*
X158642857Y-91559523D01*
X158547619Y-91654761D01*
X158452380Y-91702380D01*
X158261904Y-91702380D01*
X158166666Y-91654761D01*
X158071428Y-91559523D01*
X158023809Y-91369047D01*
X158023809Y-91035714D01*
X158071428Y-90845238D01*
X158166666Y-90750000D01*
X158261904Y-90702380D01*
X172952380Y-96416666D02*
X171952380Y-96416666D01*
X171952380Y-96035714D01*
X172000000Y-95940476D01*
X172047619Y-95892857D01*
X172142857Y-95845238D01*
X172285714Y-95845238D01*
X172380952Y-95892857D01*
X172428571Y-95940476D01*
X172476190Y-96035714D01*
X172476190Y-96416666D01*
X172666666Y-95464285D02*
X172666666Y-94988095D01*
X172952380Y-95559523D02*
X171952380Y-95226190D01*
X172952380Y-94892857D01*
X172952380Y-94035714D02*
X172952380Y-94607142D01*
X172952380Y-94321428D02*
X171952380Y-94321428D01*
X172095238Y-94416666D01*
X172190476Y-94511904D01*
X172238095Y-94607142D01*
X165452380Y-96416666D02*
X164452380Y-96416666D01*
X164452380Y-96035714D01*
X164500000Y-95940476D01*
X164547619Y-95892857D01*
X164642857Y-95845238D01*
X164785714Y-95845238D01*
X164880952Y-95892857D01*
X164928571Y-95940476D01*
X164976190Y-96035714D01*
X164976190Y-96416666D01*
X165166666Y-95464285D02*
X165166666Y-94988095D01*
X165452380Y-95559523D02*
X164452380Y-95226190D01*
X165452380Y-94892857D01*
X164452380Y-94083333D02*
X164452380Y-94559523D01*
X164928571Y-94607142D01*
X164880952Y-94559523D01*
X164833333Y-94464285D01*
X164833333Y-94226190D01*
X164880952Y-94130952D01*
X164928571Y-94083333D01*
X165023809Y-94035714D01*
X165261904Y-94035714D01*
X165357142Y-94083333D01*
X165404761Y-94130952D01*
X165452380Y-94226190D01*
X165452380Y-94464285D01*
X165404761Y-94559523D01*
X165357142Y-94607142D01*
X211952380Y-99238095D02*
X211952380Y-98619047D01*
X212333333Y-98952380D01*
X212333333Y-98809523D01*
X212380952Y-98714285D01*
X212428571Y-98666666D01*
X212523809Y-98619047D01*
X212761904Y-98619047D01*
X212857142Y-98666666D01*
X212904761Y-98714285D01*
X212952380Y-98809523D01*
X212952380Y-99095238D01*
X212904761Y-99190476D01*
X212857142Y-99238095D01*
X211952380Y-98333333D02*
X212952380Y-98000000D01*
X211952380Y-97666666D01*
X211952380Y-97428571D02*
X211952380Y-96809523D01*
X212333333Y-97142857D01*
X212333333Y-97000000D01*
X212380952Y-96904761D01*
X212428571Y-96857142D01*
X212523809Y-96809523D01*
X212761904Y-96809523D01*
X212857142Y-96857142D01*
X212904761Y-96904761D01*
X212952380Y-97000000D01*
X212952380Y-97285714D01*
X212904761Y-97380952D01*
X212857142Y-97428571D01*
D14*
%TO.C,U301*%
X116541000Y-88095000D03*
X116541000Y-89365000D03*
X116541000Y-90635000D03*
X116541000Y-91905000D03*
X121491000Y-91905000D03*
X121491000Y-90635000D03*
X121491000Y-89365000D03*
X121491000Y-88095000D03*
%TD*%
D15*
%TO.C,D404*%
X142125000Y-105500000D03*
X143875000Y-105500000D03*
%TD*%
D16*
%TO.C,SW402*%
X131500000Y-88000000D03*
X131500000Y-81500000D03*
X136000000Y-81500000D03*
X136000000Y-88000000D03*
%TD*%
D17*
%TO.C,Y401*%
X184150000Y-102650000D03*
X186350000Y-102650000D03*
X186350000Y-100850000D03*
X184150000Y-100850000D03*
%TD*%
D18*
%TO.C,J302*%
X215000000Y-82975000D03*
D19*
X217500000Y-82975000D03*
X220000000Y-82975000D03*
X222500000Y-82975000D03*
X225000000Y-82975000D03*
X227500000Y-82975000D03*
%TD*%
D20*
%TO.C,J204*%
X220025000Y-108200000D03*
D21*
X220025000Y-110740000D03*
X220025000Y-113280000D03*
X220025000Y-115820000D03*
%TD*%
D20*
%TO.C,J408*%
X206575000Y-105610000D03*
D21*
X206575000Y-108150000D03*
X206575000Y-110690000D03*
X206575000Y-113230000D03*
X206575000Y-115770000D03*
%TD*%
D22*
%TO.C,D402*%
X203750000Y-98875000D03*
X203750000Y-97125000D03*
%TD*%
D18*
%TO.C,J301*%
X112750000Y-82914000D03*
D19*
X115250000Y-82914000D03*
X117750000Y-82914000D03*
X120250000Y-82914000D03*
X122750000Y-82914000D03*
X125250000Y-82914000D03*
%TD*%
D23*
%TO.C,D405*%
X148875000Y-105500000D03*
X147125000Y-105500000D03*
%TD*%
D24*
%TO.C,R401*%
X179587500Y-101250000D03*
X181412500Y-101250000D03*
%TD*%
D25*
%TO.C,C404*%
X139750000Y-81637500D03*
X139750000Y-83362500D03*
%TD*%
D26*
%TO.C,C405*%
X179637500Y-109000000D03*
X181362500Y-109000000D03*
%TD*%
D24*
%TO.C,R412*%
X208087500Y-102250000D03*
X209912500Y-102250000D03*
%TD*%
D27*
%TO.C,C410*%
X194000000Y-117362500D03*
X194000000Y-115637500D03*
%TD*%
D28*
%TO.C,C302*%
X215612500Y-89811000D03*
X213887500Y-89811000D03*
%TD*%
D29*
%TO.C,C205*%
X184250000Y-92500000D03*
D30*
X181750000Y-92500000D03*
%TD*%
D24*
%TO.C,R201*%
X219087500Y-102250000D03*
X220912500Y-102250000D03*
%TD*%
D26*
%TO.C,C412*%
X156887500Y-87750000D03*
X158612500Y-87750000D03*
%TD*%
%TO.C,C303*%
X125000000Y-89365000D03*
X126725000Y-89365000D03*
%TD*%
D24*
%TO.C,R202*%
X213337500Y-102250000D03*
X215162500Y-102250000D03*
%TD*%
D28*
%TO.C,C301*%
X113475000Y-89750000D03*
X111750000Y-89750000D03*
%TD*%
D25*
%TO.C,C202*%
X202000000Y-81837500D03*
X202000000Y-83562500D03*
%TD*%
%TO.C,C204*%
X210566000Y-84137500D03*
X210566000Y-85862500D03*
%TD*%
D18*
%TO.C,J405*%
X154000000Y-82914000D03*
D19*
X156500000Y-82914000D03*
X159000000Y-82914000D03*
%TD*%
D31*
%TO.C,H102*%
X233802944Y-86197056D03*
X237197056Y-82802944D03*
X233802944Y-82802944D03*
D32*
X235500000Y-84500000D03*
D31*
X237197056Y-86197056D03*
X237900000Y-84500000D03*
X235500000Y-86900000D03*
X235500000Y-82100000D03*
X233100000Y-84500000D03*
%TD*%
D33*
%TO.C,J406*%
X127000000Y-117000000D03*
D19*
X124500000Y-117000000D03*
X122000000Y-117000000D03*
X119500000Y-117000000D03*
X117000000Y-117000000D03*
X114500000Y-117000000D03*
X112000000Y-117000000D03*
%TD*%
D28*
%TO.C,C306*%
X215612500Y-88156000D03*
X213887500Y-88156000D03*
%TD*%
%TO.C,C305*%
X113475000Y-88095000D03*
X111750000Y-88095000D03*
%TD*%
D34*
%TO.C,JP309*%
X126587500Y-96000000D03*
D35*
X125137500Y-96000000D03*
%TD*%
D36*
%TO.C,J407*%
X113500000Y-102500000D03*
D37*
X113500000Y-100000000D03*
X113500000Y-97500000D03*
%TD*%
D33*
%TO.C,J410*%
X190000000Y-117000000D03*
D19*
X187500000Y-117000000D03*
X185000000Y-117000000D03*
X182500000Y-117000000D03*
%TD*%
D26*
%TO.C,C406*%
X179637500Y-104250000D03*
X181362500Y-104250000D03*
%TD*%
D38*
%TO.C,JP303*%
X214000000Y-91966000D03*
D39*
X215450000Y-91966000D03*
%TD*%
D40*
%TO.C,J402*%
X229387500Y-105250000D03*
D41*
X231887500Y-105250000D03*
%TD*%
D27*
%TO.C,C409*%
X119250000Y-99362500D03*
X119250000Y-97637500D03*
%TD*%
%TO.C,C201*%
X202000000Y-88162500D03*
X202000000Y-86437500D03*
%TD*%
D38*
%TO.C,JP201*%
X188251000Y-92583000D03*
D39*
X189701000Y-92583000D03*
%TD*%
D40*
%TO.C,J403*%
X125750000Y-105225000D03*
D41*
X128250000Y-105225000D03*
%TD*%
D40*
%TO.C,J201*%
X168750000Y-82914000D03*
D41*
X171250000Y-82914000D03*
%TD*%
D20*
%TO.C,J409*%
X164950000Y-91975000D03*
D21*
X167490000Y-91975000D03*
X170030000Y-91975000D03*
X172570000Y-91975000D03*
X175110000Y-91975000D03*
%TD*%
D14*
%TO.C,U302*%
X218776000Y-88156000D03*
X218776000Y-89426000D03*
X218776000Y-90696000D03*
X218776000Y-91966000D03*
X223726000Y-91966000D03*
X223726000Y-90696000D03*
X223726000Y-89426000D03*
X223726000Y-88156000D03*
%TD*%
D36*
%TO.C,J411*%
X102975000Y-102500000D03*
D37*
X102975000Y-100000000D03*
X102975000Y-97500000D03*
%TD*%
D22*
%TO.C,D203*%
X214250000Y-98875000D03*
X214250000Y-97125000D03*
%TD*%
D24*
%TO.C,R403*%
X132837500Y-90500000D03*
X134662500Y-90500000D03*
%TD*%
%TO.C,R410*%
X197587500Y-102250000D03*
X199412500Y-102250000D03*
%TD*%
D42*
%TO.C,R406*%
X225637500Y-108437500D03*
X225637500Y-106612500D03*
%TD*%
D31*
%TO.C,H104*%
X104500000Y-117900000D03*
X104500000Y-113100000D03*
X102802944Y-117197056D03*
X102802944Y-113802944D03*
X106900000Y-115500000D03*
X102100000Y-115500000D03*
D32*
X104500000Y-115500000D03*
D31*
X106197056Y-117197056D03*
X106197056Y-113802944D03*
%TD*%
D43*
%TO.C,R413*%
X143912500Y-107250000D03*
X142087500Y-107250000D03*
%TD*%
D24*
%TO.C,R409*%
X151837500Y-87750000D03*
X153662500Y-87750000D03*
%TD*%
D44*
%TO.C,U401*%
X175675000Y-107750000D03*
X175675000Y-107250000D03*
X175675000Y-106750000D03*
X175675000Y-106250000D03*
X175675000Y-105750000D03*
X175675000Y-105250000D03*
X175675000Y-104750000D03*
X175675000Y-104250000D03*
X175675000Y-103750000D03*
X175675000Y-103250000D03*
X175675000Y-102750000D03*
X175675000Y-102250000D03*
X175675000Y-101750000D03*
X175675000Y-101250000D03*
X175675000Y-100750000D03*
X175675000Y-100250000D03*
D45*
X173750000Y-98325000D03*
X173250000Y-98325000D03*
X172750000Y-98325000D03*
X172250000Y-98325000D03*
X171750000Y-98325000D03*
X171250000Y-98325000D03*
X170750000Y-98325000D03*
X170250000Y-98325000D03*
X169750000Y-98325000D03*
X169250000Y-98325000D03*
X168750000Y-98325000D03*
X168250000Y-98325000D03*
X167750000Y-98325000D03*
X167250000Y-98325000D03*
X166750000Y-98325000D03*
X166250000Y-98325000D03*
D44*
X164325000Y-100250000D03*
X164325000Y-100750000D03*
X164325000Y-101250000D03*
X164325000Y-101750000D03*
X164325000Y-102250000D03*
X164325000Y-102750000D03*
X164325000Y-103250000D03*
X164325000Y-103750000D03*
X164325000Y-104250000D03*
X164325000Y-104750000D03*
X164325000Y-105250000D03*
X164325000Y-105750000D03*
X164325000Y-106250000D03*
X164325000Y-106750000D03*
X164325000Y-107250000D03*
X164325000Y-107750000D03*
D45*
X166250000Y-109675000D03*
X166750000Y-109675000D03*
X167250000Y-109675000D03*
X167750000Y-109675000D03*
X168250000Y-109675000D03*
X168750000Y-109675000D03*
X169250000Y-109675000D03*
X169750000Y-109675000D03*
X170250000Y-109675000D03*
X170750000Y-109675000D03*
X171250000Y-109675000D03*
X171750000Y-109675000D03*
X172250000Y-109675000D03*
X172750000Y-109675000D03*
X173250000Y-109675000D03*
X173750000Y-109675000D03*
%TD*%
D15*
%TO.C,D201*%
X198125000Y-90000000D03*
X199875000Y-90000000D03*
%TD*%
D22*
%TO.C,D403*%
X209000000Y-98875000D03*
X209000000Y-97125000D03*
%TD*%
D42*
%TO.C,R407*%
X132000000Y-108412500D03*
X132000000Y-106587500D03*
%TD*%
D34*
%TO.C,JP304*%
X228475000Y-91966000D03*
D35*
X227025000Y-91966000D03*
%TD*%
D24*
%TO.C,R411*%
X202837500Y-102250000D03*
X204662500Y-102250000D03*
%TD*%
D34*
%TO.C,JP302*%
X126587500Y-91905000D03*
D35*
X125137500Y-91905000D03*
%TD*%
D46*
%TO.C,F201*%
X187512500Y-90000000D03*
X190487500Y-90000000D03*
%TD*%
D47*
%TO.C,U202*%
X204390000Y-84050000D03*
X204390000Y-85000000D03*
X204390000Y-85950000D03*
X207090000Y-85950000D03*
X207090000Y-84050000D03*
%TD*%
D26*
%TO.C,C203*%
X204887500Y-89000000D03*
X206612500Y-89000000D03*
%TD*%
D48*
%TO.C,R404*%
X139750000Y-86087500D03*
X139750000Y-87912500D03*
%TD*%
D31*
%TO.C,H103*%
X233802944Y-113802944D03*
X237900000Y-115500000D03*
X237197056Y-113802944D03*
X233802944Y-117197056D03*
X237197056Y-117197056D03*
X235500000Y-113100000D03*
D32*
X235500000Y-115500000D03*
D31*
X233100000Y-115500000D03*
X235500000Y-117900000D03*
%TD*%
D49*
%TO.C,SW201*%
X187700000Y-85000000D03*
X183000000Y-85000000D03*
X178300000Y-85000000D03*
%TD*%
D50*
%TO.C,JP401*%
X138850000Y-102560000D03*
X140150000Y-102560000D03*
%TD*%
D16*
%TO.C,SW401*%
X143250000Y-88000000D03*
X143250000Y-81500000D03*
X147750000Y-88000000D03*
X147750000Y-81500000D03*
%TD*%
D51*
%TO.C,J401*%
X143550000Y-94940000D03*
X147450000Y-94940000D03*
X143550000Y-96210000D03*
X147450000Y-96210000D03*
X143550000Y-97480000D03*
X147450000Y-97480000D03*
X143550000Y-98750000D03*
X147450000Y-98750000D03*
X143550000Y-100020000D03*
X147450000Y-100020000D03*
X143550000Y-101290000D03*
X147450000Y-101290000D03*
X143550000Y-102560000D03*
X147450000Y-102560000D03*
%TD*%
D31*
%TO.C,H101*%
X106197056Y-86197056D03*
X102802944Y-86197056D03*
X104500000Y-86900000D03*
X106197056Y-82802944D03*
X102802944Y-82802944D03*
D32*
X104500000Y-84500000D03*
D31*
X102100000Y-84500000D03*
X106900000Y-84500000D03*
X104500000Y-82100000D03*
%TD*%
D26*
%TO.C,C401*%
X179637500Y-99750000D03*
X181362500Y-99750000D03*
%TD*%
D27*
%TO.C,C411*%
X108750000Y-99362500D03*
X108750000Y-97637500D03*
%TD*%
D26*
%TO.C,C304*%
X226887500Y-89426000D03*
X228612500Y-89426000D03*
%TD*%
D50*
%TO.C,JP403*%
X133100000Y-94000000D03*
X134400000Y-94000000D03*
%TD*%
D33*
%TO.C,J412*%
X174000000Y-117025000D03*
D19*
X171500000Y-117025000D03*
X169000000Y-117025000D03*
X166500000Y-117025000D03*
X164000000Y-117025000D03*
X161500000Y-117025000D03*
X159000000Y-117025000D03*
%TD*%
D26*
%TO.C,C407*%
X179637500Y-107500000D03*
X181362500Y-107500000D03*
%TD*%
D33*
%TO.C,J404*%
X150500000Y-117025000D03*
D19*
X148000000Y-117025000D03*
X145500000Y-117025000D03*
X143000000Y-117025000D03*
X140500000Y-117025000D03*
X138000000Y-117025000D03*
X135500000Y-117025000D03*
%TD*%
D20*
%TO.C,J202*%
X211025000Y-108160000D03*
D21*
X211025000Y-110700000D03*
X211025000Y-113240000D03*
X211025000Y-115780000D03*
%TD*%
D26*
%TO.C,C408*%
X179637500Y-105750000D03*
X181362500Y-105750000D03*
%TD*%
D22*
%TO.C,D401*%
X198500000Y-98875000D03*
X198500000Y-97125000D03*
%TD*%
D42*
%TO.C,R405*%
X235637500Y-108437500D03*
X235637500Y-106612500D03*
%TD*%
D52*
%TO.C,U201*%
X198150000Y-87300000D03*
X198150000Y-85000000D03*
X198150000Y-82700000D03*
D53*
X191850000Y-85000000D03*
%TD*%
D50*
%TO.C,JP402*%
X152150000Y-102560000D03*
X150850000Y-102560000D03*
%TD*%
D38*
%TO.C,JP310*%
X214025000Y-94500000D03*
D39*
X215475000Y-94500000D03*
%TD*%
D42*
%TO.C,R408*%
X122000000Y-108412500D03*
X122000000Y-106587500D03*
%TD*%
D27*
%TO.C,C403*%
X188750000Y-104362500D03*
X188750000Y-102637500D03*
%TD*%
D24*
%TO.C,R414*%
X147087500Y-107250000D03*
X148912500Y-107250000D03*
%TD*%
D38*
%TO.C,JP301*%
X111887500Y-91905000D03*
D39*
X113337500Y-91905000D03*
%TD*%
D27*
%TO.C,C402*%
X188750000Y-100862500D03*
X188750000Y-99137500D03*
%TD*%
D20*
%TO.C,J203*%
X215525000Y-108160000D03*
D21*
X215525000Y-110700000D03*
X215525000Y-113240000D03*
X215525000Y-115780000D03*
%TD*%
D22*
%TO.C,D202*%
X220000000Y-98875000D03*
X220000000Y-97125000D03*
%TD*%
M02*
