%TF.GenerationSoftware,KiCad,Pcbnew,(6.0.4)*%
%TF.CreationDate,2022-10-14T17:02:07+02:00*%
%TF.ProjectId,projet_robot_ese,70726f6a-6574-45f7-926f-626f745f6573,rev?*%
%TF.SameCoordinates,Original*%
%TF.FileFunction,Soldermask,Top*%
%TF.FilePolarity,Negative*%
%FSLAX46Y46*%
G04 Gerber Fmt 4.6, Leading zero omitted, Abs format (unit mm)*
G04 Created by KiCad (PCBNEW (6.0.4)) date 2022-10-14 17:02:07*
%MOMM*%
%LPD*%
G01*
G04 APERTURE LIST*
G04 Aperture macros list*
%AMRoundRect*
0 Rectangle with rounded corners*
0 $1 Rounding radius*
0 $2 $3 $4 $5 $6 $7 $8 $9 X,Y pos of 4 corners*
0 Add a 4 corners polygon primitive as box body*
4,1,4,$2,$3,$4,$5,$6,$7,$8,$9,$2,$3,0*
0 Add four circle primitives for the rounded corners*
1,1,$1+$1,$2,$3*
1,1,$1+$1,$4,$5*
1,1,$1+$1,$6,$7*
1,1,$1+$1,$8,$9*
0 Add four rect primitives between the rounded corners*
20,1,$1+$1,$2,$3,$4,$5,0*
20,1,$1+$1,$4,$5,$6,$7,0*
20,1,$1+$1,$6,$7,$8,$9,0*
20,1,$1+$1,$8,$9,$2,$3,0*%
%AMFreePoly0*
4,1,6,1.000000,0.000000,0.500000,-0.750000,-0.500000,-0.750000,-0.500000,0.750000,0.500000,0.750000,1.000000,0.000000,1.000000,0.000000,$1*%
%AMFreePoly1*
4,1,6,0.500000,-0.750000,-0.650000,-0.750000,-0.150000,0.000000,-0.650000,0.750000,0.500000,0.750000,0.500000,-0.750000,0.500000,-0.750000,$1*%
G04 Aperture macros list end*
%ADD10C,0.150000*%
%ADD11RoundRect,0.150000X-0.825000X-0.150000X0.825000X-0.150000X0.825000X0.150000X-0.825000X0.150000X0*%
%ADD12RoundRect,0.237500X-0.287500X-0.237500X0.287500X-0.237500X0.287500X0.237500X-0.287500X0.237500X0*%
%ADD13FreePoly0,0.000000*%
%ADD14FreePoly1,0.000000*%
%ADD15C,2.000000*%
%ADD16R,1.300000X1.000000*%
%ADD17RoundRect,0.250000X-0.600000X-0.725000X0.600000X-0.725000X0.600000X0.725000X-0.600000X0.725000X0*%
%ADD18O,1.700000X1.950000*%
%ADD19FreePoly0,180.000000*%
%ADD20FreePoly1,180.000000*%
%ADD21R,1.700000X1.700000*%
%ADD22O,1.700000X1.700000*%
%ADD23RoundRect,0.237500X0.250000X0.237500X-0.250000X0.237500X-0.250000X-0.237500X0.250000X-0.237500X0*%
%ADD24RoundRect,0.237500X0.237500X-0.287500X0.237500X0.287500X-0.237500X0.287500X-0.237500X-0.287500X0*%
%ADD25RoundRect,0.237500X0.287500X0.237500X-0.287500X0.237500X-0.287500X-0.237500X0.287500X-0.237500X0*%
%ADD26RoundRect,0.237500X-0.250000X-0.237500X0.250000X-0.237500X0.250000X0.237500X-0.250000X0.237500X0*%
%ADD27RoundRect,0.237500X-0.237500X0.300000X-0.237500X-0.300000X0.237500X-0.300000X0.237500X0.300000X0*%
%ADD28RoundRect,0.237500X-0.300000X-0.237500X0.300000X-0.237500X0.300000X0.237500X-0.300000X0.237500X0*%
%ADD29RoundRect,0.237500X0.300000X0.237500X-0.300000X0.237500X-0.300000X-0.237500X0.300000X-0.237500X0*%
%ADD30R,1.600000X1.600000*%
%ADD31C,1.600000*%
%ADD32C,0.800000*%
%ADD33C,6.400000*%
%ADD34RoundRect,0.250000X0.600000X0.725000X-0.600000X0.725000X-0.600000X-0.725000X0.600000X-0.725000X0*%
%ADD35RoundRect,0.250000X0.725000X-0.600000X0.725000X0.600000X-0.725000X0.600000X-0.725000X-0.600000X0*%
%ADD36O,1.950000X1.700000*%
%ADD37R,1.000000X1.500000*%
%ADD38R,1.500000X1.000000*%
%ADD39RoundRect,0.250000X-0.600000X-0.750000X0.600000X-0.750000X0.600000X0.750000X-0.600000X0.750000X0*%
%ADD40O,1.700000X2.000000*%
%ADD41RoundRect,0.237500X0.237500X-0.300000X0.237500X0.300000X-0.237500X0.300000X-0.237500X-0.300000X0*%
%ADD42RoundRect,0.237500X0.237500X-0.250000X0.237500X0.250000X-0.237500X0.250000X-0.237500X-0.250000X0*%
%ADD43RoundRect,0.075000X0.700000X0.075000X-0.700000X0.075000X-0.700000X-0.075000X0.700000X-0.075000X0*%
%ADD44RoundRect,0.075000X0.075000X0.700000X-0.075000X0.700000X-0.075000X-0.700000X0.075000X-0.700000X0*%
%ADD45RoundRect,0.250001X-0.462499X-0.624999X0.462499X-0.624999X0.462499X0.624999X-0.462499X0.624999X0*%
%ADD46R,1.560000X0.650000*%
%ADD47RoundRect,0.237500X-0.237500X0.250000X-0.237500X-0.250000X0.237500X-0.250000X0.237500X0.250000X0*%
%ADD48C,3.400000*%
%ADD49R,2.400000X0.740000*%
%ADD50R,2.000000X1.500000*%
%ADD51R,2.000000X3.800000*%
G04 APERTURE END LIST*
D10*
X192785714Y-108702380D02*
X192785714Y-107702380D01*
X193166666Y-107702380D01*
X193261904Y-107750000D01*
X193309523Y-107797619D01*
X193357142Y-107892857D01*
X193357142Y-108035714D01*
X193309523Y-108130952D01*
X193261904Y-108178571D01*
X193166666Y-108226190D01*
X192785714Y-108226190D01*
X194357142Y-108607142D02*
X194309523Y-108654761D01*
X194166666Y-108702380D01*
X194071428Y-108702380D01*
X193928571Y-108654761D01*
X193833333Y-108559523D01*
X193785714Y-108464285D01*
X193738095Y-108273809D01*
X193738095Y-108130952D01*
X193785714Y-107940476D01*
X193833333Y-107845238D01*
X193928571Y-107750000D01*
X194071428Y-107702380D01*
X194166666Y-107702380D01*
X194309523Y-107750000D01*
X194357142Y-107797619D01*
X195309523Y-108702380D02*
X194738095Y-108702380D01*
X195023809Y-108702380D02*
X195023809Y-107702380D01*
X194928571Y-107845238D01*
X194833333Y-107940476D01*
X194738095Y-107988095D01*
X196166666Y-108035714D02*
X196166666Y-108702380D01*
X195928571Y-107654761D02*
X195690476Y-108369047D01*
X196309523Y-108369047D01*
X192785714Y-116452380D02*
X192785714Y-115452380D01*
X193166666Y-115452380D01*
X193261904Y-115500000D01*
X193309523Y-115547619D01*
X193357142Y-115642857D01*
X193357142Y-115785714D01*
X193309523Y-115880952D01*
X193261904Y-115928571D01*
X193166666Y-115976190D01*
X192785714Y-115976190D01*
X194357142Y-116357142D02*
X194309523Y-116404761D01*
X194166666Y-116452380D01*
X194071428Y-116452380D01*
X193928571Y-116404761D01*
X193833333Y-116309523D01*
X193785714Y-116214285D01*
X193738095Y-116023809D01*
X193738095Y-115880952D01*
X193785714Y-115690476D01*
X193833333Y-115595238D01*
X193928571Y-115500000D01*
X194071428Y-115452380D01*
X194166666Y-115452380D01*
X194309523Y-115500000D01*
X194357142Y-115547619D01*
X195309523Y-116452380D02*
X194738095Y-116452380D01*
X195023809Y-116452380D02*
X195023809Y-115452380D01*
X194928571Y-115595238D01*
X194833333Y-115690476D01*
X194738095Y-115738095D01*
X195928571Y-115452380D02*
X196023809Y-115452380D01*
X196119047Y-115500000D01*
X196166666Y-115547619D01*
X196214285Y-115642857D01*
X196261904Y-115833333D01*
X196261904Y-116071428D01*
X196214285Y-116261904D01*
X196166666Y-116357142D01*
X196119047Y-116404761D01*
X196023809Y-116452380D01*
X195928571Y-116452380D01*
X195833333Y-116404761D01*
X195785714Y-116357142D01*
X195738095Y-116261904D01*
X195690476Y-116071428D01*
X195690476Y-115833333D01*
X195738095Y-115642857D01*
X195785714Y-115547619D01*
X195833333Y-115500000D01*
X195928571Y-115452380D01*
X202452380Y-99119047D02*
X202452380Y-99595238D01*
X201452380Y-99595238D01*
X201928571Y-98785714D02*
X201928571Y-98452380D01*
X202452380Y-98309523D02*
X202452380Y-98785714D01*
X201452380Y-98785714D01*
X201452380Y-98309523D01*
X202452380Y-97880952D02*
X201452380Y-97880952D01*
X201452380Y-97642857D01*
X201500000Y-97500000D01*
X201595238Y-97404761D01*
X201690476Y-97357142D01*
X201880952Y-97309523D01*
X202023809Y-97309523D01*
X202214285Y-97357142D01*
X202309523Y-97404761D01*
X202404761Y-97500000D01*
X202452380Y-97642857D01*
X202452380Y-97880952D01*
X201547619Y-96928571D02*
X201500000Y-96880952D01*
X201452380Y-96785714D01*
X201452380Y-96547619D01*
X201500000Y-96452380D01*
X201547619Y-96404761D01*
X201642857Y-96357142D01*
X201738095Y-96357142D01*
X201880952Y-96404761D01*
X202452380Y-96976190D01*
X202452380Y-96357142D01*
X192785714Y-111202380D02*
X192785714Y-110202380D01*
X193166666Y-110202380D01*
X193261904Y-110250000D01*
X193309523Y-110297619D01*
X193357142Y-110392857D01*
X193357142Y-110535714D01*
X193309523Y-110630952D01*
X193261904Y-110678571D01*
X193166666Y-110726190D01*
X192785714Y-110726190D01*
X194357142Y-111107142D02*
X194309523Y-111154761D01*
X194166666Y-111202380D01*
X194071428Y-111202380D01*
X193928571Y-111154761D01*
X193833333Y-111059523D01*
X193785714Y-110964285D01*
X193738095Y-110773809D01*
X193738095Y-110630952D01*
X193785714Y-110440476D01*
X193833333Y-110345238D01*
X193928571Y-110250000D01*
X194071428Y-110202380D01*
X194166666Y-110202380D01*
X194309523Y-110250000D01*
X194357142Y-110297619D01*
X195309523Y-111202380D02*
X194738095Y-111202380D01*
X195023809Y-111202380D02*
X195023809Y-110202380D01*
X194928571Y-110345238D01*
X194833333Y-110440476D01*
X194738095Y-110488095D01*
X195690476Y-110297619D02*
X195738095Y-110250000D01*
X195833333Y-110202380D01*
X196071428Y-110202380D01*
X196166666Y-110250000D01*
X196214285Y-110297619D01*
X196261904Y-110392857D01*
X196261904Y-110488095D01*
X196214285Y-110630952D01*
X195642857Y-111202380D01*
X196261904Y-111202380D01*
X192785714Y-113702380D02*
X192785714Y-112702380D01*
X193166666Y-112702380D01*
X193261904Y-112750000D01*
X193309523Y-112797619D01*
X193357142Y-112892857D01*
X193357142Y-113035714D01*
X193309523Y-113130952D01*
X193261904Y-113178571D01*
X193166666Y-113226190D01*
X192785714Y-113226190D01*
X194357142Y-113607142D02*
X194309523Y-113654761D01*
X194166666Y-113702380D01*
X194071428Y-113702380D01*
X193928571Y-113654761D01*
X193833333Y-113559523D01*
X193785714Y-113464285D01*
X193738095Y-113273809D01*
X193738095Y-113130952D01*
X193785714Y-112940476D01*
X193833333Y-112845238D01*
X193928571Y-112750000D01*
X194071428Y-112702380D01*
X194166666Y-112702380D01*
X194309523Y-112750000D01*
X194357142Y-112797619D01*
X195309523Y-113702380D02*
X194738095Y-113702380D01*
X195023809Y-113702380D02*
X195023809Y-112702380D01*
X194928571Y-112845238D01*
X194833333Y-112940476D01*
X194738095Y-112988095D01*
X196261904Y-113702380D02*
X195690476Y-113702380D01*
X195976190Y-113702380D02*
X195976190Y-112702380D01*
X195880952Y-112845238D01*
X195785714Y-112940476D01*
X195690476Y-112988095D01*
X170452380Y-96416666D02*
X169452380Y-96416666D01*
X169452380Y-96035714D01*
X169500000Y-95940476D01*
X169547619Y-95892857D01*
X169642857Y-95845238D01*
X169785714Y-95845238D01*
X169880952Y-95892857D01*
X169928571Y-95940476D01*
X169976190Y-96035714D01*
X169976190Y-96416666D01*
X170166666Y-95464285D02*
X170166666Y-94988095D01*
X170452380Y-95559523D02*
X169452380Y-95226190D01*
X170452380Y-94892857D01*
X169452380Y-94654761D02*
X169452380Y-94035714D01*
X169833333Y-94369047D01*
X169833333Y-94226190D01*
X169880952Y-94130952D01*
X169928571Y-94083333D01*
X170023809Y-94035714D01*
X170261904Y-94035714D01*
X170357142Y-94083333D01*
X170404761Y-94130952D01*
X170452380Y-94226190D01*
X170452380Y-94511904D01*
X170404761Y-94607142D01*
X170357142Y-94654761D01*
X161523809Y-112357142D02*
X161476190Y-112404761D01*
X161333333Y-112452380D01*
X161238095Y-112452380D01*
X161095238Y-112404761D01*
X161000000Y-112309523D01*
X160952380Y-112214285D01*
X160904761Y-112023809D01*
X160904761Y-111880952D01*
X160952380Y-111690476D01*
X161000000Y-111595238D01*
X161095238Y-111500000D01*
X161238095Y-111452380D01*
X161333333Y-111452380D01*
X161476190Y-111500000D01*
X161523809Y-111547619D01*
X162142857Y-111452380D02*
X162333333Y-111452380D01*
X162428571Y-111500000D01*
X162523809Y-111595238D01*
X162571428Y-111785714D01*
X162571428Y-112119047D01*
X162523809Y-112309523D01*
X162428571Y-112404761D01*
X162333333Y-112452380D01*
X162142857Y-112452380D01*
X162047619Y-112404761D01*
X161952380Y-112309523D01*
X161904761Y-112119047D01*
X161904761Y-111785714D01*
X161952380Y-111595238D01*
X162047619Y-111500000D01*
X162142857Y-111452380D01*
X163476190Y-112452380D02*
X163000000Y-112452380D01*
X163000000Y-111452380D01*
X164000000Y-111452380D02*
X164190476Y-111452380D01*
X164285714Y-111500000D01*
X164380952Y-111595238D01*
X164428571Y-111785714D01*
X164428571Y-112119047D01*
X164380952Y-112309523D01*
X164285714Y-112404761D01*
X164190476Y-112452380D01*
X164000000Y-112452380D01*
X163904761Y-112404761D01*
X163809523Y-112309523D01*
X163761904Y-112119047D01*
X163761904Y-111785714D01*
X163809523Y-111595238D01*
X163904761Y-111500000D01*
X164000000Y-111452380D01*
X165428571Y-112452380D02*
X165095238Y-111976190D01*
X164857142Y-112452380D02*
X164857142Y-111452380D01*
X165238095Y-111452380D01*
X165333333Y-111500000D01*
X165380952Y-111547619D01*
X165428571Y-111642857D01*
X165428571Y-111785714D01*
X165380952Y-111880952D01*
X165333333Y-111928571D01*
X165238095Y-111976190D01*
X164857142Y-111976190D01*
X166571428Y-112404761D02*
X166714285Y-112452380D01*
X166952380Y-112452380D01*
X167047619Y-112404761D01*
X167095238Y-112357142D01*
X167142857Y-112261904D01*
X167142857Y-112166666D01*
X167095238Y-112071428D01*
X167047619Y-112023809D01*
X166952380Y-111976190D01*
X166761904Y-111928571D01*
X166666666Y-111880952D01*
X166619047Y-111833333D01*
X166571428Y-111738095D01*
X166571428Y-111642857D01*
X166619047Y-111547619D01*
X166666666Y-111500000D01*
X166761904Y-111452380D01*
X167000000Y-111452380D01*
X167142857Y-111500000D01*
X167571428Y-111928571D02*
X167904761Y-111928571D01*
X168047619Y-112452380D02*
X167571428Y-112452380D01*
X167571428Y-111452380D01*
X168047619Y-111452380D01*
X168476190Y-112452380D02*
X168476190Y-111452380D01*
X169047619Y-112452380D01*
X169047619Y-111452380D01*
X169476190Y-112404761D02*
X169619047Y-112452380D01*
X169857142Y-112452380D01*
X169952380Y-112404761D01*
X170000000Y-112357142D01*
X170047619Y-112261904D01*
X170047619Y-112166666D01*
X170000000Y-112071428D01*
X169952380Y-112023809D01*
X169857142Y-111976190D01*
X169666666Y-111928571D01*
X169571428Y-111880952D01*
X169523809Y-111833333D01*
X169476190Y-111738095D01*
X169476190Y-111642857D01*
X169523809Y-111547619D01*
X169571428Y-111500000D01*
X169666666Y-111452380D01*
X169904761Y-111452380D01*
X170047619Y-111500000D01*
X170666666Y-111452380D02*
X170857142Y-111452380D01*
X170952380Y-111500000D01*
X171047619Y-111595238D01*
X171095238Y-111785714D01*
X171095238Y-112119047D01*
X171047619Y-112309523D01*
X170952380Y-112404761D01*
X170857142Y-112452380D01*
X170666666Y-112452380D01*
X170571428Y-112404761D01*
X170476190Y-112309523D01*
X170428571Y-112119047D01*
X170428571Y-111785714D01*
X170476190Y-111595238D01*
X170571428Y-111500000D01*
X170666666Y-111452380D01*
X172095238Y-112452380D02*
X171761904Y-111976190D01*
X171523809Y-112452380D02*
X171523809Y-111452380D01*
X171904761Y-111452380D01*
X172000000Y-111500000D01*
X172047619Y-111547619D01*
X172095238Y-111642857D01*
X172095238Y-111785714D01*
X172047619Y-111880952D01*
X172000000Y-111928571D01*
X171904761Y-111976190D01*
X171523809Y-111976190D01*
X165166666Y-88071428D02*
X165928571Y-88071428D01*
X167500000Y-87928571D02*
X167642857Y-87976190D01*
X167690476Y-88023809D01*
X167738095Y-88119047D01*
X167738095Y-88261904D01*
X167690476Y-88357142D01*
X167642857Y-88404761D01*
X167547619Y-88452380D01*
X167166666Y-88452380D01*
X167166666Y-87452380D01*
X167500000Y-87452380D01*
X167595238Y-87500000D01*
X167642857Y-87547619D01*
X167690476Y-87642857D01*
X167690476Y-87738095D01*
X167642857Y-87833333D01*
X167595238Y-87880952D01*
X167500000Y-87928571D01*
X167166666Y-87928571D01*
X168119047Y-88166666D02*
X168595238Y-88166666D01*
X168023809Y-88452380D02*
X168357142Y-87452380D01*
X168690476Y-88452380D01*
X168880952Y-87452380D02*
X169452380Y-87452380D01*
X169166666Y-88452380D02*
X169166666Y-87452380D01*
X169642857Y-87452380D02*
X170214285Y-87452380D01*
X169928571Y-88452380D02*
X169928571Y-87452380D01*
X170547619Y-87928571D02*
X170880952Y-87928571D01*
X171023809Y-88452380D02*
X170547619Y-88452380D01*
X170547619Y-87452380D01*
X171023809Y-87452380D01*
X172023809Y-88452380D02*
X171690476Y-87976190D01*
X171452380Y-88452380D02*
X171452380Y-87452380D01*
X171833333Y-87452380D01*
X171928571Y-87500000D01*
X171976190Y-87547619D01*
X172023809Y-87642857D01*
X172023809Y-87785714D01*
X171976190Y-87880952D01*
X171928571Y-87928571D01*
X171833333Y-87976190D01*
X171452380Y-87976190D01*
X172642857Y-87976190D02*
X172642857Y-88452380D01*
X172309523Y-87452380D02*
X172642857Y-87976190D01*
X172976190Y-87452380D01*
X174071428Y-88071428D02*
X174833333Y-88071428D01*
X174452380Y-88452380D02*
X174452380Y-87690476D01*
X207702380Y-99119047D02*
X207702380Y-99595238D01*
X206702380Y-99595238D01*
X207178571Y-98785714D02*
X207178571Y-98452380D01*
X207702380Y-98309523D02*
X207702380Y-98785714D01*
X206702380Y-98785714D01*
X206702380Y-98309523D01*
X207702380Y-97880952D02*
X206702380Y-97880952D01*
X206702380Y-97642857D01*
X206750000Y-97500000D01*
X206845238Y-97404761D01*
X206940476Y-97357142D01*
X207130952Y-97309523D01*
X207273809Y-97309523D01*
X207464285Y-97357142D01*
X207559523Y-97404761D01*
X207654761Y-97500000D01*
X207702380Y-97642857D01*
X207702380Y-97880952D01*
X206702380Y-96976190D02*
X206702380Y-96357142D01*
X207083333Y-96690476D01*
X207083333Y-96547619D01*
X207130952Y-96452380D01*
X207178571Y-96404761D01*
X207273809Y-96357142D01*
X207511904Y-96357142D01*
X207607142Y-96404761D01*
X207654761Y-96452380D01*
X207702380Y-96547619D01*
X207702380Y-96833333D01*
X207654761Y-96928571D01*
X207607142Y-96976190D01*
X192785714Y-105952380D02*
X192785714Y-104952380D01*
X193166666Y-104952380D01*
X193261904Y-105000000D01*
X193309523Y-105047619D01*
X193357142Y-105142857D01*
X193357142Y-105285714D01*
X193309523Y-105380952D01*
X193261904Y-105428571D01*
X193166666Y-105476190D01*
X192785714Y-105476190D01*
X194357142Y-105857142D02*
X194309523Y-105904761D01*
X194166666Y-105952380D01*
X194071428Y-105952380D01*
X193928571Y-105904761D01*
X193833333Y-105809523D01*
X193785714Y-105714285D01*
X193738095Y-105523809D01*
X193738095Y-105380952D01*
X193785714Y-105190476D01*
X193833333Y-105095238D01*
X193928571Y-105000000D01*
X194071428Y-104952380D01*
X194166666Y-104952380D01*
X194309523Y-105000000D01*
X194357142Y-105047619D01*
X195309523Y-105952380D02*
X194738095Y-105952380D01*
X195023809Y-105952380D02*
X195023809Y-104952380D01*
X194928571Y-105095238D01*
X194833333Y-105190476D01*
X194738095Y-105238095D01*
X196214285Y-104952380D02*
X195738095Y-104952380D01*
X195690476Y-105428571D01*
X195738095Y-105380952D01*
X195833333Y-105333333D01*
X196071428Y-105333333D01*
X196166666Y-105380952D01*
X196214285Y-105428571D01*
X196261904Y-105523809D01*
X196261904Y-105761904D01*
X196214285Y-105857142D01*
X196166666Y-105904761D01*
X196071428Y-105952380D01*
X195833333Y-105952380D01*
X195738095Y-105904761D01*
X195690476Y-105857142D01*
X197202380Y-99119047D02*
X197202380Y-99595238D01*
X196202380Y-99595238D01*
X196678571Y-98785714D02*
X196678571Y-98452380D01*
X197202380Y-98309523D02*
X197202380Y-98785714D01*
X196202380Y-98785714D01*
X196202380Y-98309523D01*
X197202380Y-97880952D02*
X196202380Y-97880952D01*
X196202380Y-97642857D01*
X196250000Y-97500000D01*
X196345238Y-97404761D01*
X196440476Y-97357142D01*
X196630952Y-97309523D01*
X196773809Y-97309523D01*
X196964285Y-97357142D01*
X197059523Y-97404761D01*
X197154761Y-97500000D01*
X197202380Y-97642857D01*
X197202380Y-97880952D01*
X197202380Y-96357142D02*
X197202380Y-96928571D01*
X197202380Y-96642857D02*
X196202380Y-96642857D01*
X196345238Y-96738095D01*
X196440476Y-96833333D01*
X196488095Y-96928571D01*
X221869047Y-111702380D02*
X221869047Y-110702380D01*
X222297619Y-110797619D02*
X222345238Y-110750000D01*
X222440476Y-110702380D01*
X222678571Y-110702380D01*
X222773809Y-110750000D01*
X222821428Y-110797619D01*
X222869047Y-110892857D01*
X222869047Y-110988095D01*
X222821428Y-111130952D01*
X222250000Y-111702380D01*
X222869047Y-111702380D01*
X223869047Y-111607142D02*
X223821428Y-111654761D01*
X223678571Y-111702380D01*
X223583333Y-111702380D01*
X223440476Y-111654761D01*
X223345238Y-111559523D01*
X223297619Y-111464285D01*
X223250000Y-111273809D01*
X223250000Y-111130952D01*
X223297619Y-110940476D01*
X223345238Y-110845238D01*
X223440476Y-110750000D01*
X223583333Y-110702380D01*
X223678571Y-110702380D01*
X223821428Y-110750000D01*
X223869047Y-110797619D01*
X224250000Y-111654761D02*
X224345238Y-111702380D01*
X224535714Y-111702380D01*
X224630952Y-111654761D01*
X224678571Y-111559523D01*
X224678571Y-111511904D01*
X224630952Y-111416666D01*
X224535714Y-111369047D01*
X224392857Y-111369047D01*
X224297619Y-111321428D01*
X224250000Y-111226190D01*
X224250000Y-111178571D01*
X224297619Y-111083333D01*
X224392857Y-111035714D01*
X224535714Y-111035714D01*
X224630952Y-111083333D01*
X130083333Y-111452380D02*
X130654761Y-111452380D01*
X130369047Y-112452380D02*
X130369047Y-111452380D01*
X131130952Y-112452380D02*
X131035714Y-112404761D01*
X130988095Y-112357142D01*
X130940476Y-112261904D01*
X130940476Y-111976190D01*
X130988095Y-111880952D01*
X131035714Y-111833333D01*
X131130952Y-111785714D01*
X131273809Y-111785714D01*
X131369047Y-111833333D01*
X131416666Y-111880952D01*
X131464285Y-111976190D01*
X131464285Y-112261904D01*
X131416666Y-112357142D01*
X131369047Y-112404761D01*
X131273809Y-112452380D01*
X131130952Y-112452380D01*
X132226190Y-111928571D02*
X131892857Y-111928571D01*
X131892857Y-112452380D02*
X131892857Y-111452380D01*
X132369047Y-111452380D01*
X234357142Y-110107142D02*
X234309523Y-110154761D01*
X234166666Y-110202380D01*
X234071428Y-110202380D01*
X233928571Y-110154761D01*
X233833333Y-110059523D01*
X233785714Y-109964285D01*
X233738095Y-109773809D01*
X233738095Y-109630952D01*
X233785714Y-109440476D01*
X233833333Y-109345238D01*
X233928571Y-109250000D01*
X234071428Y-109202380D01*
X234166666Y-109202380D01*
X234309523Y-109250000D01*
X234357142Y-109297619D01*
X234976190Y-109202380D02*
X235166666Y-109202380D01*
X235261904Y-109250000D01*
X235357142Y-109345238D01*
X235404761Y-109535714D01*
X235404761Y-109869047D01*
X235357142Y-110059523D01*
X235261904Y-110154761D01*
X235166666Y-110202380D01*
X234976190Y-110202380D01*
X234880952Y-110154761D01*
X234785714Y-110059523D01*
X234738095Y-109869047D01*
X234738095Y-109535714D01*
X234785714Y-109345238D01*
X234880952Y-109250000D01*
X234976190Y-109202380D01*
X236309523Y-110202380D02*
X235833333Y-110202380D01*
X235833333Y-109202380D01*
X236833333Y-109202380D02*
X237023809Y-109202380D01*
X237119047Y-109250000D01*
X237214285Y-109345238D01*
X237261904Y-109535714D01*
X237261904Y-109869047D01*
X237214285Y-110059523D01*
X237119047Y-110154761D01*
X237023809Y-110202380D01*
X236833333Y-110202380D01*
X236738095Y-110154761D01*
X236642857Y-110059523D01*
X236595238Y-109869047D01*
X236595238Y-109535714D01*
X236642857Y-109345238D01*
X236738095Y-109250000D01*
X236833333Y-109202380D01*
X238261904Y-110202380D02*
X237928571Y-109726190D01*
X237690476Y-110202380D02*
X237690476Y-109202380D01*
X238071428Y-109202380D01*
X238166666Y-109250000D01*
X238214285Y-109297619D01*
X238261904Y-109392857D01*
X238261904Y-109535714D01*
X238214285Y-109630952D01*
X238166666Y-109678571D01*
X238071428Y-109726190D01*
X237690476Y-109726190D01*
X175452380Y-96416666D02*
X174452380Y-96416666D01*
X174452380Y-96035714D01*
X174500000Y-95940476D01*
X174547619Y-95892857D01*
X174642857Y-95845238D01*
X174785714Y-95845238D01*
X174880952Y-95892857D01*
X174928571Y-95940476D01*
X174976190Y-96035714D01*
X174976190Y-96416666D01*
X175166666Y-95464285D02*
X175166666Y-94988095D01*
X175452380Y-95559523D02*
X174452380Y-95226190D01*
X175452380Y-94892857D01*
X174452380Y-94369047D02*
X174452380Y-94273809D01*
X174500000Y-94178571D01*
X174547619Y-94130952D01*
X174642857Y-94083333D01*
X174833333Y-94035714D01*
X175071428Y-94035714D01*
X175261904Y-94083333D01*
X175357142Y-94130952D01*
X175404761Y-94178571D01*
X175452380Y-94273809D01*
X175452380Y-94369047D01*
X175404761Y-94464285D01*
X175357142Y-94511904D01*
X175261904Y-94559523D01*
X175071428Y-94607142D01*
X174833333Y-94607142D01*
X174642857Y-94559523D01*
X174547619Y-94511904D01*
X174500000Y-94464285D01*
X174452380Y-94369047D01*
X103178571Y-108702380D02*
X103178571Y-107702380D01*
X103559523Y-107702380D01*
X103654761Y-107750000D01*
X103702380Y-107797619D01*
X103750000Y-107892857D01*
X103750000Y-108035714D01*
X103702380Y-108130952D01*
X103654761Y-108178571D01*
X103559523Y-108226190D01*
X103178571Y-108226190D01*
X104750000Y-108702380D02*
X104416666Y-108226190D01*
X104178571Y-108702380D02*
X104178571Y-107702380D01*
X104559523Y-107702380D01*
X104654761Y-107750000D01*
X104702380Y-107797619D01*
X104750000Y-107892857D01*
X104750000Y-108035714D01*
X104702380Y-108130952D01*
X104654761Y-108178571D01*
X104559523Y-108226190D01*
X104178571Y-108226190D01*
X105369047Y-107702380D02*
X105559523Y-107702380D01*
X105654761Y-107750000D01*
X105750000Y-107845238D01*
X105797619Y-108035714D01*
X105797619Y-108369047D01*
X105750000Y-108559523D01*
X105654761Y-108654761D01*
X105559523Y-108702380D01*
X105369047Y-108702380D01*
X105273809Y-108654761D01*
X105178571Y-108559523D01*
X105130952Y-108369047D01*
X105130952Y-108035714D01*
X105178571Y-107845238D01*
X105273809Y-107750000D01*
X105369047Y-107702380D01*
X106130952Y-107702380D02*
X106797619Y-108702380D01*
X106797619Y-107702380D02*
X106130952Y-108702380D01*
X107892857Y-108654761D02*
X108035714Y-108702380D01*
X108273809Y-108702380D01*
X108369047Y-108654761D01*
X108416666Y-108607142D01*
X108464285Y-108511904D01*
X108464285Y-108416666D01*
X108416666Y-108321428D01*
X108369047Y-108273809D01*
X108273809Y-108226190D01*
X108083333Y-108178571D01*
X107988095Y-108130952D01*
X107940476Y-108083333D01*
X107892857Y-107988095D01*
X107892857Y-107892857D01*
X107940476Y-107797619D01*
X107988095Y-107750000D01*
X108083333Y-107702380D01*
X108321428Y-107702380D01*
X108464285Y-107750000D01*
X108892857Y-108178571D02*
X109226190Y-108178571D01*
X109369047Y-108702380D02*
X108892857Y-108702380D01*
X108892857Y-107702380D01*
X109369047Y-107702380D01*
X109797619Y-108702380D02*
X109797619Y-107702380D01*
X110369047Y-108702380D01*
X110369047Y-107702380D01*
X110797619Y-108654761D02*
X110940476Y-108702380D01*
X111178571Y-108702380D01*
X111273809Y-108654761D01*
X111321428Y-108607142D01*
X111369047Y-108511904D01*
X111369047Y-108416666D01*
X111321428Y-108321428D01*
X111273809Y-108273809D01*
X111178571Y-108226190D01*
X110988095Y-108178571D01*
X110892857Y-108130952D01*
X110845238Y-108083333D01*
X110797619Y-107988095D01*
X110797619Y-107892857D01*
X110845238Y-107797619D01*
X110892857Y-107750000D01*
X110988095Y-107702380D01*
X111226190Y-107702380D01*
X111369047Y-107750000D01*
X111988095Y-107702380D02*
X112178571Y-107702380D01*
X112273809Y-107750000D01*
X112369047Y-107845238D01*
X112416666Y-108035714D01*
X112416666Y-108369047D01*
X112369047Y-108559523D01*
X112273809Y-108654761D01*
X112178571Y-108702380D01*
X111988095Y-108702380D01*
X111892857Y-108654761D01*
X111797619Y-108559523D01*
X111750000Y-108369047D01*
X111750000Y-108035714D01*
X111797619Y-107845238D01*
X111892857Y-107750000D01*
X111988095Y-107702380D01*
X113416666Y-108702380D02*
X113083333Y-108226190D01*
X112845238Y-108702380D02*
X112845238Y-107702380D01*
X113226190Y-107702380D01*
X113321428Y-107750000D01*
X113369047Y-107797619D01*
X113416666Y-107892857D01*
X113416666Y-108035714D01*
X113369047Y-108130952D01*
X113321428Y-108178571D01*
X113226190Y-108226190D01*
X112845238Y-108226190D01*
X113797619Y-108654761D02*
X113940476Y-108702380D01*
X114178571Y-108702380D01*
X114273809Y-108654761D01*
X114321428Y-108607142D01*
X114369047Y-108511904D01*
X114369047Y-108416666D01*
X114321428Y-108321428D01*
X114273809Y-108273809D01*
X114178571Y-108226190D01*
X113988095Y-108178571D01*
X113892857Y-108130952D01*
X113845238Y-108083333D01*
X113797619Y-107988095D01*
X113797619Y-107892857D01*
X113845238Y-107797619D01*
X113892857Y-107750000D01*
X113988095Y-107702380D01*
X114226190Y-107702380D01*
X114369047Y-107750000D01*
X217702380Y-98190476D02*
X217702380Y-98666666D01*
X218178571Y-98714285D01*
X218130952Y-98666666D01*
X218083333Y-98571428D01*
X218083333Y-98333333D01*
X218130952Y-98238095D01*
X218178571Y-98190476D01*
X218273809Y-98142857D01*
X218511904Y-98142857D01*
X218607142Y-98190476D01*
X218654761Y-98238095D01*
X218702380Y-98333333D01*
X218702380Y-98571428D01*
X218654761Y-98666666D01*
X218607142Y-98714285D01*
X217702380Y-97857142D02*
X218702380Y-97523809D01*
X217702380Y-97190476D01*
X144047619Y-91452380D02*
X143714285Y-90976190D01*
X143476190Y-91452380D02*
X143476190Y-90452380D01*
X143857142Y-90452380D01*
X143952380Y-90500000D01*
X144000000Y-90547619D01*
X144047619Y-90642857D01*
X144047619Y-90785714D01*
X144000000Y-90880952D01*
X143952380Y-90928571D01*
X143857142Y-90976190D01*
X143476190Y-90976190D01*
X144476190Y-90928571D02*
X144809523Y-90928571D01*
X144952380Y-91452380D02*
X144476190Y-91452380D01*
X144476190Y-90452380D01*
X144952380Y-90452380D01*
X145333333Y-91404761D02*
X145476190Y-91452380D01*
X145714285Y-91452380D01*
X145809523Y-91404761D01*
X145857142Y-91357142D01*
X145904761Y-91261904D01*
X145904761Y-91166666D01*
X145857142Y-91071428D01*
X145809523Y-91023809D01*
X145714285Y-90976190D01*
X145523809Y-90928571D01*
X145428571Y-90880952D01*
X145380952Y-90833333D01*
X145333333Y-90738095D01*
X145333333Y-90642857D01*
X145380952Y-90547619D01*
X145428571Y-90500000D01*
X145523809Y-90452380D01*
X145761904Y-90452380D01*
X145904761Y-90500000D01*
X146333333Y-90928571D02*
X146666666Y-90928571D01*
X146809523Y-91452380D02*
X146333333Y-91452380D01*
X146333333Y-90452380D01*
X146809523Y-90452380D01*
X147095238Y-90452380D02*
X147666666Y-90452380D01*
X147380952Y-91452380D02*
X147380952Y-90452380D01*
X202738095Y-105000000D02*
X202642857Y-104952380D01*
X202500000Y-104952380D01*
X202357142Y-105000000D01*
X202261904Y-105095238D01*
X202214285Y-105190476D01*
X202166666Y-105380952D01*
X202166666Y-105523809D01*
X202214285Y-105714285D01*
X202261904Y-105809523D01*
X202357142Y-105904761D01*
X202500000Y-105952380D01*
X202595238Y-105952380D01*
X202738095Y-105904761D01*
X202785714Y-105857142D01*
X202785714Y-105523809D01*
X202595238Y-105523809D01*
X203214285Y-105952380D02*
X203214285Y-104952380D01*
X203785714Y-105952380D01*
X203785714Y-104952380D01*
X204261904Y-105952380D02*
X204261904Y-104952380D01*
X204500000Y-104952380D01*
X204642857Y-105000000D01*
X204738095Y-105095238D01*
X204785714Y-105190476D01*
X204833333Y-105380952D01*
X204833333Y-105523809D01*
X204785714Y-105714285D01*
X204738095Y-105809523D01*
X204642857Y-105904761D01*
X204500000Y-105952380D01*
X204261904Y-105952380D01*
X213309523Y-104952380D02*
X212833333Y-104952380D01*
X212785714Y-105428571D01*
X212833333Y-105380952D01*
X212928571Y-105333333D01*
X213166666Y-105333333D01*
X213261904Y-105380952D01*
X213309523Y-105428571D01*
X213357142Y-105523809D01*
X213357142Y-105761904D01*
X213309523Y-105857142D01*
X213261904Y-105904761D01*
X213166666Y-105952380D01*
X212928571Y-105952380D01*
X212833333Y-105904761D01*
X212785714Y-105857142D01*
X213642857Y-104952380D02*
X213976190Y-105952380D01*
X214309523Y-104952380D01*
X207261904Y-104952380D02*
X207880952Y-104952380D01*
X207547619Y-105333333D01*
X207690476Y-105333333D01*
X207785714Y-105380952D01*
X207833333Y-105428571D01*
X207880952Y-105523809D01*
X207880952Y-105761904D01*
X207833333Y-105857142D01*
X207785714Y-105904761D01*
X207690476Y-105952380D01*
X207404761Y-105952380D01*
X207309523Y-105904761D01*
X207261904Y-105857142D01*
X208166666Y-104952380D02*
X208500000Y-105952380D01*
X208833333Y-104952380D01*
X209071428Y-104952380D02*
X209690476Y-104952380D01*
X209357142Y-105333333D01*
X209500000Y-105333333D01*
X209595238Y-105380952D01*
X209642857Y-105428571D01*
X209690476Y-105523809D01*
X209690476Y-105761904D01*
X209642857Y-105857142D01*
X209595238Y-105904761D01*
X209500000Y-105952380D01*
X209214285Y-105952380D01*
X209119047Y-105904761D01*
X209071428Y-105857142D01*
X167952380Y-96416666D02*
X166952380Y-96416666D01*
X166952380Y-96035714D01*
X167000000Y-95940476D01*
X167047619Y-95892857D01*
X167142857Y-95845238D01*
X167285714Y-95845238D01*
X167380952Y-95892857D01*
X167428571Y-95940476D01*
X167476190Y-96035714D01*
X167476190Y-96416666D01*
X167666666Y-95464285D02*
X167666666Y-94988095D01*
X167952380Y-95559523D02*
X166952380Y-95226190D01*
X167952380Y-94892857D01*
X167285714Y-94130952D02*
X167952380Y-94130952D01*
X166904761Y-94369047D02*
X167619047Y-94607142D01*
X167619047Y-93988095D01*
X154309523Y-91654761D02*
X154452380Y-91702380D01*
X154690476Y-91702380D01*
X154785714Y-91654761D01*
X154833333Y-91607142D01*
X154880952Y-91511904D01*
X154880952Y-91416666D01*
X154833333Y-91321428D01*
X154785714Y-91273809D01*
X154690476Y-91226190D01*
X154500000Y-91178571D01*
X154404761Y-91130952D01*
X154357142Y-91083333D01*
X154309523Y-90988095D01*
X154309523Y-90892857D01*
X154357142Y-90797619D01*
X154404761Y-90750000D01*
X154500000Y-90702380D01*
X154738095Y-90702380D01*
X154880952Y-90750000D01*
X155309523Y-91178571D02*
X155642857Y-91178571D01*
X155785714Y-91702380D02*
X155309523Y-91702380D01*
X155309523Y-90702380D01*
X155785714Y-90702380D01*
X156785714Y-91702380D02*
X156452380Y-91226190D01*
X156214285Y-91702380D02*
X156214285Y-90702380D01*
X156595238Y-90702380D01*
X156690476Y-90750000D01*
X156738095Y-90797619D01*
X156785714Y-90892857D01*
X156785714Y-91035714D01*
X156738095Y-91130952D01*
X156690476Y-91178571D01*
X156595238Y-91226190D01*
X156214285Y-91226190D01*
X157071428Y-90702380D02*
X157404761Y-91702380D01*
X157738095Y-90702380D01*
X158261904Y-90702380D02*
X158452380Y-90702380D01*
X158547619Y-90750000D01*
X158642857Y-90845238D01*
X158690476Y-91035714D01*
X158690476Y-91369047D01*
X158642857Y-91559523D01*
X158547619Y-91654761D01*
X158452380Y-91702380D01*
X158261904Y-91702380D01*
X158166666Y-91654761D01*
X158071428Y-91559523D01*
X158023809Y-91369047D01*
X158023809Y-91035714D01*
X158071428Y-90845238D01*
X158166666Y-90750000D01*
X158261904Y-90702380D01*
X172952380Y-96416666D02*
X171952380Y-96416666D01*
X171952380Y-96035714D01*
X172000000Y-95940476D01*
X172047619Y-95892857D01*
X172142857Y-95845238D01*
X172285714Y-95845238D01*
X172380952Y-95892857D01*
X172428571Y-95940476D01*
X172476190Y-96035714D01*
X172476190Y-96416666D01*
X172666666Y-95464285D02*
X172666666Y-94988095D01*
X172952380Y-95559523D02*
X171952380Y-95226190D01*
X172952380Y-94892857D01*
X172952380Y-94035714D02*
X172952380Y-94607142D01*
X172952380Y-94321428D02*
X171952380Y-94321428D01*
X172095238Y-94416666D01*
X172190476Y-94511904D01*
X172238095Y-94607142D01*
X165452380Y-96416666D02*
X164452380Y-96416666D01*
X164452380Y-96035714D01*
X164500000Y-95940476D01*
X164547619Y-95892857D01*
X164642857Y-95845238D01*
X164785714Y-95845238D01*
X164880952Y-95892857D01*
X164928571Y-95940476D01*
X164976190Y-96035714D01*
X164976190Y-96416666D01*
X165166666Y-95464285D02*
X165166666Y-94988095D01*
X165452380Y-95559523D02*
X164452380Y-95226190D01*
X165452380Y-94892857D01*
X164452380Y-94083333D02*
X164452380Y-94559523D01*
X164928571Y-94607142D01*
X164880952Y-94559523D01*
X164833333Y-94464285D01*
X164833333Y-94226190D01*
X164880952Y-94130952D01*
X164928571Y-94083333D01*
X165023809Y-94035714D01*
X165261904Y-94035714D01*
X165357142Y-94083333D01*
X165404761Y-94130952D01*
X165452380Y-94226190D01*
X165452380Y-94464285D01*
X165404761Y-94559523D01*
X165357142Y-94607142D01*
X211952380Y-99238095D02*
X211952380Y-98619047D01*
X212333333Y-98952380D01*
X212333333Y-98809523D01*
X212380952Y-98714285D01*
X212428571Y-98666666D01*
X212523809Y-98619047D01*
X212761904Y-98619047D01*
X212857142Y-98666666D01*
X212904761Y-98714285D01*
X212952380Y-98809523D01*
X212952380Y-99095238D01*
X212904761Y-99190476D01*
X212857142Y-99238095D01*
X211952380Y-98333333D02*
X212952380Y-98000000D01*
X211952380Y-97666666D01*
X211952380Y-97428571D02*
X211952380Y-96809523D01*
X212333333Y-97142857D01*
X212333333Y-97000000D01*
X212380952Y-96904761D01*
X212428571Y-96857142D01*
X212523809Y-96809523D01*
X212761904Y-96809523D01*
X212857142Y-96857142D01*
X212904761Y-96904761D01*
X212952380Y-97000000D01*
X212952380Y-97285714D01*
X212904761Y-97380952D01*
X212857142Y-97428571D01*
D11*
%TO.C,U301*%
X116541000Y-88095000D03*
X116541000Y-89365000D03*
X116541000Y-90635000D03*
X116541000Y-91905000D03*
X121491000Y-91905000D03*
X121491000Y-90635000D03*
X121491000Y-89365000D03*
X121491000Y-88095000D03*
%TD*%
D12*
%TO.C,D404*%
X142125000Y-105500000D03*
X143875000Y-105500000D03*
%TD*%
D13*
%TO.C,JP410*%
X138775000Y-105250000D03*
D14*
X140225000Y-105250000D03*
%TD*%
D15*
%TO.C,SW402*%
X131500000Y-88000000D03*
X131500000Y-81500000D03*
X136000000Y-81500000D03*
X136000000Y-88000000D03*
%TD*%
D16*
%TO.C,Y401*%
X184150000Y-102650000D03*
X186350000Y-102650000D03*
X186350000Y-100850000D03*
X184150000Y-100850000D03*
%TD*%
D17*
%TO.C,J302*%
X215000000Y-82975000D03*
D18*
X217500000Y-82975000D03*
X220000000Y-82975000D03*
X222500000Y-82975000D03*
X225000000Y-82975000D03*
X227500000Y-82975000D03*
%TD*%
D19*
%TO.C,JP306*%
X131225000Y-103250000D03*
D20*
X129775000Y-103250000D03*
%TD*%
D21*
%TO.C,J204*%
X213475000Y-108240000D03*
D22*
X213475000Y-110780000D03*
X213475000Y-113320000D03*
X213475000Y-115860000D03*
%TD*%
D23*
%TO.C,R307*%
X230912500Y-95500000D03*
X229087500Y-95500000D03*
%TD*%
D21*
%TO.C,J408*%
X198500000Y-105650000D03*
D22*
X198500000Y-108190000D03*
X198500000Y-110730000D03*
X198500000Y-113270000D03*
X198500000Y-115810000D03*
%TD*%
D24*
%TO.C,D402*%
X203750000Y-98875000D03*
X203750000Y-97125000D03*
%TD*%
D17*
%TO.C,J301*%
X112750000Y-82914000D03*
D18*
X115250000Y-82914000D03*
X117750000Y-82914000D03*
X120250000Y-82914000D03*
X122750000Y-82914000D03*
X125250000Y-82914000D03*
%TD*%
D25*
%TO.C,D405*%
X148875000Y-105500000D03*
X147125000Y-105500000D03*
%TD*%
D26*
%TO.C,R401*%
X179587500Y-101250000D03*
X181412500Y-101250000D03*
%TD*%
D27*
%TO.C,C404*%
X139750000Y-81637500D03*
X139750000Y-83362500D03*
%TD*%
D26*
%TO.C,R415*%
X118337500Y-102500000D03*
X120162500Y-102500000D03*
%TD*%
D28*
%TO.C,C405*%
X179637500Y-109000000D03*
X181362500Y-109000000D03*
%TD*%
D26*
%TO.C,R412*%
X208087500Y-102250000D03*
X209912500Y-102250000D03*
%TD*%
D28*
%TO.C,C410*%
X233275000Y-107750000D03*
X235000000Y-107750000D03*
%TD*%
D29*
%TO.C,C302*%
X215612500Y-89811000D03*
X213887500Y-89811000D03*
%TD*%
D30*
%TO.C,C205*%
X184250000Y-92500000D03*
D31*
X181750000Y-92500000D03*
%TD*%
D26*
%TO.C,R201*%
X219087500Y-102250000D03*
X220912500Y-102250000D03*
%TD*%
D28*
%TO.C,C412*%
X156887500Y-87750000D03*
X158612500Y-87750000D03*
%TD*%
%TO.C,C303*%
X125000000Y-89365000D03*
X126725000Y-89365000D03*
%TD*%
D26*
%TO.C,R202*%
X213337500Y-102250000D03*
X215162500Y-102250000D03*
%TD*%
D29*
%TO.C,C301*%
X113475000Y-89750000D03*
X111750000Y-89750000D03*
%TD*%
D26*
%TO.C,R308*%
X229087500Y-102250000D03*
X230912500Y-102250000D03*
%TD*%
%TO.C,R416*%
X118337500Y-104750000D03*
X120162500Y-104750000D03*
%TD*%
D27*
%TO.C,C202*%
X202000000Y-81837500D03*
X202000000Y-83562500D03*
%TD*%
%TO.C,C204*%
X210566000Y-84137500D03*
X210566000Y-85862500D03*
%TD*%
D17*
%TO.C,J405*%
X154000000Y-82914000D03*
D18*
X156500000Y-82914000D03*
X159000000Y-82914000D03*
%TD*%
D32*
%TO.C,H102*%
X233802944Y-86197056D03*
X237197056Y-82802944D03*
X233802944Y-82802944D03*
D33*
X235500000Y-84500000D03*
D32*
X237197056Y-86197056D03*
X237900000Y-84500000D03*
X235500000Y-86900000D03*
X235500000Y-82100000D03*
X233100000Y-84500000D03*
%TD*%
D26*
%TO.C,R303*%
X129587500Y-99500000D03*
X131412500Y-99500000D03*
%TD*%
D34*
%TO.C,J406*%
X127000000Y-117000000D03*
D18*
X124500000Y-117000000D03*
X122000000Y-117000000D03*
X119500000Y-117000000D03*
X117000000Y-117000000D03*
X114500000Y-117000000D03*
X112000000Y-117000000D03*
%TD*%
D29*
%TO.C,C306*%
X215612500Y-88156000D03*
X213887500Y-88156000D03*
%TD*%
%TO.C,C305*%
X113475000Y-88095000D03*
X111750000Y-88095000D03*
%TD*%
D19*
%TO.C,JP309*%
X126587500Y-96000000D03*
D20*
X125137500Y-96000000D03*
%TD*%
D35*
%TO.C,J407*%
X113500000Y-102500000D03*
D36*
X113500000Y-100000000D03*
X113500000Y-97500000D03*
%TD*%
D19*
%TO.C,JP411*%
X152225000Y-105250000D03*
D20*
X150775000Y-105250000D03*
%TD*%
D37*
%TO.C,JP405*%
X188100000Y-108250000D03*
X189400000Y-108250000D03*
%TD*%
D35*
%TO.C,J410*%
X235975000Y-103750000D03*
D36*
X235975000Y-101250000D03*
X235975000Y-98750000D03*
X235975000Y-96250000D03*
%TD*%
D38*
%TO.C,JP406*%
X217750000Y-114400000D03*
X217750000Y-113100000D03*
%TD*%
D28*
%TO.C,C406*%
X179637500Y-104250000D03*
X181362500Y-104250000D03*
%TD*%
D13*
%TO.C,JP303*%
X214000000Y-91966000D03*
D14*
X215450000Y-91966000D03*
%TD*%
D39*
%TO.C,J402*%
X222000000Y-106475000D03*
D40*
X224500000Y-106475000D03*
%TD*%
D23*
%TO.C,R302*%
X126775000Y-106500000D03*
X124950000Y-106500000D03*
%TD*%
D41*
%TO.C,C409*%
X119250000Y-99362500D03*
X119250000Y-97637500D03*
%TD*%
%TO.C,C201*%
X202000000Y-88162500D03*
X202000000Y-86437500D03*
%TD*%
D26*
%TO.C,R301*%
X124950000Y-99500000D03*
X126775000Y-99500000D03*
%TD*%
D13*
%TO.C,JP201*%
X188251000Y-92583000D03*
D14*
X189701000Y-92583000D03*
%TD*%
D39*
%TO.C,J403*%
X222000000Y-114975000D03*
D40*
X224500000Y-114975000D03*
%TD*%
D39*
%TO.C,J201*%
X168750000Y-82914000D03*
D40*
X171250000Y-82914000D03*
%TD*%
D21*
%TO.C,J409*%
X164950000Y-91975000D03*
D22*
X167490000Y-91975000D03*
X170030000Y-91975000D03*
X172570000Y-91975000D03*
X175110000Y-91975000D03*
%TD*%
D19*
%TO.C,JP305*%
X126475000Y-103250000D03*
D20*
X125025000Y-103250000D03*
%TD*%
D11*
%TO.C,U302*%
X218776000Y-88156000D03*
X218776000Y-89426000D03*
X218776000Y-90696000D03*
X218776000Y-91966000D03*
X223726000Y-91966000D03*
X223726000Y-90696000D03*
X223726000Y-89426000D03*
X223726000Y-88156000D03*
%TD*%
D35*
%TO.C,J411*%
X102975000Y-102500000D03*
D36*
X102975000Y-100000000D03*
X102975000Y-97500000D03*
%TD*%
D24*
%TO.C,D203*%
X214250000Y-98875000D03*
X214250000Y-97125000D03*
%TD*%
D26*
%TO.C,R403*%
X132837500Y-90500000D03*
X134662500Y-90500000D03*
%TD*%
%TO.C,R410*%
X197587500Y-102250000D03*
X199412500Y-102250000D03*
%TD*%
D42*
%TO.C,R406*%
X218250000Y-109662500D03*
X218250000Y-107837500D03*
%TD*%
D32*
%TO.C,H104*%
X104500000Y-117900000D03*
X104500000Y-113100000D03*
X102802944Y-117197056D03*
X102802944Y-113802944D03*
X106900000Y-115500000D03*
X102100000Y-115500000D03*
D33*
X104500000Y-115500000D03*
D32*
X106197056Y-117197056D03*
X106197056Y-113802944D03*
%TD*%
D23*
%TO.C,R413*%
X143912500Y-107250000D03*
X142087500Y-107250000D03*
%TD*%
D26*
%TO.C,R409*%
X151837500Y-87750000D03*
X153662500Y-87750000D03*
%TD*%
D43*
%TO.C,U401*%
X175675000Y-107750000D03*
X175675000Y-107250000D03*
X175675000Y-106750000D03*
X175675000Y-106250000D03*
X175675000Y-105750000D03*
X175675000Y-105250000D03*
X175675000Y-104750000D03*
X175675000Y-104250000D03*
X175675000Y-103750000D03*
X175675000Y-103250000D03*
X175675000Y-102750000D03*
X175675000Y-102250000D03*
X175675000Y-101750000D03*
X175675000Y-101250000D03*
X175675000Y-100750000D03*
X175675000Y-100250000D03*
D44*
X173750000Y-98325000D03*
X173250000Y-98325000D03*
X172750000Y-98325000D03*
X172250000Y-98325000D03*
X171750000Y-98325000D03*
X171250000Y-98325000D03*
X170750000Y-98325000D03*
X170250000Y-98325000D03*
X169750000Y-98325000D03*
X169250000Y-98325000D03*
X168750000Y-98325000D03*
X168250000Y-98325000D03*
X167750000Y-98325000D03*
X167250000Y-98325000D03*
X166750000Y-98325000D03*
X166250000Y-98325000D03*
D43*
X164325000Y-100250000D03*
X164325000Y-100750000D03*
X164325000Y-101250000D03*
X164325000Y-101750000D03*
X164325000Y-102250000D03*
X164325000Y-102750000D03*
X164325000Y-103250000D03*
X164325000Y-103750000D03*
X164325000Y-104250000D03*
X164325000Y-104750000D03*
X164325000Y-105250000D03*
X164325000Y-105750000D03*
X164325000Y-106250000D03*
X164325000Y-106750000D03*
X164325000Y-107250000D03*
X164325000Y-107750000D03*
D44*
X166250000Y-109675000D03*
X166750000Y-109675000D03*
X167250000Y-109675000D03*
X167750000Y-109675000D03*
X168250000Y-109675000D03*
X168750000Y-109675000D03*
X169250000Y-109675000D03*
X169750000Y-109675000D03*
X170250000Y-109675000D03*
X170750000Y-109675000D03*
X171250000Y-109675000D03*
X171750000Y-109675000D03*
X172250000Y-109675000D03*
X172750000Y-109675000D03*
X173250000Y-109675000D03*
X173750000Y-109675000D03*
%TD*%
D12*
%TO.C,D201*%
X198125000Y-90000000D03*
X199875000Y-90000000D03*
%TD*%
D24*
%TO.C,D403*%
X209000000Y-98875000D03*
X209000000Y-97125000D03*
%TD*%
D42*
%TO.C,R407*%
X228250000Y-118162500D03*
X228250000Y-116337500D03*
%TD*%
D23*
%TO.C,R304*%
X131412500Y-106500000D03*
X129587500Y-106500000D03*
%TD*%
D38*
%TO.C,JP407*%
X228750000Y-114400000D03*
X228750000Y-113100000D03*
%TD*%
D19*
%TO.C,JP304*%
X228475000Y-91966000D03*
D20*
X227025000Y-91966000D03*
%TD*%
D26*
%TO.C,R411*%
X202837500Y-102250000D03*
X204662500Y-102250000D03*
%TD*%
D19*
%TO.C,JP302*%
X126587500Y-91905000D03*
D20*
X125137500Y-91905000D03*
%TD*%
D45*
%TO.C,F201*%
X187512500Y-90000000D03*
X190487500Y-90000000D03*
%TD*%
D38*
%TO.C,JP409*%
X228750000Y-105900000D03*
X228750000Y-104600000D03*
%TD*%
D46*
%TO.C,U202*%
X204390000Y-84050000D03*
X204390000Y-85000000D03*
X204390000Y-85950000D03*
X207090000Y-85950000D03*
X207090000Y-84050000D03*
%TD*%
D26*
%TO.C,R306*%
X224500000Y-102250000D03*
X226325000Y-102250000D03*
%TD*%
D13*
%TO.C,JP307*%
X224600000Y-98750000D03*
D14*
X226050000Y-98750000D03*
%TD*%
D28*
%TO.C,C203*%
X204887500Y-89000000D03*
X206612500Y-89000000D03*
%TD*%
D47*
%TO.C,R404*%
X139750000Y-86087500D03*
X139750000Y-87912500D03*
%TD*%
D32*
%TO.C,H103*%
X233802944Y-113802944D03*
X237900000Y-115500000D03*
X237197056Y-113802944D03*
X233802944Y-117197056D03*
X237197056Y-117197056D03*
X235500000Y-113100000D03*
D33*
X235500000Y-115500000D03*
D32*
X233100000Y-115500000D03*
X235500000Y-117900000D03*
%TD*%
D48*
%TO.C,SW201*%
X187700000Y-85000000D03*
X183000000Y-85000000D03*
X178300000Y-85000000D03*
%TD*%
D37*
%TO.C,JP401*%
X138850000Y-102560000D03*
X140150000Y-102560000D03*
%TD*%
D15*
%TO.C,SW401*%
X143250000Y-88000000D03*
X143250000Y-81500000D03*
X147750000Y-88000000D03*
X147750000Y-81500000D03*
%TD*%
D49*
%TO.C,J401*%
X143550000Y-94940000D03*
X147450000Y-94940000D03*
X143550000Y-96210000D03*
X147450000Y-96210000D03*
X143550000Y-97480000D03*
X147450000Y-97480000D03*
X143550000Y-98750000D03*
X147450000Y-98750000D03*
X143550000Y-100020000D03*
X147450000Y-100020000D03*
X143550000Y-101290000D03*
X147450000Y-101290000D03*
X143550000Y-102560000D03*
X147450000Y-102560000D03*
%TD*%
D32*
%TO.C,H101*%
X106197056Y-86197056D03*
X102802944Y-86197056D03*
X104500000Y-86900000D03*
X106197056Y-82802944D03*
X102802944Y-82802944D03*
D33*
X104500000Y-84500000D03*
D32*
X102100000Y-84500000D03*
X106900000Y-84500000D03*
X104500000Y-82100000D03*
%TD*%
D28*
%TO.C,C401*%
X179637500Y-99750000D03*
X181362500Y-99750000D03*
%TD*%
D26*
%TO.C,R417*%
X107837500Y-102500000D03*
X109662500Y-102500000D03*
%TD*%
D41*
%TO.C,C411*%
X108750000Y-99362500D03*
X108750000Y-97637500D03*
%TD*%
D28*
%TO.C,C304*%
X226887500Y-89426000D03*
X228612500Y-89426000D03*
%TD*%
D37*
%TO.C,JP403*%
X133100000Y-94000000D03*
X134400000Y-94000000D03*
%TD*%
D34*
%TO.C,J412*%
X174000000Y-117025000D03*
D18*
X171500000Y-117025000D03*
X169000000Y-117025000D03*
X166500000Y-117025000D03*
X164000000Y-117025000D03*
X161500000Y-117025000D03*
X159000000Y-117025000D03*
%TD*%
D37*
%TO.C,JP404*%
X181150000Y-112000000D03*
X179850000Y-112000000D03*
%TD*%
D25*
%TO.C,L401*%
X189625000Y-106250000D03*
X187875000Y-106250000D03*
%TD*%
D28*
%TO.C,C407*%
X179637500Y-107500000D03*
X181362500Y-107500000D03*
%TD*%
D13*
%TO.C,JP308*%
X229275000Y-98750000D03*
D14*
X230725000Y-98750000D03*
%TD*%
D34*
%TO.C,J404*%
X150500000Y-117025000D03*
D18*
X148000000Y-117025000D03*
X145500000Y-117025000D03*
X143000000Y-117025000D03*
X140500000Y-117025000D03*
X138000000Y-117025000D03*
X135500000Y-117025000D03*
%TD*%
D21*
%TO.C,J202*%
X203475000Y-108200000D03*
D22*
X203475000Y-110740000D03*
X203475000Y-113280000D03*
X203475000Y-115820000D03*
%TD*%
D28*
%TO.C,C408*%
X179637500Y-105750000D03*
X181362500Y-105750000D03*
%TD*%
D24*
%TO.C,D401*%
X198500000Y-98875000D03*
X198500000Y-97125000D03*
%TD*%
D42*
%TO.C,R405*%
X228250000Y-109662500D03*
X228250000Y-107837500D03*
%TD*%
D50*
%TO.C,U201*%
X198150000Y-87300000D03*
X198150000Y-85000000D03*
X198150000Y-82700000D03*
D51*
X191850000Y-85000000D03*
%TD*%
D37*
%TO.C,JP402*%
X152150000Y-102560000D03*
X150850000Y-102560000D03*
%TD*%
D26*
%TO.C,R418*%
X107837500Y-104750000D03*
X109662500Y-104750000D03*
%TD*%
D13*
%TO.C,JP310*%
X214025000Y-94500000D03*
D14*
X215475000Y-94500000D03*
%TD*%
D42*
%TO.C,R408*%
X218250000Y-118162500D03*
X218250000Y-116337500D03*
%TD*%
D23*
%TO.C,R305*%
X226325000Y-95500000D03*
X224500000Y-95500000D03*
%TD*%
D41*
%TO.C,C403*%
X188750000Y-104362500D03*
X188750000Y-102637500D03*
%TD*%
D26*
%TO.C,R414*%
X147087500Y-107250000D03*
X148912500Y-107250000D03*
%TD*%
D13*
%TO.C,JP301*%
X111887500Y-91905000D03*
D14*
X113337500Y-91905000D03*
%TD*%
D38*
%TO.C,JP408*%
X217750000Y-105900000D03*
X217750000Y-104600000D03*
%TD*%
D41*
%TO.C,C402*%
X188750000Y-100862500D03*
X188750000Y-99137500D03*
%TD*%
D21*
%TO.C,J203*%
X208475000Y-108200000D03*
D22*
X208475000Y-110740000D03*
X208475000Y-113280000D03*
X208475000Y-115820000D03*
%TD*%
D24*
%TO.C,D202*%
X220000000Y-98875000D03*
X220000000Y-97125000D03*
%TD*%
M02*
